%TF.GenerationSoftware,KiCad,Pcbnew,(6.0.9-0)*%
%TF.CreationDate,2023-03-02T20:06:06+01:00*%
%TF.ProjectId,Dolgoza,446f6c67-6f7a-4612-9e6b-696361645f70,rev?*%
%TF.SameCoordinates,Original*%
%TF.FileFunction,Soldermask,Bot*%
%TF.FilePolarity,Negative*%
%FSLAX46Y46*%
G04 Gerber Fmt 4.6, Leading zero omitted, Abs format (unit mm)*
G04 Created by KiCad (PCBNEW (6.0.9-0)) date 2023-03-02 20:06:06*
%MOMM*%
%LPD*%
G01*
G04 APERTURE LIST*
%ADD10C,2.000000*%
%ADD11R,1.700000X1.700000*%
%ADD12O,1.700000X1.700000*%
%ADD13R,2.000000X1.905000*%
%ADD14O,2.000000X1.905000*%
%ADD15R,3.000000X3.000000*%
%ADD16C,3.000000*%
%ADD17C,5.600000*%
%ADD18O,2.200000X2.200000*%
%ADD19R,2.200000X2.200000*%
%ADD20R,2.400000X2.400000*%
%ADD21O,2.400000X2.400000*%
%ADD22R,1.600000X1.600000*%
%ADD23O,1.600000X1.600000*%
G04 APERTURE END LIST*
D10*
%TO.C,SW2*%
X131550000Y-60500000D03*
X138050000Y-60500000D03*
X131550000Y-56000000D03*
X138050000Y-56000000D03*
%TD*%
%TO.C,SW1*%
X121000000Y-60500000D03*
X127500000Y-60500000D03*
X121000000Y-56000000D03*
X127500000Y-56000000D03*
%TD*%
D11*
%TO.C,U1*%
X100800000Y-103200000D03*
D12*
X103340000Y-103200000D03*
X105880000Y-103200000D03*
%TD*%
D11*
%TO.C,TH1*%
X86000000Y-103000000D03*
D12*
X83460000Y-103000000D03*
%TD*%
D13*
%TO.C,Q1*%
X151100000Y-93500000D03*
D14*
X151100000Y-90960000D03*
X151100000Y-88420000D03*
%TD*%
D15*
%TO.C,J3*%
X170600000Y-92840000D03*
D16*
X170600000Y-87760000D03*
%TD*%
D11*
%TO.C,J2*%
X77300000Y-55300000D03*
D12*
X77300000Y-57840000D03*
X77300000Y-60380000D03*
X77300000Y-62920000D03*
%TD*%
D16*
%TO.C,J1*%
X170200000Y-65220000D03*
D15*
X170200000Y-70300000D03*
%TD*%
D17*
%TO.C,H4*%
X72000000Y-102000000D03*
%TD*%
%TO.C,H3*%
X174000000Y-102000000D03*
%TD*%
%TO.C,H2*%
X174000000Y-56000000D03*
%TD*%
%TO.C,H1*%
X72000000Y-56000000D03*
%TD*%
D18*
%TO.C,D3*%
X161300000Y-85920000D03*
D19*
X161300000Y-96080000D03*
%TD*%
%TO.C,D2*%
X147880000Y-75820000D03*
D18*
X147880000Y-65660000D03*
%TD*%
D20*
%TO.C,D1*%
X163500000Y-76600000D03*
D21*
X163500000Y-63900000D03*
%TD*%
D22*
%TO.C,A1*%
X111000000Y-76000000D03*
D23*
X108460000Y-76000000D03*
X105920000Y-76000000D03*
X103380000Y-76000000D03*
X100840000Y-76000000D03*
X98300000Y-76000000D03*
X95760000Y-76000000D03*
X93220000Y-76000000D03*
X90680000Y-76000000D03*
X88140000Y-76000000D03*
X85600000Y-76000000D03*
X83060000Y-76000000D03*
X80520000Y-76000000D03*
X77980000Y-76000000D03*
X75440000Y-76000000D03*
X75440000Y-91240000D03*
X77980000Y-91240000D03*
X80520000Y-91240000D03*
X83060000Y-91240000D03*
X85600000Y-91240000D03*
X88140000Y-91240000D03*
X90680000Y-91240000D03*
X93220000Y-91240000D03*
X95760000Y-91240000D03*
X98300000Y-91240000D03*
X100840000Y-91240000D03*
X103380000Y-91240000D03*
X105920000Y-91240000D03*
X108460000Y-91240000D03*
X111000000Y-91240000D03*
%TD*%
M02*
