%TF.GenerationSoftware,KiCad,Pcbnew,(6.0.9-0)*%
%TF.CreationDate,2023-03-02T20:06:06+01:00*%
%TF.ProjectId,Dolgoza,446f6c67-6f7a-4612-9e6b-696361645f70,rev?*%
%TF.SameCoordinates,Original*%
%TF.FileFunction,Copper,L2,Bot*%
%TF.FilePolarity,Positive*%
%FSLAX46Y46*%
G04 Gerber Fmt 4.6, Leading zero omitted, Abs format (unit mm)*
G04 Created by KiCad (PCBNEW (6.0.9-0)) date 2023-03-02 20:06:06*
%MOMM*%
%LPD*%
G01*
G04 APERTURE LIST*
%TA.AperFunction,ComponentPad*%
%ADD10C,2.000000*%
%TD*%
%TA.AperFunction,ComponentPad*%
%ADD11R,1.700000X1.700000*%
%TD*%
%TA.AperFunction,ComponentPad*%
%ADD12O,1.700000X1.700000*%
%TD*%
%TA.AperFunction,ComponentPad*%
%ADD13R,2.000000X1.905000*%
%TD*%
%TA.AperFunction,ComponentPad*%
%ADD14O,2.000000X1.905000*%
%TD*%
%TA.AperFunction,ComponentPad*%
%ADD15R,3.000000X3.000000*%
%TD*%
%TA.AperFunction,ComponentPad*%
%ADD16C,3.000000*%
%TD*%
%TA.AperFunction,ComponentPad*%
%ADD17C,5.600000*%
%TD*%
%TA.AperFunction,ComponentPad*%
%ADD18O,2.200000X2.200000*%
%TD*%
%TA.AperFunction,ComponentPad*%
%ADD19R,2.200000X2.200000*%
%TD*%
%TA.AperFunction,ComponentPad*%
%ADD20R,2.400000X2.400000*%
%TD*%
%TA.AperFunction,ComponentPad*%
%ADD21O,2.400000X2.400000*%
%TD*%
%TA.AperFunction,ComponentPad*%
%ADD22R,1.600000X1.600000*%
%TD*%
%TA.AperFunction,ComponentPad*%
%ADD23O,1.600000X1.600000*%
%TD*%
%TA.AperFunction,ViaPad*%
%ADD24C,0.800000*%
%TD*%
%TA.AperFunction,Conductor*%
%ADD25C,0.310000*%
%TD*%
%TA.AperFunction,Conductor*%
%ADD26C,1.400000*%
%TD*%
G04 APERTURE END LIST*
D10*
%TO.P,SW2,2,2*%
%TO.N,/DN_SW*%
X131550000Y-60500000D03*
X138050000Y-60500000D03*
%TO.P,SW2,1,1*%
%TO.N,+5V*%
X131550000Y-56000000D03*
X138050000Y-56000000D03*
%TD*%
%TO.P,SW1,2,2*%
%TO.N,/UP_SW*%
X121000000Y-60500000D03*
X127500000Y-60500000D03*
%TO.P,SW1,1,1*%
%TO.N,+5V*%
X121000000Y-56000000D03*
X127500000Y-56000000D03*
%TD*%
D11*
%TO.P,U1,1,V+*%
%TO.N,+5V*%
X100800000Y-103200000D03*
D12*
%TO.P,U1,2,Signal*%
%TO.N,TEMP_DATA0*%
X103340000Y-103200000D03*
%TO.P,U1,3,GND*%
%TO.N,GND*%
X105880000Y-103200000D03*
%TD*%
D11*
%TO.P,TH1,1*%
%TO.N,TEMP_DATA*%
X86000000Y-103000000D03*
D12*
%TO.P,TH1,2*%
%TO.N,+5V*%
X83460000Y-103000000D03*
%TD*%
D13*
%TO.P,Q1,1,G*%
%TO.N,GATE*%
X151100000Y-93500000D03*
D14*
%TO.P,Q1,2,D*%
%TO.N,Net-(C3-Pad2)*%
X151100000Y-90960000D03*
%TO.P,Q1,3,S*%
%TO.N,GND*%
X151100000Y-88420000D03*
%TD*%
D15*
%TO.P,J3,1,Pin_1*%
%TO.N,VCC*%
X170600000Y-92840000D03*
D16*
%TO.P,J3,2,Pin_2*%
%TO.N,Net-(C3-Pad2)*%
X170600000Y-87760000D03*
%TD*%
D11*
%TO.P,J2,1,Pin_1*%
%TO.N,/SDA_OLED*%
X77300000Y-55300000D03*
D12*
%TO.P,J2,2,Pin_2*%
%TO.N,/SCL_OLED*%
X77300000Y-57840000D03*
%TO.P,J2,3,Pin_3*%
%TO.N,+5V*%
X77300000Y-60380000D03*
%TO.P,J2,4,Pin_4*%
%TO.N,GND*%
X77300000Y-62920000D03*
%TD*%
D16*
%TO.P,J1,2,Pin_2*%
%TO.N,VCC*%
X170200000Y-65220000D03*
D15*
%TO.P,J1,1,Pin_1*%
%TO.N,GND*%
X170200000Y-70300000D03*
%TD*%
D17*
%TO.P,H4,1,1*%
%TO.N,GND*%
X72000000Y-102000000D03*
%TD*%
%TO.P,H3,1,1*%
%TO.N,GND*%
X174000000Y-102000000D03*
%TD*%
%TO.P,H2,1,1*%
%TO.N,GND*%
X174000000Y-56000000D03*
%TD*%
%TO.P,H1,1,1*%
%TO.N,GND*%
X72000000Y-56000000D03*
%TD*%
D18*
%TO.P,D3,2,A*%
%TO.N,Net-(C3-Pad2)*%
X161300000Y-85920000D03*
D19*
%TO.P,D3,1,K*%
%TO.N,VCC*%
X161300000Y-96080000D03*
%TD*%
%TO.P,D2,1,K*%
%TO.N,VD*%
X147880000Y-75820000D03*
D18*
%TO.P,D2,2,A*%
%TO.N,VCC*%
X147880000Y-65660000D03*
%TD*%
D20*
%TO.P,D1,1,A1*%
%TO.N,GND*%
X163500000Y-76600000D03*
D21*
%TO.P,D1,2,A2*%
%TO.N,VCC*%
X163500000Y-63900000D03*
%TD*%
D22*
%TO.P,A1,1,D1/TX*%
%TO.N,unconnected-(A1-Pad1)*%
X111000000Y-76000000D03*
D23*
%TO.P,A1,2,D0/RX*%
%TO.N,unconnected-(A1-Pad2)*%
X108460000Y-76000000D03*
%TO.P,A1,3,~{RESET}*%
%TO.N,unconnected-(A1-Pad3)*%
X105920000Y-76000000D03*
%TO.P,A1,4,GND*%
%TO.N,GND*%
X103380000Y-76000000D03*
%TO.P,A1,5,D2*%
%TO.N,unconnected-(A1-Pad5)*%
X100840000Y-76000000D03*
%TO.P,A1,6,D3*%
%TO.N,GATE*%
X98300000Y-76000000D03*
%TO.P,A1,7,D4*%
%TO.N,unconnected-(A1-Pad7)*%
X95760000Y-76000000D03*
%TO.P,A1,8,D5*%
%TO.N,/UP_SW*%
X93220000Y-76000000D03*
%TO.P,A1,9,D6*%
%TO.N,/DN_SW*%
X90680000Y-76000000D03*
%TO.P,A1,10,D7*%
%TO.N,unconnected-(A1-Pad10)*%
X88140000Y-76000000D03*
%TO.P,A1,11,D8*%
%TO.N,unconnected-(A1-Pad11)*%
X85600000Y-76000000D03*
%TO.P,A1,12,D9*%
%TO.N,unconnected-(A1-Pad12)*%
X83060000Y-76000000D03*
%TO.P,A1,13,D10*%
%TO.N,unconnected-(A1-Pad13)*%
X80520000Y-76000000D03*
%TO.P,A1,14,D11*%
%TO.N,unconnected-(A1-Pad14)*%
X77980000Y-76000000D03*
%TO.P,A1,15,D12*%
%TO.N,unconnected-(A1-Pad15)*%
X75440000Y-76000000D03*
%TO.P,A1,16,D13*%
%TO.N,unconnected-(A1-Pad16)*%
X75440000Y-91240000D03*
%TO.P,A1,17,3V3*%
%TO.N,unconnected-(A1-Pad17)*%
X77980000Y-91240000D03*
%TO.P,A1,18,AREF*%
%TO.N,unconnected-(A1-Pad18)*%
X80520000Y-91240000D03*
%TO.P,A1,19,A0*%
%TO.N,unconnected-(A1-Pad19)*%
X83060000Y-91240000D03*
%TO.P,A1,20,A1*%
%TO.N,TEMP_DATA0*%
X85600000Y-91240000D03*
%TO.P,A1,21,A2*%
%TO.N,TEMP_DATA*%
X88140000Y-91240000D03*
%TO.P,A1,22,A3*%
%TO.N,unconnected-(A1-Pad22)*%
X90680000Y-91240000D03*
%TO.P,A1,23,A4*%
%TO.N,/SDA_OLED*%
X93220000Y-91240000D03*
%TO.P,A1,24,A5*%
%TO.N,/SCL_OLED*%
X95760000Y-91240000D03*
%TO.P,A1,25,A6*%
%TO.N,unconnected-(A1-Pad25)*%
X98300000Y-91240000D03*
%TO.P,A1,26,A7*%
%TO.N,V_DIV*%
X100840000Y-91240000D03*
%TO.P,A1,27,+5V*%
%TO.N,+5V*%
X103380000Y-91240000D03*
%TO.P,A1,28,~{RESET}*%
%TO.N,unconnected-(A1-Pad28)*%
X105920000Y-91240000D03*
%TO.P,A1,29,GND*%
%TO.N,GND*%
X108460000Y-91240000D03*
%TO.P,A1,30,VIN*%
%TO.N,VD*%
X111000000Y-91240000D03*
%TD*%
D24*
%TO.N,GND*%
X96800000Y-57600000D03*
X70700000Y-88100000D03*
X127300000Y-102800000D03*
%TO.N,V_DIV*%
X140700000Y-89400000D03*
%TD*%
D25*
%TO.N,V_DIV*%
X100840000Y-91240000D02*
X105100000Y-95500000D01*
X134600000Y-95500000D02*
X140700000Y-89400000D01*
X105100000Y-95500000D02*
X134600000Y-95500000D01*
D26*
%TO.N,VD*%
X111000000Y-91240000D02*
X132460000Y-91240000D01*
X132460000Y-91240000D02*
X147880000Y-75820000D01*
D25*
%TO.N,+5V*%
X138050000Y-56000000D02*
X131550000Y-56000000D01*
X127500000Y-56000000D02*
X121000000Y-56000000D01*
X131550000Y-56000000D02*
X127500000Y-56000000D01*
X114000000Y-63000000D02*
X114000000Y-79000000D01*
X121000000Y-56000000D02*
X114000000Y-63000000D01*
X114000000Y-79000000D02*
X103380000Y-89620000D01*
X103380000Y-89620000D02*
X103380000Y-91240000D01*
D26*
%TO.N,VCC*%
X163500000Y-63900000D02*
X163500000Y-69900000D01*
X163500000Y-69900000D02*
X167200000Y-73600000D01*
X167200000Y-89440000D02*
X170600000Y-92840000D01*
X167200000Y-73600000D02*
X167200000Y-89440000D01*
D25*
%TO.N,TEMP_DATA0*%
X99640000Y-99500000D02*
X86300000Y-99500000D01*
X103340000Y-103200000D02*
X99640000Y-99500000D01*
X86300000Y-99500000D02*
X85600000Y-98800000D01*
X85600000Y-98800000D02*
X85600000Y-91240000D01*
%TO.N,/SCL_OLED*%
X77300000Y-57840000D02*
X71500000Y-63640000D01*
X71500000Y-63640000D02*
X71500000Y-84000000D01*
X71500000Y-84000000D02*
X76200000Y-88700000D01*
X76200000Y-88700000D02*
X93220000Y-88700000D01*
X93220000Y-88700000D02*
X95760000Y-91240000D01*
%TD*%
%TA.AperFunction,Conductor*%
%TO.N,GND*%
G36*
X71383879Y-52528502D02*
G01*
X71430372Y-52582158D01*
X71440476Y-52652432D01*
X71410982Y-52717012D01*
X71351256Y-52755396D01*
X71342600Y-52757608D01*
X71123586Y-52805361D01*
X71117011Y-52807172D01*
X70783683Y-52918702D01*
X70777361Y-52921205D01*
X70458034Y-53068079D01*
X70451991Y-53071265D01*
X70150401Y-53251763D01*
X70144755Y-53255571D01*
X69864408Y-53467596D01*
X69859211Y-53471987D01*
X69857972Y-53473155D01*
X69849950Y-53486862D01*
X69849986Y-53487704D01*
X69855037Y-53495826D01*
X71987190Y-55627980D01*
X72001131Y-55635592D01*
X72002966Y-55635461D01*
X72009580Y-55631210D01*
X74142798Y-53497991D01*
X74150412Y-53484047D01*
X74150344Y-53483089D01*
X74145836Y-53476272D01*
X74144418Y-53475065D01*
X73864813Y-53262064D01*
X73859187Y-53258240D01*
X73558214Y-53076681D01*
X73552202Y-53073484D01*
X73233370Y-52925487D01*
X73227070Y-52922967D01*
X72894129Y-52810273D01*
X72887551Y-52808437D01*
X72657846Y-52757513D01*
X72595669Y-52723241D01*
X72561891Y-52660795D01*
X72567237Y-52590000D01*
X72610009Y-52533333D01*
X72676627Y-52508786D01*
X72685117Y-52508500D01*
X173315758Y-52508500D01*
X173383879Y-52528502D01*
X173430372Y-52582158D01*
X173440476Y-52652432D01*
X173410982Y-52717012D01*
X173351256Y-52755396D01*
X173342600Y-52757608D01*
X173123586Y-52805361D01*
X173117011Y-52807172D01*
X172783683Y-52918702D01*
X172777361Y-52921205D01*
X172458034Y-53068079D01*
X172451991Y-53071265D01*
X172150401Y-53251763D01*
X172144755Y-53255571D01*
X171864408Y-53467596D01*
X171859211Y-53471987D01*
X171857972Y-53473155D01*
X171849950Y-53486862D01*
X171849986Y-53487704D01*
X171855037Y-53495826D01*
X173987190Y-55627980D01*
X174001131Y-55635592D01*
X174002966Y-55635461D01*
X174009580Y-55631210D01*
X176142798Y-53497991D01*
X176150412Y-53484047D01*
X176150344Y-53483089D01*
X176145836Y-53476272D01*
X176144418Y-53475065D01*
X175864813Y-53262064D01*
X175859187Y-53258240D01*
X175558214Y-53076681D01*
X175552202Y-53073484D01*
X175233370Y-52925487D01*
X175227070Y-52922967D01*
X174894129Y-52810273D01*
X174887551Y-52808437D01*
X174657846Y-52757513D01*
X174595669Y-52723241D01*
X174561891Y-52660795D01*
X174567237Y-52590000D01*
X174610009Y-52533333D01*
X174676627Y-52508786D01*
X174685117Y-52508500D01*
X177365500Y-52508500D01*
X177433621Y-52528502D01*
X177480114Y-52582158D01*
X177491500Y-52634500D01*
X177491500Y-55302313D01*
X177471498Y-55370434D01*
X177417842Y-55416927D01*
X177347568Y-55427031D01*
X177282988Y-55397537D01*
X177244604Y-55337811D01*
X177241156Y-55322675D01*
X177236130Y-55291985D01*
X177234663Y-55285313D01*
X177140736Y-54946627D01*
X177138562Y-54940163D01*
X177008598Y-54613578D01*
X177005742Y-54607398D01*
X176841269Y-54296763D01*
X176837769Y-54290937D01*
X176640697Y-53999862D01*
X176636590Y-53994453D01*
X176523565Y-53861179D01*
X176510740Y-53852743D01*
X176500416Y-53858795D01*
X174372020Y-55987190D01*
X174364408Y-56001131D01*
X174364539Y-56002966D01*
X174368790Y-56009580D01*
X176499009Y-58139798D01*
X176512605Y-58147223D01*
X176522218Y-58140522D01*
X176622518Y-58023912D01*
X176626676Y-58018514D01*
X176825762Y-57728840D01*
X176829310Y-57723029D01*
X176995942Y-57413559D01*
X176998849Y-57407381D01*
X177131090Y-57081713D01*
X177133304Y-57075283D01*
X177229598Y-56737237D01*
X177231105Y-56730607D01*
X177241301Y-56670958D01*
X177272495Y-56607182D01*
X177333217Y-56570394D01*
X177404189Y-56572275D01*
X177462877Y-56612227D01*
X177490649Y-56677567D01*
X177491500Y-56692188D01*
X177491500Y-101302313D01*
X177471498Y-101370434D01*
X177417842Y-101416927D01*
X177347568Y-101427031D01*
X177282988Y-101397537D01*
X177244604Y-101337811D01*
X177241156Y-101322675D01*
X177236130Y-101291985D01*
X177234663Y-101285313D01*
X177140736Y-100946627D01*
X177138562Y-100940163D01*
X177008598Y-100613578D01*
X177005742Y-100607398D01*
X176841269Y-100296763D01*
X176837769Y-100290937D01*
X176640697Y-99999862D01*
X176636590Y-99994453D01*
X176523565Y-99861179D01*
X176510740Y-99852743D01*
X176500416Y-99858795D01*
X174372020Y-101987190D01*
X174364408Y-102001131D01*
X174364539Y-102002966D01*
X174368790Y-102009580D01*
X176499009Y-104139798D01*
X176512605Y-104147223D01*
X176522218Y-104140522D01*
X176622518Y-104023912D01*
X176626676Y-104018514D01*
X176825762Y-103728840D01*
X176829310Y-103723029D01*
X176995942Y-103413559D01*
X176998849Y-103407381D01*
X177131090Y-103081713D01*
X177133304Y-103075283D01*
X177229598Y-102737237D01*
X177231105Y-102730607D01*
X177241301Y-102670958D01*
X177272495Y-102607182D01*
X177333217Y-102570394D01*
X177404189Y-102572275D01*
X177462877Y-102612227D01*
X177490649Y-102677567D01*
X177491500Y-102692188D01*
X177491500Y-106365500D01*
X177471498Y-106433621D01*
X177417842Y-106480114D01*
X177365500Y-106491500D01*
X68634500Y-106491500D01*
X68566379Y-106471498D01*
X68519886Y-106417842D01*
X68508500Y-106365500D01*
X68508500Y-104516381D01*
X69849160Y-104516381D01*
X69849237Y-104517470D01*
X69851698Y-104521206D01*
X70125632Y-104731404D01*
X70131262Y-104735259D01*
X70431591Y-104917862D01*
X70437593Y-104921080D01*
X70755897Y-105070184D01*
X70762202Y-105072732D01*
X71094743Y-105186587D01*
X71101313Y-105188446D01*
X71444183Y-105265714D01*
X71450912Y-105266853D01*
X71800143Y-105306643D01*
X71806933Y-105307046D01*
X72158419Y-105308886D01*
X72165220Y-105308554D01*
X72514853Y-105272423D01*
X72521581Y-105271357D01*
X72865274Y-105197676D01*
X72871822Y-105195897D01*
X73205549Y-105085527D01*
X73211891Y-105083041D01*
X73531718Y-104937288D01*
X73537777Y-104934121D01*
X73839995Y-104754676D01*
X73845659Y-104750884D01*
X74126732Y-104539849D01*
X74131958Y-104535464D01*
X74141613Y-104526428D01*
X74149682Y-104512750D01*
X74149654Y-104512024D01*
X74144512Y-104503723D01*
X72012810Y-102372020D01*
X71998869Y-102364408D01*
X71997034Y-102364539D01*
X71990420Y-102368790D01*
X69856774Y-104502437D01*
X69849160Y-104516381D01*
X68508500Y-104516381D01*
X68508500Y-102701007D01*
X68528502Y-102632886D01*
X68582158Y-102586393D01*
X68652432Y-102576289D01*
X68717012Y-102605783D01*
X68755396Y-102665509D01*
X68758914Y-102681079D01*
X68761420Y-102696723D01*
X68762859Y-102703378D01*
X68855608Y-103042410D01*
X68857757Y-103048871D01*
X68986581Y-103375912D01*
X68989412Y-103382095D01*
X69152803Y-103693310D01*
X69156286Y-103699152D01*
X69352330Y-103990896D01*
X69356433Y-103996340D01*
X69476425Y-104138836D01*
X69489164Y-104147279D01*
X69499608Y-104141181D01*
X71627980Y-102012810D01*
X71634357Y-102001131D01*
X72364408Y-102001131D01*
X72364539Y-102002966D01*
X72368790Y-102009580D01*
X74499009Y-104139798D01*
X74512605Y-104147223D01*
X74522218Y-104140522D01*
X74622518Y-104023912D01*
X74626676Y-104018514D01*
X74825762Y-103728840D01*
X74829310Y-103723029D01*
X74995942Y-103413559D01*
X74998849Y-103407381D01*
X75131090Y-103081713D01*
X75133304Y-103075283D01*
X75164236Y-102966695D01*
X82097251Y-102966695D01*
X82097548Y-102971848D01*
X82097548Y-102971851D01*
X82101989Y-103048871D01*
X82110110Y-103189715D01*
X82111247Y-103194761D01*
X82111248Y-103194767D01*
X82127435Y-103266590D01*
X82159222Y-103407639D01*
X82243266Y-103614616D01*
X82359987Y-103805088D01*
X82506250Y-103973938D01*
X82678126Y-104116632D01*
X82871000Y-104229338D01*
X82875825Y-104231180D01*
X82875826Y-104231181D01*
X82948612Y-104258975D01*
X83079692Y-104309030D01*
X83084760Y-104310061D01*
X83084763Y-104310062D01*
X83192017Y-104331883D01*
X83298597Y-104353567D01*
X83303772Y-104353757D01*
X83303774Y-104353757D01*
X83516673Y-104361564D01*
X83516677Y-104361564D01*
X83521837Y-104361753D01*
X83526957Y-104361097D01*
X83526959Y-104361097D01*
X83738288Y-104334025D01*
X83738289Y-104334025D01*
X83743416Y-104333368D01*
X83748366Y-104331883D01*
X83952429Y-104270661D01*
X83952434Y-104270659D01*
X83957384Y-104269174D01*
X84157994Y-104170896D01*
X84339860Y-104041173D01*
X84448091Y-103933319D01*
X84510462Y-103899404D01*
X84581268Y-103904592D01*
X84638030Y-103947238D01*
X84655012Y-103978341D01*
X84699385Y-104096705D01*
X84786739Y-104213261D01*
X84903295Y-104300615D01*
X85039684Y-104351745D01*
X85101866Y-104358500D01*
X86898134Y-104358500D01*
X86960316Y-104351745D01*
X87096705Y-104300615D01*
X87213261Y-104213261D01*
X87300615Y-104096705D01*
X87351745Y-103960316D01*
X87358500Y-103898134D01*
X87358500Y-102101866D01*
X87351745Y-102039684D01*
X87300615Y-101903295D01*
X87213261Y-101786739D01*
X87096705Y-101699385D01*
X86960316Y-101648255D01*
X86898134Y-101641500D01*
X85101866Y-101641500D01*
X85039684Y-101648255D01*
X84903295Y-101699385D01*
X84786739Y-101786739D01*
X84699385Y-101903295D01*
X84696233Y-101911703D01*
X84654919Y-102021907D01*
X84612277Y-102078671D01*
X84545716Y-102103371D01*
X84476367Y-102088163D01*
X84443743Y-102062476D01*
X84393151Y-102006875D01*
X84393142Y-102006866D01*
X84389670Y-102003051D01*
X84385619Y-101999852D01*
X84385615Y-101999848D01*
X84218414Y-101867800D01*
X84218410Y-101867798D01*
X84214359Y-101864598D01*
X84183209Y-101847402D01*
X84126990Y-101816368D01*
X84018789Y-101756638D01*
X84013920Y-101754914D01*
X84013916Y-101754912D01*
X83813087Y-101683795D01*
X83813083Y-101683794D01*
X83808212Y-101682069D01*
X83803119Y-101681162D01*
X83803116Y-101681161D01*
X83593373Y-101643800D01*
X83593367Y-101643799D01*
X83588284Y-101642894D01*
X83514452Y-101641992D01*
X83370081Y-101640228D01*
X83370079Y-101640228D01*
X83364911Y-101640165D01*
X83144091Y-101673955D01*
X82931756Y-101743357D01*
X82901443Y-101759137D01*
X82740669Y-101842831D01*
X82733607Y-101846507D01*
X82729474Y-101849610D01*
X82729471Y-101849612D01*
X82582982Y-101959599D01*
X82554965Y-101980635D01*
X82524218Y-102012810D01*
X82461280Y-102078671D01*
X82400629Y-102142138D01*
X82397715Y-102146410D01*
X82397714Y-102146411D01*
X82359077Y-102203051D01*
X82274743Y-102326680D01*
X82251210Y-102377378D01*
X82194257Y-102500074D01*
X82180688Y-102529305D01*
X82120989Y-102744570D01*
X82097251Y-102966695D01*
X75164236Y-102966695D01*
X75229598Y-102737237D01*
X75231105Y-102730607D01*
X75290332Y-102384118D01*
X75291112Y-102377378D01*
X75312668Y-102024925D01*
X75312784Y-102021323D01*
X75312853Y-102001819D01*
X75312761Y-101998194D01*
X75293666Y-101645615D01*
X75292931Y-101638849D01*
X75236130Y-101291985D01*
X75234663Y-101285313D01*
X75140736Y-100946627D01*
X75138562Y-100940163D01*
X75008598Y-100613578D01*
X75005742Y-100607398D01*
X74841269Y-100296763D01*
X74837769Y-100290937D01*
X74640697Y-99999862D01*
X74636590Y-99994453D01*
X74523565Y-99861179D01*
X74510740Y-99852743D01*
X74500416Y-99858795D01*
X72372020Y-101987190D01*
X72364408Y-102001131D01*
X71634357Y-102001131D01*
X71635592Y-101998869D01*
X71635461Y-101997034D01*
X71631210Y-101990420D01*
X69500992Y-99860203D01*
X69487455Y-99852811D01*
X69477753Y-99859599D01*
X69370430Y-99985257D01*
X69366296Y-99990664D01*
X69168215Y-100281041D01*
X69164697Y-100286851D01*
X68999134Y-100596922D01*
X68996259Y-100603087D01*
X68865155Y-100929218D01*
X68862962Y-100935658D01*
X68767846Y-101274044D01*
X68766363Y-101280679D01*
X68758772Y-101326043D01*
X68727801Y-101389928D01*
X68667208Y-101426928D01*
X68596230Y-101425295D01*
X68537403Y-101385547D01*
X68509403Y-101320305D01*
X68508500Y-101305247D01*
X68508500Y-99486862D01*
X69849950Y-99486862D01*
X69849986Y-99487704D01*
X69855037Y-99495826D01*
X71987190Y-101627980D01*
X72001131Y-101635592D01*
X72002966Y-101635461D01*
X72009580Y-101631210D01*
X74142798Y-99497991D01*
X74150412Y-99484047D01*
X74150344Y-99483089D01*
X74145836Y-99476272D01*
X74144418Y-99475065D01*
X73864813Y-99262064D01*
X73859187Y-99258240D01*
X73558214Y-99076681D01*
X73552202Y-99073484D01*
X73233370Y-98925487D01*
X73227070Y-98922967D01*
X72894129Y-98810273D01*
X72887551Y-98808437D01*
X72544417Y-98732367D01*
X72537678Y-98731251D01*
X72188310Y-98692680D01*
X72181529Y-98692301D01*
X71830015Y-98691687D01*
X71823242Y-98692042D01*
X71473720Y-98729395D01*
X71467010Y-98730482D01*
X71123586Y-98805361D01*
X71117011Y-98807172D01*
X70783683Y-98918702D01*
X70777361Y-98921205D01*
X70458034Y-99068079D01*
X70451991Y-99071265D01*
X70150401Y-99251763D01*
X70144755Y-99255571D01*
X69864408Y-99467596D01*
X69859211Y-99471987D01*
X69857972Y-99473155D01*
X69849950Y-99486862D01*
X68508500Y-99486862D01*
X68508500Y-84034980D01*
X70832543Y-84034980D01*
X70842798Y-84093742D01*
X70843756Y-84100234D01*
X70850920Y-84159429D01*
X70853603Y-84166529D01*
X70855259Y-84173272D01*
X70856841Y-84179052D01*
X70858849Y-84185704D01*
X70860154Y-84193181D01*
X70863203Y-84200126D01*
X70863205Y-84200134D01*
X70884115Y-84247768D01*
X70886607Y-84253874D01*
X70907685Y-84309655D01*
X70911987Y-84315914D01*
X70915204Y-84322068D01*
X70918103Y-84327277D01*
X70921651Y-84333277D01*
X70924703Y-84340229D01*
X70929326Y-84346253D01*
X70929329Y-84346259D01*
X70960994Y-84387525D01*
X70964862Y-84392848D01*
X70998646Y-84442003D01*
X71004316Y-84447055D01*
X71004317Y-84447056D01*
X71042047Y-84480672D01*
X71047323Y-84485653D01*
X75711484Y-89149814D01*
X75717337Y-89156079D01*
X75752771Y-89196698D01*
X75801556Y-89230984D01*
X75806841Y-89234910D01*
X75847786Y-89267015D01*
X75847792Y-89267019D01*
X75853765Y-89271702D01*
X75860685Y-89274826D01*
X75866599Y-89278408D01*
X75871836Y-89281395D01*
X75877944Y-89284670D01*
X75884160Y-89289039D01*
X75891236Y-89291798D01*
X75891242Y-89291801D01*
X75939707Y-89310696D01*
X75945762Y-89313241D01*
X76000129Y-89337789D01*
X76007594Y-89339173D01*
X76014213Y-89341247D01*
X76019963Y-89342885D01*
X76026704Y-89344615D01*
X76033782Y-89347375D01*
X76041318Y-89348367D01*
X76092888Y-89355156D01*
X76099405Y-89356188D01*
X76118333Y-89359696D01*
X76158033Y-89367054D01*
X76165613Y-89366617D01*
X76165614Y-89366617D01*
X76216048Y-89363709D01*
X76223301Y-89363500D01*
X92892980Y-89363500D01*
X92961101Y-89383502D01*
X92982075Y-89400405D01*
X93293923Y-89712253D01*
X93327949Y-89774565D01*
X93322884Y-89845380D01*
X93280337Y-89902216D01*
X93215810Y-89926869D01*
X93125428Y-89934776D01*
X92997394Y-89945977D01*
X92997389Y-89945978D01*
X92991913Y-89946457D01*
X92986600Y-89947881D01*
X92986598Y-89947881D01*
X92776067Y-90004293D01*
X92776065Y-90004294D01*
X92770757Y-90005716D01*
X92765776Y-90008039D01*
X92765775Y-90008039D01*
X92568238Y-90100151D01*
X92568233Y-90100154D01*
X92563251Y-90102477D01*
X92502771Y-90144826D01*
X92380211Y-90230643D01*
X92380208Y-90230645D01*
X92375700Y-90233802D01*
X92213802Y-90395700D01*
X92082477Y-90583251D01*
X92080154Y-90588233D01*
X92080151Y-90588238D01*
X92064195Y-90622457D01*
X92017278Y-90675742D01*
X91949001Y-90695203D01*
X91881041Y-90674661D01*
X91835805Y-90622457D01*
X91819849Y-90588238D01*
X91819846Y-90588233D01*
X91817523Y-90583251D01*
X91686198Y-90395700D01*
X91524300Y-90233802D01*
X91519792Y-90230645D01*
X91519789Y-90230643D01*
X91397229Y-90144826D01*
X91336749Y-90102477D01*
X91331767Y-90100154D01*
X91331762Y-90100151D01*
X91134225Y-90008039D01*
X91134224Y-90008039D01*
X91129243Y-90005716D01*
X91123935Y-90004294D01*
X91123933Y-90004293D01*
X90913402Y-89947881D01*
X90913400Y-89947881D01*
X90908087Y-89946457D01*
X90680000Y-89926502D01*
X90451913Y-89946457D01*
X90446600Y-89947881D01*
X90446598Y-89947881D01*
X90236067Y-90004293D01*
X90236065Y-90004294D01*
X90230757Y-90005716D01*
X90225776Y-90008039D01*
X90225775Y-90008039D01*
X90028238Y-90100151D01*
X90028233Y-90100154D01*
X90023251Y-90102477D01*
X89962771Y-90144826D01*
X89840211Y-90230643D01*
X89840208Y-90230645D01*
X89835700Y-90233802D01*
X89673802Y-90395700D01*
X89542477Y-90583251D01*
X89540154Y-90588233D01*
X89540151Y-90588238D01*
X89524195Y-90622457D01*
X89477278Y-90675742D01*
X89409001Y-90695203D01*
X89341041Y-90674661D01*
X89295805Y-90622457D01*
X89279849Y-90588238D01*
X89279846Y-90588233D01*
X89277523Y-90583251D01*
X89146198Y-90395700D01*
X88984300Y-90233802D01*
X88979792Y-90230645D01*
X88979789Y-90230643D01*
X88857229Y-90144826D01*
X88796749Y-90102477D01*
X88791767Y-90100154D01*
X88791762Y-90100151D01*
X88594225Y-90008039D01*
X88594224Y-90008039D01*
X88589243Y-90005716D01*
X88583935Y-90004294D01*
X88583933Y-90004293D01*
X88373402Y-89947881D01*
X88373400Y-89947881D01*
X88368087Y-89946457D01*
X88140000Y-89926502D01*
X87911913Y-89946457D01*
X87906600Y-89947881D01*
X87906598Y-89947881D01*
X87696067Y-90004293D01*
X87696065Y-90004294D01*
X87690757Y-90005716D01*
X87685776Y-90008039D01*
X87685775Y-90008039D01*
X87488238Y-90100151D01*
X87488233Y-90100154D01*
X87483251Y-90102477D01*
X87422771Y-90144826D01*
X87300211Y-90230643D01*
X87300208Y-90230645D01*
X87295700Y-90233802D01*
X87133802Y-90395700D01*
X87002477Y-90583251D01*
X87000154Y-90588233D01*
X87000151Y-90588238D01*
X86984195Y-90622457D01*
X86937278Y-90675742D01*
X86869001Y-90695203D01*
X86801041Y-90674661D01*
X86755805Y-90622457D01*
X86739849Y-90588238D01*
X86739846Y-90588233D01*
X86737523Y-90583251D01*
X86606198Y-90395700D01*
X86444300Y-90233802D01*
X86439792Y-90230645D01*
X86439789Y-90230643D01*
X86317229Y-90144826D01*
X86256749Y-90102477D01*
X86251767Y-90100154D01*
X86251762Y-90100151D01*
X86054225Y-90008039D01*
X86054224Y-90008039D01*
X86049243Y-90005716D01*
X86043935Y-90004294D01*
X86043933Y-90004293D01*
X85833402Y-89947881D01*
X85833400Y-89947881D01*
X85828087Y-89946457D01*
X85600000Y-89926502D01*
X85371913Y-89946457D01*
X85366600Y-89947881D01*
X85366598Y-89947881D01*
X85156067Y-90004293D01*
X85156065Y-90004294D01*
X85150757Y-90005716D01*
X85145776Y-90008039D01*
X85145775Y-90008039D01*
X84948238Y-90100151D01*
X84948233Y-90100154D01*
X84943251Y-90102477D01*
X84882771Y-90144826D01*
X84760211Y-90230643D01*
X84760208Y-90230645D01*
X84755700Y-90233802D01*
X84593802Y-90395700D01*
X84462477Y-90583251D01*
X84460154Y-90588233D01*
X84460151Y-90588238D01*
X84444195Y-90622457D01*
X84397278Y-90675742D01*
X84329001Y-90695203D01*
X84261041Y-90674661D01*
X84215805Y-90622457D01*
X84199849Y-90588238D01*
X84199846Y-90588233D01*
X84197523Y-90583251D01*
X84066198Y-90395700D01*
X83904300Y-90233802D01*
X83899792Y-90230645D01*
X83899789Y-90230643D01*
X83777229Y-90144826D01*
X83716749Y-90102477D01*
X83711767Y-90100154D01*
X83711762Y-90100151D01*
X83514225Y-90008039D01*
X83514224Y-90008039D01*
X83509243Y-90005716D01*
X83503935Y-90004294D01*
X83503933Y-90004293D01*
X83293402Y-89947881D01*
X83293400Y-89947881D01*
X83288087Y-89946457D01*
X83060000Y-89926502D01*
X82831913Y-89946457D01*
X82826600Y-89947881D01*
X82826598Y-89947881D01*
X82616067Y-90004293D01*
X82616065Y-90004294D01*
X82610757Y-90005716D01*
X82605776Y-90008039D01*
X82605775Y-90008039D01*
X82408238Y-90100151D01*
X82408233Y-90100154D01*
X82403251Y-90102477D01*
X82342771Y-90144826D01*
X82220211Y-90230643D01*
X82220208Y-90230645D01*
X82215700Y-90233802D01*
X82053802Y-90395700D01*
X81922477Y-90583251D01*
X81920154Y-90588233D01*
X81920151Y-90588238D01*
X81904195Y-90622457D01*
X81857278Y-90675742D01*
X81789001Y-90695203D01*
X81721041Y-90674661D01*
X81675805Y-90622457D01*
X81659849Y-90588238D01*
X81659846Y-90588233D01*
X81657523Y-90583251D01*
X81526198Y-90395700D01*
X81364300Y-90233802D01*
X81359792Y-90230645D01*
X81359789Y-90230643D01*
X81237229Y-90144826D01*
X81176749Y-90102477D01*
X81171767Y-90100154D01*
X81171762Y-90100151D01*
X80974225Y-90008039D01*
X80974224Y-90008039D01*
X80969243Y-90005716D01*
X80963935Y-90004294D01*
X80963933Y-90004293D01*
X80753402Y-89947881D01*
X80753400Y-89947881D01*
X80748087Y-89946457D01*
X80520000Y-89926502D01*
X80291913Y-89946457D01*
X80286600Y-89947881D01*
X80286598Y-89947881D01*
X80076067Y-90004293D01*
X80076065Y-90004294D01*
X80070757Y-90005716D01*
X80065776Y-90008039D01*
X80065775Y-90008039D01*
X79868238Y-90100151D01*
X79868233Y-90100154D01*
X79863251Y-90102477D01*
X79802771Y-90144826D01*
X79680211Y-90230643D01*
X79680208Y-90230645D01*
X79675700Y-90233802D01*
X79513802Y-90395700D01*
X79382477Y-90583251D01*
X79380154Y-90588233D01*
X79380151Y-90588238D01*
X79364195Y-90622457D01*
X79317278Y-90675742D01*
X79249001Y-90695203D01*
X79181041Y-90674661D01*
X79135805Y-90622457D01*
X79119849Y-90588238D01*
X79119846Y-90588233D01*
X79117523Y-90583251D01*
X78986198Y-90395700D01*
X78824300Y-90233802D01*
X78819792Y-90230645D01*
X78819789Y-90230643D01*
X78697229Y-90144826D01*
X78636749Y-90102477D01*
X78631767Y-90100154D01*
X78631762Y-90100151D01*
X78434225Y-90008039D01*
X78434224Y-90008039D01*
X78429243Y-90005716D01*
X78423935Y-90004294D01*
X78423933Y-90004293D01*
X78213402Y-89947881D01*
X78213400Y-89947881D01*
X78208087Y-89946457D01*
X77980000Y-89926502D01*
X77751913Y-89946457D01*
X77746600Y-89947881D01*
X77746598Y-89947881D01*
X77536067Y-90004293D01*
X77536065Y-90004294D01*
X77530757Y-90005716D01*
X77525776Y-90008039D01*
X77525775Y-90008039D01*
X77328238Y-90100151D01*
X77328233Y-90100154D01*
X77323251Y-90102477D01*
X77262771Y-90144826D01*
X77140211Y-90230643D01*
X77140208Y-90230645D01*
X77135700Y-90233802D01*
X76973802Y-90395700D01*
X76842477Y-90583251D01*
X76840154Y-90588233D01*
X76840151Y-90588238D01*
X76824195Y-90622457D01*
X76777278Y-90675742D01*
X76709001Y-90695203D01*
X76641041Y-90674661D01*
X76595805Y-90622457D01*
X76579849Y-90588238D01*
X76579846Y-90588233D01*
X76577523Y-90583251D01*
X76446198Y-90395700D01*
X76284300Y-90233802D01*
X76279792Y-90230645D01*
X76279789Y-90230643D01*
X76157229Y-90144826D01*
X76096749Y-90102477D01*
X76091767Y-90100154D01*
X76091762Y-90100151D01*
X75894225Y-90008039D01*
X75894224Y-90008039D01*
X75889243Y-90005716D01*
X75883935Y-90004294D01*
X75883933Y-90004293D01*
X75673402Y-89947881D01*
X75673400Y-89947881D01*
X75668087Y-89946457D01*
X75440000Y-89926502D01*
X75211913Y-89946457D01*
X75206600Y-89947881D01*
X75206598Y-89947881D01*
X74996067Y-90004293D01*
X74996065Y-90004294D01*
X74990757Y-90005716D01*
X74985776Y-90008039D01*
X74985775Y-90008039D01*
X74788238Y-90100151D01*
X74788233Y-90100154D01*
X74783251Y-90102477D01*
X74722771Y-90144826D01*
X74600211Y-90230643D01*
X74600208Y-90230645D01*
X74595700Y-90233802D01*
X74433802Y-90395700D01*
X74302477Y-90583251D01*
X74300154Y-90588233D01*
X74300151Y-90588238D01*
X74287513Y-90615341D01*
X74205716Y-90790757D01*
X74204294Y-90796065D01*
X74204293Y-90796067D01*
X74177845Y-90894771D01*
X74146457Y-91011913D01*
X74126502Y-91240000D01*
X74146457Y-91468087D01*
X74205716Y-91689243D01*
X74208039Y-91694224D01*
X74208039Y-91694225D01*
X74300151Y-91891762D01*
X74300154Y-91891767D01*
X74302477Y-91896749D01*
X74346636Y-91959814D01*
X74402083Y-92039000D01*
X74433802Y-92084300D01*
X74595700Y-92246198D01*
X74600208Y-92249355D01*
X74600211Y-92249357D01*
X74653727Y-92286829D01*
X74783251Y-92377523D01*
X74788233Y-92379846D01*
X74788238Y-92379849D01*
X74984765Y-92471490D01*
X74990757Y-92474284D01*
X74996065Y-92475706D01*
X74996067Y-92475707D01*
X75206598Y-92532119D01*
X75206600Y-92532119D01*
X75211913Y-92533543D01*
X75440000Y-92553498D01*
X75668087Y-92533543D01*
X75673400Y-92532119D01*
X75673402Y-92532119D01*
X75883933Y-92475707D01*
X75883935Y-92475706D01*
X75889243Y-92474284D01*
X75895235Y-92471490D01*
X76091762Y-92379849D01*
X76091767Y-92379846D01*
X76096749Y-92377523D01*
X76226273Y-92286829D01*
X76279789Y-92249357D01*
X76279792Y-92249355D01*
X76284300Y-92246198D01*
X76446198Y-92084300D01*
X76477918Y-92039000D01*
X76533364Y-91959814D01*
X76577523Y-91896749D01*
X76579846Y-91891767D01*
X76579849Y-91891762D01*
X76595805Y-91857543D01*
X76642722Y-91804258D01*
X76710999Y-91784797D01*
X76778959Y-91805339D01*
X76824195Y-91857543D01*
X76840151Y-91891762D01*
X76840154Y-91891767D01*
X76842477Y-91896749D01*
X76886636Y-91959814D01*
X76942083Y-92039000D01*
X76973802Y-92084300D01*
X77135700Y-92246198D01*
X77140208Y-92249355D01*
X77140211Y-92249357D01*
X77193727Y-92286829D01*
X77323251Y-92377523D01*
X77328233Y-92379846D01*
X77328238Y-92379849D01*
X77524765Y-92471490D01*
X77530757Y-92474284D01*
X77536065Y-92475706D01*
X77536067Y-92475707D01*
X77746598Y-92532119D01*
X77746600Y-92532119D01*
X77751913Y-92533543D01*
X77980000Y-92553498D01*
X78208087Y-92533543D01*
X78213400Y-92532119D01*
X78213402Y-92532119D01*
X78423933Y-92475707D01*
X78423935Y-92475706D01*
X78429243Y-92474284D01*
X78435235Y-92471490D01*
X78631762Y-92379849D01*
X78631767Y-92379846D01*
X78636749Y-92377523D01*
X78766273Y-92286829D01*
X78819789Y-92249357D01*
X78819792Y-92249355D01*
X78824300Y-92246198D01*
X78986198Y-92084300D01*
X79017918Y-92039000D01*
X79073364Y-91959814D01*
X79117523Y-91896749D01*
X79119846Y-91891767D01*
X79119849Y-91891762D01*
X79135805Y-91857543D01*
X79182722Y-91804258D01*
X79250999Y-91784797D01*
X79318959Y-91805339D01*
X79364195Y-91857543D01*
X79380151Y-91891762D01*
X79380154Y-91891767D01*
X79382477Y-91896749D01*
X79426636Y-91959814D01*
X79482083Y-92039000D01*
X79513802Y-92084300D01*
X79675700Y-92246198D01*
X79680208Y-92249355D01*
X79680211Y-92249357D01*
X79733727Y-92286829D01*
X79863251Y-92377523D01*
X79868233Y-92379846D01*
X79868238Y-92379849D01*
X80064765Y-92471490D01*
X80070757Y-92474284D01*
X80076065Y-92475706D01*
X80076067Y-92475707D01*
X80286598Y-92532119D01*
X80286600Y-92532119D01*
X80291913Y-92533543D01*
X80520000Y-92553498D01*
X80748087Y-92533543D01*
X80753400Y-92532119D01*
X80753402Y-92532119D01*
X80963933Y-92475707D01*
X80963935Y-92475706D01*
X80969243Y-92474284D01*
X80975235Y-92471490D01*
X81171762Y-92379849D01*
X81171767Y-92379846D01*
X81176749Y-92377523D01*
X81306273Y-92286829D01*
X81359789Y-92249357D01*
X81359792Y-92249355D01*
X81364300Y-92246198D01*
X81526198Y-92084300D01*
X81557918Y-92039000D01*
X81613364Y-91959814D01*
X81657523Y-91896749D01*
X81659846Y-91891767D01*
X81659849Y-91891762D01*
X81675805Y-91857543D01*
X81722722Y-91804258D01*
X81790999Y-91784797D01*
X81858959Y-91805339D01*
X81904195Y-91857543D01*
X81920151Y-91891762D01*
X81920154Y-91891767D01*
X81922477Y-91896749D01*
X81966636Y-91959814D01*
X82022083Y-92039000D01*
X82053802Y-92084300D01*
X82215700Y-92246198D01*
X82220208Y-92249355D01*
X82220211Y-92249357D01*
X82273727Y-92286829D01*
X82403251Y-92377523D01*
X82408233Y-92379846D01*
X82408238Y-92379849D01*
X82604765Y-92471490D01*
X82610757Y-92474284D01*
X82616065Y-92475706D01*
X82616067Y-92475707D01*
X82826598Y-92532119D01*
X82826600Y-92532119D01*
X82831913Y-92533543D01*
X83060000Y-92553498D01*
X83288087Y-92533543D01*
X83293400Y-92532119D01*
X83293402Y-92532119D01*
X83503933Y-92475707D01*
X83503935Y-92475706D01*
X83509243Y-92474284D01*
X83515235Y-92471490D01*
X83711762Y-92379849D01*
X83711767Y-92379846D01*
X83716749Y-92377523D01*
X83846273Y-92286829D01*
X83899789Y-92249357D01*
X83899792Y-92249355D01*
X83904300Y-92246198D01*
X84066198Y-92084300D01*
X84097918Y-92039000D01*
X84153364Y-91959814D01*
X84197523Y-91896749D01*
X84199846Y-91891767D01*
X84199849Y-91891762D01*
X84215805Y-91857543D01*
X84262722Y-91804258D01*
X84330999Y-91784797D01*
X84398959Y-91805339D01*
X84444195Y-91857543D01*
X84460151Y-91891762D01*
X84460154Y-91891767D01*
X84462477Y-91896749D01*
X84506636Y-91959814D01*
X84562083Y-92039000D01*
X84593802Y-92084300D01*
X84755700Y-92246198D01*
X84760208Y-92249355D01*
X84760211Y-92249357D01*
X84805591Y-92281132D01*
X84882772Y-92335175D01*
X84927099Y-92390631D01*
X84936500Y-92438387D01*
X84936500Y-98772651D01*
X84936208Y-98781221D01*
X84934353Y-98808437D01*
X84932543Y-98834980D01*
X84942798Y-98893742D01*
X84943756Y-98900234D01*
X84945983Y-98918632D01*
X84947720Y-98932983D01*
X84950920Y-98959429D01*
X84953603Y-98966529D01*
X84955259Y-98973272D01*
X84956841Y-98979052D01*
X84958849Y-98985704D01*
X84960154Y-98993181D01*
X84963203Y-99000126D01*
X84963205Y-99000134D01*
X84984115Y-99047768D01*
X84986607Y-99053874D01*
X85007685Y-99109655D01*
X85011987Y-99115914D01*
X85015204Y-99122068D01*
X85018103Y-99127277D01*
X85021651Y-99133277D01*
X85024703Y-99140229D01*
X85029326Y-99146253D01*
X85029329Y-99146259D01*
X85060994Y-99187525D01*
X85064862Y-99192848D01*
X85098646Y-99242003D01*
X85104316Y-99247055D01*
X85104317Y-99247056D01*
X85142038Y-99280664D01*
X85147315Y-99285645D01*
X85811497Y-99949828D01*
X85817350Y-99956094D01*
X85852771Y-99996698D01*
X85901557Y-100030985D01*
X85906841Y-100034910D01*
X85953764Y-100071702D01*
X85960683Y-100074826D01*
X85966629Y-100078427D01*
X85971786Y-100081368D01*
X85977944Y-100084670D01*
X85984160Y-100089039D01*
X85991236Y-100091798D01*
X85991238Y-100091799D01*
X86039696Y-100110692D01*
X86045777Y-100113248D01*
X86100129Y-100137789D01*
X86107595Y-100139173D01*
X86114214Y-100141247D01*
X86119990Y-100142893D01*
X86126712Y-100144619D01*
X86133782Y-100147375D01*
X86141310Y-100148366D01*
X86192893Y-100155157D01*
X86199408Y-100156189D01*
X86250564Y-100165670D01*
X86250565Y-100165670D01*
X86258032Y-100167054D01*
X86265613Y-100166617D01*
X86265614Y-100166617D01*
X86316047Y-100163709D01*
X86323300Y-100163500D01*
X99312980Y-100163500D01*
X99381101Y-100183502D01*
X99402075Y-100200405D01*
X100828074Y-101626405D01*
X100862100Y-101688717D01*
X100857035Y-101759533D01*
X100814488Y-101816368D01*
X100747968Y-101841179D01*
X100738979Y-101841500D01*
X99901866Y-101841500D01*
X99839684Y-101848255D01*
X99703295Y-101899385D01*
X99586739Y-101986739D01*
X99499385Y-102103295D01*
X99448255Y-102239684D01*
X99441500Y-102301866D01*
X99441500Y-104098134D01*
X99448255Y-104160316D01*
X99499385Y-104296705D01*
X99586739Y-104413261D01*
X99703295Y-104500615D01*
X99839684Y-104551745D01*
X99901866Y-104558500D01*
X101698134Y-104558500D01*
X101760316Y-104551745D01*
X101896705Y-104500615D01*
X102013261Y-104413261D01*
X102100615Y-104296705D01*
X102105346Y-104284086D01*
X102144598Y-104179382D01*
X102187240Y-104122618D01*
X102253802Y-104097918D01*
X102323150Y-104113126D01*
X102357817Y-104141114D01*
X102386250Y-104173938D01*
X102558126Y-104316632D01*
X102751000Y-104429338D01*
X102959692Y-104509030D01*
X102964760Y-104510061D01*
X102964763Y-104510062D01*
X103045205Y-104526428D01*
X103178597Y-104553567D01*
X103183772Y-104553757D01*
X103183774Y-104553757D01*
X103396673Y-104561564D01*
X103396677Y-104561564D01*
X103401837Y-104561753D01*
X103406957Y-104561097D01*
X103406959Y-104561097D01*
X103618288Y-104534025D01*
X103618289Y-104534025D01*
X103623416Y-104533368D01*
X103628366Y-104531883D01*
X103832429Y-104470661D01*
X103832434Y-104470659D01*
X103837384Y-104469174D01*
X104037994Y-104370896D01*
X104219860Y-104241173D01*
X104231737Y-104229338D01*
X104344837Y-104116632D01*
X104378096Y-104083489D01*
X104411122Y-104037529D01*
X104508453Y-103902077D01*
X104509640Y-103902930D01*
X104556960Y-103859362D01*
X104626897Y-103847145D01*
X104692338Y-103874678D01*
X104720166Y-103906511D01*
X104777694Y-104000388D01*
X104783777Y-104008699D01*
X104923213Y-104169667D01*
X104930580Y-104176883D01*
X105094434Y-104312916D01*
X105102881Y-104318831D01*
X105286756Y-104426279D01*
X105296042Y-104430729D01*
X105495001Y-104506703D01*
X105504899Y-104509579D01*
X105608250Y-104530606D01*
X105622299Y-104529410D01*
X105626000Y-104519065D01*
X105626000Y-104518517D01*
X106134000Y-104518517D01*
X106138064Y-104532359D01*
X106151478Y-104534393D01*
X106158184Y-104533534D01*
X106168262Y-104531392D01*
X106218296Y-104516381D01*
X171849160Y-104516381D01*
X171849237Y-104517470D01*
X171851698Y-104521206D01*
X172125632Y-104731404D01*
X172131262Y-104735259D01*
X172431591Y-104917862D01*
X172437593Y-104921080D01*
X172755897Y-105070184D01*
X172762202Y-105072732D01*
X173094743Y-105186587D01*
X173101313Y-105188446D01*
X173444183Y-105265714D01*
X173450912Y-105266853D01*
X173800143Y-105306643D01*
X173806933Y-105307046D01*
X174158419Y-105308886D01*
X174165220Y-105308554D01*
X174514853Y-105272423D01*
X174521581Y-105271357D01*
X174865274Y-105197676D01*
X174871822Y-105195897D01*
X175205549Y-105085527D01*
X175211891Y-105083041D01*
X175531718Y-104937288D01*
X175537777Y-104934121D01*
X175839995Y-104754676D01*
X175845659Y-104750884D01*
X176126732Y-104539849D01*
X176131958Y-104535464D01*
X176141613Y-104526428D01*
X176149682Y-104512750D01*
X176149654Y-104512024D01*
X176144512Y-104503723D01*
X174012810Y-102372020D01*
X173998869Y-102364408D01*
X173997034Y-102364539D01*
X173990420Y-102368790D01*
X171856774Y-104502437D01*
X171849160Y-104516381D01*
X106218296Y-104516381D01*
X106372255Y-104470191D01*
X106381842Y-104466433D01*
X106573095Y-104372739D01*
X106581945Y-104367464D01*
X106755328Y-104243792D01*
X106763200Y-104237139D01*
X106914052Y-104086812D01*
X106920730Y-104078965D01*
X107045003Y-103906020D01*
X107050313Y-103897183D01*
X107144670Y-103706267D01*
X107148469Y-103696672D01*
X107210377Y-103492910D01*
X107212555Y-103482837D01*
X107213986Y-103471962D01*
X107211775Y-103457778D01*
X107198617Y-103454000D01*
X106152115Y-103454000D01*
X106136876Y-103458475D01*
X106135671Y-103459865D01*
X106134000Y-103467548D01*
X106134000Y-104518517D01*
X105626000Y-104518517D01*
X105626000Y-102927885D01*
X106134000Y-102927885D01*
X106138475Y-102943124D01*
X106139865Y-102944329D01*
X106147548Y-102946000D01*
X107198344Y-102946000D01*
X107211875Y-102942027D01*
X107213180Y-102932947D01*
X107171214Y-102765875D01*
X107167894Y-102756124D01*
X107082972Y-102560814D01*
X107078105Y-102551739D01*
X106962426Y-102372926D01*
X106956136Y-102364757D01*
X106812806Y-102207240D01*
X106805273Y-102200215D01*
X106638139Y-102068222D01*
X106629552Y-102062517D01*
X106501507Y-101991832D01*
X170687333Y-101991832D01*
X170705117Y-102342893D01*
X170705827Y-102349649D01*
X170761420Y-102696723D01*
X170762859Y-102703378D01*
X170855608Y-103042410D01*
X170857757Y-103048871D01*
X170986581Y-103375912D01*
X170989412Y-103382095D01*
X171152803Y-103693310D01*
X171156286Y-103699152D01*
X171352330Y-103990896D01*
X171356433Y-103996340D01*
X171476425Y-104138836D01*
X171489164Y-104147279D01*
X171499608Y-104141181D01*
X173627980Y-102012810D01*
X173635592Y-101998869D01*
X173635461Y-101997034D01*
X173631210Y-101990420D01*
X171500992Y-99860203D01*
X171487455Y-99852811D01*
X171477753Y-99859599D01*
X171370430Y-99985257D01*
X171366296Y-99990664D01*
X171168215Y-100281041D01*
X171164697Y-100286851D01*
X170999134Y-100596922D01*
X170996259Y-100603087D01*
X170865155Y-100929218D01*
X170862962Y-100935658D01*
X170767846Y-101274044D01*
X170766363Y-101280679D01*
X170708350Y-101627354D01*
X170707591Y-101634126D01*
X170687357Y-101985037D01*
X170687333Y-101991832D01*
X106501507Y-101991832D01*
X106443117Y-101959599D01*
X106433705Y-101955369D01*
X106232959Y-101884280D01*
X106222988Y-101881646D01*
X106151837Y-101868972D01*
X106138540Y-101870432D01*
X106134000Y-101884989D01*
X106134000Y-102927885D01*
X105626000Y-102927885D01*
X105626000Y-101883102D01*
X105622082Y-101869758D01*
X105607806Y-101867771D01*
X105569324Y-101873660D01*
X105559288Y-101876051D01*
X105356868Y-101942212D01*
X105347359Y-101946209D01*
X105158463Y-102044542D01*
X105149738Y-102050036D01*
X104979433Y-102177905D01*
X104971726Y-102184748D01*
X104824590Y-102338717D01*
X104818109Y-102346722D01*
X104713498Y-102500074D01*
X104658587Y-102545076D01*
X104588062Y-102553247D01*
X104524315Y-102521993D01*
X104503618Y-102497509D01*
X104422822Y-102372617D01*
X104422820Y-102372614D01*
X104420014Y-102368277D01*
X104269670Y-102203051D01*
X104265619Y-102199852D01*
X104265615Y-102199848D01*
X104098414Y-102067800D01*
X104098410Y-102067798D01*
X104094359Y-102064598D01*
X104063459Y-102047540D01*
X104000545Y-102012810D01*
X103898789Y-101956638D01*
X103893920Y-101954914D01*
X103893916Y-101954912D01*
X103693087Y-101883795D01*
X103693083Y-101883794D01*
X103688212Y-101882069D01*
X103683119Y-101881162D01*
X103683116Y-101881161D01*
X103473373Y-101843800D01*
X103473367Y-101843799D01*
X103468284Y-101842894D01*
X103394452Y-101841992D01*
X103250081Y-101840228D01*
X103250079Y-101840228D01*
X103244911Y-101840165D01*
X103126872Y-101858227D01*
X103024866Y-101873836D01*
X102954503Y-101864368D01*
X102916712Y-101838381D01*
X100565193Y-99486862D01*
X171849950Y-99486862D01*
X171849986Y-99487704D01*
X171855037Y-99495826D01*
X173987190Y-101627980D01*
X174001131Y-101635592D01*
X174002966Y-101635461D01*
X174009580Y-101631210D01*
X176142798Y-99497991D01*
X176150412Y-99484047D01*
X176150344Y-99483089D01*
X176145836Y-99476272D01*
X176144418Y-99475065D01*
X175864813Y-99262064D01*
X175859187Y-99258240D01*
X175558214Y-99076681D01*
X175552202Y-99073484D01*
X175233370Y-98925487D01*
X175227070Y-98922967D01*
X174894129Y-98810273D01*
X174887551Y-98808437D01*
X174544417Y-98732367D01*
X174537678Y-98731251D01*
X174188310Y-98692680D01*
X174181529Y-98692301D01*
X173830015Y-98691687D01*
X173823242Y-98692042D01*
X173473720Y-98729395D01*
X173467010Y-98730482D01*
X173123586Y-98805361D01*
X173117011Y-98807172D01*
X172783683Y-98918702D01*
X172777361Y-98921205D01*
X172458034Y-99068079D01*
X172451991Y-99071265D01*
X172150401Y-99251763D01*
X172144755Y-99255571D01*
X171864408Y-99467596D01*
X171859211Y-99471987D01*
X171857972Y-99473155D01*
X171849950Y-99486862D01*
X100565193Y-99486862D01*
X100128509Y-99050178D01*
X100122655Y-99043912D01*
X100092225Y-99009029D01*
X100087229Y-99003302D01*
X100038443Y-98969015D01*
X100033159Y-98965090D01*
X99992211Y-98932983D01*
X99986236Y-98928298D01*
X99979317Y-98925174D01*
X99973371Y-98921573D01*
X99968214Y-98918632D01*
X99962056Y-98915330D01*
X99955840Y-98910961D01*
X99948764Y-98908202D01*
X99948762Y-98908201D01*
X99900304Y-98889308D01*
X99894223Y-98886752D01*
X99846790Y-98865335D01*
X99846789Y-98865335D01*
X99839871Y-98862211D01*
X99832405Y-98860827D01*
X99825786Y-98858753D01*
X99820037Y-98857115D01*
X99813296Y-98855385D01*
X99806218Y-98852625D01*
X99782557Y-98849510D01*
X99747112Y-98844844D01*
X99740595Y-98843812D01*
X99706669Y-98837524D01*
X99681967Y-98832946D01*
X99674387Y-98833383D01*
X99674386Y-98833383D01*
X99623953Y-98836291D01*
X99616700Y-98836500D01*
X86627021Y-98836500D01*
X86558900Y-98816498D01*
X86537926Y-98799595D01*
X86300405Y-98562074D01*
X86266379Y-98499762D01*
X86263500Y-98472979D01*
X86263500Y-97228134D01*
X159691500Y-97228134D01*
X159698255Y-97290316D01*
X159749385Y-97426705D01*
X159836739Y-97543261D01*
X159953295Y-97630615D01*
X160089684Y-97681745D01*
X160151866Y-97688500D01*
X162448134Y-97688500D01*
X162510316Y-97681745D01*
X162646705Y-97630615D01*
X162763261Y-97543261D01*
X162850615Y-97426705D01*
X162901745Y-97290316D01*
X162908500Y-97228134D01*
X162908500Y-94931866D01*
X162901745Y-94869684D01*
X162850615Y-94733295D01*
X162763261Y-94616739D01*
X162646705Y-94529385D01*
X162510316Y-94478255D01*
X162448134Y-94471500D01*
X160151866Y-94471500D01*
X160089684Y-94478255D01*
X159953295Y-94529385D01*
X159836739Y-94616739D01*
X159749385Y-94733295D01*
X159698255Y-94869684D01*
X159691500Y-94931866D01*
X159691500Y-97228134D01*
X86263500Y-97228134D01*
X86263500Y-92438387D01*
X86283502Y-92370266D01*
X86317228Y-92335175D01*
X86394409Y-92281132D01*
X86439789Y-92249357D01*
X86439792Y-92249355D01*
X86444300Y-92246198D01*
X86606198Y-92084300D01*
X86637918Y-92039000D01*
X86693364Y-91959814D01*
X86737523Y-91896749D01*
X86739846Y-91891767D01*
X86739849Y-91891762D01*
X86755805Y-91857543D01*
X86802722Y-91804258D01*
X86870999Y-91784797D01*
X86938959Y-91805339D01*
X86984195Y-91857543D01*
X87000151Y-91891762D01*
X87000154Y-91891767D01*
X87002477Y-91896749D01*
X87046636Y-91959814D01*
X87102083Y-92039000D01*
X87133802Y-92084300D01*
X87295700Y-92246198D01*
X87300208Y-92249355D01*
X87300211Y-92249357D01*
X87353727Y-92286829D01*
X87483251Y-92377523D01*
X87488233Y-92379846D01*
X87488238Y-92379849D01*
X87684765Y-92471490D01*
X87690757Y-92474284D01*
X87696065Y-92475706D01*
X87696067Y-92475707D01*
X87906598Y-92532119D01*
X87906600Y-92532119D01*
X87911913Y-92533543D01*
X88140000Y-92553498D01*
X88368087Y-92533543D01*
X88373400Y-92532119D01*
X88373402Y-92532119D01*
X88583933Y-92475707D01*
X88583935Y-92475706D01*
X88589243Y-92474284D01*
X88595235Y-92471490D01*
X88791762Y-92379849D01*
X88791767Y-92379846D01*
X88796749Y-92377523D01*
X88926273Y-92286829D01*
X88979789Y-92249357D01*
X88979792Y-92249355D01*
X88984300Y-92246198D01*
X89146198Y-92084300D01*
X89177918Y-92039000D01*
X89233364Y-91959814D01*
X89277523Y-91896749D01*
X89279846Y-91891767D01*
X89279849Y-91891762D01*
X89295805Y-91857543D01*
X89342722Y-91804258D01*
X89410999Y-91784797D01*
X89478959Y-91805339D01*
X89524195Y-91857543D01*
X89540151Y-91891762D01*
X89540154Y-91891767D01*
X89542477Y-91896749D01*
X89586636Y-91959814D01*
X89642083Y-92039000D01*
X89673802Y-92084300D01*
X89835700Y-92246198D01*
X89840208Y-92249355D01*
X89840211Y-92249357D01*
X89893727Y-92286829D01*
X90023251Y-92377523D01*
X90028233Y-92379846D01*
X90028238Y-92379849D01*
X90224765Y-92471490D01*
X90230757Y-92474284D01*
X90236065Y-92475706D01*
X90236067Y-92475707D01*
X90446598Y-92532119D01*
X90446600Y-92532119D01*
X90451913Y-92533543D01*
X90680000Y-92553498D01*
X90908087Y-92533543D01*
X90913400Y-92532119D01*
X90913402Y-92532119D01*
X91123933Y-92475707D01*
X91123935Y-92475706D01*
X91129243Y-92474284D01*
X91135235Y-92471490D01*
X91331762Y-92379849D01*
X91331767Y-92379846D01*
X91336749Y-92377523D01*
X91466273Y-92286829D01*
X91519789Y-92249357D01*
X91519792Y-92249355D01*
X91524300Y-92246198D01*
X91686198Y-92084300D01*
X91717918Y-92039000D01*
X91773364Y-91959814D01*
X91817523Y-91896749D01*
X91819846Y-91891767D01*
X91819849Y-91891762D01*
X91835805Y-91857543D01*
X91882722Y-91804258D01*
X91950999Y-91784797D01*
X92018959Y-91805339D01*
X92064195Y-91857543D01*
X92080151Y-91891762D01*
X92080154Y-91891767D01*
X92082477Y-91896749D01*
X92126636Y-91959814D01*
X92182083Y-92039000D01*
X92213802Y-92084300D01*
X92375700Y-92246198D01*
X92380208Y-92249355D01*
X92380211Y-92249357D01*
X92433727Y-92286829D01*
X92563251Y-92377523D01*
X92568233Y-92379846D01*
X92568238Y-92379849D01*
X92764765Y-92471490D01*
X92770757Y-92474284D01*
X92776065Y-92475706D01*
X92776067Y-92475707D01*
X92986598Y-92532119D01*
X92986600Y-92532119D01*
X92991913Y-92533543D01*
X93220000Y-92553498D01*
X93448087Y-92533543D01*
X93453400Y-92532119D01*
X93453402Y-92532119D01*
X93663933Y-92475707D01*
X93663935Y-92475706D01*
X93669243Y-92474284D01*
X93675235Y-92471490D01*
X93871762Y-92379849D01*
X93871767Y-92379846D01*
X93876749Y-92377523D01*
X94006273Y-92286829D01*
X94059789Y-92249357D01*
X94059792Y-92249355D01*
X94064300Y-92246198D01*
X94226198Y-92084300D01*
X94257918Y-92039000D01*
X94313364Y-91959814D01*
X94357523Y-91896749D01*
X94359846Y-91891767D01*
X94359849Y-91891762D01*
X94375805Y-91857543D01*
X94422722Y-91804258D01*
X94490999Y-91784797D01*
X94558959Y-91805339D01*
X94604195Y-91857543D01*
X94620151Y-91891762D01*
X94620154Y-91891767D01*
X94622477Y-91896749D01*
X94666636Y-91959814D01*
X94722083Y-92039000D01*
X94753802Y-92084300D01*
X94915700Y-92246198D01*
X94920208Y-92249355D01*
X94920211Y-92249357D01*
X94973727Y-92286829D01*
X95103251Y-92377523D01*
X95108233Y-92379846D01*
X95108238Y-92379849D01*
X95304765Y-92471490D01*
X95310757Y-92474284D01*
X95316065Y-92475706D01*
X95316067Y-92475707D01*
X95526598Y-92532119D01*
X95526600Y-92532119D01*
X95531913Y-92533543D01*
X95760000Y-92553498D01*
X95988087Y-92533543D01*
X95993400Y-92532119D01*
X95993402Y-92532119D01*
X96203933Y-92475707D01*
X96203935Y-92475706D01*
X96209243Y-92474284D01*
X96215235Y-92471490D01*
X96411762Y-92379849D01*
X96411767Y-92379846D01*
X96416749Y-92377523D01*
X96546273Y-92286829D01*
X96599789Y-92249357D01*
X96599792Y-92249355D01*
X96604300Y-92246198D01*
X96766198Y-92084300D01*
X96797918Y-92039000D01*
X96853364Y-91959814D01*
X96897523Y-91896749D01*
X96899846Y-91891767D01*
X96899849Y-91891762D01*
X96915805Y-91857543D01*
X96962722Y-91804258D01*
X97030999Y-91784797D01*
X97098959Y-91805339D01*
X97144195Y-91857543D01*
X97160151Y-91891762D01*
X97160154Y-91891767D01*
X97162477Y-91896749D01*
X97206636Y-91959814D01*
X97262083Y-92039000D01*
X97293802Y-92084300D01*
X97455700Y-92246198D01*
X97460208Y-92249355D01*
X97460211Y-92249357D01*
X97513727Y-92286829D01*
X97643251Y-92377523D01*
X97648233Y-92379846D01*
X97648238Y-92379849D01*
X97844765Y-92471490D01*
X97850757Y-92474284D01*
X97856065Y-92475706D01*
X97856067Y-92475707D01*
X98066598Y-92532119D01*
X98066600Y-92532119D01*
X98071913Y-92533543D01*
X98300000Y-92553498D01*
X98528087Y-92533543D01*
X98533400Y-92532119D01*
X98533402Y-92532119D01*
X98743933Y-92475707D01*
X98743935Y-92475706D01*
X98749243Y-92474284D01*
X98755235Y-92471490D01*
X98951762Y-92379849D01*
X98951767Y-92379846D01*
X98956749Y-92377523D01*
X99086273Y-92286829D01*
X99139789Y-92249357D01*
X99139792Y-92249355D01*
X99144300Y-92246198D01*
X99306198Y-92084300D01*
X99337918Y-92039000D01*
X99393364Y-91959814D01*
X99437523Y-91896749D01*
X99439846Y-91891767D01*
X99439849Y-91891762D01*
X99455805Y-91857543D01*
X99502722Y-91804258D01*
X99570999Y-91784797D01*
X99638959Y-91805339D01*
X99684195Y-91857543D01*
X99700151Y-91891762D01*
X99700154Y-91891767D01*
X99702477Y-91896749D01*
X99746636Y-91959814D01*
X99802083Y-92039000D01*
X99833802Y-92084300D01*
X99995700Y-92246198D01*
X100000208Y-92249355D01*
X100000211Y-92249357D01*
X100053727Y-92286829D01*
X100183251Y-92377523D01*
X100188233Y-92379846D01*
X100188238Y-92379849D01*
X100384765Y-92471490D01*
X100390757Y-92474284D01*
X100396065Y-92475706D01*
X100396067Y-92475707D01*
X100606598Y-92532119D01*
X100606600Y-92532119D01*
X100611913Y-92533543D01*
X100840000Y-92553498D01*
X101068087Y-92533543D01*
X101073400Y-92532119D01*
X101073402Y-92532119D01*
X101098082Y-92525506D01*
X101169059Y-92527196D01*
X101219788Y-92558118D01*
X104611484Y-95949814D01*
X104617337Y-95956079D01*
X104652771Y-95996698D01*
X104701556Y-96030984D01*
X104706841Y-96034910D01*
X104747786Y-96067015D01*
X104747792Y-96067019D01*
X104753765Y-96071702D01*
X104760685Y-96074826D01*
X104766599Y-96078408D01*
X104771836Y-96081395D01*
X104777944Y-96084670D01*
X104784160Y-96089039D01*
X104791236Y-96091798D01*
X104791242Y-96091801D01*
X104839707Y-96110696D01*
X104845762Y-96113241D01*
X104900129Y-96137789D01*
X104907594Y-96139173D01*
X104914213Y-96141247D01*
X104919963Y-96142885D01*
X104926704Y-96144615D01*
X104933782Y-96147375D01*
X104941318Y-96148367D01*
X104992888Y-96155156D01*
X104999405Y-96156188D01*
X105033331Y-96162476D01*
X105058033Y-96167054D01*
X105065613Y-96166617D01*
X105065614Y-96166617D01*
X105116048Y-96163709D01*
X105123301Y-96163500D01*
X134572651Y-96163500D01*
X134581221Y-96163792D01*
X134627404Y-96166941D01*
X134627408Y-96166941D01*
X134634980Y-96167457D01*
X134693742Y-96157202D01*
X134700234Y-96156244D01*
X134728723Y-96152796D01*
X134751887Y-96149993D01*
X134751889Y-96149992D01*
X134759429Y-96149080D01*
X134766529Y-96146397D01*
X134773272Y-96144741D01*
X134779052Y-96143159D01*
X134785704Y-96141151D01*
X134793181Y-96139846D01*
X134800126Y-96136797D01*
X134800134Y-96136795D01*
X134847768Y-96115885D01*
X134853874Y-96113393D01*
X134902552Y-96094999D01*
X134909655Y-96092315D01*
X134915914Y-96088013D01*
X134922068Y-96084796D01*
X134927277Y-96081897D01*
X134933277Y-96078349D01*
X134940229Y-96075297D01*
X134946253Y-96070674D01*
X134946259Y-96070671D01*
X134987525Y-96039006D01*
X134992848Y-96035138D01*
X135042003Y-96001354D01*
X135080673Y-95957952D01*
X135085653Y-95952677D01*
X139976067Y-91062263D01*
X149590064Y-91062263D01*
X149626404Y-91299744D01*
X149663094Y-91411997D01*
X149699434Y-91523183D01*
X149699437Y-91523189D01*
X149701042Y-91528101D01*
X149703429Y-91532687D01*
X149703431Y-91532691D01*
X149784928Y-91689243D01*
X149811975Y-91741200D01*
X149928415Y-91896283D01*
X149953320Y-91962765D01*
X149938328Y-92032161D01*
X149888198Y-92082435D01*
X149871885Y-92089915D01*
X149861707Y-92093731D01*
X149861704Y-92093733D01*
X149853295Y-92096885D01*
X149736739Y-92184239D01*
X149649385Y-92300795D01*
X149598255Y-92437184D01*
X149591500Y-92499366D01*
X149591500Y-94500634D01*
X149598255Y-94562816D01*
X149649385Y-94699205D01*
X149736739Y-94815761D01*
X149853295Y-94903115D01*
X149989684Y-94954245D01*
X150051866Y-94961000D01*
X152148134Y-94961000D01*
X152210316Y-94954245D01*
X152346705Y-94903115D01*
X152463261Y-94815761D01*
X152550615Y-94699205D01*
X152601745Y-94562816D01*
X152608500Y-94500634D01*
X152608500Y-92499366D01*
X152601745Y-92437184D01*
X152550615Y-92300795D01*
X152463261Y-92184239D01*
X152346705Y-92096885D01*
X152326811Y-92089427D01*
X152270047Y-92046787D01*
X152245346Y-91980226D01*
X152260553Y-91910877D01*
X152272158Y-91893353D01*
X152365367Y-91775330D01*
X152365370Y-91775325D01*
X152368568Y-91771276D01*
X152382885Y-91745342D01*
X152482177Y-91565474D01*
X152482179Y-91565470D01*
X152484674Y-91560950D01*
X152519500Y-91462607D01*
X152563144Y-91339360D01*
X152563145Y-91339356D01*
X152564870Y-91334485D01*
X152570183Y-91304659D01*
X152606095Y-91103052D01*
X152606096Y-91103046D01*
X152607001Y-91097963D01*
X152609936Y-90857737D01*
X152573596Y-90620256D01*
X152536906Y-90508003D01*
X152500566Y-90396817D01*
X152500563Y-90396811D01*
X152498958Y-90391899D01*
X152453330Y-90304248D01*
X152390416Y-90183393D01*
X152388025Y-90178800D01*
X152349053Y-90126894D01*
X152246882Y-89990815D01*
X152246880Y-89990812D01*
X152243777Y-89986680D01*
X152095915Y-89845380D01*
X152073825Y-89824270D01*
X152073824Y-89824269D01*
X152070088Y-89820699D01*
X152032649Y-89795160D01*
X151987648Y-89740249D01*
X151979477Y-89669725D01*
X152010731Y-89605978D01*
X152035210Y-89585284D01*
X152037326Y-89583915D01*
X152045498Y-89577622D01*
X152215480Y-89422950D01*
X152222506Y-89415417D01*
X152364945Y-89235056D01*
X152370650Y-89226469D01*
X152481714Y-89025278D01*
X152485944Y-89015866D01*
X152562659Y-88799232D01*
X152565293Y-88789261D01*
X152582647Y-88691837D01*
X152581187Y-88678540D01*
X152566630Y-88674000D01*
X149631904Y-88674000D01*
X149618560Y-88677918D01*
X149616573Y-88692194D01*
X149626110Y-88754515D01*
X149628499Y-88764543D01*
X149699898Y-88982988D01*
X149703895Y-88992497D01*
X149810011Y-89196344D01*
X149815505Y-89205069D01*
X149953493Y-89388852D01*
X149960336Y-89396559D01*
X150126491Y-89555339D01*
X150134498Y-89561823D01*
X150167356Y-89584237D01*
X150212359Y-89639148D01*
X150220532Y-89709672D01*
X150189278Y-89773420D01*
X150164796Y-89794116D01*
X150163181Y-89795161D01*
X150158023Y-89798498D01*
X149980330Y-89960186D01*
X149926283Y-90028621D01*
X149834633Y-90144670D01*
X149834630Y-90144675D01*
X149831432Y-90148724D01*
X149828939Y-90153240D01*
X149828937Y-90153243D01*
X149722858Y-90345405D01*
X149715326Y-90359050D01*
X149713602Y-90363919D01*
X149713600Y-90363923D01*
X149636856Y-90580640D01*
X149635130Y-90585515D01*
X149634223Y-90590608D01*
X149634222Y-90590611D01*
X149597625Y-90796067D01*
X149592999Y-90822037D01*
X149590064Y-91062263D01*
X139976067Y-91062263D01*
X140692925Y-90345405D01*
X140755237Y-90311379D01*
X140782020Y-90308500D01*
X140795487Y-90308500D01*
X140801939Y-90307128D01*
X140801944Y-90307128D01*
X140888887Y-90288647D01*
X140982288Y-90268794D01*
X140988319Y-90266109D01*
X141150722Y-90193803D01*
X141150724Y-90193802D01*
X141156752Y-90191118D01*
X141311253Y-90078866D01*
X141330344Y-90057663D01*
X141434621Y-89941852D01*
X141434622Y-89941851D01*
X141439040Y-89936944D01*
X141500505Y-89830483D01*
X141531223Y-89777279D01*
X141531224Y-89777278D01*
X141534527Y-89771556D01*
X141593542Y-89589928D01*
X141594836Y-89577622D01*
X141612814Y-89406565D01*
X141613504Y-89400000D01*
X141607302Y-89340992D01*
X141594232Y-89216635D01*
X141594232Y-89216633D01*
X141593542Y-89210072D01*
X141534527Y-89028444D01*
X141439040Y-88863056D01*
X141420242Y-88842178D01*
X141315675Y-88726045D01*
X141315674Y-88726044D01*
X141311253Y-88721134D01*
X141156752Y-88608882D01*
X141150724Y-88606198D01*
X141150722Y-88606197D01*
X140988319Y-88533891D01*
X140988318Y-88533891D01*
X140982288Y-88531206D01*
X140888888Y-88511353D01*
X140801944Y-88492872D01*
X140801939Y-88492872D01*
X140795487Y-88491500D01*
X140604513Y-88491500D01*
X140598061Y-88492872D01*
X140598056Y-88492872D01*
X140511112Y-88511353D01*
X140417712Y-88531206D01*
X140411682Y-88533891D01*
X140411681Y-88533891D01*
X140249278Y-88606197D01*
X140249276Y-88606198D01*
X140243248Y-88608882D01*
X140088747Y-88721134D01*
X140084326Y-88726044D01*
X140084325Y-88726045D01*
X139979759Y-88842178D01*
X139960960Y-88863056D01*
X139865473Y-89028444D01*
X139806458Y-89210072D01*
X139805768Y-89216633D01*
X139805768Y-89216635D01*
X139803847Y-89234910D01*
X139795757Y-89311893D01*
X139794076Y-89327884D01*
X139767063Y-89393541D01*
X139757861Y-89403809D01*
X134362074Y-94799595D01*
X134299762Y-94833621D01*
X134272979Y-94836500D01*
X105427020Y-94836500D01*
X105358899Y-94816498D01*
X105337925Y-94799595D01*
X103306078Y-92767747D01*
X103272052Y-92705435D01*
X103277117Y-92634619D01*
X103319664Y-92577784D01*
X103384191Y-92553131D01*
X103459085Y-92546579D01*
X103602606Y-92534023D01*
X103602611Y-92534022D01*
X103608087Y-92533543D01*
X103613400Y-92532119D01*
X103613402Y-92532119D01*
X103823933Y-92475707D01*
X103823935Y-92475706D01*
X103829243Y-92474284D01*
X103835235Y-92471490D01*
X104031762Y-92379849D01*
X104031767Y-92379846D01*
X104036749Y-92377523D01*
X104166273Y-92286829D01*
X104219789Y-92249357D01*
X104219792Y-92249355D01*
X104224300Y-92246198D01*
X104386198Y-92084300D01*
X104417918Y-92039000D01*
X104473364Y-91959814D01*
X104517523Y-91896749D01*
X104519846Y-91891767D01*
X104519849Y-91891762D01*
X104535805Y-91857543D01*
X104582722Y-91804258D01*
X104650999Y-91784797D01*
X104718959Y-91805339D01*
X104764195Y-91857543D01*
X104780151Y-91891762D01*
X104780154Y-91891767D01*
X104782477Y-91896749D01*
X104826636Y-91959814D01*
X104882083Y-92039000D01*
X104913802Y-92084300D01*
X105075700Y-92246198D01*
X105080208Y-92249355D01*
X105080211Y-92249357D01*
X105133727Y-92286829D01*
X105263251Y-92377523D01*
X105268233Y-92379846D01*
X105268238Y-92379849D01*
X105464765Y-92471490D01*
X105470757Y-92474284D01*
X105476065Y-92475706D01*
X105476067Y-92475707D01*
X105686598Y-92532119D01*
X105686600Y-92532119D01*
X105691913Y-92533543D01*
X105920000Y-92553498D01*
X106148087Y-92533543D01*
X106153400Y-92532119D01*
X106153402Y-92532119D01*
X106363933Y-92475707D01*
X106363935Y-92475706D01*
X106369243Y-92474284D01*
X106375235Y-92471490D01*
X106571762Y-92379849D01*
X106571767Y-92379846D01*
X106576749Y-92377523D01*
X106706273Y-92286829D01*
X106759789Y-92249357D01*
X106759792Y-92249355D01*
X106764300Y-92246198D01*
X106926198Y-92084300D01*
X106957918Y-92039000D01*
X107013364Y-91959814D01*
X107057523Y-91896749D01*
X107059846Y-91891767D01*
X107059849Y-91891762D01*
X107076081Y-91856951D01*
X107122998Y-91803666D01*
X107191275Y-91784205D01*
X107259235Y-91804747D01*
X107304471Y-91856951D01*
X107320586Y-91891511D01*
X107326069Y-91901007D01*
X107451028Y-92079467D01*
X107458084Y-92087875D01*
X107612125Y-92241916D01*
X107620533Y-92248972D01*
X107798993Y-92373931D01*
X107808489Y-92379414D01*
X108005947Y-92471490D01*
X108016239Y-92475236D01*
X108188503Y-92521394D01*
X108202599Y-92521058D01*
X108206000Y-92513116D01*
X108206000Y-92507967D01*
X108714000Y-92507967D01*
X108717973Y-92521498D01*
X108726522Y-92522727D01*
X108903761Y-92475236D01*
X108914053Y-92471490D01*
X109111511Y-92379414D01*
X109121007Y-92373931D01*
X109299467Y-92248972D01*
X109307875Y-92241916D01*
X109461916Y-92087875D01*
X109468972Y-92079467D01*
X109593931Y-91901007D01*
X109599414Y-91891511D01*
X109615529Y-91856951D01*
X109662446Y-91803666D01*
X109730723Y-91784205D01*
X109798683Y-91804747D01*
X109843919Y-91856951D01*
X109860151Y-91891762D01*
X109860154Y-91891767D01*
X109862477Y-91896749D01*
X109906636Y-91959814D01*
X109962083Y-92039000D01*
X109993802Y-92084300D01*
X110155700Y-92246198D01*
X110160208Y-92249355D01*
X110160211Y-92249357D01*
X110213727Y-92286829D01*
X110343251Y-92377523D01*
X110348233Y-92379846D01*
X110348238Y-92379849D01*
X110544765Y-92471490D01*
X110550757Y-92474284D01*
X110556065Y-92475706D01*
X110556067Y-92475707D01*
X110766598Y-92532119D01*
X110766600Y-92532119D01*
X110771913Y-92533543D01*
X111000000Y-92553498D01*
X111228087Y-92533543D01*
X111233400Y-92532119D01*
X111233402Y-92532119D01*
X111443933Y-92475707D01*
X111443935Y-92475706D01*
X111449243Y-92474284D01*
X111479221Y-92460305D01*
X111532471Y-92448500D01*
X132371915Y-92448500D01*
X132388360Y-92449578D01*
X132409189Y-92452320D01*
X132414788Y-92452056D01*
X132414790Y-92452056D01*
X132487223Y-92448640D01*
X132493158Y-92448500D01*
X132514735Y-92448500D01*
X132517521Y-92448251D01*
X132517529Y-92448251D01*
X132539601Y-92446281D01*
X132544865Y-92445922D01*
X132597653Y-92443432D01*
X132624675Y-92442158D01*
X132630134Y-92440908D01*
X132630139Y-92440907D01*
X132641132Y-92438389D01*
X132658063Y-92435708D01*
X132662174Y-92435341D01*
X132674872Y-92434208D01*
X132680284Y-92432727D01*
X132680292Y-92432726D01*
X132751941Y-92413125D01*
X132757059Y-92411839D01*
X132772029Y-92408410D01*
X132834957Y-92393998D01*
X132840114Y-92391798D01*
X132840121Y-92391796D01*
X132850483Y-92387376D01*
X132866670Y-92381739D01*
X132877537Y-92378766D01*
X132877544Y-92378763D01*
X132882952Y-92377284D01*
X132888010Y-92374872D01*
X132888014Y-92374870D01*
X132955080Y-92342881D01*
X132959879Y-92340714D01*
X133033386Y-92309360D01*
X133038074Y-92306281D01*
X133038077Y-92306279D01*
X133047494Y-92300093D01*
X133062428Y-92291678D01*
X133072594Y-92286829D01*
X133072595Y-92286828D01*
X133077663Y-92284411D01*
X133082218Y-92281138D01*
X133082228Y-92281132D01*
X133142544Y-92237790D01*
X133146894Y-92234800D01*
X133209832Y-92193458D01*
X133209836Y-92193455D01*
X133213692Y-92190922D01*
X133233460Y-92173309D01*
X133243755Y-92165062D01*
X133248292Y-92161802D01*
X133248293Y-92161802D01*
X133252851Y-92158526D01*
X133324248Y-92084850D01*
X133325637Y-92083440D01*
X137260914Y-88148163D01*
X149617353Y-88148163D01*
X149618813Y-88161460D01*
X149633370Y-88166000D01*
X150827885Y-88166000D01*
X150843124Y-88161525D01*
X150844329Y-88160135D01*
X150846000Y-88152452D01*
X150846000Y-88147885D01*
X151354000Y-88147885D01*
X151358475Y-88163124D01*
X151359865Y-88164329D01*
X151367548Y-88166000D01*
X152568096Y-88166000D01*
X152581440Y-88162082D01*
X152583427Y-88147806D01*
X152573890Y-88085485D01*
X152571501Y-88075457D01*
X152500102Y-87857012D01*
X152496105Y-87847503D01*
X152389989Y-87643656D01*
X152384495Y-87634931D01*
X152246507Y-87451148D01*
X152239664Y-87443441D01*
X152073509Y-87284661D01*
X152065499Y-87278174D01*
X151875653Y-87148670D01*
X151866679Y-87143571D01*
X151658231Y-87046813D01*
X151648544Y-87043250D01*
X151427092Y-86981835D01*
X151416970Y-86979904D01*
X151372013Y-86975099D01*
X151357392Y-86977747D01*
X151354000Y-86990124D01*
X151354000Y-88147885D01*
X150846000Y-88147885D01*
X150846000Y-86989588D01*
X150841675Y-86974859D01*
X150829889Y-86972798D01*
X150818296Y-86973751D01*
X150808134Y-86975433D01*
X150585229Y-87031422D01*
X150575481Y-87034741D01*
X150364711Y-87126385D01*
X150355636Y-87131251D01*
X150162673Y-87256085D01*
X150154502Y-87262378D01*
X149984520Y-87417050D01*
X149977494Y-87424583D01*
X149835055Y-87604944D01*
X149829350Y-87613531D01*
X149718286Y-87814722D01*
X149714056Y-87824134D01*
X149637341Y-88040768D01*
X149634707Y-88050739D01*
X149617353Y-88148163D01*
X137260914Y-88148163D01*
X139489077Y-85920000D01*
X159686526Y-85920000D01*
X159706391Y-86172403D01*
X159707545Y-86177210D01*
X159707546Y-86177216D01*
X159734558Y-86289728D01*
X159765495Y-86418591D01*
X159767388Y-86423162D01*
X159767389Y-86423164D01*
X159797792Y-86496562D01*
X159862384Y-86652502D01*
X159994672Y-86868376D01*
X160159102Y-87060898D01*
X160351624Y-87225328D01*
X160567498Y-87357616D01*
X160572068Y-87359509D01*
X160572072Y-87359511D01*
X160774698Y-87443441D01*
X160801409Y-87454505D01*
X160886032Y-87474821D01*
X161042784Y-87512454D01*
X161042790Y-87512455D01*
X161047597Y-87513609D01*
X161300000Y-87533474D01*
X161552403Y-87513609D01*
X161557210Y-87512455D01*
X161557216Y-87512454D01*
X161713968Y-87474821D01*
X161798591Y-87454505D01*
X161825302Y-87443441D01*
X162027928Y-87359511D01*
X162027932Y-87359509D01*
X162032502Y-87357616D01*
X162248376Y-87225328D01*
X162440898Y-87060898D01*
X162605328Y-86868376D01*
X162737616Y-86652502D01*
X162802209Y-86496562D01*
X162832611Y-86423164D01*
X162832612Y-86423162D01*
X162834505Y-86418591D01*
X162865442Y-86289728D01*
X162892454Y-86177216D01*
X162892455Y-86177210D01*
X162893609Y-86172403D01*
X162913474Y-85920000D01*
X162893609Y-85667597D01*
X162834505Y-85421409D01*
X162737616Y-85187498D01*
X162605328Y-84971624D01*
X162440898Y-84779102D01*
X162248376Y-84614672D01*
X162032502Y-84482384D01*
X162027932Y-84480491D01*
X162027928Y-84480489D01*
X161803164Y-84387389D01*
X161803162Y-84387388D01*
X161798591Y-84385495D01*
X161713968Y-84365179D01*
X161557216Y-84327546D01*
X161557210Y-84327545D01*
X161552403Y-84326391D01*
X161300000Y-84306526D01*
X161047597Y-84326391D01*
X161042790Y-84327545D01*
X161042784Y-84327546D01*
X160886032Y-84365179D01*
X160801409Y-84385495D01*
X160796838Y-84387388D01*
X160796836Y-84387389D01*
X160572072Y-84480489D01*
X160572068Y-84480491D01*
X160567498Y-84482384D01*
X160351624Y-84614672D01*
X160159102Y-84779102D01*
X159994672Y-84971624D01*
X159862384Y-85187498D01*
X159765495Y-85421409D01*
X159706391Y-85667597D01*
X159686526Y-85920000D01*
X139489077Y-85920000D01*
X147564408Y-77844669D01*
X161792001Y-77844669D01*
X161792371Y-77851490D01*
X161797895Y-77902352D01*
X161801521Y-77917604D01*
X161846676Y-78038054D01*
X161855214Y-78053649D01*
X161931715Y-78155724D01*
X161944276Y-78168285D01*
X162046351Y-78244786D01*
X162061946Y-78253324D01*
X162182394Y-78298478D01*
X162197649Y-78302105D01*
X162248514Y-78307631D01*
X162255328Y-78308000D01*
X163227885Y-78308000D01*
X163243124Y-78303525D01*
X163244329Y-78302135D01*
X163246000Y-78294452D01*
X163246000Y-78289884D01*
X163754000Y-78289884D01*
X163758475Y-78305123D01*
X163759865Y-78306328D01*
X163767548Y-78307999D01*
X164744669Y-78307999D01*
X164751490Y-78307629D01*
X164802352Y-78302105D01*
X164817604Y-78298479D01*
X164938054Y-78253324D01*
X164953649Y-78244786D01*
X165055724Y-78168285D01*
X165068285Y-78155724D01*
X165144786Y-78053649D01*
X165153324Y-78038054D01*
X165198478Y-77917606D01*
X165202105Y-77902351D01*
X165207631Y-77851486D01*
X165208000Y-77844672D01*
X165208000Y-76872115D01*
X165203525Y-76856876D01*
X165202135Y-76855671D01*
X165194452Y-76854000D01*
X163772115Y-76854000D01*
X163756876Y-76858475D01*
X163755671Y-76859865D01*
X163754000Y-76867548D01*
X163754000Y-78289884D01*
X163246000Y-78289884D01*
X163246000Y-76872115D01*
X163241525Y-76856876D01*
X163240135Y-76855671D01*
X163232452Y-76854000D01*
X161810116Y-76854000D01*
X161794877Y-76858475D01*
X161793672Y-76859865D01*
X161792001Y-76867548D01*
X161792001Y-77844669D01*
X147564408Y-77844669D01*
X147943672Y-77465405D01*
X148005984Y-77431379D01*
X148032767Y-77428500D01*
X149028134Y-77428500D01*
X149090316Y-77421745D01*
X149226705Y-77370615D01*
X149343261Y-77283261D01*
X149430615Y-77166705D01*
X149481745Y-77030316D01*
X149488500Y-76968134D01*
X149488500Y-76327885D01*
X161792000Y-76327885D01*
X161796475Y-76343124D01*
X161797865Y-76344329D01*
X161805548Y-76346000D01*
X163227885Y-76346000D01*
X163243124Y-76341525D01*
X163244329Y-76340135D01*
X163246000Y-76332452D01*
X163246000Y-76327885D01*
X163754000Y-76327885D01*
X163758475Y-76343124D01*
X163759865Y-76344329D01*
X163767548Y-76346000D01*
X165189884Y-76346000D01*
X165205123Y-76341525D01*
X165206328Y-76340135D01*
X165207999Y-76332452D01*
X165207999Y-75355331D01*
X165207629Y-75348510D01*
X165202105Y-75297648D01*
X165198479Y-75282396D01*
X165153324Y-75161946D01*
X165144786Y-75146351D01*
X165068285Y-75044276D01*
X165055724Y-75031715D01*
X164953649Y-74955214D01*
X164938054Y-74946676D01*
X164817606Y-74901522D01*
X164802351Y-74897895D01*
X164751486Y-74892369D01*
X164744672Y-74892000D01*
X163772115Y-74892000D01*
X163756876Y-74896475D01*
X163755671Y-74897865D01*
X163754000Y-74905548D01*
X163754000Y-76327885D01*
X163246000Y-76327885D01*
X163246000Y-74910116D01*
X163241525Y-74894877D01*
X163240135Y-74893672D01*
X163232452Y-74892001D01*
X162255331Y-74892001D01*
X162248510Y-74892371D01*
X162197648Y-74897895D01*
X162182396Y-74901521D01*
X162061946Y-74946676D01*
X162046351Y-74955214D01*
X161944276Y-75031715D01*
X161931715Y-75044276D01*
X161855214Y-75146351D01*
X161846676Y-75161946D01*
X161801522Y-75282394D01*
X161797895Y-75297649D01*
X161792369Y-75348514D01*
X161792000Y-75355328D01*
X161792000Y-76327885D01*
X149488500Y-76327885D01*
X149488500Y-74671866D01*
X149481745Y-74609684D01*
X149430615Y-74473295D01*
X149343261Y-74356739D01*
X149226705Y-74269385D01*
X149090316Y-74218255D01*
X149028134Y-74211500D01*
X146731866Y-74211500D01*
X146669684Y-74218255D01*
X146533295Y-74269385D01*
X146416739Y-74356739D01*
X146329385Y-74473295D01*
X146278255Y-74609684D01*
X146271500Y-74671866D01*
X146271500Y-75667233D01*
X146251498Y-75735354D01*
X146234595Y-75756328D01*
X131996328Y-89994595D01*
X131934016Y-90028621D01*
X131907233Y-90031500D01*
X111532471Y-90031500D01*
X111479221Y-90019695D01*
X111454225Y-90008039D01*
X111454224Y-90008038D01*
X111449243Y-90005716D01*
X111443935Y-90004294D01*
X111443933Y-90004293D01*
X111233402Y-89947881D01*
X111233400Y-89947881D01*
X111228087Y-89946457D01*
X111000000Y-89926502D01*
X110771913Y-89946457D01*
X110766600Y-89947881D01*
X110766598Y-89947881D01*
X110556067Y-90004293D01*
X110556065Y-90004294D01*
X110550757Y-90005716D01*
X110545776Y-90008039D01*
X110545775Y-90008039D01*
X110348238Y-90100151D01*
X110348233Y-90100154D01*
X110343251Y-90102477D01*
X110282771Y-90144826D01*
X110160211Y-90230643D01*
X110160208Y-90230645D01*
X110155700Y-90233802D01*
X109993802Y-90395700D01*
X109862477Y-90583251D01*
X109860154Y-90588233D01*
X109860151Y-90588238D01*
X109843919Y-90623049D01*
X109797002Y-90676334D01*
X109728725Y-90695795D01*
X109660765Y-90675253D01*
X109615529Y-90623049D01*
X109599414Y-90588489D01*
X109593931Y-90578993D01*
X109468972Y-90400533D01*
X109461916Y-90392125D01*
X109307875Y-90238084D01*
X109299467Y-90231028D01*
X109121007Y-90106069D01*
X109111511Y-90100586D01*
X108914053Y-90008510D01*
X108903761Y-90004764D01*
X108731497Y-89958606D01*
X108717401Y-89958942D01*
X108714000Y-89966884D01*
X108714000Y-92507967D01*
X108206000Y-92507967D01*
X108206000Y-89972033D01*
X108202027Y-89958502D01*
X108193478Y-89957273D01*
X108016239Y-90004764D01*
X108005947Y-90008510D01*
X107808489Y-90100586D01*
X107798993Y-90106069D01*
X107620533Y-90231028D01*
X107612125Y-90238084D01*
X107458084Y-90392125D01*
X107451028Y-90400533D01*
X107326069Y-90578993D01*
X107320586Y-90588489D01*
X107304471Y-90623049D01*
X107257554Y-90676334D01*
X107189277Y-90695795D01*
X107121317Y-90675253D01*
X107076081Y-90623049D01*
X107059849Y-90588238D01*
X107059846Y-90588233D01*
X107057523Y-90583251D01*
X106926198Y-90395700D01*
X106764300Y-90233802D01*
X106759792Y-90230645D01*
X106759789Y-90230643D01*
X106637229Y-90144826D01*
X106576749Y-90102477D01*
X106571767Y-90100154D01*
X106571762Y-90100151D01*
X106374225Y-90008039D01*
X106374224Y-90008039D01*
X106369243Y-90005716D01*
X106363935Y-90004294D01*
X106363933Y-90004293D01*
X106153402Y-89947881D01*
X106153400Y-89947881D01*
X106148087Y-89946457D01*
X105920000Y-89926502D01*
X105691913Y-89946457D01*
X105686600Y-89947881D01*
X105686598Y-89947881D01*
X105476067Y-90004293D01*
X105476065Y-90004294D01*
X105470757Y-90005716D01*
X105465776Y-90008039D01*
X105465775Y-90008039D01*
X105268238Y-90100151D01*
X105268233Y-90100154D01*
X105263251Y-90102477D01*
X105202771Y-90144826D01*
X105080211Y-90230643D01*
X105080208Y-90230645D01*
X105075700Y-90233802D01*
X104913802Y-90395700D01*
X104782477Y-90583251D01*
X104780154Y-90588233D01*
X104780151Y-90588238D01*
X104764195Y-90622457D01*
X104717278Y-90675742D01*
X104649001Y-90695203D01*
X104581041Y-90674661D01*
X104535805Y-90622457D01*
X104519849Y-90588238D01*
X104519846Y-90588233D01*
X104517523Y-90583251D01*
X104386198Y-90395700D01*
X104224300Y-90233802D01*
X104219792Y-90230645D01*
X104219789Y-90230643D01*
X104161505Y-90189832D01*
X104097228Y-90144825D01*
X104052901Y-90089369D01*
X104043500Y-90041613D01*
X104043500Y-89947020D01*
X104063502Y-89878899D01*
X104080405Y-89857925D01*
X114449822Y-79488509D01*
X114456088Y-79482655D01*
X114490971Y-79452225D01*
X114496698Y-79447229D01*
X114530985Y-79398443D01*
X114534910Y-79393159D01*
X114567017Y-79352211D01*
X114571702Y-79346236D01*
X114574826Y-79339317D01*
X114578427Y-79333371D01*
X114581368Y-79328214D01*
X114584670Y-79322056D01*
X114589039Y-79315840D01*
X114610692Y-79260304D01*
X114613248Y-79254223D01*
X114634665Y-79206790D01*
X114634665Y-79206789D01*
X114637789Y-79199871D01*
X114639173Y-79192405D01*
X114641247Y-79185786D01*
X114642893Y-79180010D01*
X114644619Y-79173288D01*
X114647375Y-79166218D01*
X114655157Y-79107107D01*
X114656189Y-79100592D01*
X114665670Y-79049436D01*
X114665670Y-79049435D01*
X114667054Y-79041968D01*
X114663709Y-78983953D01*
X114663500Y-78976700D01*
X114663500Y-65660000D01*
X146266526Y-65660000D01*
X146286391Y-65912403D01*
X146287545Y-65917210D01*
X146287546Y-65917216D01*
X146308375Y-66003975D01*
X146345495Y-66158591D01*
X146347388Y-66163162D01*
X146347389Y-66163164D01*
X146404971Y-66302178D01*
X146442384Y-66392502D01*
X146574672Y-66608376D01*
X146739102Y-66800898D01*
X146931624Y-66965328D01*
X147147498Y-67097616D01*
X147152068Y-67099509D01*
X147152072Y-67099511D01*
X147357759Y-67184709D01*
X147381409Y-67194505D01*
X147466032Y-67214821D01*
X147622784Y-67252454D01*
X147622790Y-67252455D01*
X147627597Y-67253609D01*
X147880000Y-67273474D01*
X148132403Y-67253609D01*
X148137210Y-67252455D01*
X148137216Y-67252454D01*
X148293968Y-67214821D01*
X148378591Y-67194505D01*
X148402241Y-67184709D01*
X148607928Y-67099511D01*
X148607932Y-67099509D01*
X148612502Y-67097616D01*
X148828376Y-66965328D01*
X149020898Y-66800898D01*
X149185328Y-66608376D01*
X149317616Y-66392502D01*
X149355030Y-66302178D01*
X149412611Y-66163164D01*
X149412612Y-66163162D01*
X149414505Y-66158591D01*
X149451625Y-66003975D01*
X149472454Y-65917216D01*
X149472455Y-65917210D01*
X149473609Y-65912403D01*
X149493474Y-65660000D01*
X149473609Y-65407597D01*
X149414505Y-65161409D01*
X149317616Y-64927498D01*
X149185328Y-64711624D01*
X149020898Y-64519102D01*
X148828376Y-64354672D01*
X148612502Y-64222384D01*
X148607932Y-64220491D01*
X148607928Y-64220489D01*
X148383164Y-64127389D01*
X148383162Y-64127388D01*
X148378591Y-64125495D01*
X148289582Y-64104126D01*
X148137216Y-64067546D01*
X148137210Y-64067545D01*
X148132403Y-64066391D01*
X147880000Y-64046526D01*
X147627597Y-64066391D01*
X147622790Y-64067545D01*
X147622784Y-64067546D01*
X147470418Y-64104126D01*
X147381409Y-64125495D01*
X147376838Y-64127388D01*
X147376836Y-64127389D01*
X147152072Y-64220489D01*
X147152068Y-64220491D01*
X147147498Y-64222384D01*
X146931624Y-64354672D01*
X146739102Y-64519102D01*
X146574672Y-64711624D01*
X146442384Y-64927498D01*
X146345495Y-65161409D01*
X146286391Y-65407597D01*
X146266526Y-65660000D01*
X114663500Y-65660000D01*
X114663500Y-63855151D01*
X161787296Y-63855151D01*
X161787520Y-63859817D01*
X161787520Y-63859822D01*
X161789397Y-63898899D01*
X161799480Y-64108798D01*
X161813069Y-64177112D01*
X161847874Y-64352090D01*
X161849021Y-64357857D01*
X161850600Y-64362255D01*
X161850602Y-64362262D01*
X161895022Y-64485980D01*
X161934831Y-64596858D01*
X162055025Y-64820551D01*
X162206963Y-65024020D01*
X162210269Y-65027298D01*
X162210281Y-65027311D01*
X162254205Y-65070852D01*
X162288502Y-65133015D01*
X162291500Y-65160336D01*
X162291500Y-69811915D01*
X162290422Y-69828360D01*
X162287680Y-69849189D01*
X162287944Y-69854788D01*
X162287944Y-69854790D01*
X162291360Y-69927223D01*
X162291500Y-69933158D01*
X162291500Y-69954735D01*
X162291749Y-69957521D01*
X162291749Y-69957529D01*
X162293719Y-69979601D01*
X162294078Y-69984865D01*
X162297842Y-70064675D01*
X162299092Y-70070134D01*
X162299093Y-70070139D01*
X162301611Y-70081132D01*
X162304292Y-70098063D01*
X162305792Y-70114872D01*
X162307273Y-70120284D01*
X162307274Y-70120292D01*
X162326875Y-70191941D01*
X162328161Y-70197059D01*
X162346002Y-70274957D01*
X162348202Y-70280114D01*
X162348204Y-70280121D01*
X162352624Y-70290483D01*
X162358261Y-70306670D01*
X162361234Y-70317537D01*
X162361237Y-70317544D01*
X162362716Y-70322952D01*
X162365128Y-70328010D01*
X162365130Y-70328014D01*
X162397119Y-70395080D01*
X162399286Y-70399879D01*
X162430640Y-70473386D01*
X162433719Y-70478074D01*
X162433721Y-70478077D01*
X162439907Y-70487494D01*
X162448322Y-70502428D01*
X162455589Y-70517663D01*
X162458862Y-70522218D01*
X162458868Y-70522228D01*
X162502210Y-70582544D01*
X162505200Y-70586894D01*
X162549078Y-70653692D01*
X162552145Y-70657134D01*
X162566691Y-70673460D01*
X162574938Y-70683755D01*
X162581474Y-70692851D01*
X162585504Y-70696756D01*
X162655150Y-70764248D01*
X162656560Y-70765637D01*
X165954595Y-74063672D01*
X165988621Y-74125984D01*
X165991500Y-74152767D01*
X165991500Y-89351915D01*
X165990422Y-89368360D01*
X165987680Y-89389189D01*
X165987944Y-89394788D01*
X165987944Y-89394790D01*
X165991360Y-89467223D01*
X165991500Y-89473158D01*
X165991500Y-89494735D01*
X165991749Y-89497521D01*
X165991749Y-89497529D01*
X165993719Y-89519601D01*
X165994078Y-89524865D01*
X165997842Y-89604675D01*
X165999092Y-89610134D01*
X165999093Y-89610139D01*
X166001611Y-89621132D01*
X166004292Y-89638063D01*
X166005792Y-89654872D01*
X166007273Y-89660284D01*
X166007274Y-89660292D01*
X166026875Y-89731941D01*
X166028161Y-89737059D01*
X166046002Y-89814957D01*
X166048202Y-89820114D01*
X166048204Y-89820121D01*
X166052624Y-89830483D01*
X166058261Y-89846670D01*
X166061234Y-89857537D01*
X166061237Y-89857544D01*
X166062716Y-89862952D01*
X166065128Y-89868010D01*
X166065130Y-89868014D01*
X166097119Y-89935080D01*
X166099286Y-89939879D01*
X166130640Y-90013386D01*
X166133719Y-90018074D01*
X166133721Y-90018077D01*
X166139907Y-90027494D01*
X166148322Y-90042428D01*
X166155589Y-90057663D01*
X166158862Y-90062218D01*
X166158868Y-90062228D01*
X166202210Y-90122544D01*
X166205200Y-90126894D01*
X166244838Y-90187237D01*
X166249078Y-90193692D01*
X166252145Y-90197134D01*
X166266691Y-90213460D01*
X166274938Y-90223755D01*
X166281474Y-90232851D01*
X166285504Y-90236756D01*
X166355150Y-90304248D01*
X166356560Y-90305637D01*
X168554595Y-92503672D01*
X168588621Y-92565984D01*
X168591500Y-92592767D01*
X168591500Y-94388134D01*
X168598255Y-94450316D01*
X168649385Y-94586705D01*
X168736739Y-94703261D01*
X168853295Y-94790615D01*
X168989684Y-94841745D01*
X169051866Y-94848500D01*
X172148134Y-94848500D01*
X172210316Y-94841745D01*
X172346705Y-94790615D01*
X172463261Y-94703261D01*
X172550615Y-94586705D01*
X172601745Y-94450316D01*
X172608500Y-94388134D01*
X172608500Y-91291866D01*
X172601745Y-91229684D01*
X172550615Y-91093295D01*
X172463261Y-90976739D01*
X172346705Y-90889385D01*
X172210316Y-90838255D01*
X172148134Y-90831500D01*
X170352767Y-90831500D01*
X170284646Y-90811498D01*
X170263672Y-90794595D01*
X168445405Y-88976328D01*
X168411379Y-88914016D01*
X168408500Y-88887233D01*
X168408500Y-88315530D01*
X168428502Y-88247409D01*
X168482158Y-88200916D01*
X168552432Y-88190812D01*
X168617012Y-88220306D01*
X168655104Y-88281156D01*
X168655405Y-88281053D01*
X168656793Y-88285106D01*
X168656794Y-88285111D01*
X168677605Y-88345895D01*
X168744112Y-88540144D01*
X168867160Y-88784799D01*
X168869586Y-88788328D01*
X168869589Y-88788334D01*
X168937561Y-88887233D01*
X169022274Y-89010490D01*
X169025161Y-89013663D01*
X169025162Y-89013664D01*
X169175593Y-89178986D01*
X169206582Y-89213043D01*
X169209877Y-89215798D01*
X169209878Y-89215799D01*
X169219981Y-89224246D01*
X169416675Y-89388707D01*
X169420316Y-89390991D01*
X169645024Y-89531951D01*
X169645028Y-89531953D01*
X169648664Y-89534234D01*
X169745668Y-89578033D01*
X169894345Y-89645164D01*
X169894349Y-89645166D01*
X169898257Y-89646930D01*
X169902377Y-89648150D01*
X169902376Y-89648150D01*
X170156723Y-89723491D01*
X170156727Y-89723492D01*
X170160836Y-89724709D01*
X170165070Y-89725357D01*
X170165075Y-89725358D01*
X170427298Y-89765483D01*
X170427300Y-89765483D01*
X170431540Y-89766132D01*
X170570912Y-89768322D01*
X170701071Y-89770367D01*
X170701077Y-89770367D01*
X170705362Y-89770434D01*
X170977235Y-89737534D01*
X171242127Y-89668041D01*
X171246087Y-89666401D01*
X171246092Y-89666399D01*
X171408623Y-89599076D01*
X171495136Y-89563241D01*
X171617165Y-89491933D01*
X171727879Y-89427237D01*
X171727880Y-89427236D01*
X171731582Y-89425073D01*
X171947089Y-89256094D01*
X171967477Y-89235056D01*
X172134686Y-89062509D01*
X172137669Y-89059431D01*
X172140202Y-89055983D01*
X172140206Y-89055978D01*
X172297257Y-88842178D01*
X172299795Y-88838723D01*
X172327154Y-88788334D01*
X172428418Y-88601830D01*
X172428419Y-88601828D01*
X172430468Y-88598054D01*
X172527269Y-88341877D01*
X172567550Y-88166000D01*
X172587449Y-88079117D01*
X172587450Y-88079113D01*
X172588407Y-88074933D01*
X172589543Y-88062211D01*
X172612531Y-87804627D01*
X172612531Y-87804625D01*
X172612751Y-87802161D01*
X172613193Y-87760000D01*
X172602623Y-87604944D01*
X172594859Y-87491055D01*
X172594858Y-87491049D01*
X172594567Y-87486778D01*
X172539032Y-87218612D01*
X172447617Y-86960465D01*
X172322013Y-86717112D01*
X172312040Y-86702921D01*
X172167008Y-86496562D01*
X172164545Y-86493057D01*
X171978125Y-86292445D01*
X171974810Y-86289731D01*
X171974806Y-86289728D01*
X171769523Y-86121706D01*
X171766205Y-86118990D01*
X171532704Y-85975901D01*
X171528768Y-85974173D01*
X171285873Y-85867549D01*
X171285869Y-85867548D01*
X171281945Y-85865825D01*
X171018566Y-85790800D01*
X171014324Y-85790196D01*
X171014318Y-85790195D01*
X170813834Y-85761662D01*
X170747443Y-85752213D01*
X170603589Y-85751460D01*
X170477877Y-85750802D01*
X170477871Y-85750802D01*
X170473591Y-85750780D01*
X170469347Y-85751339D01*
X170469343Y-85751339D01*
X170350302Y-85767011D01*
X170202078Y-85786525D01*
X170197938Y-85787658D01*
X170197936Y-85787658D01*
X170125008Y-85807609D01*
X169937928Y-85858788D01*
X169933980Y-85860472D01*
X169689982Y-85964546D01*
X169689978Y-85964548D01*
X169686030Y-85966232D01*
X169666125Y-85978145D01*
X169454725Y-86104664D01*
X169454721Y-86104667D01*
X169451043Y-86106868D01*
X169237318Y-86278094D01*
X169048808Y-86476742D01*
X168889002Y-86699136D01*
X168760857Y-86941161D01*
X168759385Y-86945184D01*
X168759383Y-86945188D01*
X168717039Y-87060898D01*
X168666743Y-87198337D01*
X168665831Y-87202520D01*
X168657608Y-87240234D01*
X168623553Y-87302530D01*
X168561225Y-87336525D01*
X168490411Y-87331427D01*
X168433596Y-87288853D01*
X168408817Y-87222321D01*
X168408500Y-87213392D01*
X168408500Y-73688085D01*
X168409578Y-73671639D01*
X168411588Y-73656370D01*
X168412320Y-73650811D01*
X168408640Y-73572776D01*
X168408500Y-73566842D01*
X168408500Y-73545265D01*
X168406281Y-73520399D01*
X168405922Y-73515135D01*
X168402423Y-73440934D01*
X168402422Y-73440929D01*
X168402158Y-73435325D01*
X168398388Y-73418867D01*
X168395710Y-73401956D01*
X168394208Y-73385128D01*
X168373119Y-73308040D01*
X168371836Y-73302932D01*
X168355249Y-73230511D01*
X168353997Y-73225043D01*
X168351798Y-73219888D01*
X168351796Y-73219881D01*
X168347376Y-73209519D01*
X168341739Y-73193332D01*
X168338764Y-73182456D01*
X168338762Y-73182451D01*
X168337284Y-73177048D01*
X168302877Y-73104912D01*
X168300706Y-73100103D01*
X168271561Y-73031774D01*
X168271561Y-73031773D01*
X168269360Y-73026614D01*
X168260093Y-73012506D01*
X168251678Y-72997572D01*
X168246829Y-72987406D01*
X168246828Y-72987405D01*
X168244411Y-72982337D01*
X168241138Y-72977782D01*
X168241132Y-72977772D01*
X168197790Y-72917456D01*
X168194800Y-72913106D01*
X168153458Y-72850168D01*
X168153455Y-72850164D01*
X168150922Y-72846308D01*
X168133309Y-72826540D01*
X168125062Y-72816245D01*
X168121802Y-72811708D01*
X168121802Y-72811707D01*
X168118526Y-72807149D01*
X168044850Y-72735752D01*
X168043440Y-72734363D01*
X167153746Y-71844669D01*
X168192001Y-71844669D01*
X168192371Y-71851490D01*
X168197895Y-71902352D01*
X168201521Y-71917604D01*
X168246676Y-72038054D01*
X168255214Y-72053649D01*
X168331715Y-72155724D01*
X168344276Y-72168285D01*
X168446351Y-72244786D01*
X168461946Y-72253324D01*
X168582394Y-72298478D01*
X168597649Y-72302105D01*
X168648514Y-72307631D01*
X168655328Y-72308000D01*
X169927885Y-72308000D01*
X169943124Y-72303525D01*
X169944329Y-72302135D01*
X169946000Y-72294452D01*
X169946000Y-72289884D01*
X170454000Y-72289884D01*
X170458475Y-72305123D01*
X170459865Y-72306328D01*
X170467548Y-72307999D01*
X171744669Y-72307999D01*
X171751490Y-72307629D01*
X171802352Y-72302105D01*
X171817604Y-72298479D01*
X171938054Y-72253324D01*
X171953649Y-72244786D01*
X172055724Y-72168285D01*
X172068285Y-72155724D01*
X172144786Y-72053649D01*
X172153324Y-72038054D01*
X172198478Y-71917606D01*
X172202105Y-71902351D01*
X172207631Y-71851486D01*
X172208000Y-71844672D01*
X172208000Y-70572115D01*
X172203525Y-70556876D01*
X172202135Y-70555671D01*
X172194452Y-70554000D01*
X170472115Y-70554000D01*
X170456876Y-70558475D01*
X170455671Y-70559865D01*
X170454000Y-70567548D01*
X170454000Y-72289884D01*
X169946000Y-72289884D01*
X169946000Y-70572115D01*
X169941525Y-70556876D01*
X169940135Y-70555671D01*
X169932452Y-70554000D01*
X168210116Y-70554000D01*
X168194877Y-70558475D01*
X168193672Y-70559865D01*
X168192001Y-70567548D01*
X168192001Y-71844669D01*
X167153746Y-71844669D01*
X165336962Y-70027885D01*
X168192000Y-70027885D01*
X168196475Y-70043124D01*
X168197865Y-70044329D01*
X168205548Y-70046000D01*
X169927885Y-70046000D01*
X169943124Y-70041525D01*
X169944329Y-70040135D01*
X169946000Y-70032452D01*
X169946000Y-70027885D01*
X170454000Y-70027885D01*
X170458475Y-70043124D01*
X170459865Y-70044329D01*
X170467548Y-70046000D01*
X172189884Y-70046000D01*
X172205123Y-70041525D01*
X172206328Y-70040135D01*
X172207999Y-70032452D01*
X172207999Y-68755331D01*
X172207629Y-68748510D01*
X172202105Y-68697648D01*
X172198479Y-68682396D01*
X172153324Y-68561946D01*
X172144786Y-68546351D01*
X172068285Y-68444276D01*
X172055724Y-68431715D01*
X171953649Y-68355214D01*
X171938054Y-68346676D01*
X171817606Y-68301522D01*
X171802351Y-68297895D01*
X171751486Y-68292369D01*
X171744672Y-68292000D01*
X170472115Y-68292000D01*
X170456876Y-68296475D01*
X170455671Y-68297865D01*
X170454000Y-68305548D01*
X170454000Y-70027885D01*
X169946000Y-70027885D01*
X169946000Y-68310116D01*
X169941525Y-68294877D01*
X169940135Y-68293672D01*
X169932452Y-68292001D01*
X168655331Y-68292001D01*
X168648510Y-68292371D01*
X168597648Y-68297895D01*
X168582396Y-68301521D01*
X168461946Y-68346676D01*
X168446351Y-68355214D01*
X168344276Y-68431715D01*
X168331715Y-68444276D01*
X168255214Y-68546351D01*
X168246676Y-68561946D01*
X168201522Y-68682394D01*
X168197895Y-68697649D01*
X168192369Y-68748514D01*
X168192000Y-68755328D01*
X168192000Y-70027885D01*
X165336962Y-70027885D01*
X164745405Y-69436328D01*
X164711379Y-69374016D01*
X164708500Y-69347233D01*
X164708500Y-65198918D01*
X168186917Y-65198918D01*
X168202682Y-65472320D01*
X168203507Y-65476525D01*
X168203508Y-65476533D01*
X168214127Y-65530657D01*
X168255405Y-65741053D01*
X168256792Y-65745103D01*
X168256793Y-65745108D01*
X168277605Y-65805895D01*
X168344112Y-66000144D01*
X168467160Y-66244799D01*
X168469586Y-66248328D01*
X168469589Y-66248334D01*
X168565530Y-66387928D01*
X168622274Y-66470490D01*
X168806582Y-66673043D01*
X169016675Y-66848707D01*
X169020316Y-66850991D01*
X169245024Y-66991951D01*
X169245028Y-66991953D01*
X169248664Y-66994234D01*
X169316544Y-67024883D01*
X169494345Y-67105164D01*
X169494349Y-67105166D01*
X169498257Y-67106930D01*
X169502377Y-67108150D01*
X169502376Y-67108150D01*
X169756723Y-67183491D01*
X169756727Y-67183492D01*
X169760836Y-67184709D01*
X169765070Y-67185357D01*
X169765075Y-67185358D01*
X170027298Y-67225483D01*
X170027300Y-67225483D01*
X170031540Y-67226132D01*
X170170912Y-67228322D01*
X170301071Y-67230367D01*
X170301077Y-67230367D01*
X170305362Y-67230434D01*
X170577235Y-67197534D01*
X170842127Y-67128041D01*
X170846087Y-67126401D01*
X170846092Y-67126399D01*
X170968632Y-67075641D01*
X171095136Y-67023241D01*
X171331582Y-66885073D01*
X171547089Y-66716094D01*
X171588809Y-66673043D01*
X171734686Y-66522509D01*
X171737669Y-66519431D01*
X171740202Y-66515983D01*
X171740206Y-66515978D01*
X171897257Y-66302178D01*
X171899795Y-66298723D01*
X171927154Y-66248334D01*
X172028418Y-66061830D01*
X172028419Y-66061828D01*
X172030468Y-66058054D01*
X172127269Y-65801877D01*
X172188407Y-65534933D01*
X172199772Y-65407597D01*
X172212531Y-65264627D01*
X172212531Y-65264625D01*
X172212751Y-65262161D01*
X172213193Y-65220000D01*
X172204508Y-65092598D01*
X172194859Y-64951055D01*
X172194858Y-64951049D01*
X172194567Y-64946778D01*
X172190504Y-64927156D01*
X172146205Y-64713251D01*
X172139032Y-64678612D01*
X172047617Y-64420465D01*
X171959329Y-64249410D01*
X171923978Y-64180919D01*
X171923978Y-64180918D01*
X171922013Y-64177112D01*
X171912040Y-64162921D01*
X171774358Y-63967020D01*
X171764545Y-63953057D01*
X171673565Y-63855151D01*
X171581046Y-63755588D01*
X171581043Y-63755585D01*
X171578125Y-63752445D01*
X171574810Y-63749731D01*
X171574806Y-63749728D01*
X171423664Y-63626020D01*
X171366205Y-63578990D01*
X171162588Y-63454214D01*
X171136366Y-63438145D01*
X171136365Y-63438145D01*
X171132704Y-63435901D01*
X171126574Y-63433210D01*
X170885873Y-63327549D01*
X170885869Y-63327548D01*
X170881945Y-63325825D01*
X170618566Y-63250800D01*
X170614324Y-63250196D01*
X170614318Y-63250195D01*
X170413834Y-63221662D01*
X170347443Y-63212213D01*
X170203589Y-63211460D01*
X170077877Y-63210802D01*
X170077871Y-63210802D01*
X170073591Y-63210780D01*
X170069347Y-63211339D01*
X170069343Y-63211339D01*
X169950302Y-63227011D01*
X169802078Y-63246525D01*
X169797938Y-63247658D01*
X169797936Y-63247658D01*
X169756846Y-63258899D01*
X169537928Y-63318788D01*
X169533980Y-63320472D01*
X169289982Y-63424546D01*
X169289978Y-63424548D01*
X169286030Y-63426232D01*
X169167414Y-63497222D01*
X169054725Y-63564664D01*
X169054721Y-63564667D01*
X169051043Y-63566868D01*
X168837318Y-63738094D01*
X168726235Y-63855151D01*
X168669602Y-63914830D01*
X168648808Y-63936742D01*
X168489002Y-64159136D01*
X168360857Y-64401161D01*
X168359385Y-64405184D01*
X168359383Y-64405188D01*
X168352314Y-64424506D01*
X168266743Y-64658337D01*
X168208404Y-64925907D01*
X168186917Y-65198918D01*
X164708500Y-65198918D01*
X164708500Y-65160719D01*
X164728502Y-65092598D01*
X164739768Y-65077642D01*
X164865214Y-64934598D01*
X164865218Y-64934592D01*
X164868295Y-64931084D01*
X164874318Y-64921721D01*
X165003141Y-64721442D01*
X165005669Y-64717512D01*
X165109967Y-64485980D01*
X165178896Y-64241575D01*
X165196382Y-64104126D01*
X165210545Y-63992798D01*
X165210545Y-63992792D01*
X165210943Y-63989667D01*
X165213291Y-63900000D01*
X165205783Y-63798965D01*
X165194818Y-63651411D01*
X165194817Y-63651407D01*
X165194472Y-63646759D01*
X165189780Y-63626020D01*
X165139459Y-63403639D01*
X165138428Y-63399082D01*
X165112045Y-63331238D01*
X165048084Y-63166762D01*
X165048083Y-63166760D01*
X165046391Y-63162409D01*
X165025866Y-63126498D01*
X164922702Y-62945997D01*
X164922700Y-62945995D01*
X164920383Y-62941940D01*
X164763171Y-62742517D01*
X164662472Y-62647789D01*
X164581610Y-62571722D01*
X164581608Y-62571720D01*
X164578209Y-62568523D01*
X164413802Y-62454470D01*
X164373393Y-62426437D01*
X164373390Y-62426435D01*
X164369561Y-62423779D01*
X164365384Y-62421719D01*
X164365377Y-62421715D01*
X164145996Y-62313528D01*
X164145992Y-62313527D01*
X164141810Y-62311464D01*
X163899960Y-62234047D01*
X163895355Y-62233297D01*
X163653935Y-62193980D01*
X163653934Y-62193980D01*
X163649323Y-62193229D01*
X163522364Y-62191567D01*
X163400083Y-62189966D01*
X163400080Y-62189966D01*
X163395406Y-62189905D01*
X163143787Y-62224149D01*
X162899993Y-62295208D01*
X162669380Y-62401522D01*
X162665471Y-62404085D01*
X162460928Y-62538189D01*
X162460923Y-62538193D01*
X162457015Y-62540755D01*
X162388904Y-62601546D01*
X162316690Y-62666000D01*
X162267562Y-62709848D01*
X162105183Y-62905087D01*
X161973447Y-63122182D01*
X161971638Y-63126496D01*
X161971637Y-63126498D01*
X161885348Y-63332275D01*
X161875246Y-63356365D01*
X161874095Y-63360897D01*
X161874094Y-63360900D01*
X161850395Y-63454214D01*
X161812738Y-63602490D01*
X161787296Y-63855151D01*
X114663500Y-63855151D01*
X114663500Y-63327020D01*
X114683502Y-63258899D01*
X114700405Y-63237925D01*
X117438330Y-60500000D01*
X119486835Y-60500000D01*
X119505465Y-60736711D01*
X119506619Y-60741518D01*
X119506620Y-60741524D01*
X119539111Y-60876857D01*
X119560895Y-60967594D01*
X119562788Y-60972165D01*
X119562789Y-60972167D01*
X119610055Y-61086277D01*
X119651760Y-61186963D01*
X119654346Y-61191183D01*
X119773241Y-61385202D01*
X119773245Y-61385208D01*
X119775824Y-61389416D01*
X119930031Y-61569969D01*
X120110584Y-61724176D01*
X120114792Y-61726755D01*
X120114798Y-61726759D01*
X120308817Y-61845654D01*
X120313037Y-61848240D01*
X120317607Y-61850133D01*
X120317611Y-61850135D01*
X120449460Y-61904748D01*
X120532406Y-61939105D01*
X120612609Y-61958360D01*
X120758476Y-61993380D01*
X120758482Y-61993381D01*
X120763289Y-61994535D01*
X121000000Y-62013165D01*
X121236711Y-61994535D01*
X121241518Y-61993381D01*
X121241524Y-61993380D01*
X121387391Y-61958360D01*
X121467594Y-61939105D01*
X121550540Y-61904748D01*
X121682389Y-61850135D01*
X121682393Y-61850133D01*
X121686963Y-61848240D01*
X121691183Y-61845654D01*
X121885202Y-61726759D01*
X121885208Y-61726755D01*
X121889416Y-61724176D01*
X122069969Y-61569969D01*
X122224176Y-61389416D01*
X122226755Y-61385208D01*
X122226759Y-61385202D01*
X122345654Y-61191183D01*
X122348240Y-61186963D01*
X122389946Y-61086277D01*
X122437211Y-60972167D01*
X122437212Y-60972165D01*
X122439105Y-60967594D01*
X122460889Y-60876857D01*
X122493380Y-60741524D01*
X122493381Y-60741518D01*
X122494535Y-60736711D01*
X122513165Y-60500000D01*
X125986835Y-60500000D01*
X126005465Y-60736711D01*
X126006619Y-60741518D01*
X126006620Y-60741524D01*
X126039111Y-60876857D01*
X126060895Y-60967594D01*
X126062788Y-60972165D01*
X126062789Y-60972167D01*
X126110055Y-61086277D01*
X126151760Y-61186963D01*
X126154346Y-61191183D01*
X126273241Y-61385202D01*
X126273245Y-61385208D01*
X126275824Y-61389416D01*
X126430031Y-61569969D01*
X126610584Y-61724176D01*
X126614792Y-61726755D01*
X126614798Y-61726759D01*
X126808817Y-61845654D01*
X126813037Y-61848240D01*
X126817607Y-61850133D01*
X126817611Y-61850135D01*
X126949460Y-61904748D01*
X127032406Y-61939105D01*
X127112609Y-61958360D01*
X127258476Y-61993380D01*
X127258482Y-61993381D01*
X127263289Y-61994535D01*
X127500000Y-62013165D01*
X127736711Y-61994535D01*
X127741518Y-61993381D01*
X127741524Y-61993380D01*
X127887391Y-61958360D01*
X127967594Y-61939105D01*
X128050540Y-61904748D01*
X128182389Y-61850135D01*
X128182393Y-61850133D01*
X128186963Y-61848240D01*
X128191183Y-61845654D01*
X128385202Y-61726759D01*
X128385208Y-61726755D01*
X128389416Y-61724176D01*
X128569969Y-61569969D01*
X128724176Y-61389416D01*
X128726755Y-61385208D01*
X128726759Y-61385202D01*
X128845654Y-61191183D01*
X128848240Y-61186963D01*
X128889946Y-61086277D01*
X128937211Y-60972167D01*
X128937212Y-60972165D01*
X128939105Y-60967594D01*
X128960889Y-60876857D01*
X128993380Y-60741524D01*
X128993381Y-60741518D01*
X128994535Y-60736711D01*
X129013165Y-60500000D01*
X130036835Y-60500000D01*
X130055465Y-60736711D01*
X130056619Y-60741518D01*
X130056620Y-60741524D01*
X130089111Y-60876857D01*
X130110895Y-60967594D01*
X130112788Y-60972165D01*
X130112789Y-60972167D01*
X130160055Y-61086277D01*
X130201760Y-61186963D01*
X130204346Y-61191183D01*
X130323241Y-61385202D01*
X130323245Y-61385208D01*
X130325824Y-61389416D01*
X130480031Y-61569969D01*
X130660584Y-61724176D01*
X130664792Y-61726755D01*
X130664798Y-61726759D01*
X130858817Y-61845654D01*
X130863037Y-61848240D01*
X130867607Y-61850133D01*
X130867611Y-61850135D01*
X130999460Y-61904748D01*
X131082406Y-61939105D01*
X131162609Y-61958360D01*
X131308476Y-61993380D01*
X131308482Y-61993381D01*
X131313289Y-61994535D01*
X131550000Y-62013165D01*
X131786711Y-61994535D01*
X131791518Y-61993381D01*
X131791524Y-61993380D01*
X131937391Y-61958360D01*
X132017594Y-61939105D01*
X132100540Y-61904748D01*
X132232389Y-61850135D01*
X132232393Y-61850133D01*
X132236963Y-61848240D01*
X132241183Y-61845654D01*
X132435202Y-61726759D01*
X132435208Y-61726755D01*
X132439416Y-61724176D01*
X132619969Y-61569969D01*
X132774176Y-61389416D01*
X132776755Y-61385208D01*
X132776759Y-61385202D01*
X132895654Y-61191183D01*
X132898240Y-61186963D01*
X132939946Y-61086277D01*
X132987211Y-60972167D01*
X132987212Y-60972165D01*
X132989105Y-60967594D01*
X133010889Y-60876857D01*
X133043380Y-60741524D01*
X133043381Y-60741518D01*
X133044535Y-60736711D01*
X133063165Y-60500000D01*
X136536835Y-60500000D01*
X136555465Y-60736711D01*
X136556619Y-60741518D01*
X136556620Y-60741524D01*
X136589111Y-60876857D01*
X136610895Y-60967594D01*
X136612788Y-60972165D01*
X136612789Y-60972167D01*
X136660055Y-61086277D01*
X136701760Y-61186963D01*
X136704346Y-61191183D01*
X136823241Y-61385202D01*
X136823245Y-61385208D01*
X136825824Y-61389416D01*
X136980031Y-61569969D01*
X137160584Y-61724176D01*
X137164792Y-61726755D01*
X137164798Y-61726759D01*
X137358817Y-61845654D01*
X137363037Y-61848240D01*
X137367607Y-61850133D01*
X137367611Y-61850135D01*
X137499460Y-61904748D01*
X137582406Y-61939105D01*
X137662609Y-61958360D01*
X137808476Y-61993380D01*
X137808482Y-61993381D01*
X137813289Y-61994535D01*
X138050000Y-62013165D01*
X138286711Y-61994535D01*
X138291518Y-61993381D01*
X138291524Y-61993380D01*
X138437391Y-61958360D01*
X138517594Y-61939105D01*
X138600540Y-61904748D01*
X138732389Y-61850135D01*
X138732393Y-61850133D01*
X138736963Y-61848240D01*
X138741183Y-61845654D01*
X138935202Y-61726759D01*
X138935208Y-61726755D01*
X138939416Y-61724176D01*
X139119969Y-61569969D01*
X139274176Y-61389416D01*
X139276755Y-61385208D01*
X139276759Y-61385202D01*
X139395654Y-61191183D01*
X139398240Y-61186963D01*
X139439946Y-61086277D01*
X139487211Y-60972167D01*
X139487212Y-60972165D01*
X139489105Y-60967594D01*
X139510889Y-60876857D01*
X139543380Y-60741524D01*
X139543381Y-60741518D01*
X139544535Y-60736711D01*
X139563165Y-60500000D01*
X139544535Y-60263289D01*
X139489105Y-60032406D01*
X139398240Y-59813037D01*
X139353844Y-59740590D01*
X139276759Y-59614798D01*
X139276755Y-59614792D01*
X139274176Y-59610584D01*
X139119969Y-59430031D01*
X138939416Y-59275824D01*
X138935208Y-59273245D01*
X138935202Y-59273241D01*
X138741183Y-59154346D01*
X138736963Y-59151760D01*
X138732393Y-59149867D01*
X138732389Y-59149865D01*
X138522167Y-59062789D01*
X138522165Y-59062788D01*
X138517594Y-59060895D01*
X138411883Y-59035516D01*
X138291524Y-59006620D01*
X138291518Y-59006619D01*
X138286711Y-59005465D01*
X138050000Y-58986835D01*
X137813289Y-59005465D01*
X137808482Y-59006619D01*
X137808476Y-59006620D01*
X137688117Y-59035516D01*
X137582406Y-59060895D01*
X137577835Y-59062788D01*
X137577833Y-59062789D01*
X137367611Y-59149865D01*
X137367607Y-59149867D01*
X137363037Y-59151760D01*
X137358817Y-59154346D01*
X137164798Y-59273241D01*
X137164792Y-59273245D01*
X137160584Y-59275824D01*
X136980031Y-59430031D01*
X136825824Y-59610584D01*
X136823245Y-59614792D01*
X136823241Y-59614798D01*
X136746156Y-59740590D01*
X136701760Y-59813037D01*
X136610895Y-60032406D01*
X136555465Y-60263289D01*
X136536835Y-60500000D01*
X133063165Y-60500000D01*
X133044535Y-60263289D01*
X132989105Y-60032406D01*
X132898240Y-59813037D01*
X132853844Y-59740590D01*
X132776759Y-59614798D01*
X132776755Y-59614792D01*
X132774176Y-59610584D01*
X132619969Y-59430031D01*
X132439416Y-59275824D01*
X132435208Y-59273245D01*
X132435202Y-59273241D01*
X132241183Y-59154346D01*
X132236963Y-59151760D01*
X132232393Y-59149867D01*
X132232389Y-59149865D01*
X132022167Y-59062789D01*
X132022165Y-59062788D01*
X132017594Y-59060895D01*
X131911883Y-59035516D01*
X131791524Y-59006620D01*
X131791518Y-59006619D01*
X131786711Y-59005465D01*
X131550000Y-58986835D01*
X131313289Y-59005465D01*
X131308482Y-59006619D01*
X131308476Y-59006620D01*
X131188117Y-59035516D01*
X131082406Y-59060895D01*
X131077835Y-59062788D01*
X131077833Y-59062789D01*
X130867611Y-59149865D01*
X130867607Y-59149867D01*
X130863037Y-59151760D01*
X130858817Y-59154346D01*
X130664798Y-59273241D01*
X130664792Y-59273245D01*
X130660584Y-59275824D01*
X130480031Y-59430031D01*
X130325824Y-59610584D01*
X130323245Y-59614792D01*
X130323241Y-59614798D01*
X130246156Y-59740590D01*
X130201760Y-59813037D01*
X130110895Y-60032406D01*
X130055465Y-60263289D01*
X130036835Y-60500000D01*
X129013165Y-60500000D01*
X128994535Y-60263289D01*
X128939105Y-60032406D01*
X128848240Y-59813037D01*
X128803844Y-59740590D01*
X128726759Y-59614798D01*
X128726755Y-59614792D01*
X128724176Y-59610584D01*
X128569969Y-59430031D01*
X128389416Y-59275824D01*
X128385208Y-59273245D01*
X128385202Y-59273241D01*
X128191183Y-59154346D01*
X128186963Y-59151760D01*
X128182393Y-59149867D01*
X128182389Y-59149865D01*
X127972167Y-59062789D01*
X127972165Y-59062788D01*
X127967594Y-59060895D01*
X127861883Y-59035516D01*
X127741524Y-59006620D01*
X127741518Y-59006619D01*
X127736711Y-59005465D01*
X127500000Y-58986835D01*
X127263289Y-59005465D01*
X127258482Y-59006619D01*
X127258476Y-59006620D01*
X127138117Y-59035516D01*
X127032406Y-59060895D01*
X127027835Y-59062788D01*
X127027833Y-59062789D01*
X126817611Y-59149865D01*
X126817607Y-59149867D01*
X126813037Y-59151760D01*
X126808817Y-59154346D01*
X126614798Y-59273241D01*
X126614792Y-59273245D01*
X126610584Y-59275824D01*
X126430031Y-59430031D01*
X126275824Y-59610584D01*
X126273245Y-59614792D01*
X126273241Y-59614798D01*
X126196156Y-59740590D01*
X126151760Y-59813037D01*
X126060895Y-60032406D01*
X126005465Y-60263289D01*
X125986835Y-60500000D01*
X122513165Y-60500000D01*
X122494535Y-60263289D01*
X122439105Y-60032406D01*
X122348240Y-59813037D01*
X122303844Y-59740590D01*
X122226759Y-59614798D01*
X122226755Y-59614792D01*
X122224176Y-59610584D01*
X122069969Y-59430031D01*
X121889416Y-59275824D01*
X121885208Y-59273245D01*
X121885202Y-59273241D01*
X121691183Y-59154346D01*
X121686963Y-59151760D01*
X121682393Y-59149867D01*
X121682389Y-59149865D01*
X121472167Y-59062789D01*
X121472165Y-59062788D01*
X121467594Y-59060895D01*
X121361883Y-59035516D01*
X121241524Y-59006620D01*
X121241518Y-59006619D01*
X121236711Y-59005465D01*
X121000000Y-58986835D01*
X120763289Y-59005465D01*
X120758482Y-59006619D01*
X120758476Y-59006620D01*
X120638117Y-59035516D01*
X120532406Y-59060895D01*
X120527835Y-59062788D01*
X120527833Y-59062789D01*
X120317611Y-59149865D01*
X120317607Y-59149867D01*
X120313037Y-59151760D01*
X120308817Y-59154346D01*
X120114798Y-59273241D01*
X120114792Y-59273245D01*
X120110584Y-59275824D01*
X119930031Y-59430031D01*
X119775824Y-59610584D01*
X119773245Y-59614792D01*
X119773241Y-59614798D01*
X119696156Y-59740590D01*
X119651760Y-59813037D01*
X119560895Y-60032406D01*
X119505465Y-60263289D01*
X119486835Y-60500000D01*
X117438330Y-60500000D01*
X119421950Y-58516381D01*
X171849160Y-58516381D01*
X171849237Y-58517470D01*
X171851698Y-58521206D01*
X172125632Y-58731404D01*
X172131262Y-58735259D01*
X172431591Y-58917862D01*
X172437593Y-58921080D01*
X172755897Y-59070184D01*
X172762202Y-59072732D01*
X173094743Y-59186587D01*
X173101313Y-59188446D01*
X173444183Y-59265714D01*
X173450912Y-59266853D01*
X173800143Y-59306643D01*
X173806933Y-59307046D01*
X174158419Y-59308886D01*
X174165220Y-59308554D01*
X174514853Y-59272423D01*
X174521581Y-59271357D01*
X174865274Y-59197676D01*
X174871822Y-59195897D01*
X175205549Y-59085527D01*
X175211891Y-59083041D01*
X175531718Y-58937288D01*
X175537777Y-58934121D01*
X175839995Y-58754676D01*
X175845659Y-58750884D01*
X176126732Y-58539849D01*
X176131958Y-58535464D01*
X176141613Y-58526428D01*
X176149682Y-58512750D01*
X176149654Y-58512024D01*
X176144512Y-58503723D01*
X174012810Y-56372020D01*
X173998869Y-56364408D01*
X173997034Y-56364539D01*
X173990420Y-56368790D01*
X171856774Y-58502437D01*
X171849160Y-58516381D01*
X119421950Y-58516381D01*
X120455753Y-57482578D01*
X120518065Y-57448552D01*
X120574262Y-57449154D01*
X120758476Y-57493380D01*
X120758482Y-57493381D01*
X120763289Y-57494535D01*
X121000000Y-57513165D01*
X121236711Y-57494535D01*
X121241518Y-57493381D01*
X121241524Y-57493380D01*
X121387391Y-57458360D01*
X121467594Y-57439105D01*
X121472167Y-57437211D01*
X121682389Y-57350135D01*
X121682393Y-57350133D01*
X121686963Y-57348240D01*
X121691183Y-57345654D01*
X121885202Y-57226759D01*
X121885208Y-57226755D01*
X121889416Y-57224176D01*
X122069969Y-57069969D01*
X122224176Y-56889416D01*
X122226758Y-56885202D01*
X122226765Y-56885193D01*
X122325750Y-56723665D01*
X122378397Y-56676034D01*
X122433182Y-56663500D01*
X126066818Y-56663500D01*
X126134939Y-56683502D01*
X126174250Y-56723665D01*
X126273235Y-56885193D01*
X126273242Y-56885202D01*
X126275824Y-56889416D01*
X126430031Y-57069969D01*
X126610584Y-57224176D01*
X126614792Y-57226755D01*
X126614798Y-57226759D01*
X126808817Y-57345654D01*
X126813037Y-57348240D01*
X126817607Y-57350133D01*
X126817611Y-57350135D01*
X127027833Y-57437211D01*
X127032406Y-57439105D01*
X127112609Y-57458360D01*
X127258476Y-57493380D01*
X127258482Y-57493381D01*
X127263289Y-57494535D01*
X127500000Y-57513165D01*
X127736711Y-57494535D01*
X127741518Y-57493381D01*
X127741524Y-57493380D01*
X127887391Y-57458360D01*
X127967594Y-57439105D01*
X127972167Y-57437211D01*
X128182389Y-57350135D01*
X128182393Y-57350133D01*
X128186963Y-57348240D01*
X128191183Y-57345654D01*
X128385202Y-57226759D01*
X128385208Y-57226755D01*
X128389416Y-57224176D01*
X128569969Y-57069969D01*
X128724176Y-56889416D01*
X128726758Y-56885202D01*
X128726765Y-56885193D01*
X128825750Y-56723665D01*
X128878397Y-56676034D01*
X128933182Y-56663500D01*
X130116818Y-56663500D01*
X130184939Y-56683502D01*
X130224250Y-56723665D01*
X130323235Y-56885193D01*
X130323242Y-56885202D01*
X130325824Y-56889416D01*
X130480031Y-57069969D01*
X130660584Y-57224176D01*
X130664792Y-57226755D01*
X130664798Y-57226759D01*
X130858817Y-57345654D01*
X130863037Y-57348240D01*
X130867607Y-57350133D01*
X130867611Y-57350135D01*
X131077833Y-57437211D01*
X131082406Y-57439105D01*
X131162609Y-57458360D01*
X131308476Y-57493380D01*
X131308482Y-57493381D01*
X131313289Y-57494535D01*
X131550000Y-57513165D01*
X131786711Y-57494535D01*
X131791518Y-57493381D01*
X131791524Y-57493380D01*
X131937391Y-57458360D01*
X132017594Y-57439105D01*
X132022167Y-57437211D01*
X132232389Y-57350135D01*
X132232393Y-57350133D01*
X132236963Y-57348240D01*
X132241183Y-57345654D01*
X132435202Y-57226759D01*
X132435208Y-57226755D01*
X132439416Y-57224176D01*
X132619969Y-57069969D01*
X132774176Y-56889416D01*
X132776758Y-56885202D01*
X132776765Y-56885193D01*
X132875750Y-56723665D01*
X132928397Y-56676034D01*
X132983182Y-56663500D01*
X136616818Y-56663500D01*
X136684939Y-56683502D01*
X136724250Y-56723665D01*
X136823235Y-56885193D01*
X136823242Y-56885202D01*
X136825824Y-56889416D01*
X136980031Y-57069969D01*
X137160584Y-57224176D01*
X137164792Y-57226755D01*
X137164798Y-57226759D01*
X137358817Y-57345654D01*
X137363037Y-57348240D01*
X137367607Y-57350133D01*
X137367611Y-57350135D01*
X137577833Y-57437211D01*
X137582406Y-57439105D01*
X137662609Y-57458360D01*
X137808476Y-57493380D01*
X137808482Y-57493381D01*
X137813289Y-57494535D01*
X138050000Y-57513165D01*
X138286711Y-57494535D01*
X138291518Y-57493381D01*
X138291524Y-57493380D01*
X138437391Y-57458360D01*
X138517594Y-57439105D01*
X138522167Y-57437211D01*
X138732389Y-57350135D01*
X138732393Y-57350133D01*
X138736963Y-57348240D01*
X138741183Y-57345654D01*
X138935202Y-57226759D01*
X138935208Y-57226755D01*
X138939416Y-57224176D01*
X139119969Y-57069969D01*
X139274176Y-56889416D01*
X139276755Y-56885208D01*
X139276759Y-56885202D01*
X139395654Y-56691183D01*
X139398240Y-56686963D01*
X139400678Y-56681079D01*
X139487211Y-56472167D01*
X139487212Y-56472165D01*
X139489105Y-56467594D01*
X139544535Y-56236711D01*
X139563165Y-56000000D01*
X139562522Y-55991832D01*
X170687333Y-55991832D01*
X170705117Y-56342893D01*
X170705827Y-56349649D01*
X170761420Y-56696723D01*
X170762859Y-56703378D01*
X170855608Y-57042410D01*
X170857757Y-57048871D01*
X170986581Y-57375912D01*
X170989412Y-57382095D01*
X171152803Y-57693310D01*
X171156286Y-57699152D01*
X171352330Y-57990896D01*
X171356433Y-57996340D01*
X171476425Y-58138836D01*
X171489164Y-58147279D01*
X171499608Y-58141181D01*
X173627980Y-56012810D01*
X173635592Y-55998869D01*
X173635461Y-55997034D01*
X173631210Y-55990420D01*
X171500992Y-53860203D01*
X171487455Y-53852811D01*
X171477753Y-53859599D01*
X171370430Y-53985257D01*
X171366296Y-53990664D01*
X171168215Y-54281041D01*
X171164697Y-54286851D01*
X170999134Y-54596922D01*
X170996259Y-54603087D01*
X170865155Y-54929218D01*
X170862962Y-54935658D01*
X170767846Y-55274044D01*
X170766363Y-55280679D01*
X170708350Y-55627354D01*
X170707591Y-55634126D01*
X170687357Y-55985037D01*
X170687333Y-55991832D01*
X139562522Y-55991832D01*
X139544535Y-55763289D01*
X139489105Y-55532406D01*
X139445415Y-55426928D01*
X139400135Y-55317611D01*
X139400133Y-55317607D01*
X139398240Y-55313037D01*
X139374345Y-55274044D01*
X139276759Y-55114798D01*
X139276755Y-55114792D01*
X139274176Y-55110584D01*
X139119969Y-54930031D01*
X138939416Y-54775824D01*
X138935208Y-54773245D01*
X138935202Y-54773241D01*
X138741183Y-54654346D01*
X138736963Y-54651760D01*
X138732393Y-54649867D01*
X138732389Y-54649865D01*
X138522167Y-54562789D01*
X138522165Y-54562788D01*
X138517594Y-54560895D01*
X138437391Y-54541640D01*
X138291524Y-54506620D01*
X138291518Y-54506619D01*
X138286711Y-54505465D01*
X138050000Y-54486835D01*
X137813289Y-54505465D01*
X137808482Y-54506619D01*
X137808476Y-54506620D01*
X137662609Y-54541640D01*
X137582406Y-54560895D01*
X137577835Y-54562788D01*
X137577833Y-54562789D01*
X137367611Y-54649865D01*
X137367607Y-54649867D01*
X137363037Y-54651760D01*
X137358817Y-54654346D01*
X137164798Y-54773241D01*
X137164792Y-54773245D01*
X137160584Y-54775824D01*
X136980031Y-54930031D01*
X136825824Y-55110584D01*
X136823242Y-55114797D01*
X136823235Y-55114807D01*
X136724250Y-55276335D01*
X136671603Y-55323966D01*
X136616818Y-55336500D01*
X132983182Y-55336500D01*
X132915061Y-55316498D01*
X132875750Y-55276335D01*
X132776765Y-55114807D01*
X132776758Y-55114797D01*
X132774176Y-55110584D01*
X132619969Y-54930031D01*
X132439416Y-54775824D01*
X132435208Y-54773245D01*
X132435202Y-54773241D01*
X132241183Y-54654346D01*
X132236963Y-54651760D01*
X132232393Y-54649867D01*
X132232389Y-54649865D01*
X132022167Y-54562789D01*
X132022165Y-54562788D01*
X132017594Y-54560895D01*
X131937391Y-54541640D01*
X131791524Y-54506620D01*
X131791518Y-54506619D01*
X131786711Y-54505465D01*
X131550000Y-54486835D01*
X131313289Y-54505465D01*
X131308482Y-54506619D01*
X131308476Y-54506620D01*
X131162609Y-54541640D01*
X131082406Y-54560895D01*
X131077835Y-54562788D01*
X131077833Y-54562789D01*
X130867611Y-54649865D01*
X130867607Y-54649867D01*
X130863037Y-54651760D01*
X130858817Y-54654346D01*
X130664798Y-54773241D01*
X130664792Y-54773245D01*
X130660584Y-54775824D01*
X130480031Y-54930031D01*
X130325824Y-55110584D01*
X130323242Y-55114797D01*
X130323235Y-55114807D01*
X130224250Y-55276335D01*
X130171603Y-55323966D01*
X130116818Y-55336500D01*
X128933182Y-55336500D01*
X128865061Y-55316498D01*
X128825750Y-55276335D01*
X128726765Y-55114807D01*
X128726758Y-55114797D01*
X128724176Y-55110584D01*
X128569969Y-54930031D01*
X128389416Y-54775824D01*
X128385208Y-54773245D01*
X128385202Y-54773241D01*
X128191183Y-54654346D01*
X128186963Y-54651760D01*
X128182393Y-54649867D01*
X128182389Y-54649865D01*
X127972167Y-54562789D01*
X127972165Y-54562788D01*
X127967594Y-54560895D01*
X127887391Y-54541640D01*
X127741524Y-54506620D01*
X127741518Y-54506619D01*
X127736711Y-54505465D01*
X127500000Y-54486835D01*
X127263289Y-54505465D01*
X127258482Y-54506619D01*
X127258476Y-54506620D01*
X127112609Y-54541640D01*
X127032406Y-54560895D01*
X127027835Y-54562788D01*
X127027833Y-54562789D01*
X126817611Y-54649865D01*
X126817607Y-54649867D01*
X126813037Y-54651760D01*
X126808817Y-54654346D01*
X126614798Y-54773241D01*
X126614792Y-54773245D01*
X126610584Y-54775824D01*
X126430031Y-54930031D01*
X126275824Y-55110584D01*
X126273242Y-55114797D01*
X126273235Y-55114807D01*
X126174250Y-55276335D01*
X126121603Y-55323966D01*
X126066818Y-55336500D01*
X122433182Y-55336500D01*
X122365061Y-55316498D01*
X122325750Y-55276335D01*
X122226765Y-55114807D01*
X122226758Y-55114797D01*
X122224176Y-55110584D01*
X122069969Y-54930031D01*
X121889416Y-54775824D01*
X121885208Y-54773245D01*
X121885202Y-54773241D01*
X121691183Y-54654346D01*
X121686963Y-54651760D01*
X121682393Y-54649867D01*
X121682389Y-54649865D01*
X121472167Y-54562789D01*
X121472165Y-54562788D01*
X121467594Y-54560895D01*
X121387391Y-54541640D01*
X121241524Y-54506620D01*
X121241518Y-54506619D01*
X121236711Y-54505465D01*
X121000000Y-54486835D01*
X120763289Y-54505465D01*
X120758482Y-54506619D01*
X120758476Y-54506620D01*
X120612609Y-54541640D01*
X120532406Y-54560895D01*
X120527835Y-54562788D01*
X120527833Y-54562789D01*
X120317611Y-54649865D01*
X120317607Y-54649867D01*
X120313037Y-54651760D01*
X120308817Y-54654346D01*
X120114798Y-54773241D01*
X120114792Y-54773245D01*
X120110584Y-54775824D01*
X119930031Y-54930031D01*
X119775824Y-55110584D01*
X119773245Y-55114792D01*
X119773241Y-55114798D01*
X119675655Y-55274044D01*
X119651760Y-55313037D01*
X119649867Y-55317607D01*
X119649865Y-55317611D01*
X119604585Y-55426928D01*
X119560895Y-55532406D01*
X119505465Y-55763289D01*
X119486835Y-56000000D01*
X119505465Y-56236711D01*
X119506619Y-56241518D01*
X119506620Y-56241524D01*
X119550846Y-56425738D01*
X119547299Y-56496646D01*
X119517422Y-56544247D01*
X113550178Y-62511491D01*
X113543913Y-62517344D01*
X113503302Y-62552771D01*
X113469023Y-62601546D01*
X113465090Y-62606841D01*
X113428298Y-62653764D01*
X113425174Y-62660683D01*
X113421573Y-62666629D01*
X113418632Y-62671786D01*
X113415330Y-62677944D01*
X113410961Y-62684160D01*
X113408202Y-62691236D01*
X113408201Y-62691238D01*
X113389308Y-62739696D01*
X113386752Y-62745777D01*
X113362211Y-62800129D01*
X113360827Y-62807595D01*
X113358753Y-62814214D01*
X113357115Y-62819963D01*
X113355385Y-62826704D01*
X113352625Y-62833782D01*
X113351633Y-62841318D01*
X113344844Y-62892888D01*
X113343812Y-62899405D01*
X113332946Y-62958033D01*
X113333383Y-62965613D01*
X113333383Y-62965614D01*
X113336291Y-63016047D01*
X113336500Y-63023300D01*
X113336500Y-78672980D01*
X113316498Y-78741101D01*
X113299595Y-78762075D01*
X102930178Y-89131491D01*
X102923913Y-89137344D01*
X102883302Y-89172771D01*
X102849023Y-89221546D01*
X102845090Y-89226841D01*
X102838763Y-89234910D01*
X102808298Y-89273764D01*
X102805174Y-89280683D01*
X102801573Y-89286629D01*
X102798632Y-89291786D01*
X102795330Y-89297944D01*
X102790961Y-89304160D01*
X102788202Y-89311236D01*
X102788201Y-89311238D01*
X102769308Y-89359696D01*
X102766752Y-89365777D01*
X102742211Y-89420129D01*
X102740827Y-89427595D01*
X102738753Y-89434214D01*
X102737115Y-89439963D01*
X102735385Y-89446704D01*
X102732625Y-89453782D01*
X102731633Y-89461318D01*
X102724844Y-89512888D01*
X102723812Y-89519405D01*
X102712946Y-89578033D01*
X102713383Y-89585613D01*
X102713383Y-89585614D01*
X102716291Y-89636047D01*
X102716500Y-89643300D01*
X102716500Y-90041613D01*
X102696498Y-90109734D01*
X102662772Y-90144825D01*
X102598495Y-90189832D01*
X102540211Y-90230643D01*
X102540208Y-90230645D01*
X102535700Y-90233802D01*
X102373802Y-90395700D01*
X102242477Y-90583251D01*
X102240154Y-90588233D01*
X102240151Y-90588238D01*
X102224195Y-90622457D01*
X102177278Y-90675742D01*
X102109001Y-90695203D01*
X102041041Y-90674661D01*
X101995805Y-90622457D01*
X101979849Y-90588238D01*
X101979846Y-90588233D01*
X101977523Y-90583251D01*
X101846198Y-90395700D01*
X101684300Y-90233802D01*
X101679792Y-90230645D01*
X101679789Y-90230643D01*
X101557229Y-90144826D01*
X101496749Y-90102477D01*
X101491767Y-90100154D01*
X101491762Y-90100151D01*
X101294225Y-90008039D01*
X101294224Y-90008039D01*
X101289243Y-90005716D01*
X101283935Y-90004294D01*
X101283933Y-90004293D01*
X101073402Y-89947881D01*
X101073400Y-89947881D01*
X101068087Y-89946457D01*
X100840000Y-89926502D01*
X100611913Y-89946457D01*
X100606600Y-89947881D01*
X100606598Y-89947881D01*
X100396067Y-90004293D01*
X100396065Y-90004294D01*
X100390757Y-90005716D01*
X100385776Y-90008039D01*
X100385775Y-90008039D01*
X100188238Y-90100151D01*
X100188233Y-90100154D01*
X100183251Y-90102477D01*
X100122771Y-90144826D01*
X100000211Y-90230643D01*
X100000208Y-90230645D01*
X99995700Y-90233802D01*
X99833802Y-90395700D01*
X99702477Y-90583251D01*
X99700154Y-90588233D01*
X99700151Y-90588238D01*
X99684195Y-90622457D01*
X99637278Y-90675742D01*
X99569001Y-90695203D01*
X99501041Y-90674661D01*
X99455805Y-90622457D01*
X99439849Y-90588238D01*
X99439846Y-90588233D01*
X99437523Y-90583251D01*
X99306198Y-90395700D01*
X99144300Y-90233802D01*
X99139792Y-90230645D01*
X99139789Y-90230643D01*
X99017229Y-90144826D01*
X98956749Y-90102477D01*
X98951767Y-90100154D01*
X98951762Y-90100151D01*
X98754225Y-90008039D01*
X98754224Y-90008039D01*
X98749243Y-90005716D01*
X98743935Y-90004294D01*
X98743933Y-90004293D01*
X98533402Y-89947881D01*
X98533400Y-89947881D01*
X98528087Y-89946457D01*
X98300000Y-89926502D01*
X98071913Y-89946457D01*
X98066600Y-89947881D01*
X98066598Y-89947881D01*
X97856067Y-90004293D01*
X97856065Y-90004294D01*
X97850757Y-90005716D01*
X97845776Y-90008039D01*
X97845775Y-90008039D01*
X97648238Y-90100151D01*
X97648233Y-90100154D01*
X97643251Y-90102477D01*
X97582771Y-90144826D01*
X97460211Y-90230643D01*
X97460208Y-90230645D01*
X97455700Y-90233802D01*
X97293802Y-90395700D01*
X97162477Y-90583251D01*
X97160154Y-90588233D01*
X97160151Y-90588238D01*
X97144195Y-90622457D01*
X97097278Y-90675742D01*
X97029001Y-90695203D01*
X96961041Y-90674661D01*
X96915805Y-90622457D01*
X96899849Y-90588238D01*
X96899846Y-90588233D01*
X96897523Y-90583251D01*
X96766198Y-90395700D01*
X96604300Y-90233802D01*
X96599792Y-90230645D01*
X96599789Y-90230643D01*
X96477229Y-90144826D01*
X96416749Y-90102477D01*
X96411767Y-90100154D01*
X96411762Y-90100151D01*
X96214225Y-90008039D01*
X96214224Y-90008039D01*
X96209243Y-90005716D01*
X96203935Y-90004294D01*
X96203933Y-90004293D01*
X95993402Y-89947881D01*
X95993400Y-89947881D01*
X95988087Y-89946457D01*
X95760000Y-89926502D01*
X95531913Y-89946457D01*
X95526608Y-89947879D01*
X95526594Y-89947881D01*
X95501921Y-89954493D01*
X95430944Y-89952805D01*
X95380213Y-89921882D01*
X93708509Y-88250178D01*
X93702655Y-88243912D01*
X93672225Y-88209029D01*
X93667229Y-88203302D01*
X93618443Y-88169015D01*
X93613159Y-88165090D01*
X93572211Y-88132983D01*
X93566236Y-88128298D01*
X93559317Y-88125174D01*
X93553371Y-88121573D01*
X93548214Y-88118632D01*
X93542056Y-88115330D01*
X93535840Y-88110961D01*
X93528764Y-88108202D01*
X93528762Y-88108201D01*
X93480304Y-88089308D01*
X93474223Y-88086752D01*
X93426790Y-88065335D01*
X93426789Y-88065335D01*
X93419871Y-88062211D01*
X93412405Y-88060827D01*
X93405786Y-88058753D01*
X93400037Y-88057115D01*
X93393296Y-88055385D01*
X93386218Y-88052625D01*
X93362557Y-88049510D01*
X93327112Y-88044844D01*
X93320595Y-88043812D01*
X93286669Y-88037524D01*
X93261967Y-88032946D01*
X93254387Y-88033383D01*
X93254386Y-88033383D01*
X93203953Y-88036291D01*
X93196700Y-88036500D01*
X76527020Y-88036500D01*
X76458899Y-88016498D01*
X76437925Y-87999595D01*
X72200405Y-83762074D01*
X72166379Y-83699762D01*
X72163500Y-83672979D01*
X72163500Y-76000000D01*
X74126502Y-76000000D01*
X74146457Y-76228087D01*
X74205716Y-76449243D01*
X74208039Y-76454224D01*
X74208039Y-76454225D01*
X74300151Y-76651762D01*
X74300154Y-76651767D01*
X74302477Y-76656749D01*
X74433802Y-76844300D01*
X74595700Y-77006198D01*
X74600208Y-77009355D01*
X74600211Y-77009357D01*
X74618924Y-77022460D01*
X74783251Y-77137523D01*
X74788233Y-77139846D01*
X74788238Y-77139849D01*
X74984765Y-77231490D01*
X74990757Y-77234284D01*
X74996065Y-77235706D01*
X74996067Y-77235707D01*
X75206598Y-77292119D01*
X75206600Y-77292119D01*
X75211913Y-77293543D01*
X75440000Y-77313498D01*
X75668087Y-77293543D01*
X75673400Y-77292119D01*
X75673402Y-77292119D01*
X75883933Y-77235707D01*
X75883935Y-77235706D01*
X75889243Y-77234284D01*
X75895235Y-77231490D01*
X76091762Y-77139849D01*
X76091767Y-77139846D01*
X76096749Y-77137523D01*
X76261076Y-77022460D01*
X76279789Y-77009357D01*
X76279792Y-77009355D01*
X76284300Y-77006198D01*
X76446198Y-76844300D01*
X76577523Y-76656749D01*
X76579846Y-76651767D01*
X76579849Y-76651762D01*
X76595805Y-76617543D01*
X76642722Y-76564258D01*
X76710999Y-76544797D01*
X76778959Y-76565339D01*
X76824195Y-76617543D01*
X76840151Y-76651762D01*
X76840154Y-76651767D01*
X76842477Y-76656749D01*
X76973802Y-76844300D01*
X77135700Y-77006198D01*
X77140208Y-77009355D01*
X77140211Y-77009357D01*
X77158924Y-77022460D01*
X77323251Y-77137523D01*
X77328233Y-77139846D01*
X77328238Y-77139849D01*
X77524765Y-77231490D01*
X77530757Y-77234284D01*
X77536065Y-77235706D01*
X77536067Y-77235707D01*
X77746598Y-77292119D01*
X77746600Y-77292119D01*
X77751913Y-77293543D01*
X77980000Y-77313498D01*
X78208087Y-77293543D01*
X78213400Y-77292119D01*
X78213402Y-77292119D01*
X78423933Y-77235707D01*
X78423935Y-77235706D01*
X78429243Y-77234284D01*
X78435235Y-77231490D01*
X78631762Y-77139849D01*
X78631767Y-77139846D01*
X78636749Y-77137523D01*
X78801076Y-77022460D01*
X78819789Y-77009357D01*
X78819792Y-77009355D01*
X78824300Y-77006198D01*
X78986198Y-76844300D01*
X79117523Y-76656749D01*
X79119846Y-76651767D01*
X79119849Y-76651762D01*
X79135805Y-76617543D01*
X79182722Y-76564258D01*
X79250999Y-76544797D01*
X79318959Y-76565339D01*
X79364195Y-76617543D01*
X79380151Y-76651762D01*
X79380154Y-76651767D01*
X79382477Y-76656749D01*
X79513802Y-76844300D01*
X79675700Y-77006198D01*
X79680208Y-77009355D01*
X79680211Y-77009357D01*
X79698924Y-77022460D01*
X79863251Y-77137523D01*
X79868233Y-77139846D01*
X79868238Y-77139849D01*
X80064765Y-77231490D01*
X80070757Y-77234284D01*
X80076065Y-77235706D01*
X80076067Y-77235707D01*
X80286598Y-77292119D01*
X80286600Y-77292119D01*
X80291913Y-77293543D01*
X80520000Y-77313498D01*
X80748087Y-77293543D01*
X80753400Y-77292119D01*
X80753402Y-77292119D01*
X80963933Y-77235707D01*
X80963935Y-77235706D01*
X80969243Y-77234284D01*
X80975235Y-77231490D01*
X81171762Y-77139849D01*
X81171767Y-77139846D01*
X81176749Y-77137523D01*
X81341076Y-77022460D01*
X81359789Y-77009357D01*
X81359792Y-77009355D01*
X81364300Y-77006198D01*
X81526198Y-76844300D01*
X81657523Y-76656749D01*
X81659846Y-76651767D01*
X81659849Y-76651762D01*
X81675805Y-76617543D01*
X81722722Y-76564258D01*
X81790999Y-76544797D01*
X81858959Y-76565339D01*
X81904195Y-76617543D01*
X81920151Y-76651762D01*
X81920154Y-76651767D01*
X81922477Y-76656749D01*
X82053802Y-76844300D01*
X82215700Y-77006198D01*
X82220208Y-77009355D01*
X82220211Y-77009357D01*
X82238924Y-77022460D01*
X82403251Y-77137523D01*
X82408233Y-77139846D01*
X82408238Y-77139849D01*
X82604765Y-77231490D01*
X82610757Y-77234284D01*
X82616065Y-77235706D01*
X82616067Y-77235707D01*
X82826598Y-77292119D01*
X82826600Y-77292119D01*
X82831913Y-77293543D01*
X83060000Y-77313498D01*
X83288087Y-77293543D01*
X83293400Y-77292119D01*
X83293402Y-77292119D01*
X83503933Y-77235707D01*
X83503935Y-77235706D01*
X83509243Y-77234284D01*
X83515235Y-77231490D01*
X83711762Y-77139849D01*
X83711767Y-77139846D01*
X83716749Y-77137523D01*
X83881076Y-77022460D01*
X83899789Y-77009357D01*
X83899792Y-77009355D01*
X83904300Y-77006198D01*
X84066198Y-76844300D01*
X84197523Y-76656749D01*
X84199846Y-76651767D01*
X84199849Y-76651762D01*
X84215805Y-76617543D01*
X84262722Y-76564258D01*
X84330999Y-76544797D01*
X84398959Y-76565339D01*
X84444195Y-76617543D01*
X84460151Y-76651762D01*
X84460154Y-76651767D01*
X84462477Y-76656749D01*
X84593802Y-76844300D01*
X84755700Y-77006198D01*
X84760208Y-77009355D01*
X84760211Y-77009357D01*
X84778924Y-77022460D01*
X84943251Y-77137523D01*
X84948233Y-77139846D01*
X84948238Y-77139849D01*
X85144765Y-77231490D01*
X85150757Y-77234284D01*
X85156065Y-77235706D01*
X85156067Y-77235707D01*
X85366598Y-77292119D01*
X85366600Y-77292119D01*
X85371913Y-77293543D01*
X85600000Y-77313498D01*
X85828087Y-77293543D01*
X85833400Y-77292119D01*
X85833402Y-77292119D01*
X86043933Y-77235707D01*
X86043935Y-77235706D01*
X86049243Y-77234284D01*
X86055235Y-77231490D01*
X86251762Y-77139849D01*
X86251767Y-77139846D01*
X86256749Y-77137523D01*
X86421076Y-77022460D01*
X86439789Y-77009357D01*
X86439792Y-77009355D01*
X86444300Y-77006198D01*
X86606198Y-76844300D01*
X86737523Y-76656749D01*
X86739846Y-76651767D01*
X86739849Y-76651762D01*
X86755805Y-76617543D01*
X86802722Y-76564258D01*
X86870999Y-76544797D01*
X86938959Y-76565339D01*
X86984195Y-76617543D01*
X87000151Y-76651762D01*
X87000154Y-76651767D01*
X87002477Y-76656749D01*
X87133802Y-76844300D01*
X87295700Y-77006198D01*
X87300208Y-77009355D01*
X87300211Y-77009357D01*
X87318924Y-77022460D01*
X87483251Y-77137523D01*
X87488233Y-77139846D01*
X87488238Y-77139849D01*
X87684765Y-77231490D01*
X87690757Y-77234284D01*
X87696065Y-77235706D01*
X87696067Y-77235707D01*
X87906598Y-77292119D01*
X87906600Y-77292119D01*
X87911913Y-77293543D01*
X88140000Y-77313498D01*
X88368087Y-77293543D01*
X88373400Y-77292119D01*
X88373402Y-77292119D01*
X88583933Y-77235707D01*
X88583935Y-77235706D01*
X88589243Y-77234284D01*
X88595235Y-77231490D01*
X88791762Y-77139849D01*
X88791767Y-77139846D01*
X88796749Y-77137523D01*
X88961076Y-77022460D01*
X88979789Y-77009357D01*
X88979792Y-77009355D01*
X88984300Y-77006198D01*
X89146198Y-76844300D01*
X89277523Y-76656749D01*
X89279846Y-76651767D01*
X89279849Y-76651762D01*
X89295805Y-76617543D01*
X89342722Y-76564258D01*
X89410999Y-76544797D01*
X89478959Y-76565339D01*
X89524195Y-76617543D01*
X89540151Y-76651762D01*
X89540154Y-76651767D01*
X89542477Y-76656749D01*
X89673802Y-76844300D01*
X89835700Y-77006198D01*
X89840208Y-77009355D01*
X89840211Y-77009357D01*
X89858924Y-77022460D01*
X90023251Y-77137523D01*
X90028233Y-77139846D01*
X90028238Y-77139849D01*
X90224765Y-77231490D01*
X90230757Y-77234284D01*
X90236065Y-77235706D01*
X90236067Y-77235707D01*
X90446598Y-77292119D01*
X90446600Y-77292119D01*
X90451913Y-77293543D01*
X90680000Y-77313498D01*
X90908087Y-77293543D01*
X90913400Y-77292119D01*
X90913402Y-77292119D01*
X91123933Y-77235707D01*
X91123935Y-77235706D01*
X91129243Y-77234284D01*
X91135235Y-77231490D01*
X91331762Y-77139849D01*
X91331767Y-77139846D01*
X91336749Y-77137523D01*
X91501076Y-77022460D01*
X91519789Y-77009357D01*
X91519792Y-77009355D01*
X91524300Y-77006198D01*
X91686198Y-76844300D01*
X91817523Y-76656749D01*
X91819846Y-76651767D01*
X91819849Y-76651762D01*
X91835805Y-76617543D01*
X91882722Y-76564258D01*
X91950999Y-76544797D01*
X92018959Y-76565339D01*
X92064195Y-76617543D01*
X92080151Y-76651762D01*
X92080154Y-76651767D01*
X92082477Y-76656749D01*
X92213802Y-76844300D01*
X92375700Y-77006198D01*
X92380208Y-77009355D01*
X92380211Y-77009357D01*
X92398924Y-77022460D01*
X92563251Y-77137523D01*
X92568233Y-77139846D01*
X92568238Y-77139849D01*
X92764765Y-77231490D01*
X92770757Y-77234284D01*
X92776065Y-77235706D01*
X92776067Y-77235707D01*
X92986598Y-77292119D01*
X92986600Y-77292119D01*
X92991913Y-77293543D01*
X93220000Y-77313498D01*
X93448087Y-77293543D01*
X93453400Y-77292119D01*
X93453402Y-77292119D01*
X93663933Y-77235707D01*
X93663935Y-77235706D01*
X93669243Y-77234284D01*
X93675235Y-77231490D01*
X93871762Y-77139849D01*
X93871767Y-77139846D01*
X93876749Y-77137523D01*
X94041076Y-77022460D01*
X94059789Y-77009357D01*
X94059792Y-77009355D01*
X94064300Y-77006198D01*
X94226198Y-76844300D01*
X94357523Y-76656749D01*
X94359846Y-76651767D01*
X94359849Y-76651762D01*
X94375805Y-76617543D01*
X94422722Y-76564258D01*
X94490999Y-76544797D01*
X94558959Y-76565339D01*
X94604195Y-76617543D01*
X94620151Y-76651762D01*
X94620154Y-76651767D01*
X94622477Y-76656749D01*
X94753802Y-76844300D01*
X94915700Y-77006198D01*
X94920208Y-77009355D01*
X94920211Y-77009357D01*
X94938924Y-77022460D01*
X95103251Y-77137523D01*
X95108233Y-77139846D01*
X95108238Y-77139849D01*
X95304765Y-77231490D01*
X95310757Y-77234284D01*
X95316065Y-77235706D01*
X95316067Y-77235707D01*
X95526598Y-77292119D01*
X95526600Y-77292119D01*
X95531913Y-77293543D01*
X95760000Y-77313498D01*
X95988087Y-77293543D01*
X95993400Y-77292119D01*
X95993402Y-77292119D01*
X96203933Y-77235707D01*
X96203935Y-77235706D01*
X96209243Y-77234284D01*
X96215235Y-77231490D01*
X96411762Y-77139849D01*
X96411767Y-77139846D01*
X96416749Y-77137523D01*
X96581076Y-77022460D01*
X96599789Y-77009357D01*
X96599792Y-77009355D01*
X96604300Y-77006198D01*
X96766198Y-76844300D01*
X96897523Y-76656749D01*
X96899846Y-76651767D01*
X96899849Y-76651762D01*
X96915805Y-76617543D01*
X96962722Y-76564258D01*
X97030999Y-76544797D01*
X97098959Y-76565339D01*
X97144195Y-76617543D01*
X97160151Y-76651762D01*
X97160154Y-76651767D01*
X97162477Y-76656749D01*
X97293802Y-76844300D01*
X97455700Y-77006198D01*
X97460208Y-77009355D01*
X97460211Y-77009357D01*
X97478924Y-77022460D01*
X97643251Y-77137523D01*
X97648233Y-77139846D01*
X97648238Y-77139849D01*
X97844765Y-77231490D01*
X97850757Y-77234284D01*
X97856065Y-77235706D01*
X97856067Y-77235707D01*
X98066598Y-77292119D01*
X98066600Y-77292119D01*
X98071913Y-77293543D01*
X98300000Y-77313498D01*
X98528087Y-77293543D01*
X98533400Y-77292119D01*
X98533402Y-77292119D01*
X98743933Y-77235707D01*
X98743935Y-77235706D01*
X98749243Y-77234284D01*
X98755235Y-77231490D01*
X98951762Y-77139849D01*
X98951767Y-77139846D01*
X98956749Y-77137523D01*
X99121076Y-77022460D01*
X99139789Y-77009357D01*
X99139792Y-77009355D01*
X99144300Y-77006198D01*
X99306198Y-76844300D01*
X99437523Y-76656749D01*
X99439846Y-76651767D01*
X99439849Y-76651762D01*
X99455805Y-76617543D01*
X99502722Y-76564258D01*
X99570999Y-76544797D01*
X99638959Y-76565339D01*
X99684195Y-76617543D01*
X99700151Y-76651762D01*
X99700154Y-76651767D01*
X99702477Y-76656749D01*
X99833802Y-76844300D01*
X99995700Y-77006198D01*
X100000208Y-77009355D01*
X100000211Y-77009357D01*
X100018924Y-77022460D01*
X100183251Y-77137523D01*
X100188233Y-77139846D01*
X100188238Y-77139849D01*
X100384765Y-77231490D01*
X100390757Y-77234284D01*
X100396065Y-77235706D01*
X100396067Y-77235707D01*
X100606598Y-77292119D01*
X100606600Y-77292119D01*
X100611913Y-77293543D01*
X100840000Y-77313498D01*
X101068087Y-77293543D01*
X101073400Y-77292119D01*
X101073402Y-77292119D01*
X101283933Y-77235707D01*
X101283935Y-77235706D01*
X101289243Y-77234284D01*
X101295235Y-77231490D01*
X101491762Y-77139849D01*
X101491767Y-77139846D01*
X101496749Y-77137523D01*
X101661076Y-77022460D01*
X101679789Y-77009357D01*
X101679792Y-77009355D01*
X101684300Y-77006198D01*
X101846198Y-76844300D01*
X101977523Y-76656749D01*
X101979846Y-76651767D01*
X101979849Y-76651762D01*
X101996081Y-76616951D01*
X102042998Y-76563666D01*
X102111275Y-76544205D01*
X102179235Y-76564747D01*
X102224471Y-76616951D01*
X102240586Y-76651511D01*
X102246069Y-76661007D01*
X102371028Y-76839467D01*
X102378084Y-76847875D01*
X102532125Y-77001916D01*
X102540533Y-77008972D01*
X102718993Y-77133931D01*
X102728489Y-77139414D01*
X102925947Y-77231490D01*
X102936239Y-77235236D01*
X103108503Y-77281394D01*
X103122599Y-77281058D01*
X103126000Y-77273116D01*
X103126000Y-77267967D01*
X103634000Y-77267967D01*
X103637973Y-77281498D01*
X103646522Y-77282727D01*
X103823761Y-77235236D01*
X103834053Y-77231490D01*
X104031511Y-77139414D01*
X104041007Y-77133931D01*
X104219467Y-77008972D01*
X104227875Y-77001916D01*
X104381916Y-76847875D01*
X104388972Y-76839467D01*
X104513931Y-76661007D01*
X104519414Y-76651511D01*
X104535529Y-76616951D01*
X104582446Y-76563666D01*
X104650723Y-76544205D01*
X104718683Y-76564747D01*
X104763919Y-76616951D01*
X104780151Y-76651762D01*
X104780154Y-76651767D01*
X104782477Y-76656749D01*
X104913802Y-76844300D01*
X105075700Y-77006198D01*
X105080208Y-77009355D01*
X105080211Y-77009357D01*
X105098924Y-77022460D01*
X105263251Y-77137523D01*
X105268233Y-77139846D01*
X105268238Y-77139849D01*
X105464765Y-77231490D01*
X105470757Y-77234284D01*
X105476065Y-77235706D01*
X105476067Y-77235707D01*
X105686598Y-77292119D01*
X105686600Y-77292119D01*
X105691913Y-77293543D01*
X105920000Y-77313498D01*
X106148087Y-77293543D01*
X106153400Y-77292119D01*
X106153402Y-77292119D01*
X106363933Y-77235707D01*
X106363935Y-77235706D01*
X106369243Y-77234284D01*
X106375235Y-77231490D01*
X106571762Y-77139849D01*
X106571767Y-77139846D01*
X106576749Y-77137523D01*
X106741076Y-77022460D01*
X106759789Y-77009357D01*
X106759792Y-77009355D01*
X106764300Y-77006198D01*
X106926198Y-76844300D01*
X107057523Y-76656749D01*
X107059846Y-76651767D01*
X107059849Y-76651762D01*
X107075805Y-76617543D01*
X107122722Y-76564258D01*
X107190999Y-76544797D01*
X107258959Y-76565339D01*
X107304195Y-76617543D01*
X107320151Y-76651762D01*
X107320154Y-76651767D01*
X107322477Y-76656749D01*
X107453802Y-76844300D01*
X107615700Y-77006198D01*
X107620208Y-77009355D01*
X107620211Y-77009357D01*
X107638924Y-77022460D01*
X107803251Y-77137523D01*
X107808233Y-77139846D01*
X107808238Y-77139849D01*
X108004765Y-77231490D01*
X108010757Y-77234284D01*
X108016065Y-77235706D01*
X108016067Y-77235707D01*
X108226598Y-77292119D01*
X108226600Y-77292119D01*
X108231913Y-77293543D01*
X108460000Y-77313498D01*
X108688087Y-77293543D01*
X108693400Y-77292119D01*
X108693402Y-77292119D01*
X108903933Y-77235707D01*
X108903935Y-77235706D01*
X108909243Y-77234284D01*
X108915235Y-77231490D01*
X109111762Y-77139849D01*
X109111767Y-77139846D01*
X109116749Y-77137523D01*
X109281076Y-77022460D01*
X109299789Y-77009357D01*
X109299792Y-77009355D01*
X109304300Y-77006198D01*
X109466198Y-76844300D01*
X109469357Y-76839789D01*
X109472892Y-76835576D01*
X109474026Y-76836527D01*
X109524071Y-76796529D01*
X109594690Y-76789224D01*
X109658049Y-76821258D01*
X109694030Y-76882462D01*
X109697082Y-76899517D01*
X109698255Y-76910316D01*
X109749385Y-77046705D01*
X109836739Y-77163261D01*
X109953295Y-77250615D01*
X110089684Y-77301745D01*
X110151866Y-77308500D01*
X111848134Y-77308500D01*
X111910316Y-77301745D01*
X112046705Y-77250615D01*
X112163261Y-77163261D01*
X112250615Y-77046705D01*
X112301745Y-76910316D01*
X112308500Y-76848134D01*
X112308500Y-75151866D01*
X112301745Y-75089684D01*
X112250615Y-74953295D01*
X112163261Y-74836739D01*
X112046705Y-74749385D01*
X111910316Y-74698255D01*
X111848134Y-74691500D01*
X110151866Y-74691500D01*
X110089684Y-74698255D01*
X109953295Y-74749385D01*
X109836739Y-74836739D01*
X109749385Y-74953295D01*
X109698255Y-75089684D01*
X109697083Y-75100474D01*
X109696197Y-75102606D01*
X109695575Y-75105222D01*
X109695152Y-75105121D01*
X109669845Y-75166035D01*
X109611483Y-75206463D01*
X109540529Y-75208922D01*
X109479510Y-75172629D01*
X109472511Y-75163969D01*
X109469354Y-75160207D01*
X109466198Y-75155700D01*
X109304300Y-74993802D01*
X109299792Y-74990645D01*
X109299789Y-74990643D01*
X109184784Y-74910116D01*
X109116749Y-74862477D01*
X109111767Y-74860154D01*
X109111762Y-74860151D01*
X108914225Y-74768039D01*
X108914224Y-74768039D01*
X108909243Y-74765716D01*
X108903935Y-74764294D01*
X108903933Y-74764293D01*
X108693402Y-74707881D01*
X108693400Y-74707881D01*
X108688087Y-74706457D01*
X108460000Y-74686502D01*
X108231913Y-74706457D01*
X108226600Y-74707881D01*
X108226598Y-74707881D01*
X108016067Y-74764293D01*
X108016065Y-74764294D01*
X108010757Y-74765716D01*
X108005776Y-74768039D01*
X108005775Y-74768039D01*
X107808238Y-74860151D01*
X107808233Y-74860154D01*
X107803251Y-74862477D01*
X107735216Y-74910116D01*
X107620211Y-74990643D01*
X107620208Y-74990645D01*
X107615700Y-74993802D01*
X107453802Y-75155700D01*
X107322477Y-75343251D01*
X107320154Y-75348233D01*
X107320151Y-75348238D01*
X107304195Y-75382457D01*
X107257278Y-75435742D01*
X107189001Y-75455203D01*
X107121041Y-75434661D01*
X107075805Y-75382457D01*
X107059849Y-75348238D01*
X107059846Y-75348233D01*
X107057523Y-75343251D01*
X106926198Y-75155700D01*
X106764300Y-74993802D01*
X106759792Y-74990645D01*
X106759789Y-74990643D01*
X106644784Y-74910116D01*
X106576749Y-74862477D01*
X106571767Y-74860154D01*
X106571762Y-74860151D01*
X106374225Y-74768039D01*
X106374224Y-74768039D01*
X106369243Y-74765716D01*
X106363935Y-74764294D01*
X106363933Y-74764293D01*
X106153402Y-74707881D01*
X106153400Y-74707881D01*
X106148087Y-74706457D01*
X105920000Y-74686502D01*
X105691913Y-74706457D01*
X105686600Y-74707881D01*
X105686598Y-74707881D01*
X105476067Y-74764293D01*
X105476065Y-74764294D01*
X105470757Y-74765716D01*
X105465776Y-74768039D01*
X105465775Y-74768039D01*
X105268238Y-74860151D01*
X105268233Y-74860154D01*
X105263251Y-74862477D01*
X105195216Y-74910116D01*
X105080211Y-74990643D01*
X105080208Y-74990645D01*
X105075700Y-74993802D01*
X104913802Y-75155700D01*
X104782477Y-75343251D01*
X104780154Y-75348233D01*
X104780151Y-75348238D01*
X104763919Y-75383049D01*
X104717002Y-75436334D01*
X104648725Y-75455795D01*
X104580765Y-75435253D01*
X104535529Y-75383049D01*
X104519414Y-75348489D01*
X104513931Y-75338993D01*
X104388972Y-75160533D01*
X104381916Y-75152125D01*
X104227875Y-74998084D01*
X104219467Y-74991028D01*
X104041007Y-74866069D01*
X104031511Y-74860586D01*
X103834053Y-74768510D01*
X103823761Y-74764764D01*
X103651497Y-74718606D01*
X103637401Y-74718942D01*
X103634000Y-74726884D01*
X103634000Y-77267967D01*
X103126000Y-77267967D01*
X103126000Y-74732033D01*
X103122027Y-74718502D01*
X103113478Y-74717273D01*
X102936239Y-74764764D01*
X102925947Y-74768510D01*
X102728489Y-74860586D01*
X102718993Y-74866069D01*
X102540533Y-74991028D01*
X102532125Y-74998084D01*
X102378084Y-75152125D01*
X102371028Y-75160533D01*
X102246069Y-75338993D01*
X102240586Y-75348489D01*
X102224471Y-75383049D01*
X102177554Y-75436334D01*
X102109277Y-75455795D01*
X102041317Y-75435253D01*
X101996081Y-75383049D01*
X101979849Y-75348238D01*
X101979846Y-75348233D01*
X101977523Y-75343251D01*
X101846198Y-75155700D01*
X101684300Y-74993802D01*
X101679792Y-74990645D01*
X101679789Y-74990643D01*
X101564784Y-74910116D01*
X101496749Y-74862477D01*
X101491767Y-74860154D01*
X101491762Y-74860151D01*
X101294225Y-74768039D01*
X101294224Y-74768039D01*
X101289243Y-74765716D01*
X101283935Y-74764294D01*
X101283933Y-74764293D01*
X101073402Y-74707881D01*
X101073400Y-74707881D01*
X101068087Y-74706457D01*
X100840000Y-74686502D01*
X100611913Y-74706457D01*
X100606600Y-74707881D01*
X100606598Y-74707881D01*
X100396067Y-74764293D01*
X100396065Y-74764294D01*
X100390757Y-74765716D01*
X100385776Y-74768039D01*
X100385775Y-74768039D01*
X100188238Y-74860151D01*
X100188233Y-74860154D01*
X100183251Y-74862477D01*
X100115216Y-74910116D01*
X100000211Y-74990643D01*
X100000208Y-74990645D01*
X99995700Y-74993802D01*
X99833802Y-75155700D01*
X99702477Y-75343251D01*
X99700154Y-75348233D01*
X99700151Y-75348238D01*
X99684195Y-75382457D01*
X99637278Y-75435742D01*
X99569001Y-75455203D01*
X99501041Y-75434661D01*
X99455805Y-75382457D01*
X99439849Y-75348238D01*
X99439846Y-75348233D01*
X99437523Y-75343251D01*
X99306198Y-75155700D01*
X99144300Y-74993802D01*
X99139792Y-74990645D01*
X99139789Y-74990643D01*
X99024784Y-74910116D01*
X98956749Y-74862477D01*
X98951767Y-74860154D01*
X98951762Y-74860151D01*
X98754225Y-74768039D01*
X98754224Y-74768039D01*
X98749243Y-74765716D01*
X98743935Y-74764294D01*
X98743933Y-74764293D01*
X98533402Y-74707881D01*
X98533400Y-74707881D01*
X98528087Y-74706457D01*
X98300000Y-74686502D01*
X98071913Y-74706457D01*
X98066600Y-74707881D01*
X98066598Y-74707881D01*
X97856067Y-74764293D01*
X97856065Y-74764294D01*
X97850757Y-74765716D01*
X97845776Y-74768039D01*
X97845775Y-74768039D01*
X97648238Y-74860151D01*
X97648233Y-74860154D01*
X97643251Y-74862477D01*
X97575216Y-74910116D01*
X97460211Y-74990643D01*
X97460208Y-74990645D01*
X97455700Y-74993802D01*
X97293802Y-75155700D01*
X97162477Y-75343251D01*
X97160154Y-75348233D01*
X97160151Y-75348238D01*
X97144195Y-75382457D01*
X97097278Y-75435742D01*
X97029001Y-75455203D01*
X96961041Y-75434661D01*
X96915805Y-75382457D01*
X96899849Y-75348238D01*
X96899846Y-75348233D01*
X96897523Y-75343251D01*
X96766198Y-75155700D01*
X96604300Y-74993802D01*
X96599792Y-74990645D01*
X96599789Y-74990643D01*
X96484784Y-74910116D01*
X96416749Y-74862477D01*
X96411767Y-74860154D01*
X96411762Y-74860151D01*
X96214225Y-74768039D01*
X96214224Y-74768039D01*
X96209243Y-74765716D01*
X96203935Y-74764294D01*
X96203933Y-74764293D01*
X95993402Y-74707881D01*
X95993400Y-74707881D01*
X95988087Y-74706457D01*
X95760000Y-74686502D01*
X95531913Y-74706457D01*
X95526600Y-74707881D01*
X95526598Y-74707881D01*
X95316067Y-74764293D01*
X95316065Y-74764294D01*
X95310757Y-74765716D01*
X95305776Y-74768039D01*
X95305775Y-74768039D01*
X95108238Y-74860151D01*
X95108233Y-74860154D01*
X95103251Y-74862477D01*
X95035216Y-74910116D01*
X94920211Y-74990643D01*
X94920208Y-74990645D01*
X94915700Y-74993802D01*
X94753802Y-75155700D01*
X94622477Y-75343251D01*
X94620154Y-75348233D01*
X94620151Y-75348238D01*
X94604195Y-75382457D01*
X94557278Y-75435742D01*
X94489001Y-75455203D01*
X94421041Y-75434661D01*
X94375805Y-75382457D01*
X94359849Y-75348238D01*
X94359846Y-75348233D01*
X94357523Y-75343251D01*
X94226198Y-75155700D01*
X94064300Y-74993802D01*
X94059792Y-74990645D01*
X94059789Y-74990643D01*
X93944784Y-74910116D01*
X93876749Y-74862477D01*
X93871767Y-74860154D01*
X93871762Y-74860151D01*
X93674225Y-74768039D01*
X93674224Y-74768039D01*
X93669243Y-74765716D01*
X93663935Y-74764294D01*
X93663933Y-74764293D01*
X93453402Y-74707881D01*
X93453400Y-74707881D01*
X93448087Y-74706457D01*
X93220000Y-74686502D01*
X92991913Y-74706457D01*
X92986600Y-74707881D01*
X92986598Y-74707881D01*
X92776067Y-74764293D01*
X92776065Y-74764294D01*
X92770757Y-74765716D01*
X92765776Y-74768039D01*
X92765775Y-74768039D01*
X92568238Y-74860151D01*
X92568233Y-74860154D01*
X92563251Y-74862477D01*
X92495216Y-74910116D01*
X92380211Y-74990643D01*
X92380208Y-74990645D01*
X92375700Y-74993802D01*
X92213802Y-75155700D01*
X92082477Y-75343251D01*
X92080154Y-75348233D01*
X92080151Y-75348238D01*
X92064195Y-75382457D01*
X92017278Y-75435742D01*
X91949001Y-75455203D01*
X91881041Y-75434661D01*
X91835805Y-75382457D01*
X91819849Y-75348238D01*
X91819846Y-75348233D01*
X91817523Y-75343251D01*
X91686198Y-75155700D01*
X91524300Y-74993802D01*
X91519792Y-74990645D01*
X91519789Y-74990643D01*
X91404784Y-74910116D01*
X91336749Y-74862477D01*
X91331767Y-74860154D01*
X91331762Y-74860151D01*
X91134225Y-74768039D01*
X91134224Y-74768039D01*
X91129243Y-74765716D01*
X91123935Y-74764294D01*
X91123933Y-74764293D01*
X90913402Y-74707881D01*
X90913400Y-74707881D01*
X90908087Y-74706457D01*
X90680000Y-74686502D01*
X90451913Y-74706457D01*
X90446600Y-74707881D01*
X90446598Y-74707881D01*
X90236067Y-74764293D01*
X90236065Y-74764294D01*
X90230757Y-74765716D01*
X90225776Y-74768039D01*
X90225775Y-74768039D01*
X90028238Y-74860151D01*
X90028233Y-74860154D01*
X90023251Y-74862477D01*
X89955216Y-74910116D01*
X89840211Y-74990643D01*
X89840208Y-74990645D01*
X89835700Y-74993802D01*
X89673802Y-75155700D01*
X89542477Y-75343251D01*
X89540154Y-75348233D01*
X89540151Y-75348238D01*
X89524195Y-75382457D01*
X89477278Y-75435742D01*
X89409001Y-75455203D01*
X89341041Y-75434661D01*
X89295805Y-75382457D01*
X89279849Y-75348238D01*
X89279846Y-75348233D01*
X89277523Y-75343251D01*
X89146198Y-75155700D01*
X88984300Y-74993802D01*
X88979792Y-74990645D01*
X88979789Y-74990643D01*
X88864784Y-74910116D01*
X88796749Y-74862477D01*
X88791767Y-74860154D01*
X88791762Y-74860151D01*
X88594225Y-74768039D01*
X88594224Y-74768039D01*
X88589243Y-74765716D01*
X88583935Y-74764294D01*
X88583933Y-74764293D01*
X88373402Y-74707881D01*
X88373400Y-74707881D01*
X88368087Y-74706457D01*
X88140000Y-74686502D01*
X87911913Y-74706457D01*
X87906600Y-74707881D01*
X87906598Y-74707881D01*
X87696067Y-74764293D01*
X87696065Y-74764294D01*
X87690757Y-74765716D01*
X87685776Y-74768039D01*
X87685775Y-74768039D01*
X87488238Y-74860151D01*
X87488233Y-74860154D01*
X87483251Y-74862477D01*
X87415216Y-74910116D01*
X87300211Y-74990643D01*
X87300208Y-74990645D01*
X87295700Y-74993802D01*
X87133802Y-75155700D01*
X87002477Y-75343251D01*
X87000154Y-75348233D01*
X87000151Y-75348238D01*
X86984195Y-75382457D01*
X86937278Y-75435742D01*
X86869001Y-75455203D01*
X86801041Y-75434661D01*
X86755805Y-75382457D01*
X86739849Y-75348238D01*
X86739846Y-75348233D01*
X86737523Y-75343251D01*
X86606198Y-75155700D01*
X86444300Y-74993802D01*
X86439792Y-74990645D01*
X86439789Y-74990643D01*
X86324784Y-74910116D01*
X86256749Y-74862477D01*
X86251767Y-74860154D01*
X86251762Y-74860151D01*
X86054225Y-74768039D01*
X86054224Y-74768039D01*
X86049243Y-74765716D01*
X86043935Y-74764294D01*
X86043933Y-74764293D01*
X85833402Y-74707881D01*
X85833400Y-74707881D01*
X85828087Y-74706457D01*
X85600000Y-74686502D01*
X85371913Y-74706457D01*
X85366600Y-74707881D01*
X85366598Y-74707881D01*
X85156067Y-74764293D01*
X85156065Y-74764294D01*
X85150757Y-74765716D01*
X85145776Y-74768039D01*
X85145775Y-74768039D01*
X84948238Y-74860151D01*
X84948233Y-74860154D01*
X84943251Y-74862477D01*
X84875216Y-74910116D01*
X84760211Y-74990643D01*
X84760208Y-74990645D01*
X84755700Y-74993802D01*
X84593802Y-75155700D01*
X84462477Y-75343251D01*
X84460154Y-75348233D01*
X84460151Y-75348238D01*
X84444195Y-75382457D01*
X84397278Y-75435742D01*
X84329001Y-75455203D01*
X84261041Y-75434661D01*
X84215805Y-75382457D01*
X84199849Y-75348238D01*
X84199846Y-75348233D01*
X84197523Y-75343251D01*
X84066198Y-75155700D01*
X83904300Y-74993802D01*
X83899792Y-74990645D01*
X83899789Y-74990643D01*
X83784784Y-74910116D01*
X83716749Y-74862477D01*
X83711767Y-74860154D01*
X83711762Y-74860151D01*
X83514225Y-74768039D01*
X83514224Y-74768039D01*
X83509243Y-74765716D01*
X83503935Y-74764294D01*
X83503933Y-74764293D01*
X83293402Y-74707881D01*
X83293400Y-74707881D01*
X83288087Y-74706457D01*
X83060000Y-74686502D01*
X82831913Y-74706457D01*
X82826600Y-74707881D01*
X82826598Y-74707881D01*
X82616067Y-74764293D01*
X82616065Y-74764294D01*
X82610757Y-74765716D01*
X82605776Y-74768039D01*
X82605775Y-74768039D01*
X82408238Y-74860151D01*
X82408233Y-74860154D01*
X82403251Y-74862477D01*
X82335216Y-74910116D01*
X82220211Y-74990643D01*
X82220208Y-74990645D01*
X82215700Y-74993802D01*
X82053802Y-75155700D01*
X81922477Y-75343251D01*
X81920154Y-75348233D01*
X81920151Y-75348238D01*
X81904195Y-75382457D01*
X81857278Y-75435742D01*
X81789001Y-75455203D01*
X81721041Y-75434661D01*
X81675805Y-75382457D01*
X81659849Y-75348238D01*
X81659846Y-75348233D01*
X81657523Y-75343251D01*
X81526198Y-75155700D01*
X81364300Y-74993802D01*
X81359792Y-74990645D01*
X81359789Y-74990643D01*
X81244784Y-74910116D01*
X81176749Y-74862477D01*
X81171767Y-74860154D01*
X81171762Y-74860151D01*
X80974225Y-74768039D01*
X80974224Y-74768039D01*
X80969243Y-74765716D01*
X80963935Y-74764294D01*
X80963933Y-74764293D01*
X80753402Y-74707881D01*
X80753400Y-74707881D01*
X80748087Y-74706457D01*
X80520000Y-74686502D01*
X80291913Y-74706457D01*
X80286600Y-74707881D01*
X80286598Y-74707881D01*
X80076067Y-74764293D01*
X80076065Y-74764294D01*
X80070757Y-74765716D01*
X80065776Y-74768039D01*
X80065775Y-74768039D01*
X79868238Y-74860151D01*
X79868233Y-74860154D01*
X79863251Y-74862477D01*
X79795216Y-74910116D01*
X79680211Y-74990643D01*
X79680208Y-74990645D01*
X79675700Y-74993802D01*
X79513802Y-75155700D01*
X79382477Y-75343251D01*
X79380154Y-75348233D01*
X79380151Y-75348238D01*
X79364195Y-75382457D01*
X79317278Y-75435742D01*
X79249001Y-75455203D01*
X79181041Y-75434661D01*
X79135805Y-75382457D01*
X79119849Y-75348238D01*
X79119846Y-75348233D01*
X79117523Y-75343251D01*
X78986198Y-75155700D01*
X78824300Y-74993802D01*
X78819792Y-74990645D01*
X78819789Y-74990643D01*
X78704784Y-74910116D01*
X78636749Y-74862477D01*
X78631767Y-74860154D01*
X78631762Y-74860151D01*
X78434225Y-74768039D01*
X78434224Y-74768039D01*
X78429243Y-74765716D01*
X78423935Y-74764294D01*
X78423933Y-74764293D01*
X78213402Y-74707881D01*
X78213400Y-74707881D01*
X78208087Y-74706457D01*
X77980000Y-74686502D01*
X77751913Y-74706457D01*
X77746600Y-74707881D01*
X77746598Y-74707881D01*
X77536067Y-74764293D01*
X77536065Y-74764294D01*
X77530757Y-74765716D01*
X77525776Y-74768039D01*
X77525775Y-74768039D01*
X77328238Y-74860151D01*
X77328233Y-74860154D01*
X77323251Y-74862477D01*
X77255216Y-74910116D01*
X77140211Y-74990643D01*
X77140208Y-74990645D01*
X77135700Y-74993802D01*
X76973802Y-75155700D01*
X76842477Y-75343251D01*
X76840154Y-75348233D01*
X76840151Y-75348238D01*
X76824195Y-75382457D01*
X76777278Y-75435742D01*
X76709001Y-75455203D01*
X76641041Y-75434661D01*
X76595805Y-75382457D01*
X76579849Y-75348238D01*
X76579846Y-75348233D01*
X76577523Y-75343251D01*
X76446198Y-75155700D01*
X76284300Y-74993802D01*
X76279792Y-74990645D01*
X76279789Y-74990643D01*
X76164784Y-74910116D01*
X76096749Y-74862477D01*
X76091767Y-74860154D01*
X76091762Y-74860151D01*
X75894225Y-74768039D01*
X75894224Y-74768039D01*
X75889243Y-74765716D01*
X75883935Y-74764294D01*
X75883933Y-74764293D01*
X75673402Y-74707881D01*
X75673400Y-74707881D01*
X75668087Y-74706457D01*
X75440000Y-74686502D01*
X75211913Y-74706457D01*
X75206600Y-74707881D01*
X75206598Y-74707881D01*
X74996067Y-74764293D01*
X74996065Y-74764294D01*
X74990757Y-74765716D01*
X74985776Y-74768039D01*
X74985775Y-74768039D01*
X74788238Y-74860151D01*
X74788233Y-74860154D01*
X74783251Y-74862477D01*
X74715216Y-74910116D01*
X74600211Y-74990643D01*
X74600208Y-74990645D01*
X74595700Y-74993802D01*
X74433802Y-75155700D01*
X74302477Y-75343251D01*
X74300154Y-75348233D01*
X74300151Y-75348238D01*
X74296845Y-75355328D01*
X74205716Y-75550757D01*
X74146457Y-75771913D01*
X74126502Y-76000000D01*
X72163500Y-76000000D01*
X72163500Y-63967020D01*
X72183502Y-63898899D01*
X72200405Y-63877925D01*
X72890364Y-63187966D01*
X75968257Y-63187966D01*
X75998565Y-63322446D01*
X76001645Y-63332275D01*
X76081770Y-63529603D01*
X76086413Y-63538794D01*
X76197694Y-63720388D01*
X76203777Y-63728699D01*
X76343213Y-63889667D01*
X76350580Y-63896883D01*
X76514434Y-64032916D01*
X76522881Y-64038831D01*
X76706756Y-64146279D01*
X76716042Y-64150729D01*
X76915001Y-64226703D01*
X76924899Y-64229579D01*
X77028250Y-64250606D01*
X77042299Y-64249410D01*
X77046000Y-64239065D01*
X77046000Y-64238517D01*
X77554000Y-64238517D01*
X77558064Y-64252359D01*
X77571478Y-64254393D01*
X77578184Y-64253534D01*
X77588262Y-64251392D01*
X77792255Y-64190191D01*
X77801842Y-64186433D01*
X77993095Y-64092739D01*
X78001945Y-64087464D01*
X78175328Y-63963792D01*
X78183200Y-63957139D01*
X78334052Y-63806812D01*
X78340730Y-63798965D01*
X78465003Y-63626020D01*
X78470313Y-63617183D01*
X78564670Y-63426267D01*
X78568469Y-63416672D01*
X78630377Y-63212910D01*
X78632555Y-63202837D01*
X78633986Y-63191962D01*
X78631775Y-63177778D01*
X78618617Y-63174000D01*
X77572115Y-63174000D01*
X77556876Y-63178475D01*
X77555671Y-63179865D01*
X77554000Y-63187548D01*
X77554000Y-64238517D01*
X77046000Y-64238517D01*
X77046000Y-63192115D01*
X77041525Y-63176876D01*
X77040135Y-63175671D01*
X77032452Y-63174000D01*
X75983225Y-63174000D01*
X75969694Y-63177973D01*
X75968257Y-63187966D01*
X72890364Y-63187966D01*
X75727332Y-60350998D01*
X75789644Y-60316972D01*
X75860459Y-60322037D01*
X75917295Y-60364584D01*
X75942218Y-60432840D01*
X75950110Y-60569715D01*
X75951247Y-60574761D01*
X75951248Y-60574767D01*
X75971119Y-60662939D01*
X75999222Y-60787639D01*
X76037461Y-60881811D01*
X76072294Y-60967594D01*
X76083266Y-60994616D01*
X76199987Y-61185088D01*
X76346250Y-61353938D01*
X76518126Y-61496632D01*
X76591955Y-61539774D01*
X76640679Y-61591412D01*
X76653750Y-61661195D01*
X76627019Y-61726967D01*
X76586562Y-61760327D01*
X76578457Y-61764546D01*
X76569738Y-61770036D01*
X76399433Y-61897905D01*
X76391726Y-61904748D01*
X76244590Y-62058717D01*
X76238104Y-62066727D01*
X76118098Y-62242649D01*
X76113000Y-62251623D01*
X76023338Y-62444783D01*
X76019775Y-62454470D01*
X75964389Y-62654183D01*
X75965912Y-62662607D01*
X75978292Y-62666000D01*
X78618344Y-62666000D01*
X78631875Y-62662027D01*
X78633180Y-62652947D01*
X78591214Y-62485875D01*
X78587894Y-62476124D01*
X78502972Y-62280814D01*
X78498105Y-62271739D01*
X78382426Y-62092926D01*
X78376136Y-62084757D01*
X78232806Y-61927240D01*
X78225273Y-61920215D01*
X78058139Y-61788222D01*
X78049556Y-61782520D01*
X78012602Y-61762120D01*
X77962631Y-61711687D01*
X77947859Y-61642245D01*
X77972975Y-61575839D01*
X78000327Y-61549232D01*
X78023797Y-61532491D01*
X78179860Y-61421173D01*
X78338096Y-61263489D01*
X78397594Y-61180689D01*
X78465435Y-61086277D01*
X78468453Y-61082077D01*
X78567430Y-60881811D01*
X78632370Y-60668069D01*
X78661529Y-60446590D01*
X78663156Y-60380000D01*
X78644852Y-60157361D01*
X78590431Y-59940702D01*
X78501354Y-59735840D01*
X78461906Y-59674862D01*
X78382822Y-59552617D01*
X78382820Y-59552614D01*
X78380014Y-59548277D01*
X78229670Y-59383051D01*
X78225619Y-59379852D01*
X78225615Y-59379848D01*
X78058414Y-59247800D01*
X78058410Y-59247798D01*
X78054359Y-59244598D01*
X78013053Y-59221796D01*
X77963084Y-59171364D01*
X77948312Y-59101921D01*
X77973428Y-59035516D01*
X78000780Y-59008909D01*
X78123912Y-58921080D01*
X78179860Y-58881173D01*
X78338096Y-58723489D01*
X78468453Y-58542077D01*
X78471722Y-58535464D01*
X78565136Y-58346453D01*
X78565137Y-58346451D01*
X78567430Y-58341811D01*
X78628386Y-58141181D01*
X78630865Y-58133023D01*
X78630865Y-58133021D01*
X78632370Y-58128069D01*
X78661529Y-57906590D01*
X78663156Y-57840000D01*
X78644852Y-57617361D01*
X78590431Y-57400702D01*
X78501354Y-57195840D01*
X78422000Y-57073177D01*
X78382822Y-57012617D01*
X78382820Y-57012614D01*
X78380014Y-57008277D01*
X78376532Y-57004450D01*
X78232798Y-56846488D01*
X78201746Y-56782642D01*
X78210141Y-56712143D01*
X78255317Y-56657375D01*
X78281761Y-56643706D01*
X78388297Y-56603767D01*
X78396705Y-56600615D01*
X78513261Y-56513261D01*
X78600615Y-56396705D01*
X78651745Y-56260316D01*
X78658500Y-56198134D01*
X78658500Y-54401866D01*
X78651745Y-54339684D01*
X78600615Y-54203295D01*
X78513261Y-54086739D01*
X78396705Y-53999385D01*
X78260316Y-53948255D01*
X78198134Y-53941500D01*
X76401866Y-53941500D01*
X76339684Y-53948255D01*
X76203295Y-53999385D01*
X76086739Y-54086739D01*
X75999385Y-54203295D01*
X75948255Y-54339684D01*
X75941500Y-54401866D01*
X75941500Y-56198134D01*
X75948255Y-56260316D01*
X75999385Y-56396705D01*
X76086739Y-56513261D01*
X76203295Y-56600615D01*
X76211704Y-56603767D01*
X76211705Y-56603768D01*
X76320451Y-56644535D01*
X76377216Y-56687176D01*
X76401916Y-56753738D01*
X76386709Y-56823087D01*
X76367316Y-56849568D01*
X76240629Y-56982138D01*
X76114743Y-57166680D01*
X76020688Y-57369305D01*
X75960989Y-57584570D01*
X75937251Y-57806695D01*
X75937548Y-57811848D01*
X75937548Y-57811851D01*
X75943011Y-57906590D01*
X75950110Y-58029715D01*
X75975651Y-58143046D01*
X75971115Y-58213896D01*
X75941829Y-58259841D01*
X71050178Y-63151491D01*
X71043913Y-63157344D01*
X71003302Y-63192771D01*
X70969023Y-63241546D01*
X70965090Y-63246841D01*
X70943144Y-63274830D01*
X70928298Y-63293764D01*
X70925174Y-63300683D01*
X70921573Y-63306629D01*
X70918632Y-63311786D01*
X70915330Y-63317944D01*
X70910961Y-63324160D01*
X70908202Y-63331236D01*
X70908201Y-63331238D01*
X70889308Y-63379696D01*
X70886752Y-63385777D01*
X70880745Y-63399082D01*
X70862211Y-63440129D01*
X70860827Y-63447595D01*
X70858753Y-63454214D01*
X70857115Y-63459963D01*
X70855385Y-63466704D01*
X70852625Y-63473782D01*
X70851633Y-63481318D01*
X70844844Y-63532888D01*
X70843812Y-63539405D01*
X70832946Y-63598033D01*
X70833383Y-63605613D01*
X70833383Y-63605614D01*
X70836291Y-63656047D01*
X70836500Y-63663300D01*
X70836500Y-83972651D01*
X70836208Y-83981221D01*
X70832543Y-84034980D01*
X68508500Y-84034980D01*
X68508500Y-58516381D01*
X69849160Y-58516381D01*
X69849237Y-58517470D01*
X69851698Y-58521206D01*
X70125632Y-58731404D01*
X70131262Y-58735259D01*
X70431591Y-58917862D01*
X70437593Y-58921080D01*
X70755897Y-59070184D01*
X70762202Y-59072732D01*
X71094743Y-59186587D01*
X71101313Y-59188446D01*
X71444183Y-59265714D01*
X71450912Y-59266853D01*
X71800143Y-59306643D01*
X71806933Y-59307046D01*
X72158419Y-59308886D01*
X72165220Y-59308554D01*
X72514853Y-59272423D01*
X72521581Y-59271357D01*
X72865274Y-59197676D01*
X72871822Y-59195897D01*
X73205549Y-59085527D01*
X73211891Y-59083041D01*
X73531718Y-58937288D01*
X73537777Y-58934121D01*
X73839995Y-58754676D01*
X73845659Y-58750884D01*
X74126732Y-58539849D01*
X74131958Y-58535464D01*
X74141613Y-58526428D01*
X74149682Y-58512750D01*
X74149654Y-58512024D01*
X74144512Y-58503723D01*
X72012810Y-56372020D01*
X71998869Y-56364408D01*
X71997034Y-56364539D01*
X71990420Y-56368790D01*
X69856774Y-58502437D01*
X69849160Y-58516381D01*
X68508500Y-58516381D01*
X68508500Y-56701007D01*
X68528502Y-56632886D01*
X68582158Y-56586393D01*
X68652432Y-56576289D01*
X68717012Y-56605783D01*
X68755396Y-56665509D01*
X68758914Y-56681079D01*
X68761420Y-56696723D01*
X68762859Y-56703378D01*
X68855608Y-57042410D01*
X68857757Y-57048871D01*
X68986581Y-57375912D01*
X68989412Y-57382095D01*
X69152803Y-57693310D01*
X69156286Y-57699152D01*
X69352330Y-57990896D01*
X69356433Y-57996340D01*
X69476425Y-58138836D01*
X69489164Y-58147279D01*
X69499608Y-58141181D01*
X71627980Y-56012810D01*
X71634357Y-56001131D01*
X72364408Y-56001131D01*
X72364539Y-56002966D01*
X72368790Y-56009580D01*
X74499009Y-58139798D01*
X74512605Y-58147223D01*
X74522218Y-58140522D01*
X74622518Y-58023912D01*
X74626676Y-58018514D01*
X74825762Y-57728840D01*
X74829310Y-57723029D01*
X74995942Y-57413559D01*
X74998849Y-57407381D01*
X75131090Y-57081713D01*
X75133304Y-57075283D01*
X75229598Y-56737237D01*
X75231105Y-56730607D01*
X75290332Y-56384118D01*
X75291112Y-56377378D01*
X75312668Y-56024925D01*
X75312784Y-56021323D01*
X75312853Y-56001819D01*
X75312761Y-55998194D01*
X75293666Y-55645615D01*
X75292931Y-55638849D01*
X75236130Y-55291985D01*
X75234663Y-55285313D01*
X75140736Y-54946627D01*
X75138562Y-54940163D01*
X75008598Y-54613578D01*
X75005742Y-54607398D01*
X74841269Y-54296763D01*
X74837769Y-54290937D01*
X74640697Y-53999862D01*
X74636590Y-53994453D01*
X74523565Y-53861179D01*
X74510740Y-53852743D01*
X74500416Y-53858795D01*
X72372020Y-55987190D01*
X72364408Y-56001131D01*
X71634357Y-56001131D01*
X71635592Y-55998869D01*
X71635461Y-55997034D01*
X71631210Y-55990420D01*
X69500992Y-53860203D01*
X69487455Y-53852811D01*
X69477753Y-53859599D01*
X69370430Y-53985257D01*
X69366296Y-53990664D01*
X69168215Y-54281041D01*
X69164697Y-54286851D01*
X68999134Y-54596922D01*
X68996259Y-54603087D01*
X68865155Y-54929218D01*
X68862962Y-54935658D01*
X68767846Y-55274044D01*
X68766363Y-55280679D01*
X68758772Y-55326043D01*
X68727801Y-55389928D01*
X68667208Y-55426928D01*
X68596230Y-55425295D01*
X68537403Y-55385547D01*
X68509403Y-55320305D01*
X68508500Y-55305247D01*
X68508500Y-52634500D01*
X68528502Y-52566379D01*
X68582158Y-52519886D01*
X68634500Y-52508500D01*
X71315758Y-52508500D01*
X71383879Y-52528502D01*
G37*
%TD.AperFunction*%
%TD*%
M02*
