M48
; DRILL file {KiCad (6.0.9-0)} date 2023 March 02, Thursday 20:06:08
; FORMAT={-:-/ absolute / inch / decimal}
; #@! TF.CreationDate,2023-03-02T20:06:08+01:00
; #@! TF.GenerationSoftware,Kicad,Pcbnew,(6.0.9-0)
; #@! TF.FileFunction,Plated,1,2,PTH
FMAT,2
INCH
; #@! TA.AperFunction,Plated,PTH,ViaDrill
T1C0.0157
; #@! TA.AperFunction,Plated,PTH,ComponentDrill
T2C0.0394
; #@! TA.AperFunction,Plated,PTH,ComponentDrill
T3C0.0433
; #@! TA.AperFunction,Plated,PTH,ComponentDrill
T4C0.0472
; #@! TA.AperFunction,Plated,PTH,ComponentDrill
T5C0.0598
; #@! TA.AperFunction,Plated,PTH,ComponentDrill
T6C0.1260
%
G90
G05
T1
X2.7835Y-3.4685
X3.811Y-2.2677
X5.0118Y-4.0472
X5.5394Y-3.5197
T2
X2.9701Y-2.9921
X2.9701Y-3.5921
X3.0433Y-2.1772
X3.0433Y-2.2772
X3.0433Y-2.3772
X3.0433Y-2.4772
X3.0701Y-2.9921
X3.0701Y-3.5921
X3.1701Y-2.9921
X3.1701Y-3.5921
X3.2701Y-2.9921
X3.2701Y-3.5921
X3.2858Y-4.0551
X3.3701Y-2.9921
X3.3701Y-3.5921
X3.3858Y-4.0551
X3.4701Y-2.9921
X3.4701Y-3.5921
X3.5701Y-2.9921
X3.5701Y-3.5921
X3.6701Y-2.9921
X3.6701Y-3.5921
X3.7701Y-2.9921
X3.7701Y-3.5921
X3.8701Y-2.9921
X3.8701Y-3.5921
X3.9685Y-4.063
X3.9701Y-2.9921
X3.9701Y-3.5921
X4.0685Y-4.063
X4.0701Y-2.9921
X4.0701Y-3.5921
X4.1685Y-4.063
X4.1701Y-2.9921
X4.1701Y-3.5921
X4.2701Y-2.9921
X4.2701Y-3.5921
X4.3701Y-2.9921
X4.3701Y-3.5921
T3
X4.7638Y-2.2047
X4.7638Y-2.3819
X5.0197Y-2.2047
X5.0197Y-2.3819
X5.1791Y-2.2047
X5.1791Y-2.3819
X5.435Y-2.2047
X5.435Y-2.3819
X5.822Y-2.585
X5.822Y-2.985
X5.9488Y-3.4811
X5.9488Y-3.5811
X5.9488Y-3.6811
X6.3504Y-3.3827
X6.3504Y-3.7827
T4
X6.437Y-2.5157
X6.437Y-3.0157
T5
X6.7008Y-2.5677
X6.7008Y-2.7677
X6.7165Y-3.4551
X6.7165Y-3.6551
T6
X2.8346Y-2.2047
X2.8346Y-4.0157
X6.8504Y-2.2047
X6.8504Y-4.0157
T0
M30
