%TF.GenerationSoftware,KiCad,Pcbnew,(6.0.9-0)*%
%TF.CreationDate,2023-03-02T20:06:06+01:00*%
%TF.ProjectId,Dolgoza,446f6c67-6f7a-4612-9e6b-696361645f70,rev?*%
%TF.SameCoordinates,Original*%
%TF.FileFunction,Legend,Top*%
%TF.FilePolarity,Positive*%
%FSLAX46Y46*%
G04 Gerber Fmt 4.6, Leading zero omitted, Abs format (unit mm)*
G04 Created by KiCad (PCBNEW (6.0.9-0)) date 2023-03-02 20:06:06*
%MOMM*%
%LPD*%
G01*
G04 APERTURE LIST*
%ADD10C,0.150000*%
%ADD11C,0.120000*%
G04 APERTURE END LIST*
D10*
%TO.C,SW2*%
X99466666Y-103404761D02*
X99609523Y-103452380D01*
X99847619Y-103452380D01*
X99942857Y-103404761D01*
X99990476Y-103357142D01*
X100038095Y-103261904D01*
X100038095Y-103166666D01*
X99990476Y-103071428D01*
X99942857Y-103023809D01*
X99847619Y-102976190D01*
X99657142Y-102928571D01*
X99561904Y-102880952D01*
X99514285Y-102833333D01*
X99466666Y-102738095D01*
X99466666Y-102642857D01*
X99514285Y-102547619D01*
X99561904Y-102500000D01*
X99657142Y-102452380D01*
X99895238Y-102452380D01*
X100038095Y-102500000D01*
X100371428Y-102452380D02*
X100609523Y-103452380D01*
X100800000Y-102738095D01*
X100990476Y-103452380D01*
X101228571Y-102452380D01*
X101561904Y-102547619D02*
X101609523Y-102500000D01*
X101704761Y-102452380D01*
X101942857Y-102452380D01*
X102038095Y-102500000D01*
X102085714Y-102547619D01*
X102133333Y-102642857D01*
X102133333Y-102738095D01*
X102085714Y-102880952D01*
X101514285Y-103452380D01*
X102133333Y-103452380D01*
%TO.C,SW1*%
X88916666Y-103404761D02*
X89059523Y-103452380D01*
X89297619Y-103452380D01*
X89392857Y-103404761D01*
X89440476Y-103357142D01*
X89488095Y-103261904D01*
X89488095Y-103166666D01*
X89440476Y-103071428D01*
X89392857Y-103023809D01*
X89297619Y-102976190D01*
X89107142Y-102928571D01*
X89011904Y-102880952D01*
X88964285Y-102833333D01*
X88916666Y-102738095D01*
X88916666Y-102642857D01*
X88964285Y-102547619D01*
X89011904Y-102500000D01*
X89107142Y-102452380D01*
X89345238Y-102452380D01*
X89488095Y-102500000D01*
X89821428Y-102452380D02*
X90059523Y-103452380D01*
X90250000Y-102738095D01*
X90440476Y-103452380D01*
X90678571Y-102452380D01*
X91583333Y-103452380D02*
X91011904Y-103452380D01*
X91297619Y-103452380D02*
X91297619Y-102452380D01*
X91202380Y-102595238D01*
X91107142Y-102690476D01*
X91011904Y-102738095D01*
%TO.C,U1*%
X99677380Y-106261904D02*
X100486904Y-106261904D01*
X100582142Y-106214285D01*
X100629761Y-106166666D01*
X100677380Y-106071428D01*
X100677380Y-105880952D01*
X100629761Y-105785714D01*
X100582142Y-105738095D01*
X100486904Y-105690476D01*
X99677380Y-105690476D01*
X100677380Y-104690476D02*
X100677380Y-105261904D01*
X100677380Y-104976190D02*
X99677380Y-104976190D01*
X99820238Y-105071428D01*
X99915476Y-105166666D01*
X99963095Y-105261904D01*
%TO.C,TP2*%
X174338095Y-84154380D02*
X174909523Y-84154380D01*
X174623809Y-85154380D02*
X174623809Y-84154380D01*
X175242857Y-85154380D02*
X175242857Y-84154380D01*
X175623809Y-84154380D01*
X175719047Y-84202000D01*
X175766666Y-84249619D01*
X175814285Y-84344857D01*
X175814285Y-84487714D01*
X175766666Y-84582952D01*
X175719047Y-84630571D01*
X175623809Y-84678190D01*
X175242857Y-84678190D01*
X176195238Y-84249619D02*
X176242857Y-84202000D01*
X176338095Y-84154380D01*
X176576190Y-84154380D01*
X176671428Y-84202000D01*
X176719047Y-84249619D01*
X176766666Y-84344857D01*
X176766666Y-84440095D01*
X176719047Y-84582952D01*
X176147619Y-85154380D01*
X176766666Y-85154380D01*
%TO.C,TP1*%
X174338095Y-89954380D02*
X174909523Y-89954380D01*
X174623809Y-90954380D02*
X174623809Y-89954380D01*
X175242857Y-90954380D02*
X175242857Y-89954380D01*
X175623809Y-89954380D01*
X175719047Y-90002000D01*
X175766666Y-90049619D01*
X175814285Y-90144857D01*
X175814285Y-90287714D01*
X175766666Y-90382952D01*
X175719047Y-90430571D01*
X175623809Y-90478190D01*
X175242857Y-90478190D01*
X176766666Y-90954380D02*
X176195238Y-90954380D01*
X176480952Y-90954380D02*
X176480952Y-89954380D01*
X176385714Y-90097238D01*
X176290476Y-90192476D01*
X176195238Y-90240095D01*
%TO.C,TH1*%
X87782380Y-104285714D02*
X87782380Y-103714285D01*
X88782380Y-104000000D02*
X87782380Y-104000000D01*
X88782380Y-103380952D02*
X87782380Y-103380952D01*
X88258571Y-103380952D02*
X88258571Y-102809523D01*
X88782380Y-102809523D02*
X87782380Y-102809523D01*
X88782380Y-101809523D02*
X88782380Y-102380952D01*
X88782380Y-102095238D02*
X87782380Y-102095238D01*
X87925238Y-102190476D01*
X88020476Y-102285714D01*
X88068095Y-102380952D01*
%TO.C,R6*%
X92867380Y-103154166D02*
X92391190Y-103487500D01*
X92867380Y-103725595D02*
X91867380Y-103725595D01*
X91867380Y-103344642D01*
X91915000Y-103249404D01*
X91962619Y-103201785D01*
X92057857Y-103154166D01*
X92200714Y-103154166D01*
X92295952Y-103201785D01*
X92343571Y-103249404D01*
X92391190Y-103344642D01*
X92391190Y-103725595D01*
X91867380Y-102297023D02*
X91867380Y-102487500D01*
X91915000Y-102582738D01*
X91962619Y-102630357D01*
X92105476Y-102725595D01*
X92295952Y-102773214D01*
X92676904Y-102773214D01*
X92772142Y-102725595D01*
X92819761Y-102677976D01*
X92867380Y-102582738D01*
X92867380Y-102392261D01*
X92819761Y-102297023D01*
X92772142Y-102249404D01*
X92676904Y-102201785D01*
X92438809Y-102201785D01*
X92343571Y-102249404D01*
X92295952Y-102297023D01*
X92248333Y-102392261D01*
X92248333Y-102582738D01*
X92295952Y-102677976D01*
X92343571Y-102725595D01*
X92438809Y-102773214D01*
%TO.C,R5*%
X146702380Y-98266666D02*
X146226190Y-98600000D01*
X146702380Y-98838095D02*
X145702380Y-98838095D01*
X145702380Y-98457142D01*
X145750000Y-98361904D01*
X145797619Y-98314285D01*
X145892857Y-98266666D01*
X146035714Y-98266666D01*
X146130952Y-98314285D01*
X146178571Y-98361904D01*
X146226190Y-98457142D01*
X146226190Y-98838095D01*
X145702380Y-97361904D02*
X145702380Y-97838095D01*
X146178571Y-97885714D01*
X146130952Y-97838095D01*
X146083333Y-97742857D01*
X146083333Y-97504761D01*
X146130952Y-97409523D01*
X146178571Y-97361904D01*
X146273809Y-97314285D01*
X146511904Y-97314285D01*
X146607142Y-97361904D01*
X146654761Y-97409523D01*
X146702380Y-97504761D01*
X146702380Y-97742857D01*
X146654761Y-97838095D01*
X146607142Y-97885714D01*
%TO.C,R4*%
X137020833Y-63402380D02*
X136687500Y-62926190D01*
X136449404Y-63402380D02*
X136449404Y-62402380D01*
X136830357Y-62402380D01*
X136925595Y-62450000D01*
X136973214Y-62497619D01*
X137020833Y-62592857D01*
X137020833Y-62735714D01*
X136973214Y-62830952D01*
X136925595Y-62878571D01*
X136830357Y-62926190D01*
X136449404Y-62926190D01*
X137877976Y-62735714D02*
X137877976Y-63402380D01*
X137639880Y-62354761D02*
X137401785Y-63069047D01*
X138020833Y-63069047D01*
%TO.C,R3*%
X126920833Y-63402380D02*
X126587500Y-62926190D01*
X126349404Y-63402380D02*
X126349404Y-62402380D01*
X126730357Y-62402380D01*
X126825595Y-62450000D01*
X126873214Y-62497619D01*
X126920833Y-62592857D01*
X126920833Y-62735714D01*
X126873214Y-62830952D01*
X126825595Y-62878571D01*
X126730357Y-62926190D01*
X126349404Y-62926190D01*
X127254166Y-62402380D02*
X127873214Y-62402380D01*
X127539880Y-62783333D01*
X127682738Y-62783333D01*
X127777976Y-62830952D01*
X127825595Y-62878571D01*
X127873214Y-62973809D01*
X127873214Y-63211904D01*
X127825595Y-63307142D01*
X127777976Y-63354761D01*
X127682738Y-63402380D01*
X127397023Y-63402380D01*
X127301785Y-63354761D01*
X127254166Y-63307142D01*
%TO.C,R2*%
X143452380Y-71254166D02*
X142976190Y-71587500D01*
X143452380Y-71825595D02*
X142452380Y-71825595D01*
X142452380Y-71444642D01*
X142500000Y-71349404D01*
X142547619Y-71301785D01*
X142642857Y-71254166D01*
X142785714Y-71254166D01*
X142880952Y-71301785D01*
X142928571Y-71349404D01*
X142976190Y-71444642D01*
X142976190Y-71825595D01*
X142547619Y-70873214D02*
X142500000Y-70825595D01*
X142452380Y-70730357D01*
X142452380Y-70492261D01*
X142500000Y-70397023D01*
X142547619Y-70349404D01*
X142642857Y-70301785D01*
X142738095Y-70301785D01*
X142880952Y-70349404D01*
X143452380Y-70920833D01*
X143452380Y-70301785D01*
%TO.C,R1*%
X143602380Y-75306666D02*
X143126190Y-75640000D01*
X143602380Y-75878095D02*
X142602380Y-75878095D01*
X142602380Y-75497142D01*
X142650000Y-75401904D01*
X142697619Y-75354285D01*
X142792857Y-75306666D01*
X142935714Y-75306666D01*
X143030952Y-75354285D01*
X143078571Y-75401904D01*
X143126190Y-75497142D01*
X143126190Y-75878095D01*
X143602380Y-74354285D02*
X143602380Y-74925714D01*
X143602380Y-74640000D02*
X142602380Y-74640000D01*
X142745238Y-74735238D01*
X142840476Y-74830476D01*
X142888095Y-74925714D01*
%TO.C,Q1*%
X147377619Y-91055238D02*
X147330000Y-91150476D01*
X147234761Y-91245714D01*
X147091904Y-91388571D01*
X147044285Y-91483809D01*
X147044285Y-91579047D01*
X147282380Y-91531428D02*
X147234761Y-91626666D01*
X147139523Y-91721904D01*
X146949047Y-91769523D01*
X146615714Y-91769523D01*
X146425238Y-91721904D01*
X146330000Y-91626666D01*
X146282380Y-91531428D01*
X146282380Y-91340952D01*
X146330000Y-91245714D01*
X146425238Y-91150476D01*
X146615714Y-91102857D01*
X146949047Y-91102857D01*
X147139523Y-91150476D01*
X147234761Y-91245714D01*
X147282380Y-91340952D01*
X147282380Y-91531428D01*
X147282380Y-90150476D02*
X147282380Y-90721904D01*
X147282380Y-90436190D02*
X146282380Y-90436190D01*
X146425238Y-90531428D01*
X146520476Y-90626666D01*
X146568095Y-90721904D01*
%TO.C,J3*%
X164972380Y-90633333D02*
X165686666Y-90633333D01*
X165829523Y-90680952D01*
X165924761Y-90776190D01*
X165972380Y-90919047D01*
X165972380Y-91014285D01*
X164972380Y-90252380D02*
X164972380Y-89633333D01*
X165353333Y-89966666D01*
X165353333Y-89823809D01*
X165400952Y-89728571D01*
X165448571Y-89680952D01*
X165543809Y-89633333D01*
X165781904Y-89633333D01*
X165877142Y-89680952D01*
X165924761Y-89728571D01*
X165972380Y-89823809D01*
X165972380Y-90109523D01*
X165924761Y-90204761D01*
X165877142Y-90252380D01*
%TO.C,J2*%
X76966666Y-52422380D02*
X76966666Y-53136666D01*
X76919047Y-53279523D01*
X76823809Y-53374761D01*
X76680952Y-53422380D01*
X76585714Y-53422380D01*
X77395238Y-52517619D02*
X77442857Y-52470000D01*
X77538095Y-52422380D01*
X77776190Y-52422380D01*
X77871428Y-52470000D01*
X77919047Y-52517619D01*
X77966666Y-52612857D01*
X77966666Y-52708095D01*
X77919047Y-52850952D01*
X77347619Y-53422380D01*
X77966666Y-53422380D01*
%TO.C,J1*%
X169652380Y-68033333D02*
X170366666Y-68033333D01*
X170509523Y-68080952D01*
X170604761Y-68176190D01*
X170652380Y-68319047D01*
X170652380Y-68414285D01*
X170652380Y-67033333D02*
X170652380Y-67604761D01*
X170652380Y-67319047D02*
X169652380Y-67319047D01*
X169795238Y-67414285D01*
X169890476Y-67509523D01*
X169938095Y-67604761D01*
%TO.C,H4*%
X71238095Y-98652380D02*
X71238095Y-97652380D01*
X71238095Y-98128571D02*
X71809523Y-98128571D01*
X71809523Y-98652380D02*
X71809523Y-97652380D01*
X72714285Y-97985714D02*
X72714285Y-98652380D01*
X72476190Y-97604761D02*
X72238095Y-98319047D01*
X72857142Y-98319047D01*
%TO.C,H3*%
X173238095Y-98652380D02*
X173238095Y-97652380D01*
X173238095Y-98128571D02*
X173809523Y-98128571D01*
X173809523Y-98652380D02*
X173809523Y-97652380D01*
X174190476Y-97652380D02*
X174809523Y-97652380D01*
X174476190Y-98033333D01*
X174619047Y-98033333D01*
X174714285Y-98080952D01*
X174761904Y-98128571D01*
X174809523Y-98223809D01*
X174809523Y-98461904D01*
X174761904Y-98557142D01*
X174714285Y-98604761D01*
X174619047Y-98652380D01*
X174333333Y-98652380D01*
X174238095Y-98604761D01*
X174190476Y-98557142D01*
%TO.C,H2*%
X173038095Y-60652380D02*
X173038095Y-59652380D01*
X173038095Y-60128571D02*
X173609523Y-60128571D01*
X173609523Y-60652380D02*
X173609523Y-59652380D01*
X174038095Y-59747619D02*
X174085714Y-59700000D01*
X174180952Y-59652380D01*
X174419047Y-59652380D01*
X174514285Y-59700000D01*
X174561904Y-59747619D01*
X174609523Y-59842857D01*
X174609523Y-59938095D01*
X174561904Y-60080952D01*
X173990476Y-60652380D01*
X174609523Y-60652380D01*
%TO.C,H1*%
X71438095Y-60652380D02*
X71438095Y-59652380D01*
X71438095Y-60128571D02*
X72009523Y-60128571D01*
X72009523Y-60652380D02*
X72009523Y-59652380D01*
X73009523Y-60652380D02*
X72438095Y-60652380D01*
X72723809Y-60652380D02*
X72723809Y-59652380D01*
X72628571Y-59795238D01*
X72533333Y-59890476D01*
X72438095Y-59938095D01*
%TO.C,D3*%
X159282380Y-91738095D02*
X158282380Y-91738095D01*
X158282380Y-91500000D01*
X158330000Y-91357142D01*
X158425238Y-91261904D01*
X158520476Y-91214285D01*
X158710952Y-91166666D01*
X158853809Y-91166666D01*
X159044285Y-91214285D01*
X159139523Y-91261904D01*
X159234761Y-91357142D01*
X159282380Y-91500000D01*
X159282380Y-91738095D01*
X158282380Y-90833333D02*
X158282380Y-90214285D01*
X158663333Y-90547619D01*
X158663333Y-90404761D01*
X158710952Y-90309523D01*
X158758571Y-90261904D01*
X158853809Y-90214285D01*
X159091904Y-90214285D01*
X159187142Y-90261904D01*
X159234761Y-90309523D01*
X159282380Y-90404761D01*
X159282380Y-90690476D01*
X159234761Y-90785714D01*
X159187142Y-90833333D01*
X159652380Y-96341904D02*
X158652380Y-96341904D01*
X159652380Y-95770476D02*
X159080952Y-96199047D01*
X158652380Y-95770476D02*
X159223809Y-96341904D01*
%TO.C,D2*%
X148352380Y-71038095D02*
X147352380Y-71038095D01*
X147352380Y-70800000D01*
X147400000Y-70657142D01*
X147495238Y-70561904D01*
X147590476Y-70514285D01*
X147780952Y-70466666D01*
X147923809Y-70466666D01*
X148114285Y-70514285D01*
X148209523Y-70561904D01*
X148304761Y-70657142D01*
X148352380Y-70800000D01*
X148352380Y-71038095D01*
X147447619Y-70085714D02*
X147400000Y-70038095D01*
X147352380Y-69942857D01*
X147352380Y-69704761D01*
X147400000Y-69609523D01*
X147447619Y-69561904D01*
X147542857Y-69514285D01*
X147638095Y-69514285D01*
X147780952Y-69561904D01*
X148352380Y-70133333D01*
X148352380Y-69514285D01*
X150252380Y-76081904D02*
X149252380Y-76081904D01*
X150252380Y-75510476D02*
X149680952Y-75939047D01*
X149252380Y-75510476D02*
X149823809Y-76081904D01*
%TO.C,D1*%
X157012380Y-70828095D02*
X156012380Y-70828095D01*
X156012380Y-70590000D01*
X156060000Y-70447142D01*
X156155238Y-70351904D01*
X156250476Y-70304285D01*
X156440952Y-70256666D01*
X156583809Y-70256666D01*
X156774285Y-70304285D01*
X156869523Y-70351904D01*
X156964761Y-70447142D01*
X157012380Y-70590000D01*
X157012380Y-70828095D01*
X157012380Y-69304285D02*
X157012380Y-69875714D01*
X157012380Y-69590000D02*
X156012380Y-69590000D01*
X156155238Y-69685238D01*
X156250476Y-69780476D01*
X156298095Y-69875714D01*
X161752380Y-76861904D02*
X160752380Y-76861904D01*
X161752380Y-76290476D02*
X161180952Y-76719047D01*
X160752380Y-76290476D02*
X161323809Y-76861904D01*
%TO.C,C5*%
X98362142Y-103316666D02*
X98409761Y-103364285D01*
X98457380Y-103507142D01*
X98457380Y-103602380D01*
X98409761Y-103745238D01*
X98314523Y-103840476D01*
X98219285Y-103888095D01*
X98028809Y-103935714D01*
X97885952Y-103935714D01*
X97695476Y-103888095D01*
X97600238Y-103840476D01*
X97505000Y-103745238D01*
X97457380Y-103602380D01*
X97457380Y-103507142D01*
X97505000Y-103364285D01*
X97552619Y-103316666D01*
X97457380Y-102411904D02*
X97457380Y-102888095D01*
X97933571Y-102935714D01*
X97885952Y-102888095D01*
X97838333Y-102792857D01*
X97838333Y-102554761D01*
X97885952Y-102459523D01*
X97933571Y-102411904D01*
X98028809Y-102364285D01*
X98266904Y-102364285D01*
X98362142Y-102411904D01*
X98409761Y-102459523D01*
X98457380Y-102554761D01*
X98457380Y-102792857D01*
X98409761Y-102888095D01*
X98362142Y-102935714D01*
%TO.C,C4*%
X83037142Y-62166666D02*
X83084761Y-62214285D01*
X83132380Y-62357142D01*
X83132380Y-62452380D01*
X83084761Y-62595238D01*
X82989523Y-62690476D01*
X82894285Y-62738095D01*
X82703809Y-62785714D01*
X82560952Y-62785714D01*
X82370476Y-62738095D01*
X82275238Y-62690476D01*
X82180000Y-62595238D01*
X82132380Y-62452380D01*
X82132380Y-62357142D01*
X82180000Y-62214285D01*
X82227619Y-62166666D01*
X82465714Y-61309523D02*
X83132380Y-61309523D01*
X82084761Y-61547619D02*
X82799047Y-61785714D01*
X82799047Y-61166666D01*
%TO.C,C3*%
X156033333Y-96677142D02*
X155985714Y-96724761D01*
X155842857Y-96772380D01*
X155747619Y-96772380D01*
X155604761Y-96724761D01*
X155509523Y-96629523D01*
X155461904Y-96534285D01*
X155414285Y-96343809D01*
X155414285Y-96200952D01*
X155461904Y-96010476D01*
X155509523Y-95915238D01*
X155604761Y-95820000D01*
X155747619Y-95772380D01*
X155842857Y-95772380D01*
X155985714Y-95820000D01*
X156033333Y-95867619D01*
X156366666Y-95772380D02*
X156985714Y-95772380D01*
X156652380Y-96153333D01*
X156795238Y-96153333D01*
X156890476Y-96200952D01*
X156938095Y-96248571D01*
X156985714Y-96343809D01*
X156985714Y-96581904D01*
X156938095Y-96677142D01*
X156890476Y-96724761D01*
X156795238Y-96772380D01*
X156509523Y-96772380D01*
X156414285Y-96724761D01*
X156366666Y-96677142D01*
%TO.C,C2*%
X143677142Y-64616666D02*
X143724761Y-64664285D01*
X143772380Y-64807142D01*
X143772380Y-64902380D01*
X143724761Y-65045238D01*
X143629523Y-65140476D01*
X143534285Y-65188095D01*
X143343809Y-65235714D01*
X143200952Y-65235714D01*
X143010476Y-65188095D01*
X142915238Y-65140476D01*
X142820000Y-65045238D01*
X142772380Y-64902380D01*
X142772380Y-64807142D01*
X142820000Y-64664285D01*
X142867619Y-64616666D01*
X142867619Y-64235714D02*
X142820000Y-64188095D01*
X142772380Y-64092857D01*
X142772380Y-63854761D01*
X142820000Y-63759523D01*
X142867619Y-63711904D01*
X142962857Y-63664285D01*
X143058095Y-63664285D01*
X143200952Y-63711904D01*
X143772380Y-64283333D01*
X143772380Y-63664285D01*
%TO.C,C1*%
X156177142Y-68226666D02*
X156224761Y-68274285D01*
X156272380Y-68417142D01*
X156272380Y-68512380D01*
X156224761Y-68655238D01*
X156129523Y-68750476D01*
X156034285Y-68798095D01*
X155843809Y-68845714D01*
X155700952Y-68845714D01*
X155510476Y-68798095D01*
X155415238Y-68750476D01*
X155320000Y-68655238D01*
X155272380Y-68512380D01*
X155272380Y-68417142D01*
X155320000Y-68274285D01*
X155367619Y-68226666D01*
X156272380Y-67274285D02*
X156272380Y-67845714D01*
X156272380Y-67560000D02*
X155272380Y-67560000D01*
X155415238Y-67655238D01*
X155510476Y-67750476D01*
X155558095Y-67845714D01*
%TO.C,A1*%
X116246666Y-84334285D02*
X116246666Y-83858095D01*
X116532380Y-84429523D02*
X115532380Y-84096190D01*
X116532380Y-83762857D01*
X116532380Y-82905714D02*
X116532380Y-83477142D01*
X116532380Y-83191428D02*
X115532380Y-83191428D01*
X115675238Y-83286666D01*
X115770476Y-83381904D01*
X115818095Y-83477142D01*
X75987619Y-82358095D02*
X75178095Y-82358095D01*
X75082857Y-82405714D01*
X75035238Y-82453333D01*
X74987619Y-82548571D01*
X74987619Y-82739047D01*
X75035238Y-82834285D01*
X75082857Y-82881904D01*
X75178095Y-82929523D01*
X75987619Y-82929523D01*
X75035238Y-83358095D02*
X74987619Y-83500952D01*
X74987619Y-83739047D01*
X75035238Y-83834285D01*
X75082857Y-83881904D01*
X75178095Y-83929523D01*
X75273333Y-83929523D01*
X75368571Y-83881904D01*
X75416190Y-83834285D01*
X75463809Y-83739047D01*
X75511428Y-83548571D01*
X75559047Y-83453333D01*
X75606666Y-83405714D01*
X75701904Y-83358095D01*
X75797142Y-83358095D01*
X75892380Y-83405714D01*
X75940000Y-83453333D01*
X75987619Y-83548571D01*
X75987619Y-83786666D01*
X75940000Y-83929523D01*
X75511428Y-84691428D02*
X75463809Y-84834285D01*
X75416190Y-84881904D01*
X75320952Y-84929523D01*
X75178095Y-84929523D01*
X75082857Y-84881904D01*
X75035238Y-84834285D01*
X74987619Y-84739047D01*
X74987619Y-84358095D01*
X75987619Y-84358095D01*
X75987619Y-84691428D01*
X75940000Y-84786666D01*
X75892380Y-84834285D01*
X75797142Y-84881904D01*
X75701904Y-84881904D01*
X75606666Y-84834285D01*
X75559047Y-84786666D01*
X75511428Y-84691428D01*
X75511428Y-84358095D01*
D11*
%TO.C,SW2*%
X132550000Y-61500000D02*
X137050000Y-61500000D01*
X131300000Y-57500000D02*
X131300000Y-59000000D01*
X137050000Y-55000000D02*
X132550000Y-55000000D01*
X138300000Y-59000000D02*
X138300000Y-57500000D01*
%TO.C,SW1*%
X122000000Y-61500000D02*
X126500000Y-61500000D01*
X120750000Y-57500000D02*
X120750000Y-59000000D01*
X126500000Y-55000000D02*
X122000000Y-55000000D01*
X127750000Y-59000000D02*
X127750000Y-57500000D01*
%TO.C,U1*%
X107210000Y-104530000D02*
X107210000Y-101870000D01*
X102070000Y-104530000D02*
X107210000Y-104530000D01*
X100800000Y-104530000D02*
X99470000Y-104530000D01*
X102070000Y-101870000D02*
X107210000Y-101870000D01*
X99470000Y-104530000D02*
X99470000Y-103200000D01*
X102070000Y-104530000D02*
X102070000Y-101870000D01*
%TO.C,TP2*%
X173900000Y-88800000D02*
X173900000Y-85400000D01*
X177300000Y-85400000D02*
X177300000Y-88800000D01*
X173900000Y-85400000D02*
X177300000Y-85400000D01*
X177300000Y-88800000D02*
X173900000Y-88800000D01*
%TO.C,TP1*%
X173900000Y-94600000D02*
X173900000Y-91200000D01*
X177300000Y-91200000D02*
X177300000Y-94600000D01*
X173900000Y-91200000D02*
X177300000Y-91200000D01*
X177300000Y-94600000D02*
X173900000Y-94600000D01*
%TO.C,TH1*%
X86000000Y-101670000D02*
X87330000Y-101670000D01*
X82130000Y-101670000D02*
X82130000Y-104330000D01*
X84730000Y-101670000D02*
X82130000Y-101670000D01*
X84730000Y-101670000D02*
X84730000Y-104330000D01*
X87330000Y-101670000D02*
X87330000Y-103000000D01*
X84730000Y-104330000D02*
X82130000Y-104330000D01*
%TO.C,R6*%
X91660000Y-102760436D02*
X91660000Y-103214564D01*
X90190000Y-102760436D02*
X90190000Y-103214564D01*
%TO.C,R5*%
X147165000Y-98327064D02*
X147165000Y-97872936D01*
X148635000Y-98327064D02*
X148635000Y-97872936D01*
%TO.C,R4*%
X136960436Y-63865000D02*
X137414564Y-63865000D01*
X136960436Y-65335000D02*
X137414564Y-65335000D01*
%TO.C,R3*%
X126860436Y-63865000D02*
X127314564Y-63865000D01*
X126860436Y-65335000D02*
X127314564Y-65335000D01*
%TO.C,R2*%
X145535000Y-70760436D02*
X145535000Y-71214564D01*
X144065000Y-70760436D02*
X144065000Y-71214564D01*
%TO.C,R1*%
X144065000Y-75367064D02*
X144065000Y-74912936D01*
X145535000Y-75367064D02*
X145535000Y-74912936D01*
%TO.C,Q1*%
X147830000Y-96080000D02*
X147830000Y-85840000D01*
X147830000Y-92810000D02*
X149340000Y-92810000D01*
X147830000Y-89109000D02*
X149340000Y-89109000D01*
X147830000Y-96080000D02*
X152471000Y-96080000D01*
X152471000Y-96080000D02*
X152471000Y-85840000D01*
X147830000Y-85840000D02*
X152471000Y-85840000D01*
X149340000Y-96080000D02*
X149340000Y-85840000D01*
%TO.C,J3*%
X166790000Y-95380000D02*
X174410000Y-95380000D01*
X174410000Y-85220000D02*
X166790000Y-85220000D01*
X173140000Y-85220000D02*
X173140000Y-95380000D01*
X174410000Y-95380000D02*
X174410000Y-85220000D01*
X166790000Y-85220000D02*
X166790000Y-95380000D01*
%TO.C,J2*%
X78630000Y-56570000D02*
X78630000Y-64250000D01*
X75970000Y-55300000D02*
X75970000Y-53970000D01*
X75970000Y-64250000D02*
X78630000Y-64250000D01*
X75970000Y-56570000D02*
X78630000Y-56570000D01*
X75970000Y-53970000D02*
X77300000Y-53970000D01*
X75970000Y-56570000D02*
X75970000Y-64250000D01*
%TO.C,J1*%
X166390000Y-62680000D02*
X166390000Y-72840000D01*
X174010000Y-72840000D02*
X174010000Y-62680000D01*
X172740000Y-62680000D02*
X172740000Y-72840000D01*
X174010000Y-62680000D02*
X166390000Y-62680000D01*
X166390000Y-72840000D02*
X174010000Y-72840000D01*
%TO.C,D3*%
X159830000Y-88280000D02*
X159830000Y-93720000D01*
X161300000Y-94740000D02*
X161300000Y-93720000D01*
X162770000Y-88280000D02*
X159830000Y-88280000D01*
X159830000Y-92940000D02*
X162770000Y-92940000D01*
X159830000Y-93720000D02*
X162770000Y-93720000D01*
X161300000Y-87260000D02*
X161300000Y-88280000D01*
X162770000Y-93720000D02*
X162770000Y-88280000D01*
X159830000Y-92700000D02*
X162770000Y-92700000D01*
X159830000Y-92820000D02*
X162770000Y-92820000D01*
%TO.C,D2*%
X146410000Y-72560000D02*
X149350000Y-72560000D01*
X146410000Y-72440000D02*
X149350000Y-72440000D01*
X149350000Y-73460000D02*
X149350000Y-68020000D01*
X147880000Y-67000000D02*
X147880000Y-68020000D01*
X146410000Y-73460000D02*
X149350000Y-73460000D01*
X146410000Y-72680000D02*
X149350000Y-72680000D01*
X149350000Y-68020000D02*
X146410000Y-68020000D01*
X147880000Y-74480000D02*
X147880000Y-73460000D01*
X146410000Y-68020000D02*
X146410000Y-73460000D01*
%TO.C,D1*%
X161580000Y-73030000D02*
X165420000Y-73030000D01*
X161580000Y-74170000D02*
X165420000Y-74170000D01*
X165420000Y-66330000D02*
X161580000Y-66330000D01*
X161580000Y-66330000D02*
X161580000Y-74170000D01*
X161580000Y-72910000D02*
X165420000Y-72910000D01*
X161580000Y-72790000D02*
X165420000Y-72790000D01*
X163500000Y-75160000D02*
X163500000Y-74170000D01*
X163500000Y-65340000D02*
X163500000Y-66330000D01*
X165420000Y-74170000D02*
X165420000Y-66330000D01*
%TO.C,C5*%
X95590000Y-102888748D02*
X95590000Y-103411252D01*
X97060000Y-102888748D02*
X97060000Y-103411252D01*
%TO.C,C4*%
X80265000Y-61738748D02*
X80265000Y-62261252D01*
X81735000Y-61738748D02*
X81735000Y-62261252D01*
%TO.C,C3*%
X155938748Y-98735000D02*
X156461252Y-98735000D01*
X155938748Y-97265000D02*
X156461252Y-97265000D01*
%TO.C,C2*%
X145735000Y-64711252D02*
X145735000Y-64188748D01*
X144265000Y-64711252D02*
X144265000Y-64188748D01*
%TO.C,C1*%
X152704437Y-63840000D02*
X154390000Y-63840000D01*
X152704437Y-63840000D02*
X151640000Y-64904437D01*
X159095563Y-63840000D02*
X160160000Y-64904437D01*
X158910000Y-63100000D02*
X157910000Y-63100000D01*
X160160000Y-64904437D02*
X160160000Y-72360000D01*
X151640000Y-64904437D02*
X151640000Y-72360000D01*
X160160000Y-72360000D02*
X157410000Y-72360000D01*
X151640000Y-72360000D02*
X154390000Y-72360000D01*
X159095563Y-63840000D02*
X157410000Y-63840000D01*
X158410000Y-62600000D02*
X158410000Y-63600000D01*
%TO.C,A1*%
X112270000Y-77270000D02*
X112270000Y-74600000D01*
X68960000Y-87560000D02*
X68960000Y-79680000D01*
X71500000Y-92640000D02*
X114940000Y-92640000D01*
X68960000Y-79680000D02*
X79380000Y-79680000D01*
X79380000Y-87560000D02*
X68960000Y-87560000D01*
X71500000Y-92640000D02*
X71500000Y-87560000D01*
X109730000Y-74600000D02*
X71500000Y-74600000D01*
X74170000Y-77270000D02*
X74170000Y-74600000D01*
X112270000Y-89970000D02*
X74170000Y-89970000D01*
X109730000Y-77270000D02*
X112270000Y-77270000D01*
X74170000Y-89970000D02*
X74170000Y-92640000D01*
X112270000Y-89970000D02*
X112270000Y-92640000D01*
X109730000Y-77270000D02*
X109730000Y-74600000D01*
X114940000Y-92640000D02*
X114940000Y-74600000D01*
X71500000Y-74600000D02*
X71500000Y-79680000D01*
X114940000Y-74600000D02*
X112270000Y-74600000D01*
X79380000Y-79680000D02*
X79380000Y-87560000D01*
X109730000Y-77270000D02*
X74170000Y-77270000D01*
%TD*%
M02*
