%TF.GenerationSoftware,KiCad,Pcbnew,(6.0.9-0)*%
%TF.CreationDate,2023-03-02T20:06:06+01:00*%
%TF.ProjectId,Dolgoza,446f6c67-6f7a-4612-9e6b-696361645f70,rev?*%
%TF.SameCoordinates,Original*%
%TF.FileFunction,Copper,L1,Top*%
%TF.FilePolarity,Positive*%
%FSLAX46Y46*%
G04 Gerber Fmt 4.6, Leading zero omitted, Abs format (unit mm)*
G04 Created by KiCad (PCBNEW (6.0.9-0)) date 2023-03-02 20:06:06*
%MOMM*%
%LPD*%
G01*
G04 APERTURE LIST*
G04 Aperture macros list*
%AMRoundRect*
0 Rectangle with rounded corners*
0 $1 Rounding radius*
0 $2 $3 $4 $5 $6 $7 $8 $9 X,Y pos of 4 corners*
0 Add a 4 corners polygon primitive as box body*
4,1,4,$2,$3,$4,$5,$6,$7,$8,$9,$2,$3,0*
0 Add four circle primitives for the rounded corners*
1,1,$1+$1,$2,$3*
1,1,$1+$1,$4,$5*
1,1,$1+$1,$6,$7*
1,1,$1+$1,$8,$9*
0 Add four rect primitives between the rounded corners*
20,1,$1+$1,$2,$3,$4,$5,0*
20,1,$1+$1,$4,$5,$6,$7,0*
20,1,$1+$1,$6,$7,$8,$9,0*
20,1,$1+$1,$8,$9,$2,$3,0*%
G04 Aperture macros list end*
%TA.AperFunction,ComponentPad*%
%ADD10C,2.000000*%
%TD*%
%TA.AperFunction,ComponentPad*%
%ADD11R,1.700000X1.700000*%
%TD*%
%TA.AperFunction,ComponentPad*%
%ADD12O,1.700000X1.700000*%
%TD*%
%TA.AperFunction,SMDPad,CuDef*%
%ADD13R,3.000000X3.000000*%
%TD*%
%TA.AperFunction,SMDPad,CuDef*%
%ADD14RoundRect,0.250000X-0.450000X0.262500X-0.450000X-0.262500X0.450000X-0.262500X0.450000X0.262500X0*%
%TD*%
%TA.AperFunction,SMDPad,CuDef*%
%ADD15RoundRect,0.250000X0.450000X-0.262500X0.450000X0.262500X-0.450000X0.262500X-0.450000X-0.262500X0*%
%TD*%
%TA.AperFunction,SMDPad,CuDef*%
%ADD16RoundRect,0.250000X-0.262500X-0.450000X0.262500X-0.450000X0.262500X0.450000X-0.262500X0.450000X0*%
%TD*%
%TA.AperFunction,ComponentPad*%
%ADD17R,2.000000X1.905000*%
%TD*%
%TA.AperFunction,ComponentPad*%
%ADD18O,2.000000X1.905000*%
%TD*%
%TA.AperFunction,ComponentPad*%
%ADD19R,3.000000X3.000000*%
%TD*%
%TA.AperFunction,ComponentPad*%
%ADD20C,3.000000*%
%TD*%
%TA.AperFunction,ComponentPad*%
%ADD21C,5.600000*%
%TD*%
%TA.AperFunction,ComponentPad*%
%ADD22O,2.200000X2.200000*%
%TD*%
%TA.AperFunction,ComponentPad*%
%ADD23R,2.200000X2.200000*%
%TD*%
%TA.AperFunction,ComponentPad*%
%ADD24R,2.400000X2.400000*%
%TD*%
%TA.AperFunction,ComponentPad*%
%ADD25O,2.400000X2.400000*%
%TD*%
%TA.AperFunction,SMDPad,CuDef*%
%ADD26RoundRect,0.250000X-0.475000X0.250000X-0.475000X-0.250000X0.475000X-0.250000X0.475000X0.250000X0*%
%TD*%
%TA.AperFunction,SMDPad,CuDef*%
%ADD27RoundRect,0.250000X-0.250000X-0.475000X0.250000X-0.475000X0.250000X0.475000X-0.250000X0.475000X0*%
%TD*%
%TA.AperFunction,SMDPad,CuDef*%
%ADD28RoundRect,0.250000X0.475000X-0.250000X0.475000X0.250000X-0.475000X0.250000X-0.475000X-0.250000X0*%
%TD*%
%TA.AperFunction,SMDPad,CuDef*%
%ADD29RoundRect,0.250000X-1.000000X1.750000X-1.000000X-1.750000X1.000000X-1.750000X1.000000X1.750000X0*%
%TD*%
%TA.AperFunction,ComponentPad*%
%ADD30R,1.600000X1.600000*%
%TD*%
%TA.AperFunction,ComponentPad*%
%ADD31O,1.600000X1.600000*%
%TD*%
%TA.AperFunction,ViaPad*%
%ADD32C,0.800000*%
%TD*%
%TA.AperFunction,Conductor*%
%ADD33C,0.310000*%
%TD*%
%TA.AperFunction,Conductor*%
%ADD34C,1.400000*%
%TD*%
G04 APERTURE END LIST*
D10*
%TO.P,SW2,2,2*%
%TO.N,/DN_SW*%
X131550000Y-60500000D03*
X138050000Y-60500000D03*
%TO.P,SW2,1,1*%
%TO.N,+5V*%
X131550000Y-56000000D03*
X138050000Y-56000000D03*
%TD*%
%TO.P,SW1,2,2*%
%TO.N,/UP_SW*%
X121000000Y-60500000D03*
X127500000Y-60500000D03*
%TO.P,SW1,1,1*%
%TO.N,+5V*%
X121000000Y-56000000D03*
X127500000Y-56000000D03*
%TD*%
D11*
%TO.P,U1,1,V+*%
%TO.N,+5V*%
X100800000Y-103200000D03*
D12*
%TO.P,U1,2,Signal*%
%TO.N,TEMP_DATA0*%
X103340000Y-103200000D03*
%TO.P,U1,3,GND*%
%TO.N,GND*%
X105880000Y-103200000D03*
%TD*%
D13*
%TO.P,TP2,1,1*%
%TO.N,Net-(C3-Pad2)*%
X175600000Y-87100000D03*
%TD*%
%TO.P,TP1,1,1*%
%TO.N,VCC*%
X175600000Y-92900000D03*
%TD*%
D11*
%TO.P,TH1,1*%
%TO.N,TEMP_DATA*%
X86000000Y-103000000D03*
D12*
%TO.P,TH1,2*%
%TO.N,+5V*%
X83460000Y-103000000D03*
%TD*%
D14*
%TO.P,R6,1*%
%TO.N,TEMP_DATA*%
X90925000Y-102075000D03*
%TO.P,R6,2*%
%TO.N,GND*%
X90925000Y-103900000D03*
%TD*%
D15*
%TO.P,R5,1*%
%TO.N,GND*%
X147900000Y-99012500D03*
%TO.P,R5,2*%
%TO.N,GATE*%
X147900000Y-97187500D03*
%TD*%
D16*
%TO.P,R4,1*%
%TO.N,GND*%
X136275000Y-64600000D03*
%TO.P,R4,2*%
%TO.N,/DN_SW*%
X138100000Y-64600000D03*
%TD*%
%TO.P,R3,1*%
%TO.N,GND*%
X126175000Y-64600000D03*
%TO.P,R3,2*%
%TO.N,/UP_SW*%
X128000000Y-64600000D03*
%TD*%
D14*
%TO.P,R2,1*%
%TO.N,GND*%
X144800000Y-70075000D03*
%TO.P,R2,2*%
%TO.N,V_DIV*%
X144800000Y-71900000D03*
%TD*%
D15*
%TO.P,R1,1*%
%TO.N,VD*%
X144800000Y-76052500D03*
%TO.P,R1,2*%
%TO.N,V_DIV*%
X144800000Y-74227500D03*
%TD*%
D17*
%TO.P,Q1,1,G*%
%TO.N,GATE*%
X151100000Y-93500000D03*
D18*
%TO.P,Q1,2,D*%
%TO.N,Net-(C3-Pad2)*%
X151100000Y-90960000D03*
%TO.P,Q1,3,S*%
%TO.N,GND*%
X151100000Y-88420000D03*
%TD*%
D19*
%TO.P,J3,1,Pin_1*%
%TO.N,VCC*%
X170600000Y-92840000D03*
D20*
%TO.P,J3,2,Pin_2*%
%TO.N,Net-(C3-Pad2)*%
X170600000Y-87760000D03*
%TD*%
D11*
%TO.P,J2,1,Pin_1*%
%TO.N,/SDA_OLED*%
X77300000Y-55300000D03*
D12*
%TO.P,J2,2,Pin_2*%
%TO.N,/SCL_OLED*%
X77300000Y-57840000D03*
%TO.P,J2,3,Pin_3*%
%TO.N,+5V*%
X77300000Y-60380000D03*
%TO.P,J2,4,Pin_4*%
%TO.N,GND*%
X77300000Y-62920000D03*
%TD*%
D20*
%TO.P,J1,2,Pin_2*%
%TO.N,VCC*%
X170200000Y-65220000D03*
D19*
%TO.P,J1,1,Pin_1*%
%TO.N,GND*%
X170200000Y-70300000D03*
%TD*%
D21*
%TO.P,H4,1,1*%
%TO.N,GND*%
X72000000Y-102000000D03*
%TD*%
%TO.P,H3,1,1*%
%TO.N,GND*%
X174000000Y-102000000D03*
%TD*%
%TO.P,H2,1,1*%
%TO.N,GND*%
X174000000Y-56000000D03*
%TD*%
%TO.P,H1,1,1*%
%TO.N,GND*%
X72000000Y-56000000D03*
%TD*%
D22*
%TO.P,D3,2,A*%
%TO.N,Net-(C3-Pad2)*%
X161300000Y-85920000D03*
D23*
%TO.P,D3,1,K*%
%TO.N,VCC*%
X161300000Y-96080000D03*
%TD*%
%TO.P,D2,1,K*%
%TO.N,VD*%
X147880000Y-75820000D03*
D22*
%TO.P,D2,2,A*%
%TO.N,VCC*%
X147880000Y-65660000D03*
%TD*%
D24*
%TO.P,D1,1,A1*%
%TO.N,GND*%
X163500000Y-76600000D03*
D25*
%TO.P,D1,2,A2*%
%TO.N,VCC*%
X163500000Y-63900000D03*
%TD*%
D26*
%TO.P,C5,1*%
%TO.N,+5V*%
X96325000Y-102200000D03*
%TO.P,C5,2*%
%TO.N,GND*%
X96325000Y-104100000D03*
%TD*%
%TO.P,C4,1*%
%TO.N,+5V*%
X81000000Y-61050000D03*
%TO.P,C4,2*%
%TO.N,GND*%
X81000000Y-62950000D03*
%TD*%
D27*
%TO.P,C3,1*%
%TO.N,VCC*%
X155250000Y-98000000D03*
%TO.P,C3,2*%
%TO.N,Net-(C3-Pad2)*%
X157150000Y-98000000D03*
%TD*%
D28*
%TO.P,C2,1*%
%TO.N,VCC*%
X145000000Y-65400000D03*
%TO.P,C2,2*%
%TO.N,GND*%
X145000000Y-63500000D03*
%TD*%
D29*
%TO.P,C1,1*%
%TO.N,VCC*%
X155900000Y-65050000D03*
%TO.P,C1,2*%
%TO.N,GND*%
X155900000Y-71150000D03*
%TD*%
D30*
%TO.P,A1,1,D1/TX*%
%TO.N,unconnected-(A1-Pad1)*%
X111000000Y-76000000D03*
D31*
%TO.P,A1,2,D0/RX*%
%TO.N,unconnected-(A1-Pad2)*%
X108460000Y-76000000D03*
%TO.P,A1,3,~{RESET}*%
%TO.N,unconnected-(A1-Pad3)*%
X105920000Y-76000000D03*
%TO.P,A1,4,GND*%
%TO.N,GND*%
X103380000Y-76000000D03*
%TO.P,A1,5,D2*%
%TO.N,unconnected-(A1-Pad5)*%
X100840000Y-76000000D03*
%TO.P,A1,6,D3*%
%TO.N,GATE*%
X98300000Y-76000000D03*
%TO.P,A1,7,D4*%
%TO.N,unconnected-(A1-Pad7)*%
X95760000Y-76000000D03*
%TO.P,A1,8,D5*%
%TO.N,/UP_SW*%
X93220000Y-76000000D03*
%TO.P,A1,9,D6*%
%TO.N,/DN_SW*%
X90680000Y-76000000D03*
%TO.P,A1,10,D7*%
%TO.N,unconnected-(A1-Pad10)*%
X88140000Y-76000000D03*
%TO.P,A1,11,D8*%
%TO.N,unconnected-(A1-Pad11)*%
X85600000Y-76000000D03*
%TO.P,A1,12,D9*%
%TO.N,unconnected-(A1-Pad12)*%
X83060000Y-76000000D03*
%TO.P,A1,13,D10*%
%TO.N,unconnected-(A1-Pad13)*%
X80520000Y-76000000D03*
%TO.P,A1,14,D11*%
%TO.N,unconnected-(A1-Pad14)*%
X77980000Y-76000000D03*
%TO.P,A1,15,D12*%
%TO.N,unconnected-(A1-Pad15)*%
X75440000Y-76000000D03*
%TO.P,A1,16,D13*%
%TO.N,unconnected-(A1-Pad16)*%
X75440000Y-91240000D03*
%TO.P,A1,17,3V3*%
%TO.N,unconnected-(A1-Pad17)*%
X77980000Y-91240000D03*
%TO.P,A1,18,AREF*%
%TO.N,unconnected-(A1-Pad18)*%
X80520000Y-91240000D03*
%TO.P,A1,19,A0*%
%TO.N,unconnected-(A1-Pad19)*%
X83060000Y-91240000D03*
%TO.P,A1,20,A1*%
%TO.N,TEMP_DATA0*%
X85600000Y-91240000D03*
%TO.P,A1,21,A2*%
%TO.N,TEMP_DATA*%
X88140000Y-91240000D03*
%TO.P,A1,22,A3*%
%TO.N,unconnected-(A1-Pad22)*%
X90680000Y-91240000D03*
%TO.P,A1,23,A4*%
%TO.N,/SDA_OLED*%
X93220000Y-91240000D03*
%TO.P,A1,24,A5*%
%TO.N,/SCL_OLED*%
X95760000Y-91240000D03*
%TO.P,A1,25,A6*%
%TO.N,unconnected-(A1-Pad25)*%
X98300000Y-91240000D03*
%TO.P,A1,26,A7*%
%TO.N,V_DIV*%
X100840000Y-91240000D03*
%TO.P,A1,27,+5V*%
%TO.N,+5V*%
X103380000Y-91240000D03*
%TO.P,A1,28,~{RESET}*%
%TO.N,unconnected-(A1-Pad28)*%
X105920000Y-91240000D03*
%TO.P,A1,29,GND*%
%TO.N,GND*%
X108460000Y-91240000D03*
%TO.P,A1,30,VIN*%
%TO.N,VD*%
X111000000Y-91240000D03*
%TD*%
D32*
%TO.N,GND*%
X96800000Y-57600000D03*
X70700000Y-88100000D03*
X127300000Y-102800000D03*
%TO.N,V_DIV*%
X140700000Y-89400000D03*
%TD*%
D33*
%TO.N,GATE*%
X147900000Y-97187500D02*
X144212500Y-93500000D01*
X144212500Y-93500000D02*
X118200000Y-93500000D01*
X151100000Y-93500000D02*
X151100000Y-93987500D01*
X151100000Y-93987500D02*
X147900000Y-97187500D01*
%TO.N,+5V*%
X100800000Y-103200000D02*
X98200000Y-105800000D01*
X98200000Y-105800000D02*
X86260000Y-105800000D01*
X86260000Y-105800000D02*
X83460000Y-103000000D01*
X100800000Y-103200000D02*
X100800000Y-93820000D01*
X100800000Y-93820000D02*
X103380000Y-91240000D01*
%TO.N,V_DIV*%
X140700000Y-89400000D02*
X140700000Y-78327500D01*
X140700000Y-78327500D02*
X144800000Y-74227500D01*
%TO.N,/DN_SW*%
X131550000Y-60500000D02*
X130150000Y-59100000D01*
X130150000Y-59100000D02*
X107580000Y-59100000D01*
X107580000Y-59100000D02*
X90680000Y-76000000D01*
%TO.N,/UP_SW*%
X121000000Y-60500000D02*
X108720000Y-60500000D01*
X108720000Y-60500000D02*
X93220000Y-76000000D01*
X127500000Y-60500000D02*
X121000000Y-60500000D01*
%TO.N,/DN_SW*%
X138050000Y-60500000D02*
X131550000Y-60500000D01*
%TO.N,+5V*%
X81000000Y-61050000D02*
X79920000Y-62130000D01*
X79920000Y-62130000D02*
X79920000Y-64980000D01*
X98240000Y-86100000D02*
X103380000Y-91240000D01*
X79920000Y-64980000D02*
X73500000Y-71400000D01*
X73500000Y-71400000D02*
X73500000Y-80300000D01*
X73500000Y-80300000D02*
X79300000Y-86100000D01*
X79300000Y-86100000D02*
X98240000Y-86100000D01*
X77300000Y-60380000D02*
X80330000Y-60380000D01*
X80330000Y-60380000D02*
X81000000Y-61050000D01*
D34*
%TO.N,V_DIV*%
X144800000Y-74227500D02*
X144800000Y-71900000D01*
%TO.N,VD*%
X147880000Y-75820000D02*
X145032500Y-75820000D01*
X145032500Y-75820000D02*
X144800000Y-76052500D01*
%TO.N,VCC*%
X147880000Y-65660000D02*
X145260000Y-65660000D01*
X145260000Y-65660000D02*
X145000000Y-65400000D01*
X155900000Y-65050000D02*
X148490000Y-65050000D01*
X148490000Y-65050000D02*
X147880000Y-65660000D01*
X163500000Y-63900000D02*
X157050000Y-63900000D01*
X157050000Y-63900000D02*
X155900000Y-65050000D01*
X170200000Y-65220000D02*
X164820000Y-65220000D01*
X164820000Y-65220000D02*
X163500000Y-63900000D01*
D33*
%TO.N,GATE*%
X118200000Y-93500000D02*
X104800000Y-80100000D01*
X104800000Y-80100000D02*
X101000000Y-80100000D01*
X101000000Y-80100000D02*
X98300000Y-77400000D01*
X98300000Y-77400000D02*
X98300000Y-76000000D01*
D34*
%TO.N,Net-(C3-Pad2)*%
X155360000Y-89160000D02*
X158160000Y-86360000D01*
X157150000Y-98000000D02*
X157150000Y-87370000D01*
X158160000Y-86360000D02*
X158600000Y-85920000D01*
X157150000Y-87370000D02*
X158160000Y-86360000D01*
%TO.N,VCC*%
X161300000Y-96080000D02*
X161300000Y-98800000D01*
X161300000Y-98800000D02*
X159000000Y-101100000D01*
X159000000Y-101100000D02*
X156200000Y-101100000D01*
X156200000Y-101100000D02*
X155250000Y-100150000D01*
X155250000Y-100150000D02*
X155250000Y-98000000D01*
%TO.N,Net-(C3-Pad2)*%
X158600000Y-85920000D02*
X161300000Y-85920000D01*
%TO.N,VCC*%
X170600000Y-92840000D02*
X167360000Y-96080000D01*
X167360000Y-96080000D02*
X161300000Y-96080000D01*
%TO.N,Net-(C3-Pad2)*%
X170600000Y-87760000D02*
X163140000Y-87760000D01*
X163140000Y-87760000D02*
X161300000Y-85920000D01*
X155360000Y-89160000D02*
X153560000Y-90960000D01*
X153560000Y-90960000D02*
X151100000Y-90960000D01*
%TO.N,VCC*%
X170600000Y-92840000D02*
X175540000Y-92840000D01*
X175540000Y-92840000D02*
X175600000Y-92900000D01*
%TO.N,Net-(C3-Pad2)*%
X170600000Y-87760000D02*
X174940000Y-87760000D01*
X174940000Y-87760000D02*
X175600000Y-87100000D01*
D33*
%TO.N,+5V*%
X100800000Y-103200000D02*
X97325000Y-103200000D01*
X97325000Y-103200000D02*
X96325000Y-102200000D01*
%TO.N,TEMP_DATA*%
X90925000Y-102075000D02*
X88140000Y-99290000D01*
X88140000Y-99290000D02*
X88140000Y-91240000D01*
X86000000Y-103000000D02*
X90000000Y-103000000D01*
X90000000Y-103000000D02*
X90925000Y-102075000D01*
%TO.N,/DN_SW*%
X138100000Y-64600000D02*
X138050000Y-64550000D01*
X138050000Y-64550000D02*
X138050000Y-60500000D01*
%TO.N,/UP_SW*%
X128000000Y-64600000D02*
X127500000Y-64100000D01*
X127500000Y-64100000D02*
X127500000Y-60500000D01*
%TO.N,/SDA_OLED*%
X93220000Y-91240000D02*
X89080000Y-87100000D01*
X89080000Y-87100000D02*
X76100000Y-87100000D01*
X76100000Y-87100000D02*
X72500000Y-83500000D01*
X72500000Y-83500000D02*
X72500000Y-60100000D01*
X72500000Y-60100000D02*
X77300000Y-55300000D01*
%TD*%
%TA.AperFunction,Conductor*%
%TO.N,GND*%
G36*
X71383879Y-52528502D02*
G01*
X71430372Y-52582158D01*
X71440476Y-52652432D01*
X71410982Y-52717012D01*
X71351256Y-52755396D01*
X71342600Y-52757608D01*
X71123586Y-52805361D01*
X71117011Y-52807172D01*
X70783683Y-52918702D01*
X70777361Y-52921205D01*
X70458034Y-53068079D01*
X70451991Y-53071265D01*
X70150401Y-53251763D01*
X70144755Y-53255571D01*
X69864408Y-53467596D01*
X69859211Y-53471987D01*
X69857972Y-53473155D01*
X69849950Y-53486862D01*
X69849986Y-53487704D01*
X69855037Y-53495826D01*
X71987190Y-55627980D01*
X72001131Y-55635592D01*
X72002966Y-55635461D01*
X72009580Y-55631210D01*
X74142798Y-53497991D01*
X74150412Y-53484047D01*
X74150344Y-53483089D01*
X74145836Y-53476272D01*
X74144418Y-53475065D01*
X73864813Y-53262064D01*
X73859187Y-53258240D01*
X73558214Y-53076681D01*
X73552202Y-53073484D01*
X73233370Y-52925487D01*
X73227070Y-52922967D01*
X72894129Y-52810273D01*
X72887551Y-52808437D01*
X72657846Y-52757513D01*
X72595669Y-52723241D01*
X72561891Y-52660795D01*
X72567237Y-52590000D01*
X72610009Y-52533333D01*
X72676627Y-52508786D01*
X72685117Y-52508500D01*
X173315758Y-52508500D01*
X173383879Y-52528502D01*
X173430372Y-52582158D01*
X173440476Y-52652432D01*
X173410982Y-52717012D01*
X173351256Y-52755396D01*
X173342600Y-52757608D01*
X173123586Y-52805361D01*
X173117011Y-52807172D01*
X172783683Y-52918702D01*
X172777361Y-52921205D01*
X172458034Y-53068079D01*
X172451991Y-53071265D01*
X172150401Y-53251763D01*
X172144755Y-53255571D01*
X171864408Y-53467596D01*
X171859211Y-53471987D01*
X171857972Y-53473155D01*
X171849950Y-53486862D01*
X171849986Y-53487704D01*
X171855037Y-53495826D01*
X173987190Y-55627980D01*
X174001131Y-55635592D01*
X174002966Y-55635461D01*
X174009580Y-55631210D01*
X176142798Y-53497991D01*
X176150412Y-53484047D01*
X176150344Y-53483089D01*
X176145836Y-53476272D01*
X176144418Y-53475065D01*
X175864813Y-53262064D01*
X175859187Y-53258240D01*
X175558214Y-53076681D01*
X175552202Y-53073484D01*
X175233370Y-52925487D01*
X175227070Y-52922967D01*
X174894129Y-52810273D01*
X174887551Y-52808437D01*
X174657846Y-52757513D01*
X174595669Y-52723241D01*
X174561891Y-52660795D01*
X174567237Y-52590000D01*
X174610009Y-52533333D01*
X174676627Y-52508786D01*
X174685117Y-52508500D01*
X177365500Y-52508500D01*
X177433621Y-52528502D01*
X177480114Y-52582158D01*
X177491500Y-52634500D01*
X177491500Y-55302313D01*
X177471498Y-55370434D01*
X177417842Y-55416927D01*
X177347568Y-55427031D01*
X177282988Y-55397537D01*
X177244604Y-55337811D01*
X177241156Y-55322675D01*
X177236130Y-55291985D01*
X177234663Y-55285313D01*
X177140736Y-54946627D01*
X177138562Y-54940163D01*
X177008598Y-54613578D01*
X177005742Y-54607398D01*
X176841269Y-54296763D01*
X176837769Y-54290937D01*
X176640697Y-53999862D01*
X176636590Y-53994453D01*
X176523565Y-53861179D01*
X176510740Y-53852743D01*
X176500416Y-53858795D01*
X174372020Y-55987190D01*
X174364408Y-56001131D01*
X174364539Y-56002966D01*
X174368790Y-56009580D01*
X176499009Y-58139798D01*
X176512605Y-58147223D01*
X176522218Y-58140522D01*
X176622518Y-58023912D01*
X176626676Y-58018514D01*
X176825762Y-57728840D01*
X176829310Y-57723029D01*
X176995942Y-57413559D01*
X176998849Y-57407381D01*
X177131090Y-57081713D01*
X177133304Y-57075283D01*
X177229598Y-56737237D01*
X177231105Y-56730607D01*
X177241301Y-56670958D01*
X177272495Y-56607182D01*
X177333217Y-56570394D01*
X177404189Y-56572275D01*
X177462877Y-56612227D01*
X177490649Y-56677567D01*
X177491500Y-56692188D01*
X177491500Y-85021868D01*
X177471498Y-85089989D01*
X177417842Y-85136482D01*
X177347568Y-85146586D01*
X177321270Y-85139850D01*
X177312286Y-85136482D01*
X177210316Y-85098255D01*
X177148134Y-85091500D01*
X174051866Y-85091500D01*
X173989684Y-85098255D01*
X173853295Y-85149385D01*
X173736739Y-85236739D01*
X173649385Y-85353295D01*
X173598255Y-85489684D01*
X173591500Y-85551866D01*
X173591500Y-86425500D01*
X173571498Y-86493621D01*
X173517842Y-86540114D01*
X173465500Y-86551500D01*
X172271071Y-86551500D01*
X172202950Y-86531498D01*
X172169877Y-86499767D01*
X172169711Y-86499901D01*
X172168647Y-86498588D01*
X172167986Y-86497953D01*
X172167016Y-86496573D01*
X172164545Y-86493057D01*
X172161620Y-86489909D01*
X171981046Y-86295588D01*
X171981043Y-86295585D01*
X171978125Y-86292445D01*
X171974810Y-86289731D01*
X171974806Y-86289728D01*
X171769523Y-86121706D01*
X171766205Y-86118990D01*
X171532704Y-85975901D01*
X171528768Y-85974173D01*
X171285873Y-85867549D01*
X171285869Y-85867548D01*
X171281945Y-85865825D01*
X171018566Y-85790800D01*
X171014324Y-85790196D01*
X171014318Y-85790195D01*
X170813834Y-85761662D01*
X170747443Y-85752213D01*
X170603589Y-85751460D01*
X170477877Y-85750802D01*
X170477871Y-85750802D01*
X170473591Y-85750780D01*
X170469347Y-85751339D01*
X170469343Y-85751339D01*
X170350302Y-85767011D01*
X170202078Y-85786525D01*
X170197938Y-85787658D01*
X170197936Y-85787658D01*
X170125008Y-85807609D01*
X169937928Y-85858788D01*
X169933980Y-85860472D01*
X169689982Y-85964546D01*
X169689978Y-85964548D01*
X169686030Y-85966232D01*
X169666125Y-85978145D01*
X169454725Y-86104664D01*
X169454721Y-86104667D01*
X169451043Y-86106868D01*
X169237318Y-86278094D01*
X169220717Y-86295588D01*
X169060864Y-86464038D01*
X169048808Y-86476742D01*
X169046307Y-86480223D01*
X169046305Y-86480225D01*
X169032794Y-86499027D01*
X168976799Y-86542674D01*
X168930472Y-86551500D01*
X163692767Y-86551500D01*
X163624646Y-86531498D01*
X163603672Y-86514595D01*
X162938177Y-85849100D01*
X162904151Y-85786788D01*
X162901660Y-85769891D01*
X162893997Y-85672531D01*
X162893609Y-85667597D01*
X162889428Y-85650178D01*
X162849120Y-85482285D01*
X162834505Y-85421409D01*
X162832471Y-85416498D01*
X162739511Y-85192072D01*
X162739509Y-85192068D01*
X162737616Y-85187498D01*
X162605328Y-84971624D01*
X162440898Y-84779102D01*
X162248376Y-84614672D01*
X162032502Y-84482384D01*
X162027932Y-84480491D01*
X162027928Y-84480489D01*
X161803164Y-84387389D01*
X161803162Y-84387388D01*
X161798591Y-84385495D01*
X161713968Y-84365179D01*
X161557216Y-84327546D01*
X161557210Y-84327545D01*
X161552403Y-84326391D01*
X161300000Y-84306526D01*
X161047597Y-84326391D01*
X161042790Y-84327545D01*
X161042784Y-84327546D01*
X160886032Y-84365179D01*
X160801409Y-84385495D01*
X160796838Y-84387388D01*
X160796836Y-84387389D01*
X160572072Y-84480489D01*
X160572068Y-84480491D01*
X160567498Y-84482384D01*
X160351624Y-84614672D01*
X160273598Y-84681312D01*
X160208811Y-84710342D01*
X160191770Y-84711500D01*
X158688085Y-84711500D01*
X158671639Y-84710422D01*
X158650811Y-84707680D01*
X158645212Y-84707944D01*
X158645210Y-84707944D01*
X158572777Y-84711360D01*
X158566842Y-84711500D01*
X158545265Y-84711500D01*
X158542479Y-84711749D01*
X158542471Y-84711749D01*
X158520399Y-84713719D01*
X158515135Y-84714078D01*
X158462347Y-84716568D01*
X158435325Y-84717842D01*
X158429866Y-84719092D01*
X158429861Y-84719093D01*
X158418868Y-84721611D01*
X158401937Y-84724292D01*
X158397826Y-84724659D01*
X158385128Y-84725792D01*
X158379716Y-84727273D01*
X158379708Y-84727274D01*
X158308059Y-84746875D01*
X158302941Y-84748161D01*
X158287971Y-84751590D01*
X158225043Y-84766002D01*
X158219886Y-84768202D01*
X158219879Y-84768204D01*
X158209517Y-84772624D01*
X158193330Y-84778261D01*
X158182463Y-84781234D01*
X158182456Y-84781237D01*
X158177048Y-84782716D01*
X158171990Y-84785128D01*
X158171986Y-84785130D01*
X158104920Y-84817119D01*
X158100121Y-84819286D01*
X158026614Y-84850640D01*
X158021926Y-84853719D01*
X158021923Y-84853721D01*
X158012506Y-84859907D01*
X157997572Y-84868322D01*
X157982337Y-84875589D01*
X157977782Y-84878862D01*
X157977772Y-84878868D01*
X157917456Y-84922210D01*
X157913106Y-84925200D01*
X157850168Y-84966542D01*
X157850164Y-84966545D01*
X157846308Y-84969078D01*
X157842866Y-84972145D01*
X157826540Y-84986691D01*
X157816245Y-84994938D01*
X157807149Y-85001474D01*
X157803244Y-85005504D01*
X157735752Y-85075150D01*
X157734363Y-85076560D01*
X156357752Y-86453171D01*
X156345361Y-86464038D01*
X156333140Y-86473415D01*
X156333136Y-86473419D01*
X156328689Y-86476831D01*
X156310725Y-86496573D01*
X156276098Y-86534628D01*
X156271999Y-86538924D01*
X153096328Y-89714595D01*
X153034016Y-89748621D01*
X153007233Y-89751500D01*
X152180099Y-89751500D01*
X152111978Y-89731498D01*
X152065485Y-89677842D01*
X152055381Y-89607568D01*
X152084875Y-89542988D01*
X152095299Y-89532306D01*
X152215486Y-89422944D01*
X152222506Y-89415417D01*
X152364945Y-89235056D01*
X152370650Y-89226469D01*
X152481714Y-89025278D01*
X152485944Y-89015866D01*
X152562659Y-88799232D01*
X152565293Y-88789261D01*
X152582647Y-88691837D01*
X152581187Y-88678540D01*
X152566630Y-88674000D01*
X149631904Y-88674000D01*
X149618560Y-88677918D01*
X149616573Y-88692194D01*
X149626110Y-88754515D01*
X149628499Y-88764543D01*
X149699898Y-88982988D01*
X149703895Y-88992497D01*
X149810011Y-89196344D01*
X149815505Y-89205069D01*
X149953493Y-89388852D01*
X149960336Y-89396559D01*
X150126491Y-89555339D01*
X150134498Y-89561823D01*
X150167356Y-89584237D01*
X150212359Y-89639148D01*
X150220532Y-89709672D01*
X150189278Y-89773420D01*
X150164796Y-89794116D01*
X150162365Y-89795689D01*
X150158023Y-89798498D01*
X149980330Y-89960186D01*
X149944373Y-90005716D01*
X149834633Y-90144670D01*
X149834630Y-90144675D01*
X149831432Y-90148724D01*
X149828939Y-90153240D01*
X149828937Y-90153243D01*
X149754781Y-90287577D01*
X149715326Y-90359050D01*
X149713602Y-90363919D01*
X149713600Y-90363923D01*
X149636856Y-90580640D01*
X149635130Y-90585515D01*
X149634223Y-90590608D01*
X149634222Y-90590611D01*
X149597625Y-90796067D01*
X149592999Y-90822037D01*
X149592936Y-90827201D01*
X149590442Y-91031358D01*
X149590064Y-91062263D01*
X149626404Y-91299744D01*
X149642330Y-91348469D01*
X149699434Y-91523183D01*
X149699437Y-91523189D01*
X149701042Y-91528101D01*
X149703429Y-91532687D01*
X149703431Y-91532691D01*
X149784928Y-91689243D01*
X149811975Y-91741200D01*
X149928415Y-91896283D01*
X149953320Y-91962765D01*
X149938328Y-92032161D01*
X149888198Y-92082435D01*
X149871885Y-92089915D01*
X149861707Y-92093731D01*
X149861704Y-92093733D01*
X149853295Y-92096885D01*
X149736739Y-92184239D01*
X149649385Y-92300795D01*
X149598255Y-92437184D01*
X149591500Y-92499366D01*
X149591500Y-94500634D01*
X149591041Y-94500634D01*
X149575277Y-94567517D01*
X149554844Y-94594325D01*
X148019574Y-96129595D01*
X147957262Y-96163621D01*
X147930479Y-96166500D01*
X147869521Y-96166500D01*
X147801400Y-96146498D01*
X147780426Y-96129595D01*
X144701009Y-93050178D01*
X144695155Y-93043912D01*
X144664725Y-93009029D01*
X144659729Y-93003302D01*
X144610943Y-92969015D01*
X144605659Y-92965090D01*
X144564711Y-92932983D01*
X144558736Y-92928298D01*
X144551817Y-92925174D01*
X144545871Y-92921573D01*
X144540714Y-92918632D01*
X144534556Y-92915330D01*
X144528340Y-92910961D01*
X144521264Y-92908202D01*
X144521262Y-92908201D01*
X144472804Y-92889308D01*
X144466723Y-92886752D01*
X144419290Y-92865335D01*
X144419289Y-92865335D01*
X144412371Y-92862211D01*
X144404905Y-92860827D01*
X144398286Y-92858753D01*
X144392537Y-92857115D01*
X144385796Y-92855385D01*
X144378718Y-92852625D01*
X144355057Y-92849510D01*
X144319612Y-92844844D01*
X144313095Y-92843812D01*
X144279169Y-92837524D01*
X144254467Y-92832946D01*
X144246887Y-92833383D01*
X144246886Y-92833383D01*
X144196453Y-92836291D01*
X144189200Y-92836500D01*
X118527020Y-92836500D01*
X118458899Y-92816498D01*
X118437925Y-92799595D01*
X115038330Y-89400000D01*
X139786496Y-89400000D01*
X139787186Y-89406565D01*
X139803426Y-89561077D01*
X139806458Y-89589928D01*
X139865473Y-89771556D01*
X139960960Y-89936944D01*
X139965378Y-89941851D01*
X139965379Y-89941852D01*
X140024974Y-90008039D01*
X140088747Y-90078866D01*
X140243248Y-90191118D01*
X140249276Y-90193802D01*
X140249278Y-90193803D01*
X140411681Y-90266109D01*
X140417712Y-90268794D01*
X140506079Y-90287577D01*
X140598056Y-90307128D01*
X140598061Y-90307128D01*
X140604513Y-90308500D01*
X140795487Y-90308500D01*
X140801939Y-90307128D01*
X140801944Y-90307128D01*
X140893921Y-90287577D01*
X140982288Y-90268794D01*
X140988319Y-90266109D01*
X141150722Y-90193803D01*
X141150724Y-90193802D01*
X141156752Y-90191118D01*
X141311253Y-90078866D01*
X141375026Y-90008039D01*
X141434621Y-89941852D01*
X141434622Y-89941851D01*
X141439040Y-89936944D01*
X141534527Y-89771556D01*
X141593542Y-89589928D01*
X141596575Y-89561077D01*
X141612814Y-89406565D01*
X141613504Y-89400000D01*
X141596168Y-89235056D01*
X141594232Y-89216635D01*
X141594232Y-89216633D01*
X141593542Y-89210072D01*
X141534527Y-89028444D01*
X141514453Y-88993674D01*
X141497314Y-88963990D01*
X141439040Y-88863056D01*
X141419302Y-88841134D01*
X141395864Y-88815104D01*
X141365146Y-88751097D01*
X141363500Y-88730794D01*
X141363500Y-88148163D01*
X149617353Y-88148163D01*
X149618813Y-88161460D01*
X149633370Y-88166000D01*
X150827885Y-88166000D01*
X150843124Y-88161525D01*
X150844329Y-88160135D01*
X150846000Y-88152452D01*
X150846000Y-88147885D01*
X151354000Y-88147885D01*
X151358475Y-88163124D01*
X151359865Y-88164329D01*
X151367548Y-88166000D01*
X152568096Y-88166000D01*
X152581440Y-88162082D01*
X152583427Y-88147806D01*
X152573890Y-88085485D01*
X152571501Y-88075457D01*
X152500102Y-87857012D01*
X152496105Y-87847503D01*
X152389989Y-87643656D01*
X152384495Y-87634931D01*
X152246507Y-87451148D01*
X152239664Y-87443441D01*
X152073509Y-87284661D01*
X152065499Y-87278174D01*
X151875653Y-87148670D01*
X151866679Y-87143571D01*
X151658231Y-87046813D01*
X151648544Y-87043250D01*
X151427092Y-86981835D01*
X151416970Y-86979904D01*
X151372013Y-86975099D01*
X151357392Y-86977747D01*
X151354000Y-86990124D01*
X151354000Y-88147885D01*
X150846000Y-88147885D01*
X150846000Y-86989588D01*
X150841675Y-86974859D01*
X150829889Y-86972798D01*
X150818296Y-86973751D01*
X150808134Y-86975433D01*
X150585229Y-87031422D01*
X150575481Y-87034741D01*
X150364711Y-87126385D01*
X150355636Y-87131251D01*
X150162673Y-87256085D01*
X150154502Y-87262378D01*
X149984520Y-87417050D01*
X149977494Y-87424583D01*
X149835055Y-87604944D01*
X149829350Y-87613531D01*
X149718286Y-87814722D01*
X149714056Y-87824134D01*
X149637341Y-88040768D01*
X149634707Y-88050739D01*
X149617353Y-88148163D01*
X141363500Y-88148163D01*
X141363500Y-78654520D01*
X141383502Y-78586399D01*
X141400405Y-78565425D01*
X142121161Y-77844669D01*
X161792001Y-77844669D01*
X161792371Y-77851490D01*
X161797895Y-77902352D01*
X161801521Y-77917604D01*
X161846676Y-78038054D01*
X161855214Y-78053649D01*
X161931715Y-78155724D01*
X161944276Y-78168285D01*
X162046351Y-78244786D01*
X162061946Y-78253324D01*
X162182394Y-78298478D01*
X162197649Y-78302105D01*
X162248514Y-78307631D01*
X162255328Y-78308000D01*
X163227885Y-78308000D01*
X163243124Y-78303525D01*
X163244329Y-78302135D01*
X163246000Y-78294452D01*
X163246000Y-78289884D01*
X163754000Y-78289884D01*
X163758475Y-78305123D01*
X163759865Y-78306328D01*
X163767548Y-78307999D01*
X164744669Y-78307999D01*
X164751490Y-78307629D01*
X164802352Y-78302105D01*
X164817604Y-78298479D01*
X164938054Y-78253324D01*
X164953649Y-78244786D01*
X165055724Y-78168285D01*
X165068285Y-78155724D01*
X165144786Y-78053649D01*
X165153324Y-78038054D01*
X165198478Y-77917606D01*
X165202105Y-77902351D01*
X165207631Y-77851486D01*
X165208000Y-77844672D01*
X165208000Y-76872115D01*
X165203525Y-76856876D01*
X165202135Y-76855671D01*
X165194452Y-76854000D01*
X163772115Y-76854000D01*
X163756876Y-76858475D01*
X163755671Y-76859865D01*
X163754000Y-76867548D01*
X163754000Y-78289884D01*
X163246000Y-78289884D01*
X163246000Y-76872115D01*
X163241525Y-76856876D01*
X163240135Y-76855671D01*
X163232452Y-76854000D01*
X161810116Y-76854000D01*
X161794877Y-76858475D01*
X161793672Y-76859865D01*
X161792001Y-76867548D01*
X161792001Y-77844669D01*
X142121161Y-77844669D01*
X143431387Y-76534443D01*
X143493699Y-76500417D01*
X143564514Y-76505482D01*
X143621350Y-76548029D01*
X143640005Y-76583661D01*
X143658450Y-76638946D01*
X143751522Y-76789348D01*
X143876697Y-76914305D01*
X143882927Y-76918145D01*
X143882928Y-76918146D01*
X144018828Y-77001916D01*
X144027262Y-77007115D01*
X144052591Y-77015516D01*
X144061062Y-77018326D01*
X144099140Y-77038764D01*
X144139143Y-77070131D01*
X144144106Y-77072759D01*
X144144108Y-77072760D01*
X144321542Y-77166705D01*
X144329794Y-77171074D01*
X144535308Y-77236663D01*
X144540865Y-77237395D01*
X144540867Y-77237395D01*
X144600375Y-77245229D01*
X144749189Y-77264820D01*
X144754788Y-77264556D01*
X144754790Y-77264556D01*
X144841729Y-77260456D01*
X144964675Y-77254658D01*
X145174957Y-77206498D01*
X145180118Y-77204297D01*
X145180123Y-77204295D01*
X145368219Y-77124064D01*
X145368220Y-77124064D01*
X145373386Y-77121860D01*
X145378073Y-77118781D01*
X145378079Y-77118778D01*
X145460114Y-77064891D01*
X145484020Y-77049188D01*
X145553196Y-77028500D01*
X146190246Y-77028500D01*
X146258367Y-77048502D01*
X146304860Y-77102158D01*
X146308228Y-77110270D01*
X146318445Y-77137523D01*
X146329385Y-77166705D01*
X146416739Y-77283261D01*
X146533295Y-77370615D01*
X146669684Y-77421745D01*
X146731866Y-77428500D01*
X149028134Y-77428500D01*
X149090316Y-77421745D01*
X149226705Y-77370615D01*
X149343261Y-77283261D01*
X149430615Y-77166705D01*
X149481745Y-77030316D01*
X149488500Y-76968134D01*
X149488500Y-76327885D01*
X161792000Y-76327885D01*
X161796475Y-76343124D01*
X161797865Y-76344329D01*
X161805548Y-76346000D01*
X163227885Y-76346000D01*
X163243124Y-76341525D01*
X163244329Y-76340135D01*
X163246000Y-76332452D01*
X163246000Y-76327885D01*
X163754000Y-76327885D01*
X163758475Y-76343124D01*
X163759865Y-76344329D01*
X163767548Y-76346000D01*
X165189884Y-76346000D01*
X165205123Y-76341525D01*
X165206328Y-76340135D01*
X165207999Y-76332452D01*
X165207999Y-75355331D01*
X165207629Y-75348510D01*
X165202105Y-75297648D01*
X165198479Y-75282396D01*
X165153324Y-75161946D01*
X165144786Y-75146351D01*
X165068285Y-75044276D01*
X165055724Y-75031715D01*
X164953649Y-74955214D01*
X164938054Y-74946676D01*
X164817606Y-74901522D01*
X164802351Y-74897895D01*
X164751486Y-74892369D01*
X164744672Y-74892000D01*
X163772115Y-74892000D01*
X163756876Y-74896475D01*
X163755671Y-74897865D01*
X163754000Y-74905548D01*
X163754000Y-76327885D01*
X163246000Y-76327885D01*
X163246000Y-74910116D01*
X163241525Y-74894877D01*
X163240135Y-74893672D01*
X163232452Y-74892001D01*
X162255331Y-74892001D01*
X162248510Y-74892371D01*
X162197648Y-74897895D01*
X162182396Y-74901521D01*
X162061946Y-74946676D01*
X162046351Y-74955214D01*
X161944276Y-75031715D01*
X161931715Y-75044276D01*
X161855214Y-75146351D01*
X161846676Y-75161946D01*
X161801522Y-75282394D01*
X161797895Y-75297649D01*
X161792369Y-75348514D01*
X161792000Y-75355328D01*
X161792000Y-76327885D01*
X149488500Y-76327885D01*
X149488500Y-74671866D01*
X149481745Y-74609684D01*
X149430615Y-74473295D01*
X149343261Y-74356739D01*
X149226705Y-74269385D01*
X149090316Y-74218255D01*
X149028134Y-74211500D01*
X146731866Y-74211500D01*
X146669684Y-74218255D01*
X146533295Y-74269385D01*
X146416739Y-74356739D01*
X146329385Y-74473295D01*
X146326233Y-74481703D01*
X146308228Y-74529730D01*
X146265586Y-74586495D01*
X146199024Y-74611194D01*
X146190246Y-74611500D01*
X146134500Y-74611500D01*
X146066379Y-74591498D01*
X146019886Y-74537842D01*
X146008500Y-74485500D01*
X146008500Y-72947095D01*
X154142001Y-72947095D01*
X154142338Y-72953614D01*
X154152257Y-73049206D01*
X154155149Y-73062600D01*
X154206588Y-73216784D01*
X154212761Y-73229962D01*
X154298063Y-73367807D01*
X154307099Y-73379208D01*
X154421829Y-73493739D01*
X154433240Y-73502751D01*
X154571243Y-73587816D01*
X154584424Y-73593963D01*
X154738710Y-73645138D01*
X154752086Y-73648005D01*
X154846438Y-73657672D01*
X154852854Y-73658000D01*
X155627885Y-73658000D01*
X155643124Y-73653525D01*
X155644329Y-73652135D01*
X155646000Y-73644452D01*
X155646000Y-73639884D01*
X156154000Y-73639884D01*
X156158475Y-73655123D01*
X156159865Y-73656328D01*
X156167548Y-73657999D01*
X156947095Y-73657999D01*
X156953614Y-73657662D01*
X157049206Y-73647743D01*
X157062600Y-73644851D01*
X157216784Y-73593412D01*
X157229962Y-73587239D01*
X157367807Y-73501937D01*
X157379208Y-73492901D01*
X157493739Y-73378171D01*
X157502751Y-73366760D01*
X157587816Y-73228757D01*
X157593963Y-73215576D01*
X157645138Y-73061290D01*
X157648005Y-73047914D01*
X157657672Y-72953562D01*
X157658000Y-72947146D01*
X157658000Y-71844669D01*
X168192001Y-71844669D01*
X168192371Y-71851490D01*
X168197895Y-71902352D01*
X168201521Y-71917604D01*
X168246676Y-72038054D01*
X168255214Y-72053649D01*
X168331715Y-72155724D01*
X168344276Y-72168285D01*
X168446351Y-72244786D01*
X168461946Y-72253324D01*
X168582394Y-72298478D01*
X168597649Y-72302105D01*
X168648514Y-72307631D01*
X168655328Y-72308000D01*
X169927885Y-72308000D01*
X169943124Y-72303525D01*
X169944329Y-72302135D01*
X169946000Y-72294452D01*
X169946000Y-72289884D01*
X170454000Y-72289884D01*
X170458475Y-72305123D01*
X170459865Y-72306328D01*
X170467548Y-72307999D01*
X171744669Y-72307999D01*
X171751490Y-72307629D01*
X171802352Y-72302105D01*
X171817604Y-72298479D01*
X171938054Y-72253324D01*
X171953649Y-72244786D01*
X172055724Y-72168285D01*
X172068285Y-72155724D01*
X172144786Y-72053649D01*
X172153324Y-72038054D01*
X172198478Y-71917606D01*
X172202105Y-71902351D01*
X172207631Y-71851486D01*
X172208000Y-71844672D01*
X172208000Y-70572115D01*
X172203525Y-70556876D01*
X172202135Y-70555671D01*
X172194452Y-70554000D01*
X170472115Y-70554000D01*
X170456876Y-70558475D01*
X170455671Y-70559865D01*
X170454000Y-70567548D01*
X170454000Y-72289884D01*
X169946000Y-72289884D01*
X169946000Y-70572115D01*
X169941525Y-70556876D01*
X169940135Y-70555671D01*
X169932452Y-70554000D01*
X168210116Y-70554000D01*
X168194877Y-70558475D01*
X168193672Y-70559865D01*
X168192001Y-70567548D01*
X168192001Y-71844669D01*
X157658000Y-71844669D01*
X157658000Y-71422115D01*
X157653525Y-71406876D01*
X157652135Y-71405671D01*
X157644452Y-71404000D01*
X156172115Y-71404000D01*
X156156876Y-71408475D01*
X156155671Y-71409865D01*
X156154000Y-71417548D01*
X156154000Y-73639884D01*
X155646000Y-73639884D01*
X155646000Y-71422115D01*
X155641525Y-71406876D01*
X155640135Y-71405671D01*
X155632452Y-71404000D01*
X154160116Y-71404000D01*
X154144877Y-71408475D01*
X154143672Y-71409865D01*
X154142001Y-71417548D01*
X154142001Y-72947095D01*
X146008500Y-72947095D01*
X146008500Y-71587100D01*
X145997526Y-71481334D01*
X145941550Y-71313554D01*
X145848478Y-71163152D01*
X145761537Y-71076362D01*
X145727458Y-71014079D01*
X145732461Y-70943259D01*
X145761382Y-70898171D01*
X145781633Y-70877885D01*
X154142000Y-70877885D01*
X154146475Y-70893124D01*
X154147865Y-70894329D01*
X154155548Y-70896000D01*
X155627885Y-70896000D01*
X155643124Y-70891525D01*
X155644329Y-70890135D01*
X155646000Y-70882452D01*
X155646000Y-70877885D01*
X156154000Y-70877885D01*
X156158475Y-70893124D01*
X156159865Y-70894329D01*
X156167548Y-70896000D01*
X157639884Y-70896000D01*
X157655123Y-70891525D01*
X157656328Y-70890135D01*
X157657999Y-70882452D01*
X157657999Y-70027885D01*
X168192000Y-70027885D01*
X168196475Y-70043124D01*
X168197865Y-70044329D01*
X168205548Y-70046000D01*
X169927885Y-70046000D01*
X169943124Y-70041525D01*
X169944329Y-70040135D01*
X169946000Y-70032452D01*
X169946000Y-70027885D01*
X170454000Y-70027885D01*
X170458475Y-70043124D01*
X170459865Y-70044329D01*
X170467548Y-70046000D01*
X172189884Y-70046000D01*
X172205123Y-70041525D01*
X172206328Y-70040135D01*
X172207999Y-70032452D01*
X172207999Y-68755331D01*
X172207629Y-68748510D01*
X172202105Y-68697648D01*
X172198479Y-68682396D01*
X172153324Y-68561946D01*
X172144786Y-68546351D01*
X172068285Y-68444276D01*
X172055724Y-68431715D01*
X171953649Y-68355214D01*
X171938054Y-68346676D01*
X171817606Y-68301522D01*
X171802351Y-68297895D01*
X171751486Y-68292369D01*
X171744672Y-68292000D01*
X170472115Y-68292000D01*
X170456876Y-68296475D01*
X170455671Y-68297865D01*
X170454000Y-68305548D01*
X170454000Y-70027885D01*
X169946000Y-70027885D01*
X169946000Y-68310116D01*
X169941525Y-68294877D01*
X169940135Y-68293672D01*
X169932452Y-68292001D01*
X168655331Y-68292001D01*
X168648510Y-68292371D01*
X168597648Y-68297895D01*
X168582396Y-68301521D01*
X168461946Y-68346676D01*
X168446351Y-68355214D01*
X168344276Y-68431715D01*
X168331715Y-68444276D01*
X168255214Y-68546351D01*
X168246676Y-68561946D01*
X168201522Y-68682394D01*
X168197895Y-68697649D01*
X168192369Y-68748514D01*
X168192000Y-68755328D01*
X168192000Y-70027885D01*
X157657999Y-70027885D01*
X157657999Y-69352905D01*
X157657662Y-69346386D01*
X157647743Y-69250794D01*
X157644851Y-69237400D01*
X157593412Y-69083216D01*
X157587239Y-69070038D01*
X157501937Y-68932193D01*
X157492901Y-68920792D01*
X157378171Y-68806261D01*
X157366760Y-68797249D01*
X157228757Y-68712184D01*
X157215576Y-68706037D01*
X157061290Y-68654862D01*
X157047914Y-68651995D01*
X156953562Y-68642328D01*
X156947145Y-68642000D01*
X156172115Y-68642000D01*
X156156876Y-68646475D01*
X156155671Y-68647865D01*
X156154000Y-68655548D01*
X156154000Y-70877885D01*
X155646000Y-70877885D01*
X155646000Y-68660116D01*
X155641525Y-68644877D01*
X155640135Y-68643672D01*
X155632452Y-68642001D01*
X154852905Y-68642001D01*
X154846386Y-68642338D01*
X154750794Y-68652257D01*
X154737400Y-68655149D01*
X154583216Y-68706588D01*
X154570038Y-68712761D01*
X154432193Y-68798063D01*
X154420792Y-68807099D01*
X154306261Y-68921829D01*
X154297249Y-68933240D01*
X154212184Y-69071243D01*
X154206037Y-69084424D01*
X154154862Y-69238710D01*
X154151995Y-69252086D01*
X154142328Y-69346438D01*
X154142000Y-69352855D01*
X154142000Y-70877885D01*
X145781633Y-70877885D01*
X145843739Y-70815671D01*
X145852751Y-70804260D01*
X145937816Y-70666257D01*
X145943963Y-70653076D01*
X145995138Y-70498790D01*
X145998005Y-70485414D01*
X146007672Y-70391062D01*
X146008000Y-70384646D01*
X146008000Y-70347115D01*
X146003525Y-70331876D01*
X146002135Y-70330671D01*
X145994452Y-70329000D01*
X143610116Y-70329000D01*
X143594877Y-70333475D01*
X143593672Y-70334865D01*
X143592001Y-70342548D01*
X143592001Y-70384595D01*
X143592338Y-70391114D01*
X143602257Y-70486706D01*
X143605149Y-70500100D01*
X143656588Y-70654284D01*
X143662761Y-70667462D01*
X143748063Y-70805307D01*
X143757099Y-70816708D01*
X143838462Y-70897930D01*
X143872541Y-70960213D01*
X143867538Y-71031033D01*
X143838617Y-71076120D01*
X143755870Y-71159012D01*
X143755866Y-71159017D01*
X143750695Y-71164197D01*
X143657885Y-71314762D01*
X143602203Y-71482639D01*
X143591500Y-71587100D01*
X143591500Y-74445479D01*
X143571498Y-74513600D01*
X143554595Y-74534574D01*
X140250178Y-77838991D01*
X140243913Y-77844844D01*
X140203302Y-77880271D01*
X140177063Y-77917606D01*
X140169023Y-77929046D01*
X140165090Y-77934341D01*
X140128298Y-77981264D01*
X140125174Y-77988183D01*
X140121573Y-77994129D01*
X140118632Y-77999286D01*
X140115330Y-78005444D01*
X140110961Y-78011660D01*
X140108202Y-78018736D01*
X140108201Y-78018738D01*
X140089308Y-78067196D01*
X140086752Y-78073277D01*
X140062211Y-78127629D01*
X140060827Y-78135095D01*
X140058753Y-78141714D01*
X140057115Y-78147463D01*
X140055385Y-78154204D01*
X140052625Y-78161282D01*
X140051633Y-78168818D01*
X140044844Y-78220388D01*
X140043812Y-78226905D01*
X140032946Y-78285533D01*
X140033383Y-78293113D01*
X140033383Y-78293114D01*
X140036291Y-78343547D01*
X140036500Y-78350800D01*
X140036500Y-88730794D01*
X140016498Y-88798915D01*
X140004136Y-88815104D01*
X139980699Y-88841134D01*
X139960960Y-88863056D01*
X139902686Y-88963990D01*
X139885548Y-88993674D01*
X139865473Y-89028444D01*
X139806458Y-89210072D01*
X139805768Y-89216633D01*
X139805768Y-89216635D01*
X139803832Y-89235056D01*
X139786496Y-89400000D01*
X115038330Y-89400000D01*
X105288509Y-79650178D01*
X105282655Y-79643912D01*
X105252225Y-79609029D01*
X105247229Y-79603302D01*
X105198443Y-79569015D01*
X105193159Y-79565090D01*
X105152211Y-79532983D01*
X105146236Y-79528298D01*
X105139317Y-79525174D01*
X105133371Y-79521573D01*
X105128214Y-79518632D01*
X105122056Y-79515330D01*
X105115840Y-79510961D01*
X105108764Y-79508202D01*
X105108762Y-79508201D01*
X105060304Y-79489308D01*
X105054223Y-79486752D01*
X105006790Y-79465335D01*
X105006789Y-79465335D01*
X104999871Y-79462211D01*
X104992405Y-79460827D01*
X104985786Y-79458753D01*
X104980037Y-79457115D01*
X104973296Y-79455385D01*
X104966218Y-79452625D01*
X104942557Y-79449510D01*
X104907112Y-79444844D01*
X104900595Y-79443812D01*
X104866669Y-79437524D01*
X104841967Y-79432946D01*
X104834387Y-79433383D01*
X104834386Y-79433383D01*
X104783953Y-79436291D01*
X104776700Y-79436500D01*
X101327021Y-79436500D01*
X101258900Y-79416498D01*
X101237926Y-79399595D01*
X99074166Y-77235835D01*
X99040140Y-77173523D01*
X99045205Y-77102708D01*
X99090989Y-77043528D01*
X99139786Y-77009359D01*
X99139788Y-77009358D01*
X99144300Y-77006198D01*
X99306198Y-76844300D01*
X99437523Y-76656749D01*
X99439846Y-76651767D01*
X99439849Y-76651762D01*
X99455805Y-76617543D01*
X99502722Y-76564258D01*
X99570999Y-76544797D01*
X99638959Y-76565339D01*
X99684195Y-76617543D01*
X99700151Y-76651762D01*
X99700154Y-76651767D01*
X99702477Y-76656749D01*
X99833802Y-76844300D01*
X99995700Y-77006198D01*
X100000208Y-77009355D01*
X100000211Y-77009357D01*
X100053550Y-77046705D01*
X100183251Y-77137523D01*
X100188233Y-77139846D01*
X100188238Y-77139849D01*
X100331169Y-77206498D01*
X100390757Y-77234284D01*
X100396065Y-77235706D01*
X100396067Y-77235707D01*
X100606598Y-77292119D01*
X100606600Y-77292119D01*
X100611913Y-77293543D01*
X100840000Y-77313498D01*
X101068087Y-77293543D01*
X101073400Y-77292119D01*
X101073402Y-77292119D01*
X101283933Y-77235707D01*
X101283935Y-77235706D01*
X101289243Y-77234284D01*
X101348831Y-77206498D01*
X101491762Y-77139849D01*
X101491767Y-77139846D01*
X101496749Y-77137523D01*
X101626450Y-77046705D01*
X101679789Y-77009357D01*
X101679792Y-77009355D01*
X101684300Y-77006198D01*
X101846198Y-76844300D01*
X101977523Y-76656749D01*
X101979846Y-76651767D01*
X101979849Y-76651762D01*
X101996081Y-76616951D01*
X102042998Y-76563666D01*
X102111275Y-76544205D01*
X102179235Y-76564747D01*
X102224471Y-76616951D01*
X102240586Y-76651511D01*
X102246069Y-76661007D01*
X102371028Y-76839467D01*
X102378084Y-76847875D01*
X102532125Y-77001916D01*
X102540533Y-77008972D01*
X102718993Y-77133931D01*
X102728489Y-77139414D01*
X102925947Y-77231490D01*
X102936239Y-77235236D01*
X103108503Y-77281394D01*
X103122599Y-77281058D01*
X103126000Y-77273116D01*
X103126000Y-77267967D01*
X103634000Y-77267967D01*
X103637973Y-77281498D01*
X103646522Y-77282727D01*
X103823761Y-77235236D01*
X103834053Y-77231490D01*
X104031511Y-77139414D01*
X104041007Y-77133931D01*
X104219467Y-77008972D01*
X104227875Y-77001916D01*
X104381916Y-76847875D01*
X104388972Y-76839467D01*
X104513931Y-76661007D01*
X104519414Y-76651511D01*
X104535529Y-76616951D01*
X104582446Y-76563666D01*
X104650723Y-76544205D01*
X104718683Y-76564747D01*
X104763919Y-76616951D01*
X104780151Y-76651762D01*
X104780154Y-76651767D01*
X104782477Y-76656749D01*
X104913802Y-76844300D01*
X105075700Y-77006198D01*
X105080208Y-77009355D01*
X105080211Y-77009357D01*
X105133550Y-77046705D01*
X105263251Y-77137523D01*
X105268233Y-77139846D01*
X105268238Y-77139849D01*
X105411169Y-77206498D01*
X105470757Y-77234284D01*
X105476065Y-77235706D01*
X105476067Y-77235707D01*
X105686598Y-77292119D01*
X105686600Y-77292119D01*
X105691913Y-77293543D01*
X105920000Y-77313498D01*
X106148087Y-77293543D01*
X106153400Y-77292119D01*
X106153402Y-77292119D01*
X106363933Y-77235707D01*
X106363935Y-77235706D01*
X106369243Y-77234284D01*
X106428831Y-77206498D01*
X106571762Y-77139849D01*
X106571767Y-77139846D01*
X106576749Y-77137523D01*
X106706450Y-77046705D01*
X106759789Y-77009357D01*
X106759792Y-77009355D01*
X106764300Y-77006198D01*
X106926198Y-76844300D01*
X107057523Y-76656749D01*
X107059846Y-76651767D01*
X107059849Y-76651762D01*
X107075805Y-76617543D01*
X107122722Y-76564258D01*
X107190999Y-76544797D01*
X107258959Y-76565339D01*
X107304195Y-76617543D01*
X107320151Y-76651762D01*
X107320154Y-76651767D01*
X107322477Y-76656749D01*
X107453802Y-76844300D01*
X107615700Y-77006198D01*
X107620208Y-77009355D01*
X107620211Y-77009357D01*
X107673550Y-77046705D01*
X107803251Y-77137523D01*
X107808233Y-77139846D01*
X107808238Y-77139849D01*
X107951169Y-77206498D01*
X108010757Y-77234284D01*
X108016065Y-77235706D01*
X108016067Y-77235707D01*
X108226598Y-77292119D01*
X108226600Y-77292119D01*
X108231913Y-77293543D01*
X108460000Y-77313498D01*
X108688087Y-77293543D01*
X108693400Y-77292119D01*
X108693402Y-77292119D01*
X108903933Y-77235707D01*
X108903935Y-77235706D01*
X108909243Y-77234284D01*
X108968831Y-77206498D01*
X109111762Y-77139849D01*
X109111767Y-77139846D01*
X109116749Y-77137523D01*
X109246450Y-77046705D01*
X109299789Y-77009357D01*
X109299792Y-77009355D01*
X109304300Y-77006198D01*
X109466198Y-76844300D01*
X109469357Y-76839789D01*
X109472892Y-76835576D01*
X109474026Y-76836527D01*
X109524071Y-76796529D01*
X109594690Y-76789224D01*
X109658049Y-76821258D01*
X109694030Y-76882462D01*
X109697082Y-76899517D01*
X109698255Y-76910316D01*
X109749385Y-77046705D01*
X109836739Y-77163261D01*
X109953295Y-77250615D01*
X110089684Y-77301745D01*
X110151866Y-77308500D01*
X111848134Y-77308500D01*
X111910316Y-77301745D01*
X112046705Y-77250615D01*
X112163261Y-77163261D01*
X112250615Y-77046705D01*
X112301745Y-76910316D01*
X112308500Y-76848134D01*
X112308500Y-75151866D01*
X112301745Y-75089684D01*
X112250615Y-74953295D01*
X112163261Y-74836739D01*
X112046705Y-74749385D01*
X111910316Y-74698255D01*
X111848134Y-74691500D01*
X110151866Y-74691500D01*
X110089684Y-74698255D01*
X109953295Y-74749385D01*
X109836739Y-74836739D01*
X109749385Y-74953295D01*
X109698255Y-75089684D01*
X109697083Y-75100474D01*
X109696197Y-75102606D01*
X109695575Y-75105222D01*
X109695152Y-75105121D01*
X109669845Y-75166035D01*
X109611483Y-75206463D01*
X109540529Y-75208922D01*
X109479510Y-75172629D01*
X109472511Y-75163969D01*
X109469354Y-75160207D01*
X109466198Y-75155700D01*
X109304300Y-74993802D01*
X109299792Y-74990645D01*
X109299789Y-74990643D01*
X109184784Y-74910116D01*
X109116749Y-74862477D01*
X109111767Y-74860154D01*
X109111762Y-74860151D01*
X108914225Y-74768039D01*
X108914224Y-74768039D01*
X108909243Y-74765716D01*
X108903935Y-74764294D01*
X108903933Y-74764293D01*
X108693402Y-74707881D01*
X108693400Y-74707881D01*
X108688087Y-74706457D01*
X108460000Y-74686502D01*
X108231913Y-74706457D01*
X108226600Y-74707881D01*
X108226598Y-74707881D01*
X108016067Y-74764293D01*
X108016065Y-74764294D01*
X108010757Y-74765716D01*
X108005776Y-74768039D01*
X108005775Y-74768039D01*
X107808238Y-74860151D01*
X107808233Y-74860154D01*
X107803251Y-74862477D01*
X107735216Y-74910116D01*
X107620211Y-74990643D01*
X107620208Y-74990645D01*
X107615700Y-74993802D01*
X107453802Y-75155700D01*
X107322477Y-75343251D01*
X107320154Y-75348233D01*
X107320151Y-75348238D01*
X107304195Y-75382457D01*
X107257278Y-75435742D01*
X107189001Y-75455203D01*
X107121041Y-75434661D01*
X107075805Y-75382457D01*
X107059849Y-75348238D01*
X107059846Y-75348233D01*
X107057523Y-75343251D01*
X106926198Y-75155700D01*
X106764300Y-74993802D01*
X106759792Y-74990645D01*
X106759789Y-74990643D01*
X106644784Y-74910116D01*
X106576749Y-74862477D01*
X106571767Y-74860154D01*
X106571762Y-74860151D01*
X106374225Y-74768039D01*
X106374224Y-74768039D01*
X106369243Y-74765716D01*
X106363935Y-74764294D01*
X106363933Y-74764293D01*
X106153402Y-74707881D01*
X106153400Y-74707881D01*
X106148087Y-74706457D01*
X105920000Y-74686502D01*
X105691913Y-74706457D01*
X105686600Y-74707881D01*
X105686598Y-74707881D01*
X105476067Y-74764293D01*
X105476065Y-74764294D01*
X105470757Y-74765716D01*
X105465776Y-74768039D01*
X105465775Y-74768039D01*
X105268238Y-74860151D01*
X105268233Y-74860154D01*
X105263251Y-74862477D01*
X105195216Y-74910116D01*
X105080211Y-74990643D01*
X105080208Y-74990645D01*
X105075700Y-74993802D01*
X104913802Y-75155700D01*
X104782477Y-75343251D01*
X104780154Y-75348233D01*
X104780151Y-75348238D01*
X104763919Y-75383049D01*
X104717002Y-75436334D01*
X104648725Y-75455795D01*
X104580765Y-75435253D01*
X104535529Y-75383049D01*
X104519414Y-75348489D01*
X104513931Y-75338993D01*
X104388972Y-75160533D01*
X104381916Y-75152125D01*
X104227875Y-74998084D01*
X104219467Y-74991028D01*
X104041007Y-74866069D01*
X104031511Y-74860586D01*
X103834053Y-74768510D01*
X103823761Y-74764764D01*
X103651497Y-74718606D01*
X103637401Y-74718942D01*
X103634000Y-74726884D01*
X103634000Y-77267967D01*
X103126000Y-77267967D01*
X103126000Y-74732033D01*
X103122027Y-74718502D01*
X103113478Y-74717273D01*
X102936239Y-74764764D01*
X102925947Y-74768510D01*
X102728489Y-74860586D01*
X102718993Y-74866069D01*
X102540533Y-74991028D01*
X102532125Y-74998084D01*
X102378084Y-75152125D01*
X102371028Y-75160533D01*
X102246069Y-75338993D01*
X102240586Y-75348489D01*
X102224471Y-75383049D01*
X102177554Y-75436334D01*
X102109277Y-75455795D01*
X102041317Y-75435253D01*
X101996081Y-75383049D01*
X101979849Y-75348238D01*
X101979846Y-75348233D01*
X101977523Y-75343251D01*
X101846198Y-75155700D01*
X101684300Y-74993802D01*
X101679792Y-74990645D01*
X101679789Y-74990643D01*
X101564784Y-74910116D01*
X101496749Y-74862477D01*
X101491767Y-74860154D01*
X101491762Y-74860151D01*
X101294225Y-74768039D01*
X101294224Y-74768039D01*
X101289243Y-74765716D01*
X101283935Y-74764294D01*
X101283933Y-74764293D01*
X101073402Y-74707881D01*
X101073400Y-74707881D01*
X101068087Y-74706457D01*
X100840000Y-74686502D01*
X100611913Y-74706457D01*
X100606600Y-74707881D01*
X100606598Y-74707881D01*
X100396067Y-74764293D01*
X100396065Y-74764294D01*
X100390757Y-74765716D01*
X100385776Y-74768039D01*
X100385775Y-74768039D01*
X100188238Y-74860151D01*
X100188233Y-74860154D01*
X100183251Y-74862477D01*
X100115216Y-74910116D01*
X100000211Y-74990643D01*
X100000208Y-74990645D01*
X99995700Y-74993802D01*
X99833802Y-75155700D01*
X99702477Y-75343251D01*
X99700154Y-75348233D01*
X99700151Y-75348238D01*
X99684195Y-75382457D01*
X99637278Y-75435742D01*
X99569001Y-75455203D01*
X99501041Y-75434661D01*
X99455805Y-75382457D01*
X99439849Y-75348238D01*
X99439846Y-75348233D01*
X99437523Y-75343251D01*
X99306198Y-75155700D01*
X99144300Y-74993802D01*
X99139792Y-74990645D01*
X99139789Y-74990643D01*
X99024784Y-74910116D01*
X98956749Y-74862477D01*
X98951767Y-74860154D01*
X98951762Y-74860151D01*
X98754225Y-74768039D01*
X98754224Y-74768039D01*
X98749243Y-74765716D01*
X98743935Y-74764294D01*
X98743933Y-74764293D01*
X98533402Y-74707881D01*
X98533400Y-74707881D01*
X98528087Y-74706457D01*
X98300000Y-74686502D01*
X98071913Y-74706457D01*
X98066600Y-74707881D01*
X98066598Y-74707881D01*
X97856067Y-74764293D01*
X97856065Y-74764294D01*
X97850757Y-74765716D01*
X97845776Y-74768039D01*
X97845775Y-74768039D01*
X97648238Y-74860151D01*
X97648233Y-74860154D01*
X97643251Y-74862477D01*
X97575216Y-74910116D01*
X97460211Y-74990643D01*
X97460208Y-74990645D01*
X97455700Y-74993802D01*
X97293802Y-75155700D01*
X97162477Y-75343251D01*
X97160154Y-75348233D01*
X97160151Y-75348238D01*
X97144195Y-75382457D01*
X97097278Y-75435742D01*
X97029001Y-75455203D01*
X96961041Y-75434661D01*
X96915805Y-75382457D01*
X96899849Y-75348238D01*
X96899846Y-75348233D01*
X96897523Y-75343251D01*
X96766198Y-75155700D01*
X96604300Y-74993802D01*
X96599792Y-74990645D01*
X96599789Y-74990643D01*
X96484784Y-74910116D01*
X96416749Y-74862477D01*
X96411767Y-74860154D01*
X96411762Y-74860151D01*
X96214225Y-74768039D01*
X96214224Y-74768039D01*
X96209243Y-74765716D01*
X96203935Y-74764294D01*
X96203933Y-74764293D01*
X95993402Y-74707881D01*
X95993400Y-74707881D01*
X95988087Y-74706457D01*
X95982611Y-74705978D01*
X95982606Y-74705977D01*
X95854572Y-74694776D01*
X95764190Y-74686869D01*
X95698072Y-74661006D01*
X95656433Y-74603502D01*
X95652492Y-74532615D01*
X95686077Y-74472253D01*
X100355445Y-69802885D01*
X143592000Y-69802885D01*
X143596475Y-69818124D01*
X143597865Y-69819329D01*
X143605548Y-69821000D01*
X144527885Y-69821000D01*
X144543124Y-69816525D01*
X144544329Y-69815135D01*
X144546000Y-69807452D01*
X144546000Y-69802885D01*
X145054000Y-69802885D01*
X145058475Y-69818124D01*
X145059865Y-69819329D01*
X145067548Y-69821000D01*
X145989884Y-69821000D01*
X146005123Y-69816525D01*
X146006328Y-69815135D01*
X146007999Y-69807452D01*
X146007999Y-69765405D01*
X146007662Y-69758886D01*
X145997743Y-69663294D01*
X145994851Y-69649900D01*
X145943412Y-69495716D01*
X145937239Y-69482538D01*
X145851937Y-69344693D01*
X145842901Y-69333292D01*
X145728171Y-69218761D01*
X145716760Y-69209749D01*
X145578757Y-69124684D01*
X145565576Y-69118537D01*
X145411290Y-69067362D01*
X145397914Y-69064495D01*
X145303562Y-69054828D01*
X145297145Y-69054500D01*
X145072115Y-69054500D01*
X145056876Y-69058975D01*
X145055671Y-69060365D01*
X145054000Y-69068048D01*
X145054000Y-69802885D01*
X144546000Y-69802885D01*
X144546000Y-69072616D01*
X144541525Y-69057377D01*
X144540135Y-69056172D01*
X144532452Y-69054501D01*
X144302905Y-69054501D01*
X144296386Y-69054838D01*
X144200794Y-69064757D01*
X144187400Y-69067649D01*
X144033216Y-69119088D01*
X144020038Y-69125261D01*
X143882193Y-69210563D01*
X143870792Y-69219599D01*
X143756261Y-69334329D01*
X143747249Y-69345740D01*
X143662184Y-69483743D01*
X143656037Y-69496924D01*
X143604862Y-69651210D01*
X143601995Y-69664586D01*
X143592328Y-69758938D01*
X143592000Y-69765355D01*
X143592000Y-69802885D01*
X100355445Y-69802885D01*
X105061236Y-65097095D01*
X125154501Y-65097095D01*
X125154838Y-65103614D01*
X125164757Y-65199206D01*
X125167649Y-65212600D01*
X125219088Y-65366784D01*
X125225261Y-65379962D01*
X125310563Y-65517807D01*
X125319599Y-65529208D01*
X125434329Y-65643739D01*
X125445740Y-65652751D01*
X125583743Y-65737816D01*
X125596924Y-65743963D01*
X125751210Y-65795138D01*
X125764586Y-65798005D01*
X125858938Y-65807672D01*
X125865354Y-65808000D01*
X125902885Y-65808000D01*
X125918124Y-65803525D01*
X125919329Y-65802135D01*
X125921000Y-65794452D01*
X125921000Y-64872115D01*
X125916525Y-64856876D01*
X125915135Y-64855671D01*
X125907452Y-64854000D01*
X125172616Y-64854000D01*
X125157377Y-64858475D01*
X125156172Y-64859865D01*
X125154501Y-64867548D01*
X125154501Y-65097095D01*
X105061236Y-65097095D01*
X105830446Y-64327885D01*
X125154500Y-64327885D01*
X125158975Y-64343124D01*
X125160365Y-64344329D01*
X125168048Y-64346000D01*
X125902885Y-64346000D01*
X125918124Y-64341525D01*
X125919329Y-64340135D01*
X125921000Y-64332452D01*
X125921000Y-63410116D01*
X125916525Y-63394877D01*
X125915135Y-63393672D01*
X125907452Y-63392001D01*
X125865405Y-63392001D01*
X125858886Y-63392338D01*
X125763294Y-63402257D01*
X125749900Y-63405149D01*
X125595716Y-63456588D01*
X125582538Y-63462761D01*
X125444693Y-63548063D01*
X125433292Y-63557099D01*
X125318761Y-63671829D01*
X125309749Y-63683240D01*
X125224684Y-63821243D01*
X125218537Y-63834424D01*
X125167362Y-63988710D01*
X125164495Y-64002086D01*
X125154828Y-64096438D01*
X125154500Y-64102855D01*
X125154500Y-64327885D01*
X105830446Y-64327885D01*
X108957926Y-61200405D01*
X109020238Y-61166379D01*
X109047021Y-61163500D01*
X119566818Y-61163500D01*
X119634939Y-61183502D01*
X119674250Y-61223665D01*
X119773235Y-61385193D01*
X119773242Y-61385202D01*
X119775824Y-61389416D01*
X119930031Y-61569969D01*
X120110584Y-61724176D01*
X120114792Y-61726755D01*
X120114798Y-61726759D01*
X120268974Y-61821238D01*
X120313037Y-61848240D01*
X120317607Y-61850133D01*
X120317611Y-61850135D01*
X120527833Y-61937211D01*
X120532406Y-61939105D01*
X120577633Y-61949963D01*
X120758476Y-61993380D01*
X120758482Y-61993381D01*
X120763289Y-61994535D01*
X121000000Y-62013165D01*
X121236711Y-61994535D01*
X121241518Y-61993381D01*
X121241524Y-61993380D01*
X121422367Y-61949963D01*
X121467594Y-61939105D01*
X121472167Y-61937211D01*
X121682389Y-61850135D01*
X121682393Y-61850133D01*
X121686963Y-61848240D01*
X121731026Y-61821238D01*
X121885202Y-61726759D01*
X121885208Y-61726755D01*
X121889416Y-61724176D01*
X122069969Y-61569969D01*
X122224176Y-61389416D01*
X122226758Y-61385202D01*
X122226765Y-61385193D01*
X122325750Y-61223665D01*
X122378397Y-61176034D01*
X122433182Y-61163500D01*
X126066818Y-61163500D01*
X126134939Y-61183502D01*
X126174250Y-61223665D01*
X126273235Y-61385193D01*
X126273242Y-61385202D01*
X126275824Y-61389416D01*
X126430031Y-61569969D01*
X126610584Y-61724176D01*
X126614797Y-61726758D01*
X126614807Y-61726765D01*
X126776335Y-61825750D01*
X126823966Y-61878397D01*
X126836500Y-61933182D01*
X126836500Y-63309165D01*
X126816498Y-63377286D01*
X126762842Y-63423779D01*
X126692568Y-63433883D01*
X126670832Y-63428758D01*
X126598790Y-63404862D01*
X126585414Y-63401995D01*
X126491062Y-63392328D01*
X126484645Y-63392000D01*
X126447115Y-63392000D01*
X126431876Y-63396475D01*
X126430671Y-63397865D01*
X126429000Y-63405548D01*
X126429000Y-65789884D01*
X126433475Y-65805123D01*
X126434865Y-65806328D01*
X126442548Y-65807999D01*
X126484595Y-65807999D01*
X126491114Y-65807662D01*
X126586706Y-65797743D01*
X126600100Y-65794851D01*
X126754284Y-65743412D01*
X126767462Y-65737239D01*
X126905307Y-65651937D01*
X126916708Y-65642901D01*
X126997930Y-65561538D01*
X127060213Y-65527459D01*
X127131033Y-65532462D01*
X127176120Y-65561383D01*
X127259012Y-65644130D01*
X127259017Y-65644134D01*
X127264197Y-65649305D01*
X127270427Y-65653145D01*
X127270428Y-65653146D01*
X127407788Y-65737816D01*
X127414762Y-65742115D01*
X127494505Y-65768564D01*
X127576111Y-65795632D01*
X127576113Y-65795632D01*
X127582639Y-65797797D01*
X127589475Y-65798497D01*
X127589478Y-65798498D01*
X127632531Y-65802909D01*
X127687100Y-65808500D01*
X128312900Y-65808500D01*
X128316146Y-65808163D01*
X128316150Y-65808163D01*
X128411808Y-65798238D01*
X128411812Y-65798237D01*
X128418666Y-65797526D01*
X128425202Y-65795345D01*
X128425204Y-65795345D01*
X128557306Y-65751272D01*
X128586446Y-65741550D01*
X128736848Y-65648478D01*
X128777261Y-65607995D01*
X128856634Y-65528483D01*
X128861805Y-65523303D01*
X128892976Y-65472734D01*
X128950775Y-65378968D01*
X128950776Y-65378966D01*
X128954615Y-65372738D01*
X128991292Y-65262161D01*
X129008132Y-65211389D01*
X129008132Y-65211387D01*
X129010297Y-65204861D01*
X129012858Y-65179871D01*
X129015409Y-65154969D01*
X129021000Y-65100400D01*
X129021000Y-65097095D01*
X135254501Y-65097095D01*
X135254838Y-65103614D01*
X135264757Y-65199206D01*
X135267649Y-65212600D01*
X135319088Y-65366784D01*
X135325261Y-65379962D01*
X135410563Y-65517807D01*
X135419599Y-65529208D01*
X135534329Y-65643739D01*
X135545740Y-65652751D01*
X135683743Y-65737816D01*
X135696924Y-65743963D01*
X135851210Y-65795138D01*
X135864586Y-65798005D01*
X135958938Y-65807672D01*
X135965354Y-65808000D01*
X136002885Y-65808000D01*
X136018124Y-65803525D01*
X136019329Y-65802135D01*
X136021000Y-65794452D01*
X136021000Y-64872115D01*
X136016525Y-64856876D01*
X136015135Y-64855671D01*
X136007452Y-64854000D01*
X135272616Y-64854000D01*
X135257377Y-64858475D01*
X135256172Y-64859865D01*
X135254501Y-64867548D01*
X135254501Y-65097095D01*
X129021000Y-65097095D01*
X129021000Y-64327885D01*
X135254500Y-64327885D01*
X135258975Y-64343124D01*
X135260365Y-64344329D01*
X135268048Y-64346000D01*
X136002885Y-64346000D01*
X136018124Y-64341525D01*
X136019329Y-64340135D01*
X136021000Y-64332452D01*
X136021000Y-63410116D01*
X136016525Y-63394877D01*
X136015135Y-63393672D01*
X136007452Y-63392001D01*
X135965405Y-63392001D01*
X135958886Y-63392338D01*
X135863294Y-63402257D01*
X135849900Y-63405149D01*
X135695716Y-63456588D01*
X135682538Y-63462761D01*
X135544693Y-63548063D01*
X135533292Y-63557099D01*
X135418761Y-63671829D01*
X135409749Y-63683240D01*
X135324684Y-63821243D01*
X135318537Y-63834424D01*
X135267362Y-63988710D01*
X135264495Y-64002086D01*
X135254828Y-64096438D01*
X135254500Y-64102855D01*
X135254500Y-64327885D01*
X129021000Y-64327885D01*
X129021000Y-64099600D01*
X129019741Y-64087464D01*
X129010738Y-64000692D01*
X129010737Y-64000688D01*
X129010026Y-63993834D01*
X129003608Y-63974595D01*
X128959203Y-63841500D01*
X128954050Y-63826054D01*
X128860978Y-63675652D01*
X128852071Y-63666760D01*
X128740983Y-63555866D01*
X128735803Y-63550695D01*
X128729572Y-63546854D01*
X128591468Y-63461725D01*
X128591466Y-63461724D01*
X128585238Y-63457885D01*
X128489807Y-63426232D01*
X128423889Y-63404368D01*
X128423887Y-63404368D01*
X128417361Y-63402203D01*
X128410525Y-63401503D01*
X128410522Y-63401502D01*
X128367469Y-63397091D01*
X128312900Y-63391500D01*
X128289500Y-63391500D01*
X128221379Y-63371498D01*
X128174886Y-63317842D01*
X128163500Y-63265500D01*
X128163500Y-61933182D01*
X128183502Y-61865061D01*
X128223665Y-61825750D01*
X128385193Y-61726765D01*
X128385203Y-61726758D01*
X128389416Y-61724176D01*
X128569969Y-61569969D01*
X128724176Y-61389416D01*
X128726755Y-61385208D01*
X128726759Y-61385202D01*
X128845654Y-61191183D01*
X128848240Y-61186963D01*
X128855474Y-61169500D01*
X128937211Y-60972167D01*
X128937212Y-60972165D01*
X128939105Y-60967594D01*
X128958360Y-60887391D01*
X128993380Y-60741524D01*
X128993381Y-60741518D01*
X128994535Y-60736711D01*
X129013165Y-60500000D01*
X128994535Y-60263289D01*
X128978586Y-60196854D01*
X128949154Y-60074263D01*
X128939105Y-60032406D01*
X128927472Y-60004320D01*
X128899884Y-59937718D01*
X128892295Y-59867128D01*
X128924074Y-59803641D01*
X128985132Y-59767414D01*
X129016293Y-59763500D01*
X129822979Y-59763500D01*
X129891100Y-59783502D01*
X129912075Y-59800405D01*
X130067423Y-59955754D01*
X130101448Y-60018066D01*
X130100846Y-60074263D01*
X130071415Y-60196854D01*
X130055465Y-60263289D01*
X130036835Y-60500000D01*
X130055465Y-60736711D01*
X130056619Y-60741518D01*
X130056620Y-60741524D01*
X130091640Y-60887391D01*
X130110895Y-60967594D01*
X130112788Y-60972165D01*
X130112789Y-60972167D01*
X130194527Y-61169500D01*
X130201760Y-61186963D01*
X130204346Y-61191183D01*
X130323241Y-61385202D01*
X130323245Y-61385208D01*
X130325824Y-61389416D01*
X130480031Y-61569969D01*
X130660584Y-61724176D01*
X130664792Y-61726755D01*
X130664798Y-61726759D01*
X130818974Y-61821238D01*
X130863037Y-61848240D01*
X130867607Y-61850133D01*
X130867611Y-61850135D01*
X131077833Y-61937211D01*
X131082406Y-61939105D01*
X131127633Y-61949963D01*
X131308476Y-61993380D01*
X131308482Y-61993381D01*
X131313289Y-61994535D01*
X131550000Y-62013165D01*
X131786711Y-61994535D01*
X131791518Y-61993381D01*
X131791524Y-61993380D01*
X131972367Y-61949963D01*
X132017594Y-61939105D01*
X132022167Y-61937211D01*
X132232389Y-61850135D01*
X132232393Y-61850133D01*
X132236963Y-61848240D01*
X132281026Y-61821238D01*
X132435202Y-61726759D01*
X132435208Y-61726755D01*
X132439416Y-61724176D01*
X132619969Y-61569969D01*
X132774176Y-61389416D01*
X132776758Y-61385202D01*
X132776765Y-61385193D01*
X132875750Y-61223665D01*
X132928397Y-61176034D01*
X132983182Y-61163500D01*
X136616818Y-61163500D01*
X136684939Y-61183502D01*
X136724250Y-61223665D01*
X136823235Y-61385193D01*
X136823242Y-61385202D01*
X136825824Y-61389416D01*
X136980031Y-61569969D01*
X137160584Y-61724176D01*
X137164797Y-61726758D01*
X137164807Y-61726765D01*
X137326335Y-61825750D01*
X137373966Y-61878397D01*
X137386500Y-61933182D01*
X137386500Y-63476007D01*
X137366498Y-63544128D01*
X137349675Y-63565022D01*
X137337967Y-63576751D01*
X137276362Y-63638463D01*
X137214079Y-63672542D01*
X137143259Y-63667539D01*
X137098171Y-63638618D01*
X137015671Y-63556261D01*
X137004260Y-63547249D01*
X136866257Y-63462184D01*
X136853076Y-63456037D01*
X136698790Y-63404862D01*
X136685414Y-63401995D01*
X136591062Y-63392328D01*
X136584645Y-63392000D01*
X136547115Y-63392000D01*
X136531876Y-63396475D01*
X136530671Y-63397865D01*
X136529000Y-63405548D01*
X136529000Y-65789884D01*
X136533475Y-65805123D01*
X136534865Y-65806328D01*
X136542548Y-65807999D01*
X136584595Y-65807999D01*
X136591114Y-65807662D01*
X136686706Y-65797743D01*
X136700100Y-65794851D01*
X136854284Y-65743412D01*
X136867462Y-65737239D01*
X137005307Y-65651937D01*
X137016708Y-65642901D01*
X137097930Y-65561538D01*
X137160213Y-65527459D01*
X137231033Y-65532462D01*
X137276120Y-65561383D01*
X137359012Y-65644130D01*
X137359017Y-65644134D01*
X137364197Y-65649305D01*
X137370427Y-65653145D01*
X137370428Y-65653146D01*
X137507788Y-65737816D01*
X137514762Y-65742115D01*
X137594505Y-65768564D01*
X137676111Y-65795632D01*
X137676113Y-65795632D01*
X137682639Y-65797797D01*
X137689475Y-65798497D01*
X137689478Y-65798498D01*
X137732531Y-65802909D01*
X137787100Y-65808500D01*
X138412900Y-65808500D01*
X138416146Y-65808163D01*
X138416150Y-65808163D01*
X138511808Y-65798238D01*
X138511812Y-65798237D01*
X138518666Y-65797526D01*
X138525202Y-65795345D01*
X138525204Y-65795345D01*
X138657306Y-65751272D01*
X138686446Y-65741550D01*
X138752943Y-65700400D01*
X143766500Y-65700400D01*
X143766837Y-65703646D01*
X143766837Y-65703650D01*
X143776606Y-65797797D01*
X143777474Y-65806166D01*
X143833450Y-65973946D01*
X143926522Y-66124348D01*
X143931704Y-66129521D01*
X143934920Y-66132731D01*
X144051697Y-66249305D01*
X144057927Y-66253145D01*
X144057928Y-66253146D01*
X144186109Y-66332158D01*
X144202262Y-66342115D01*
X144219987Y-66347994D01*
X144269415Y-66378492D01*
X144343171Y-66452248D01*
X144354038Y-66464639D01*
X144363415Y-66476860D01*
X144363419Y-66476864D01*
X144366831Y-66481311D01*
X144370980Y-66485086D01*
X144424628Y-66533902D01*
X144428924Y-66538001D01*
X144444165Y-66553242D01*
X144446318Y-66555043D01*
X144446320Y-66555044D01*
X144463322Y-66569260D01*
X144467289Y-66572721D01*
X144526389Y-66626497D01*
X144531144Y-66629480D01*
X144540693Y-66635471D01*
X144554553Y-66645541D01*
X144567505Y-66656370D01*
X144636961Y-66695987D01*
X144641428Y-66698661D01*
X144664302Y-66713010D01*
X144704384Y-66738154D01*
X144704387Y-66738155D01*
X144709135Y-66741134D01*
X144724795Y-66747430D01*
X144740223Y-66754888D01*
X144750016Y-66760474D01*
X144750022Y-66760477D01*
X144754891Y-66763254D01*
X144760179Y-66765127D01*
X144760180Y-66765127D01*
X144830229Y-66789932D01*
X144835130Y-66791784D01*
X144909293Y-66821597D01*
X144914783Y-66822734D01*
X144925830Y-66825022D01*
X144942332Y-66829630D01*
X144958244Y-66835264D01*
X145015533Y-66844646D01*
X145037097Y-66848177D01*
X145042285Y-66849139D01*
X145116014Y-66864408D01*
X145116023Y-66864409D01*
X145120537Y-66865344D01*
X145125143Y-66865610D01*
X145125147Y-66865610D01*
X145146957Y-66866867D01*
X145160069Y-66868315D01*
X145165585Y-66869218D01*
X145171135Y-66870127D01*
X145176752Y-66870039D01*
X145176755Y-66870039D01*
X145273670Y-66868516D01*
X145275649Y-66868500D01*
X146771770Y-66868500D01*
X146839891Y-66888502D01*
X146853592Y-66898682D01*
X146931624Y-66965328D01*
X147147498Y-67097616D01*
X147152068Y-67099509D01*
X147152072Y-67099511D01*
X147357759Y-67184709D01*
X147381409Y-67194505D01*
X147466032Y-67214821D01*
X147622784Y-67252454D01*
X147622790Y-67252455D01*
X147627597Y-67253609D01*
X147880000Y-67273474D01*
X148132403Y-67253609D01*
X148137210Y-67252455D01*
X148137216Y-67252454D01*
X148293968Y-67214821D01*
X148378591Y-67194505D01*
X148402241Y-67184709D01*
X148607928Y-67099511D01*
X148607932Y-67099509D01*
X148612502Y-67097616D01*
X148828376Y-66965328D01*
X149020898Y-66800898D01*
X149185328Y-66608376D01*
X149317616Y-66392502D01*
X149319994Y-66386763D01*
X149340903Y-66336282D01*
X149385451Y-66281001D01*
X149457312Y-66258500D01*
X154015500Y-66258500D01*
X154083621Y-66278502D01*
X154130114Y-66332158D01*
X154141500Y-66384500D01*
X154141500Y-66850400D01*
X154141837Y-66853646D01*
X154141837Y-66853650D01*
X154145098Y-66885073D01*
X154152474Y-66956166D01*
X154154655Y-66962702D01*
X154154655Y-66962704D01*
X154165764Y-66996000D01*
X154208450Y-67123946D01*
X154301522Y-67274348D01*
X154426697Y-67399305D01*
X154432927Y-67403145D01*
X154432928Y-67403146D01*
X154570090Y-67487694D01*
X154577262Y-67492115D01*
X154657005Y-67518564D01*
X154738611Y-67545632D01*
X154738613Y-67545632D01*
X154745139Y-67547797D01*
X154751975Y-67548497D01*
X154751978Y-67548498D01*
X154795031Y-67552909D01*
X154849600Y-67558500D01*
X156950400Y-67558500D01*
X156953646Y-67558163D01*
X156953650Y-67558163D01*
X157049308Y-67548238D01*
X157049312Y-67548237D01*
X157056166Y-67547526D01*
X157062702Y-67545345D01*
X157062704Y-67545345D01*
X157194806Y-67501272D01*
X157223946Y-67491550D01*
X157374348Y-67398478D01*
X157499305Y-67273303D01*
X157503146Y-67267072D01*
X157588275Y-67128968D01*
X157588276Y-67128966D01*
X157592115Y-67122738D01*
X157624572Y-67024883D01*
X157645632Y-66961389D01*
X157645632Y-66961387D01*
X157647797Y-66954861D01*
X157658500Y-66850400D01*
X157658500Y-65234500D01*
X157678502Y-65166379D01*
X157732158Y-65119886D01*
X157784500Y-65108500D01*
X162240313Y-65108500D01*
X162308434Y-65128502D01*
X162329018Y-65145016D01*
X162383984Y-65199504D01*
X162383992Y-65199511D01*
X162387307Y-65202797D01*
X162391073Y-65205559D01*
X162391075Y-65205560D01*
X162504548Y-65288762D01*
X162592094Y-65352953D01*
X162596229Y-65355129D01*
X162596233Y-65355131D01*
X162721456Y-65421014D01*
X162816827Y-65471191D01*
X163056568Y-65554912D01*
X163306050Y-65602278D01*
X163451577Y-65607995D01*
X163518860Y-65630656D01*
X163535726Y-65644803D01*
X163903171Y-66012248D01*
X163914038Y-66024639D01*
X163923415Y-66036860D01*
X163923419Y-66036864D01*
X163926831Y-66041311D01*
X163949381Y-66061830D01*
X163984628Y-66093902D01*
X163988924Y-66098001D01*
X164004165Y-66113242D01*
X164006318Y-66115043D01*
X164006320Y-66115044D01*
X164023322Y-66129260D01*
X164027289Y-66132721D01*
X164086389Y-66186497D01*
X164091144Y-66189480D01*
X164100693Y-66195471D01*
X164114553Y-66205541D01*
X164127505Y-66216370D01*
X164196961Y-66255987D01*
X164201428Y-66258661D01*
X164233057Y-66278502D01*
X164264384Y-66298154D01*
X164264387Y-66298155D01*
X164269135Y-66301134D01*
X164284795Y-66307430D01*
X164300223Y-66314888D01*
X164310016Y-66320474D01*
X164310022Y-66320477D01*
X164314891Y-66323254D01*
X164320179Y-66325127D01*
X164320180Y-66325127D01*
X164390229Y-66349932D01*
X164395130Y-66351784D01*
X164469293Y-66381597D01*
X164474783Y-66382734D01*
X164485830Y-66385022D01*
X164502333Y-66389630D01*
X164512959Y-66393393D01*
X164512963Y-66393394D01*
X164518244Y-66395264D01*
X164579538Y-66405301D01*
X164597083Y-66408174D01*
X164602274Y-66409136D01*
X164680537Y-66425344D01*
X164685148Y-66425610D01*
X164685149Y-66425610D01*
X164706966Y-66426868D01*
X164720071Y-66428315D01*
X164725305Y-66429172D01*
X164731134Y-66430126D01*
X164736748Y-66430038D01*
X164736750Y-66430038D01*
X164833635Y-66428516D01*
X164835614Y-66428500D01*
X168528455Y-66428500D01*
X168596576Y-66448502D01*
X168621563Y-66471137D01*
X168622274Y-66470490D01*
X168776544Y-66640031D01*
X168806582Y-66673043D01*
X168809877Y-66675798D01*
X168809878Y-66675799D01*
X168854382Y-66713010D01*
X169016675Y-66848707D01*
X169020316Y-66850991D01*
X169245024Y-66991951D01*
X169245028Y-66991953D01*
X169248664Y-66994234D01*
X169316544Y-67024883D01*
X169494345Y-67105164D01*
X169494349Y-67105166D01*
X169498257Y-67106930D01*
X169532246Y-67116998D01*
X169756723Y-67183491D01*
X169756727Y-67183492D01*
X169760836Y-67184709D01*
X169765070Y-67185357D01*
X169765075Y-67185358D01*
X170027298Y-67225483D01*
X170027300Y-67225483D01*
X170031540Y-67226132D01*
X170170912Y-67228322D01*
X170301071Y-67230367D01*
X170301077Y-67230367D01*
X170305362Y-67230434D01*
X170577235Y-67197534D01*
X170842127Y-67128041D01*
X170846087Y-67126401D01*
X170846092Y-67126399D01*
X170968632Y-67075641D01*
X171095136Y-67023241D01*
X171331582Y-66885073D01*
X171547089Y-66716094D01*
X171566603Y-66695958D01*
X171689381Y-66569260D01*
X171737669Y-66519431D01*
X171740202Y-66515983D01*
X171740206Y-66515978D01*
X171897257Y-66302178D01*
X171899795Y-66298723D01*
X171921543Y-66258669D01*
X172028418Y-66061830D01*
X172028419Y-66061828D01*
X172030468Y-66058054D01*
X172123178Y-65812704D01*
X172125751Y-65805895D01*
X172125752Y-65805891D01*
X172127269Y-65801877D01*
X172161610Y-65651937D01*
X172187449Y-65539117D01*
X172187450Y-65539113D01*
X172188407Y-65534933D01*
X172189936Y-65517807D01*
X172212531Y-65264627D01*
X172212531Y-65264625D01*
X172212751Y-65262161D01*
X172213193Y-65220000D01*
X172211796Y-65199504D01*
X172194859Y-64951055D01*
X172194858Y-64951049D01*
X172194567Y-64946778D01*
X172175700Y-64855671D01*
X172139901Y-64682809D01*
X172139032Y-64678612D01*
X172047617Y-64420465D01*
X171922013Y-64177112D01*
X171900344Y-64146279D01*
X171798023Y-64000692D01*
X171764545Y-63953057D01*
X171659878Y-63840422D01*
X171581046Y-63755588D01*
X171581043Y-63755585D01*
X171578125Y-63752445D01*
X171574810Y-63749731D01*
X171574806Y-63749728D01*
X171423664Y-63626020D01*
X171366205Y-63578990D01*
X171132704Y-63435901D01*
X171116432Y-63428758D01*
X170885873Y-63327549D01*
X170885869Y-63327548D01*
X170881945Y-63325825D01*
X170618566Y-63250800D01*
X170614324Y-63250196D01*
X170614318Y-63250195D01*
X170384928Y-63217548D01*
X170347443Y-63212213D01*
X170203589Y-63211460D01*
X170077877Y-63210802D01*
X170077871Y-63210802D01*
X170073591Y-63210780D01*
X170069347Y-63211339D01*
X170069343Y-63211339D01*
X169987492Y-63222115D01*
X169802078Y-63246525D01*
X169797938Y-63247658D01*
X169797936Y-63247658D01*
X169779078Y-63252817D01*
X169537928Y-63318788D01*
X169533980Y-63320472D01*
X169289982Y-63424546D01*
X169289978Y-63424548D01*
X169286030Y-63426232D01*
X169224994Y-63462761D01*
X169054725Y-63564664D01*
X169054721Y-63564667D01*
X169051043Y-63566868D01*
X168837318Y-63738094D01*
X168785308Y-63792901D01*
X168689927Y-63893412D01*
X168648808Y-63936742D01*
X168646307Y-63940223D01*
X168646305Y-63940225D01*
X168632794Y-63959027D01*
X168576799Y-64002674D01*
X168530472Y-64011500D01*
X165372767Y-64011500D01*
X165304646Y-63991498D01*
X165283672Y-63974595D01*
X165246720Y-63937643D01*
X165212694Y-63875331D01*
X165210161Y-63857885D01*
X165210006Y-63855792D01*
X165196016Y-63667539D01*
X165194818Y-63651412D01*
X165194818Y-63651409D01*
X165194472Y-63646759D01*
X165189780Y-63626020D01*
X165151316Y-63456037D01*
X165138428Y-63399082D01*
X165136324Y-63393672D01*
X165048084Y-63166762D01*
X165048083Y-63166760D01*
X165046391Y-63162409D01*
X165040429Y-63151978D01*
X164922702Y-62945997D01*
X164922700Y-62945995D01*
X164920383Y-62941940D01*
X164763171Y-62742517D01*
X164624752Y-62612306D01*
X164581610Y-62571722D01*
X164581608Y-62571720D01*
X164578209Y-62568523D01*
X164569903Y-62562761D01*
X164373393Y-62426437D01*
X164373390Y-62426435D01*
X164369561Y-62423779D01*
X164365384Y-62421719D01*
X164365377Y-62421715D01*
X164145996Y-62313528D01*
X164145992Y-62313527D01*
X164141810Y-62311464D01*
X163899960Y-62234047D01*
X163888576Y-62232193D01*
X163653935Y-62193980D01*
X163653934Y-62193980D01*
X163649323Y-62193229D01*
X163522364Y-62191567D01*
X163400083Y-62189966D01*
X163400080Y-62189966D01*
X163395406Y-62189905D01*
X163143787Y-62224149D01*
X162899993Y-62295208D01*
X162669380Y-62401522D01*
X162638581Y-62421715D01*
X162460928Y-62538189D01*
X162460923Y-62538193D01*
X162457015Y-62540755D01*
X162327601Y-62656261D01*
X162323969Y-62659503D01*
X162259828Y-62689941D01*
X162240068Y-62691500D01*
X157394100Y-62691500D01*
X157327984Y-62672760D01*
X157317018Y-62666000D01*
X157285198Y-62646386D01*
X157228968Y-62611725D01*
X157228966Y-62611724D01*
X157222738Y-62607885D01*
X157142995Y-62581436D01*
X157061389Y-62554368D01*
X157061387Y-62554368D01*
X157054861Y-62552203D01*
X157048025Y-62551503D01*
X157048022Y-62551502D01*
X157004969Y-62547091D01*
X156950400Y-62541500D01*
X154849600Y-62541500D01*
X154846354Y-62541837D01*
X154846350Y-62541837D01*
X154750692Y-62551762D01*
X154750688Y-62551763D01*
X154743834Y-62552474D01*
X154737298Y-62554655D01*
X154737296Y-62554655D01*
X154605194Y-62598728D01*
X154576054Y-62608450D01*
X154425652Y-62701522D01*
X154300695Y-62826697D01*
X154296855Y-62832927D01*
X154296854Y-62832928D01*
X154243159Y-62920038D01*
X154207885Y-62977262D01*
X154205581Y-62984209D01*
X154170920Y-63088710D01*
X154152203Y-63145139D01*
X154151503Y-63151975D01*
X154151502Y-63151978D01*
X154149246Y-63174000D01*
X154141500Y-63249600D01*
X154141500Y-63715500D01*
X154121498Y-63783621D01*
X154067842Y-63830114D01*
X154015500Y-63841500D01*
X148578085Y-63841500D01*
X148561639Y-63840422D01*
X148540811Y-63837680D01*
X148535212Y-63837944D01*
X148535210Y-63837944D01*
X148462777Y-63841360D01*
X148456842Y-63841500D01*
X148435265Y-63841500D01*
X148432479Y-63841749D01*
X148432471Y-63841749D01*
X148410399Y-63843719D01*
X148405135Y-63844078D01*
X148330934Y-63847577D01*
X148330929Y-63847578D01*
X148325325Y-63847842D01*
X148308867Y-63851612D01*
X148291956Y-63854290D01*
X148275128Y-63855792D01*
X148269717Y-63857272D01*
X148269713Y-63857273D01*
X148226234Y-63869168D01*
X148198040Y-63876881D01*
X148192932Y-63878164D01*
X148115043Y-63896003D01*
X148109888Y-63898202D01*
X148109881Y-63898204D01*
X148099519Y-63902624D01*
X148083332Y-63908261D01*
X148072456Y-63911236D01*
X148072451Y-63911238D01*
X148067048Y-63912716D01*
X148023195Y-63933633D01*
X147994912Y-63947123D01*
X147990103Y-63949294D01*
X147930786Y-63974595D01*
X147916614Y-63980640D01*
X147911926Y-63983719D01*
X147911923Y-63983721D01*
X147902506Y-63989907D01*
X147887572Y-63998322D01*
X147877403Y-64003172D01*
X147877398Y-64003175D01*
X147872337Y-64005589D01*
X147835985Y-64031711D01*
X147772347Y-64054999D01*
X147755900Y-64056293D01*
X147627597Y-64066391D01*
X147622790Y-64067545D01*
X147622784Y-64067546D01*
X147502441Y-64096438D01*
X147381409Y-64125495D01*
X147376838Y-64127388D01*
X147376836Y-64127389D01*
X147152072Y-64220489D01*
X147152068Y-64220491D01*
X147147498Y-64222384D01*
X146931624Y-64354672D01*
X146853598Y-64421312D01*
X146788811Y-64450342D01*
X146771770Y-64451500D01*
X146149615Y-64451500D01*
X146081494Y-64431498D01*
X146035001Y-64377842D01*
X146024897Y-64307568D01*
X146054391Y-64242988D01*
X146060444Y-64236481D01*
X146068736Y-64228175D01*
X146077751Y-64216760D01*
X146162816Y-64078757D01*
X146168963Y-64065576D01*
X146220138Y-63911290D01*
X146223005Y-63897914D01*
X146232672Y-63803562D01*
X146233000Y-63797146D01*
X146233000Y-63772115D01*
X146228525Y-63756876D01*
X146227135Y-63755671D01*
X146219452Y-63754000D01*
X143785116Y-63754000D01*
X143769877Y-63758475D01*
X143768672Y-63759865D01*
X143767001Y-63767548D01*
X143767001Y-63797095D01*
X143767338Y-63803614D01*
X143777257Y-63899206D01*
X143780149Y-63912600D01*
X143831588Y-64066784D01*
X143837761Y-64079962D01*
X143923063Y-64217807D01*
X143932099Y-64229208D01*
X144046828Y-64343738D01*
X144055762Y-64350794D01*
X144096823Y-64408712D01*
X144100053Y-64479635D01*
X144064426Y-64541046D01*
X144056593Y-64547846D01*
X144050652Y-64551522D01*
X143925695Y-64676697D01*
X143832885Y-64827262D01*
X143823462Y-64855671D01*
X143789953Y-64956700D01*
X143777203Y-64995139D01*
X143766500Y-65099600D01*
X143766500Y-65700400D01*
X138752943Y-65700400D01*
X138836848Y-65648478D01*
X138877261Y-65607995D01*
X138956634Y-65528483D01*
X138961805Y-65523303D01*
X138992976Y-65472734D01*
X139050775Y-65378968D01*
X139050776Y-65378966D01*
X139054615Y-65372738D01*
X139091292Y-65262161D01*
X139108132Y-65211389D01*
X139108132Y-65211387D01*
X139110297Y-65204861D01*
X139112858Y-65179871D01*
X139115409Y-65154969D01*
X139121000Y-65100400D01*
X139121000Y-64099600D01*
X139119741Y-64087464D01*
X139110738Y-64000692D01*
X139110737Y-64000688D01*
X139110026Y-63993834D01*
X139103608Y-63974595D01*
X139059203Y-63841500D01*
X139054050Y-63826054D01*
X138960978Y-63675652D01*
X138952071Y-63666760D01*
X138840983Y-63555866D01*
X138835803Y-63550695D01*
X138829572Y-63546854D01*
X138773384Y-63512219D01*
X138725890Y-63459446D01*
X138713500Y-63404959D01*
X138713500Y-63227885D01*
X143767000Y-63227885D01*
X143771475Y-63243124D01*
X143772865Y-63244329D01*
X143780548Y-63246000D01*
X144727885Y-63246000D01*
X144743124Y-63241525D01*
X144744329Y-63240135D01*
X144746000Y-63232452D01*
X144746000Y-63227885D01*
X145254000Y-63227885D01*
X145258475Y-63243124D01*
X145259865Y-63244329D01*
X145267548Y-63246000D01*
X146214884Y-63246000D01*
X146230123Y-63241525D01*
X146231328Y-63240135D01*
X146232999Y-63232452D01*
X146232999Y-63202905D01*
X146232662Y-63196386D01*
X146222743Y-63100794D01*
X146219851Y-63087400D01*
X146168412Y-62933216D01*
X146162239Y-62920038D01*
X146076937Y-62782193D01*
X146067901Y-62770792D01*
X145953171Y-62656261D01*
X145941760Y-62647249D01*
X145803757Y-62562184D01*
X145790576Y-62556037D01*
X145636290Y-62504862D01*
X145622914Y-62501995D01*
X145528562Y-62492328D01*
X145522145Y-62492000D01*
X145272115Y-62492000D01*
X145256876Y-62496475D01*
X145255671Y-62497865D01*
X145254000Y-62505548D01*
X145254000Y-63227885D01*
X144746000Y-63227885D01*
X144746000Y-62510116D01*
X144741525Y-62494877D01*
X144740135Y-62493672D01*
X144732452Y-62492001D01*
X144477905Y-62492001D01*
X144471386Y-62492338D01*
X144375794Y-62502257D01*
X144362400Y-62505149D01*
X144208216Y-62556588D01*
X144195038Y-62562761D01*
X144057193Y-62648063D01*
X144045792Y-62657099D01*
X143931261Y-62771829D01*
X143922249Y-62783240D01*
X143837184Y-62921243D01*
X143831037Y-62934424D01*
X143779862Y-63088710D01*
X143776995Y-63102086D01*
X143767328Y-63196438D01*
X143767000Y-63202855D01*
X143767000Y-63227885D01*
X138713500Y-63227885D01*
X138713500Y-61933182D01*
X138733502Y-61865061D01*
X138773665Y-61825750D01*
X138935193Y-61726765D01*
X138935203Y-61726758D01*
X138939416Y-61724176D01*
X139119969Y-61569969D01*
X139274176Y-61389416D01*
X139276755Y-61385208D01*
X139276759Y-61385202D01*
X139395654Y-61191183D01*
X139398240Y-61186963D01*
X139405474Y-61169500D01*
X139487211Y-60972167D01*
X139487212Y-60972165D01*
X139489105Y-60967594D01*
X139508360Y-60887391D01*
X139543380Y-60741524D01*
X139543381Y-60741518D01*
X139544535Y-60736711D01*
X139563165Y-60500000D01*
X139544535Y-60263289D01*
X139528586Y-60196854D01*
X139499154Y-60074263D01*
X139489105Y-60032406D01*
X139479387Y-60008944D01*
X139400135Y-59817611D01*
X139400133Y-59817607D01*
X139398240Y-59813037D01*
X139389413Y-59798632D01*
X139276759Y-59614798D01*
X139276755Y-59614792D01*
X139274176Y-59610584D01*
X139119969Y-59430031D01*
X138939416Y-59275824D01*
X138935208Y-59273245D01*
X138935202Y-59273241D01*
X138741183Y-59154346D01*
X138736963Y-59151760D01*
X138732393Y-59149867D01*
X138732389Y-59149865D01*
X138522167Y-59062789D01*
X138522165Y-59062788D01*
X138517594Y-59060895D01*
X138411883Y-59035516D01*
X138291524Y-59006620D01*
X138291518Y-59006619D01*
X138286711Y-59005465D01*
X138050000Y-58986835D01*
X137813289Y-59005465D01*
X137808482Y-59006619D01*
X137808476Y-59006620D01*
X137688117Y-59035516D01*
X137582406Y-59060895D01*
X137577835Y-59062788D01*
X137577833Y-59062789D01*
X137367611Y-59149865D01*
X137367607Y-59149867D01*
X137363037Y-59151760D01*
X137358817Y-59154346D01*
X137164798Y-59273241D01*
X137164792Y-59273245D01*
X137160584Y-59275824D01*
X136980031Y-59430031D01*
X136825824Y-59610584D01*
X136823242Y-59614797D01*
X136823235Y-59614807D01*
X136724250Y-59776335D01*
X136671603Y-59823966D01*
X136616818Y-59836500D01*
X132983182Y-59836500D01*
X132915061Y-59816498D01*
X132875750Y-59776335D01*
X132776765Y-59614807D01*
X132776758Y-59614797D01*
X132774176Y-59610584D01*
X132619969Y-59430031D01*
X132439416Y-59275824D01*
X132435208Y-59273245D01*
X132435202Y-59273241D01*
X132241183Y-59154346D01*
X132236963Y-59151760D01*
X132232393Y-59149867D01*
X132232389Y-59149865D01*
X132022167Y-59062789D01*
X132022165Y-59062788D01*
X132017594Y-59060895D01*
X131911883Y-59035516D01*
X131791524Y-59006620D01*
X131791518Y-59006619D01*
X131786711Y-59005465D01*
X131550000Y-58986835D01*
X131313289Y-59005465D01*
X131308482Y-59006619D01*
X131308476Y-59006620D01*
X131124262Y-59050846D01*
X131053354Y-59047299D01*
X131005753Y-59017422D01*
X130638509Y-58650178D01*
X130632655Y-58643912D01*
X130602225Y-58609029D01*
X130597229Y-58603302D01*
X130548443Y-58569015D01*
X130543159Y-58565090D01*
X130502211Y-58532983D01*
X130496236Y-58528298D01*
X130489317Y-58525174D01*
X130483371Y-58521573D01*
X130478214Y-58518632D01*
X130474016Y-58516381D01*
X171849160Y-58516381D01*
X171849237Y-58517470D01*
X171851698Y-58521206D01*
X172125632Y-58731404D01*
X172131262Y-58735259D01*
X172431591Y-58917862D01*
X172437593Y-58921080D01*
X172755897Y-59070184D01*
X172762202Y-59072732D01*
X173094743Y-59186587D01*
X173101313Y-59188446D01*
X173444183Y-59265714D01*
X173450912Y-59266853D01*
X173800143Y-59306643D01*
X173806933Y-59307046D01*
X174158419Y-59308886D01*
X174165220Y-59308554D01*
X174514853Y-59272423D01*
X174521581Y-59271357D01*
X174865274Y-59197676D01*
X174871822Y-59195897D01*
X175205549Y-59085527D01*
X175211891Y-59083041D01*
X175531718Y-58937288D01*
X175537777Y-58934121D01*
X175839995Y-58754676D01*
X175845659Y-58750884D01*
X176126732Y-58539849D01*
X176131958Y-58535464D01*
X176141613Y-58526428D01*
X176149682Y-58512750D01*
X176149654Y-58512024D01*
X176144512Y-58503723D01*
X174012810Y-56372020D01*
X173998869Y-56364408D01*
X173997034Y-56364539D01*
X173990420Y-56368790D01*
X171856774Y-58502437D01*
X171849160Y-58516381D01*
X130474016Y-58516381D01*
X130472056Y-58515330D01*
X130465840Y-58510961D01*
X130458764Y-58508202D01*
X130458762Y-58508201D01*
X130410304Y-58489308D01*
X130404223Y-58486752D01*
X130356790Y-58465335D01*
X130356789Y-58465335D01*
X130349871Y-58462211D01*
X130342405Y-58460827D01*
X130335786Y-58458753D01*
X130330037Y-58457115D01*
X130323296Y-58455385D01*
X130316218Y-58452625D01*
X130292557Y-58449510D01*
X130257112Y-58444844D01*
X130250595Y-58443812D01*
X130216669Y-58437524D01*
X130191967Y-58432946D01*
X130184387Y-58433383D01*
X130184386Y-58433383D01*
X130133953Y-58436291D01*
X130126700Y-58436500D01*
X107607349Y-58436500D01*
X107598779Y-58436208D01*
X107552596Y-58433059D01*
X107552592Y-58433059D01*
X107545020Y-58432543D01*
X107486258Y-58442798D01*
X107479766Y-58443756D01*
X107451277Y-58447204D01*
X107428113Y-58450007D01*
X107428111Y-58450008D01*
X107420571Y-58450920D01*
X107413471Y-58453603D01*
X107406728Y-58455259D01*
X107400948Y-58456841D01*
X107394296Y-58458849D01*
X107386819Y-58460154D01*
X107379873Y-58463203D01*
X107379870Y-58463204D01*
X107332225Y-58484119D01*
X107326122Y-58486609D01*
X107270345Y-58507685D01*
X107264081Y-58511990D01*
X107257907Y-58515218D01*
X107252682Y-58518126D01*
X107246719Y-58521653D01*
X107239770Y-58524703D01*
X107233744Y-58529327D01*
X107192484Y-58560987D01*
X107187148Y-58564864D01*
X107144262Y-58594339D01*
X107144256Y-58594344D01*
X107137997Y-58598646D01*
X107132942Y-58604320D01*
X107099336Y-58642038D01*
X107094355Y-58647314D01*
X91059787Y-74681882D01*
X90997475Y-74715908D01*
X90938079Y-74714493D01*
X90913406Y-74707881D01*
X90913392Y-74707879D01*
X90908087Y-74706457D01*
X90680000Y-74686502D01*
X90451913Y-74706457D01*
X90446600Y-74707881D01*
X90446598Y-74707881D01*
X90236067Y-74764293D01*
X90236065Y-74764294D01*
X90230757Y-74765716D01*
X90225776Y-74768039D01*
X90225775Y-74768039D01*
X90028238Y-74860151D01*
X90028233Y-74860154D01*
X90023251Y-74862477D01*
X89955216Y-74910116D01*
X89840211Y-74990643D01*
X89840208Y-74990645D01*
X89835700Y-74993802D01*
X89673802Y-75155700D01*
X89542477Y-75343251D01*
X89540154Y-75348233D01*
X89540151Y-75348238D01*
X89524195Y-75382457D01*
X89477278Y-75435742D01*
X89409001Y-75455203D01*
X89341041Y-75434661D01*
X89295805Y-75382457D01*
X89279849Y-75348238D01*
X89279846Y-75348233D01*
X89277523Y-75343251D01*
X89146198Y-75155700D01*
X88984300Y-74993802D01*
X88979792Y-74990645D01*
X88979789Y-74990643D01*
X88864784Y-74910116D01*
X88796749Y-74862477D01*
X88791767Y-74860154D01*
X88791762Y-74860151D01*
X88594225Y-74768039D01*
X88594224Y-74768039D01*
X88589243Y-74765716D01*
X88583935Y-74764294D01*
X88583933Y-74764293D01*
X88373402Y-74707881D01*
X88373400Y-74707881D01*
X88368087Y-74706457D01*
X88140000Y-74686502D01*
X87911913Y-74706457D01*
X87906600Y-74707881D01*
X87906598Y-74707881D01*
X87696067Y-74764293D01*
X87696065Y-74764294D01*
X87690757Y-74765716D01*
X87685776Y-74768039D01*
X87685775Y-74768039D01*
X87488238Y-74860151D01*
X87488233Y-74860154D01*
X87483251Y-74862477D01*
X87415216Y-74910116D01*
X87300211Y-74990643D01*
X87300208Y-74990645D01*
X87295700Y-74993802D01*
X87133802Y-75155700D01*
X87002477Y-75343251D01*
X87000154Y-75348233D01*
X87000151Y-75348238D01*
X86984195Y-75382457D01*
X86937278Y-75435742D01*
X86869001Y-75455203D01*
X86801041Y-75434661D01*
X86755805Y-75382457D01*
X86739849Y-75348238D01*
X86739846Y-75348233D01*
X86737523Y-75343251D01*
X86606198Y-75155700D01*
X86444300Y-74993802D01*
X86439792Y-74990645D01*
X86439789Y-74990643D01*
X86324784Y-74910116D01*
X86256749Y-74862477D01*
X86251767Y-74860154D01*
X86251762Y-74860151D01*
X86054225Y-74768039D01*
X86054224Y-74768039D01*
X86049243Y-74765716D01*
X86043935Y-74764294D01*
X86043933Y-74764293D01*
X85833402Y-74707881D01*
X85833400Y-74707881D01*
X85828087Y-74706457D01*
X85600000Y-74686502D01*
X85371913Y-74706457D01*
X85366600Y-74707881D01*
X85366598Y-74707881D01*
X85156067Y-74764293D01*
X85156065Y-74764294D01*
X85150757Y-74765716D01*
X85145776Y-74768039D01*
X85145775Y-74768039D01*
X84948238Y-74860151D01*
X84948233Y-74860154D01*
X84943251Y-74862477D01*
X84875216Y-74910116D01*
X84760211Y-74990643D01*
X84760208Y-74990645D01*
X84755700Y-74993802D01*
X84593802Y-75155700D01*
X84462477Y-75343251D01*
X84460154Y-75348233D01*
X84460151Y-75348238D01*
X84444195Y-75382457D01*
X84397278Y-75435742D01*
X84329001Y-75455203D01*
X84261041Y-75434661D01*
X84215805Y-75382457D01*
X84199849Y-75348238D01*
X84199846Y-75348233D01*
X84197523Y-75343251D01*
X84066198Y-75155700D01*
X83904300Y-74993802D01*
X83899792Y-74990645D01*
X83899789Y-74990643D01*
X83784784Y-74910116D01*
X83716749Y-74862477D01*
X83711767Y-74860154D01*
X83711762Y-74860151D01*
X83514225Y-74768039D01*
X83514224Y-74768039D01*
X83509243Y-74765716D01*
X83503935Y-74764294D01*
X83503933Y-74764293D01*
X83293402Y-74707881D01*
X83293400Y-74707881D01*
X83288087Y-74706457D01*
X83060000Y-74686502D01*
X82831913Y-74706457D01*
X82826600Y-74707881D01*
X82826598Y-74707881D01*
X82616067Y-74764293D01*
X82616065Y-74764294D01*
X82610757Y-74765716D01*
X82605776Y-74768039D01*
X82605775Y-74768039D01*
X82408238Y-74860151D01*
X82408233Y-74860154D01*
X82403251Y-74862477D01*
X82335216Y-74910116D01*
X82220211Y-74990643D01*
X82220208Y-74990645D01*
X82215700Y-74993802D01*
X82053802Y-75155700D01*
X81922477Y-75343251D01*
X81920154Y-75348233D01*
X81920151Y-75348238D01*
X81904195Y-75382457D01*
X81857278Y-75435742D01*
X81789001Y-75455203D01*
X81721041Y-75434661D01*
X81675805Y-75382457D01*
X81659849Y-75348238D01*
X81659846Y-75348233D01*
X81657523Y-75343251D01*
X81526198Y-75155700D01*
X81364300Y-74993802D01*
X81359792Y-74990645D01*
X81359789Y-74990643D01*
X81244784Y-74910116D01*
X81176749Y-74862477D01*
X81171767Y-74860154D01*
X81171762Y-74860151D01*
X80974225Y-74768039D01*
X80974224Y-74768039D01*
X80969243Y-74765716D01*
X80963935Y-74764294D01*
X80963933Y-74764293D01*
X80753402Y-74707881D01*
X80753400Y-74707881D01*
X80748087Y-74706457D01*
X80520000Y-74686502D01*
X80291913Y-74706457D01*
X80286600Y-74707881D01*
X80286598Y-74707881D01*
X80076067Y-74764293D01*
X80076065Y-74764294D01*
X80070757Y-74765716D01*
X80065776Y-74768039D01*
X80065775Y-74768039D01*
X79868238Y-74860151D01*
X79868233Y-74860154D01*
X79863251Y-74862477D01*
X79795216Y-74910116D01*
X79680211Y-74990643D01*
X79680208Y-74990645D01*
X79675700Y-74993802D01*
X79513802Y-75155700D01*
X79382477Y-75343251D01*
X79380154Y-75348233D01*
X79380151Y-75348238D01*
X79364195Y-75382457D01*
X79317278Y-75435742D01*
X79249001Y-75455203D01*
X79181041Y-75434661D01*
X79135805Y-75382457D01*
X79119849Y-75348238D01*
X79119846Y-75348233D01*
X79117523Y-75343251D01*
X78986198Y-75155700D01*
X78824300Y-74993802D01*
X78819792Y-74990645D01*
X78819789Y-74990643D01*
X78704784Y-74910116D01*
X78636749Y-74862477D01*
X78631767Y-74860154D01*
X78631762Y-74860151D01*
X78434225Y-74768039D01*
X78434224Y-74768039D01*
X78429243Y-74765716D01*
X78423935Y-74764294D01*
X78423933Y-74764293D01*
X78213402Y-74707881D01*
X78213400Y-74707881D01*
X78208087Y-74706457D01*
X77980000Y-74686502D01*
X77751913Y-74706457D01*
X77746600Y-74707881D01*
X77746598Y-74707881D01*
X77536067Y-74764293D01*
X77536065Y-74764294D01*
X77530757Y-74765716D01*
X77525776Y-74768039D01*
X77525775Y-74768039D01*
X77328238Y-74860151D01*
X77328233Y-74860154D01*
X77323251Y-74862477D01*
X77255216Y-74910116D01*
X77140211Y-74990643D01*
X77140208Y-74990645D01*
X77135700Y-74993802D01*
X76973802Y-75155700D01*
X76842477Y-75343251D01*
X76840154Y-75348233D01*
X76840151Y-75348238D01*
X76824195Y-75382457D01*
X76777278Y-75435742D01*
X76709001Y-75455203D01*
X76641041Y-75434661D01*
X76595805Y-75382457D01*
X76579849Y-75348238D01*
X76579846Y-75348233D01*
X76577523Y-75343251D01*
X76446198Y-75155700D01*
X76284300Y-74993802D01*
X76279792Y-74990645D01*
X76279789Y-74990643D01*
X76164784Y-74910116D01*
X76096749Y-74862477D01*
X76091767Y-74860154D01*
X76091762Y-74860151D01*
X75894225Y-74768039D01*
X75894224Y-74768039D01*
X75889243Y-74765716D01*
X75883935Y-74764294D01*
X75883933Y-74764293D01*
X75673402Y-74707881D01*
X75673400Y-74707881D01*
X75668087Y-74706457D01*
X75440000Y-74686502D01*
X75211913Y-74706457D01*
X75206600Y-74707881D01*
X75206598Y-74707881D01*
X74996067Y-74764293D01*
X74996065Y-74764294D01*
X74990757Y-74765716D01*
X74985776Y-74768039D01*
X74985775Y-74768039D01*
X74788238Y-74860151D01*
X74788233Y-74860154D01*
X74783251Y-74862477D01*
X74715216Y-74910116D01*
X74600211Y-74990643D01*
X74600208Y-74990645D01*
X74595700Y-74993802D01*
X74433802Y-75155700D01*
X74430645Y-75160208D01*
X74430643Y-75160211D01*
X74392713Y-75214381D01*
X74337256Y-75258709D01*
X74266636Y-75266018D01*
X74203276Y-75233987D01*
X74167291Y-75172786D01*
X74163500Y-75142110D01*
X74163500Y-71727020D01*
X74183502Y-71658899D01*
X74200405Y-71637925D01*
X77276385Y-68561946D01*
X80369822Y-65468509D01*
X80376088Y-65462655D01*
X80410971Y-65432225D01*
X80416698Y-65427229D01*
X80450985Y-65378443D01*
X80454910Y-65373159D01*
X80487017Y-65332211D01*
X80491702Y-65326236D01*
X80494826Y-65319317D01*
X80498427Y-65313371D01*
X80501368Y-65308214D01*
X80504670Y-65302056D01*
X80509039Y-65295840D01*
X80530692Y-65240304D01*
X80533248Y-65234223D01*
X80554665Y-65186790D01*
X80554665Y-65186789D01*
X80557789Y-65179871D01*
X80559173Y-65172405D01*
X80561247Y-65165786D01*
X80562893Y-65160010D01*
X80564619Y-65153288D01*
X80567375Y-65146218D01*
X80570842Y-65119886D01*
X80575157Y-65087107D01*
X80576189Y-65080592D01*
X80585670Y-65029436D01*
X80585670Y-65029435D01*
X80587054Y-65021968D01*
X80585902Y-65001978D01*
X80583709Y-64963953D01*
X80583500Y-64956700D01*
X80583500Y-64084000D01*
X80603502Y-64015879D01*
X80657158Y-63969386D01*
X80709500Y-63958000D01*
X80727885Y-63958000D01*
X80743124Y-63953525D01*
X80744329Y-63952135D01*
X80746000Y-63944452D01*
X80746000Y-63939884D01*
X81254000Y-63939884D01*
X81258475Y-63955123D01*
X81259865Y-63956328D01*
X81267548Y-63957999D01*
X81522095Y-63957999D01*
X81528614Y-63957662D01*
X81624206Y-63947743D01*
X81637600Y-63944851D01*
X81791784Y-63893412D01*
X81804962Y-63887239D01*
X81942807Y-63801937D01*
X81954208Y-63792901D01*
X82068739Y-63678171D01*
X82077751Y-63666760D01*
X82162816Y-63528757D01*
X82168963Y-63515576D01*
X82220138Y-63361290D01*
X82223005Y-63347914D01*
X82232672Y-63253562D01*
X82233000Y-63247146D01*
X82233000Y-63222115D01*
X82228525Y-63206876D01*
X82227135Y-63205671D01*
X82219452Y-63204000D01*
X81272115Y-63204000D01*
X81256876Y-63208475D01*
X81255672Y-63209864D01*
X81254000Y-63217548D01*
X81254000Y-63939884D01*
X80746000Y-63939884D01*
X80746000Y-62822000D01*
X80766002Y-62753879D01*
X80819658Y-62707386D01*
X80872000Y-62696000D01*
X82214884Y-62696000D01*
X82230123Y-62691525D01*
X82231328Y-62690135D01*
X82232999Y-62682452D01*
X82232999Y-62652905D01*
X82232662Y-62646386D01*
X82222743Y-62550794D01*
X82219851Y-62537400D01*
X82168412Y-62383216D01*
X82162239Y-62370038D01*
X82076937Y-62232193D01*
X82067901Y-62220792D01*
X81953172Y-62106262D01*
X81944238Y-62099206D01*
X81903177Y-62041288D01*
X81899947Y-61970365D01*
X81935574Y-61908954D01*
X81943407Y-61902154D01*
X81949348Y-61898478D01*
X82074305Y-61773303D01*
X82098799Y-61733567D01*
X82163275Y-61628968D01*
X82163276Y-61628966D01*
X82167115Y-61622738D01*
X82208942Y-61496632D01*
X82220632Y-61461389D01*
X82220632Y-61461387D01*
X82222797Y-61454861D01*
X82225942Y-61424171D01*
X82230255Y-61382074D01*
X82233500Y-61350400D01*
X82233500Y-60749600D01*
X82222526Y-60643834D01*
X82166550Y-60476054D01*
X82073478Y-60325652D01*
X81948303Y-60200695D01*
X81816724Y-60119588D01*
X81803968Y-60111725D01*
X81803966Y-60111724D01*
X81797738Y-60107885D01*
X81696370Y-60074263D01*
X81636389Y-60054368D01*
X81636387Y-60054368D01*
X81629861Y-60052203D01*
X81623025Y-60051503D01*
X81623022Y-60051502D01*
X81579969Y-60047091D01*
X81525400Y-60041500D01*
X80982021Y-60041500D01*
X80913900Y-60021498D01*
X80892926Y-60004595D01*
X80818509Y-59930178D01*
X80812655Y-59923912D01*
X80782225Y-59889029D01*
X80777229Y-59883302D01*
X80728443Y-59849015D01*
X80723159Y-59845090D01*
X80682211Y-59812983D01*
X80676236Y-59808298D01*
X80669317Y-59805174D01*
X80663371Y-59801573D01*
X80658214Y-59798632D01*
X80652056Y-59795330D01*
X80645840Y-59790961D01*
X80638764Y-59788202D01*
X80638762Y-59788201D01*
X80590304Y-59769308D01*
X80584223Y-59766752D01*
X80536790Y-59745335D01*
X80536789Y-59745335D01*
X80529871Y-59742211D01*
X80522405Y-59740827D01*
X80515786Y-59738753D01*
X80510037Y-59737115D01*
X80503296Y-59735385D01*
X80496218Y-59732625D01*
X80472557Y-59729510D01*
X80437112Y-59724844D01*
X80430595Y-59723812D01*
X80396669Y-59717524D01*
X80371967Y-59712946D01*
X80364387Y-59713383D01*
X80364386Y-59713383D01*
X80313953Y-59716291D01*
X80306700Y-59716500D01*
X78557397Y-59716500D01*
X78489276Y-59696498D01*
X78451605Y-59658940D01*
X78382822Y-59552617D01*
X78382820Y-59552614D01*
X78380014Y-59548277D01*
X78229670Y-59383051D01*
X78225619Y-59379852D01*
X78225615Y-59379848D01*
X78058414Y-59247800D01*
X78058410Y-59247798D01*
X78054359Y-59244598D01*
X78013053Y-59221796D01*
X77963084Y-59171364D01*
X77948312Y-59101921D01*
X77973428Y-59035516D01*
X78000780Y-59008909D01*
X78044603Y-58977650D01*
X78179860Y-58881173D01*
X78338096Y-58723489D01*
X78397594Y-58640689D01*
X78465435Y-58546277D01*
X78468453Y-58542077D01*
X78471722Y-58535464D01*
X78565136Y-58346453D01*
X78565137Y-58346451D01*
X78567430Y-58341811D01*
X78628386Y-58141181D01*
X78630865Y-58133023D01*
X78630865Y-58133021D01*
X78632370Y-58128069D01*
X78661529Y-57906590D01*
X78663156Y-57840000D01*
X78644852Y-57617361D01*
X78590431Y-57400702D01*
X78501354Y-57195840D01*
X78422000Y-57073177D01*
X78382822Y-57012617D01*
X78382820Y-57012614D01*
X78380014Y-57008277D01*
X78376532Y-57004450D01*
X78232798Y-56846488D01*
X78201746Y-56782642D01*
X78210141Y-56712143D01*
X78255317Y-56657375D01*
X78281761Y-56643706D01*
X78388297Y-56603767D01*
X78396705Y-56600615D01*
X78513261Y-56513261D01*
X78600615Y-56396705D01*
X78651745Y-56260316D01*
X78658500Y-56198134D01*
X78658500Y-56000000D01*
X119486835Y-56000000D01*
X119505465Y-56236711D01*
X119560895Y-56467594D01*
X119562788Y-56472165D01*
X119562789Y-56472167D01*
X119649323Y-56681079D01*
X119651760Y-56686963D01*
X119654346Y-56691183D01*
X119773241Y-56885202D01*
X119773245Y-56885208D01*
X119775824Y-56889416D01*
X119930031Y-57069969D01*
X120110584Y-57224176D01*
X120114792Y-57226755D01*
X120114798Y-57226759D01*
X120308817Y-57345654D01*
X120313037Y-57348240D01*
X120317607Y-57350133D01*
X120317611Y-57350135D01*
X120527833Y-57437211D01*
X120532406Y-57439105D01*
X120612609Y-57458360D01*
X120758476Y-57493380D01*
X120758482Y-57493381D01*
X120763289Y-57494535D01*
X121000000Y-57513165D01*
X121236711Y-57494535D01*
X121241518Y-57493381D01*
X121241524Y-57493380D01*
X121387391Y-57458360D01*
X121467594Y-57439105D01*
X121472167Y-57437211D01*
X121682389Y-57350135D01*
X121682393Y-57350133D01*
X121686963Y-57348240D01*
X121691183Y-57345654D01*
X121885202Y-57226759D01*
X121885208Y-57226755D01*
X121889416Y-57224176D01*
X122069969Y-57069969D01*
X122224176Y-56889416D01*
X122226755Y-56885208D01*
X122226759Y-56885202D01*
X122345654Y-56691183D01*
X122348240Y-56686963D01*
X122350678Y-56681079D01*
X122437211Y-56472167D01*
X122437212Y-56472165D01*
X122439105Y-56467594D01*
X122494535Y-56236711D01*
X122513165Y-56000000D01*
X125986835Y-56000000D01*
X126005465Y-56236711D01*
X126060895Y-56467594D01*
X126062788Y-56472165D01*
X126062789Y-56472167D01*
X126149323Y-56681079D01*
X126151760Y-56686963D01*
X126154346Y-56691183D01*
X126273241Y-56885202D01*
X126273245Y-56885208D01*
X126275824Y-56889416D01*
X126430031Y-57069969D01*
X126610584Y-57224176D01*
X126614792Y-57226755D01*
X126614798Y-57226759D01*
X126808817Y-57345654D01*
X126813037Y-57348240D01*
X126817607Y-57350133D01*
X126817611Y-57350135D01*
X127027833Y-57437211D01*
X127032406Y-57439105D01*
X127112609Y-57458360D01*
X127258476Y-57493380D01*
X127258482Y-57493381D01*
X127263289Y-57494535D01*
X127500000Y-57513165D01*
X127736711Y-57494535D01*
X127741518Y-57493381D01*
X127741524Y-57493380D01*
X127887391Y-57458360D01*
X127967594Y-57439105D01*
X127972167Y-57437211D01*
X128182389Y-57350135D01*
X128182393Y-57350133D01*
X128186963Y-57348240D01*
X128191183Y-57345654D01*
X128385202Y-57226759D01*
X128385208Y-57226755D01*
X128389416Y-57224176D01*
X128569969Y-57069969D01*
X128724176Y-56889416D01*
X128726755Y-56885208D01*
X128726759Y-56885202D01*
X128845654Y-56691183D01*
X128848240Y-56686963D01*
X128850678Y-56681079D01*
X128937211Y-56472167D01*
X128937212Y-56472165D01*
X128939105Y-56467594D01*
X128994535Y-56236711D01*
X129013165Y-56000000D01*
X130036835Y-56000000D01*
X130055465Y-56236711D01*
X130110895Y-56467594D01*
X130112788Y-56472165D01*
X130112789Y-56472167D01*
X130199323Y-56681079D01*
X130201760Y-56686963D01*
X130204346Y-56691183D01*
X130323241Y-56885202D01*
X130323245Y-56885208D01*
X130325824Y-56889416D01*
X130480031Y-57069969D01*
X130660584Y-57224176D01*
X130664792Y-57226755D01*
X130664798Y-57226759D01*
X130858817Y-57345654D01*
X130863037Y-57348240D01*
X130867607Y-57350133D01*
X130867611Y-57350135D01*
X131077833Y-57437211D01*
X131082406Y-57439105D01*
X131162609Y-57458360D01*
X131308476Y-57493380D01*
X131308482Y-57493381D01*
X131313289Y-57494535D01*
X131550000Y-57513165D01*
X131786711Y-57494535D01*
X131791518Y-57493381D01*
X131791524Y-57493380D01*
X131937391Y-57458360D01*
X132017594Y-57439105D01*
X132022167Y-57437211D01*
X132232389Y-57350135D01*
X132232393Y-57350133D01*
X132236963Y-57348240D01*
X132241183Y-57345654D01*
X132435202Y-57226759D01*
X132435208Y-57226755D01*
X132439416Y-57224176D01*
X132619969Y-57069969D01*
X132774176Y-56889416D01*
X132776755Y-56885208D01*
X132776759Y-56885202D01*
X132895654Y-56691183D01*
X132898240Y-56686963D01*
X132900678Y-56681079D01*
X132987211Y-56472167D01*
X132987212Y-56472165D01*
X132989105Y-56467594D01*
X133044535Y-56236711D01*
X133063165Y-56000000D01*
X136536835Y-56000000D01*
X136555465Y-56236711D01*
X136610895Y-56467594D01*
X136612788Y-56472165D01*
X136612789Y-56472167D01*
X136699323Y-56681079D01*
X136701760Y-56686963D01*
X136704346Y-56691183D01*
X136823241Y-56885202D01*
X136823245Y-56885208D01*
X136825824Y-56889416D01*
X136980031Y-57069969D01*
X137160584Y-57224176D01*
X137164792Y-57226755D01*
X137164798Y-57226759D01*
X137358817Y-57345654D01*
X137363037Y-57348240D01*
X137367607Y-57350133D01*
X137367611Y-57350135D01*
X137577833Y-57437211D01*
X137582406Y-57439105D01*
X137662609Y-57458360D01*
X137808476Y-57493380D01*
X137808482Y-57493381D01*
X137813289Y-57494535D01*
X138050000Y-57513165D01*
X138286711Y-57494535D01*
X138291518Y-57493381D01*
X138291524Y-57493380D01*
X138437391Y-57458360D01*
X138517594Y-57439105D01*
X138522167Y-57437211D01*
X138732389Y-57350135D01*
X138732393Y-57350133D01*
X138736963Y-57348240D01*
X138741183Y-57345654D01*
X138935202Y-57226759D01*
X138935208Y-57226755D01*
X138939416Y-57224176D01*
X139119969Y-57069969D01*
X139274176Y-56889416D01*
X139276755Y-56885208D01*
X139276759Y-56885202D01*
X139395654Y-56691183D01*
X139398240Y-56686963D01*
X139400678Y-56681079D01*
X139487211Y-56472167D01*
X139487212Y-56472165D01*
X139489105Y-56467594D01*
X139544535Y-56236711D01*
X139563165Y-56000000D01*
X139562522Y-55991832D01*
X170687333Y-55991832D01*
X170705117Y-56342893D01*
X170705827Y-56349649D01*
X170761420Y-56696723D01*
X170762859Y-56703378D01*
X170855608Y-57042410D01*
X170857757Y-57048871D01*
X170986581Y-57375912D01*
X170989412Y-57382095D01*
X171152803Y-57693310D01*
X171156286Y-57699152D01*
X171352330Y-57990896D01*
X171356433Y-57996340D01*
X171476425Y-58138836D01*
X171489164Y-58147279D01*
X171499608Y-58141181D01*
X173627980Y-56012810D01*
X173635592Y-55998869D01*
X173635461Y-55997034D01*
X173631210Y-55990420D01*
X171500992Y-53860203D01*
X171487455Y-53852811D01*
X171477753Y-53859599D01*
X171370430Y-53985257D01*
X171366296Y-53990664D01*
X171168215Y-54281041D01*
X171164697Y-54286851D01*
X170999134Y-54596922D01*
X170996259Y-54603087D01*
X170865155Y-54929218D01*
X170862962Y-54935658D01*
X170767846Y-55274044D01*
X170766363Y-55280679D01*
X170708350Y-55627354D01*
X170707591Y-55634126D01*
X170687357Y-55985037D01*
X170687333Y-55991832D01*
X139562522Y-55991832D01*
X139544535Y-55763289D01*
X139489105Y-55532406D01*
X139445415Y-55426928D01*
X139400135Y-55317611D01*
X139400133Y-55317607D01*
X139398240Y-55313037D01*
X139374345Y-55274044D01*
X139276759Y-55114798D01*
X139276755Y-55114792D01*
X139274176Y-55110584D01*
X139119969Y-54930031D01*
X138939416Y-54775824D01*
X138935208Y-54773245D01*
X138935202Y-54773241D01*
X138741183Y-54654346D01*
X138736963Y-54651760D01*
X138732393Y-54649867D01*
X138732389Y-54649865D01*
X138522167Y-54562789D01*
X138522165Y-54562788D01*
X138517594Y-54560895D01*
X138437391Y-54541640D01*
X138291524Y-54506620D01*
X138291518Y-54506619D01*
X138286711Y-54505465D01*
X138050000Y-54486835D01*
X137813289Y-54505465D01*
X137808482Y-54506619D01*
X137808476Y-54506620D01*
X137662609Y-54541640D01*
X137582406Y-54560895D01*
X137577835Y-54562788D01*
X137577833Y-54562789D01*
X137367611Y-54649865D01*
X137367607Y-54649867D01*
X137363037Y-54651760D01*
X137358817Y-54654346D01*
X137164798Y-54773241D01*
X137164792Y-54773245D01*
X137160584Y-54775824D01*
X136980031Y-54930031D01*
X136825824Y-55110584D01*
X136823245Y-55114792D01*
X136823241Y-55114798D01*
X136725655Y-55274044D01*
X136701760Y-55313037D01*
X136699867Y-55317607D01*
X136699865Y-55317611D01*
X136654585Y-55426928D01*
X136610895Y-55532406D01*
X136555465Y-55763289D01*
X136536835Y-56000000D01*
X133063165Y-56000000D01*
X133044535Y-55763289D01*
X132989105Y-55532406D01*
X132945415Y-55426928D01*
X132900135Y-55317611D01*
X132900133Y-55317607D01*
X132898240Y-55313037D01*
X132874345Y-55274044D01*
X132776759Y-55114798D01*
X132776755Y-55114792D01*
X132774176Y-55110584D01*
X132619969Y-54930031D01*
X132439416Y-54775824D01*
X132435208Y-54773245D01*
X132435202Y-54773241D01*
X132241183Y-54654346D01*
X132236963Y-54651760D01*
X132232393Y-54649867D01*
X132232389Y-54649865D01*
X132022167Y-54562789D01*
X132022165Y-54562788D01*
X132017594Y-54560895D01*
X131937391Y-54541640D01*
X131791524Y-54506620D01*
X131791518Y-54506619D01*
X131786711Y-54505465D01*
X131550000Y-54486835D01*
X131313289Y-54505465D01*
X131308482Y-54506619D01*
X131308476Y-54506620D01*
X131162609Y-54541640D01*
X131082406Y-54560895D01*
X131077835Y-54562788D01*
X131077833Y-54562789D01*
X130867611Y-54649865D01*
X130867607Y-54649867D01*
X130863037Y-54651760D01*
X130858817Y-54654346D01*
X130664798Y-54773241D01*
X130664792Y-54773245D01*
X130660584Y-54775824D01*
X130480031Y-54930031D01*
X130325824Y-55110584D01*
X130323245Y-55114792D01*
X130323241Y-55114798D01*
X130225655Y-55274044D01*
X130201760Y-55313037D01*
X130199867Y-55317607D01*
X130199865Y-55317611D01*
X130154585Y-55426928D01*
X130110895Y-55532406D01*
X130055465Y-55763289D01*
X130036835Y-56000000D01*
X129013165Y-56000000D01*
X128994535Y-55763289D01*
X128939105Y-55532406D01*
X128895415Y-55426928D01*
X128850135Y-55317611D01*
X128850133Y-55317607D01*
X128848240Y-55313037D01*
X128824345Y-55274044D01*
X128726759Y-55114798D01*
X128726755Y-55114792D01*
X128724176Y-55110584D01*
X128569969Y-54930031D01*
X128389416Y-54775824D01*
X128385208Y-54773245D01*
X128385202Y-54773241D01*
X128191183Y-54654346D01*
X128186963Y-54651760D01*
X128182393Y-54649867D01*
X128182389Y-54649865D01*
X127972167Y-54562789D01*
X127972165Y-54562788D01*
X127967594Y-54560895D01*
X127887391Y-54541640D01*
X127741524Y-54506620D01*
X127741518Y-54506619D01*
X127736711Y-54505465D01*
X127500000Y-54486835D01*
X127263289Y-54505465D01*
X127258482Y-54506619D01*
X127258476Y-54506620D01*
X127112609Y-54541640D01*
X127032406Y-54560895D01*
X127027835Y-54562788D01*
X127027833Y-54562789D01*
X126817611Y-54649865D01*
X126817607Y-54649867D01*
X126813037Y-54651760D01*
X126808817Y-54654346D01*
X126614798Y-54773241D01*
X126614792Y-54773245D01*
X126610584Y-54775824D01*
X126430031Y-54930031D01*
X126275824Y-55110584D01*
X126273245Y-55114792D01*
X126273241Y-55114798D01*
X126175655Y-55274044D01*
X126151760Y-55313037D01*
X126149867Y-55317607D01*
X126149865Y-55317611D01*
X126104585Y-55426928D01*
X126060895Y-55532406D01*
X126005465Y-55763289D01*
X125986835Y-56000000D01*
X122513165Y-56000000D01*
X122494535Y-55763289D01*
X122439105Y-55532406D01*
X122395415Y-55426928D01*
X122350135Y-55317611D01*
X122350133Y-55317607D01*
X122348240Y-55313037D01*
X122324345Y-55274044D01*
X122226759Y-55114798D01*
X122226755Y-55114792D01*
X122224176Y-55110584D01*
X122069969Y-54930031D01*
X121889416Y-54775824D01*
X121885208Y-54773245D01*
X121885202Y-54773241D01*
X121691183Y-54654346D01*
X121686963Y-54651760D01*
X121682393Y-54649867D01*
X121682389Y-54649865D01*
X121472167Y-54562789D01*
X121472165Y-54562788D01*
X121467594Y-54560895D01*
X121387391Y-54541640D01*
X121241524Y-54506620D01*
X121241518Y-54506619D01*
X121236711Y-54505465D01*
X121000000Y-54486835D01*
X120763289Y-54505465D01*
X120758482Y-54506619D01*
X120758476Y-54506620D01*
X120612609Y-54541640D01*
X120532406Y-54560895D01*
X120527835Y-54562788D01*
X120527833Y-54562789D01*
X120317611Y-54649865D01*
X120317607Y-54649867D01*
X120313037Y-54651760D01*
X120308817Y-54654346D01*
X120114798Y-54773241D01*
X120114792Y-54773245D01*
X120110584Y-54775824D01*
X119930031Y-54930031D01*
X119775824Y-55110584D01*
X119773245Y-55114792D01*
X119773241Y-55114798D01*
X119675655Y-55274044D01*
X119651760Y-55313037D01*
X119649867Y-55317607D01*
X119649865Y-55317611D01*
X119604585Y-55426928D01*
X119560895Y-55532406D01*
X119505465Y-55763289D01*
X119486835Y-56000000D01*
X78658500Y-56000000D01*
X78658500Y-54401866D01*
X78651745Y-54339684D01*
X78600615Y-54203295D01*
X78513261Y-54086739D01*
X78396705Y-53999385D01*
X78260316Y-53948255D01*
X78198134Y-53941500D01*
X76401866Y-53941500D01*
X76339684Y-53948255D01*
X76203295Y-53999385D01*
X76086739Y-54086739D01*
X75999385Y-54203295D01*
X75948255Y-54339684D01*
X75941500Y-54401866D01*
X75941500Y-55667979D01*
X75921498Y-55736100D01*
X75904595Y-55757074D01*
X75526718Y-56134951D01*
X75464406Y-56168977D01*
X75393591Y-56163912D01*
X75336755Y-56121365D01*
X75311944Y-56054845D01*
X75311858Y-56038161D01*
X75312668Y-56024917D01*
X75312784Y-56021323D01*
X75312853Y-56001819D01*
X75312761Y-55998194D01*
X75293666Y-55645615D01*
X75292931Y-55638849D01*
X75236130Y-55291985D01*
X75234663Y-55285313D01*
X75140736Y-54946627D01*
X75138562Y-54940163D01*
X75008598Y-54613578D01*
X75005742Y-54607398D01*
X74841269Y-54296763D01*
X74837769Y-54290937D01*
X74640697Y-53999862D01*
X74636590Y-53994453D01*
X74523565Y-53861179D01*
X74510740Y-53852743D01*
X74500416Y-53858795D01*
X72359210Y-56000000D01*
X72000000Y-56359210D01*
X69856772Y-58502439D01*
X69849160Y-58516380D01*
X69849238Y-58517470D01*
X69851699Y-58521207D01*
X70125632Y-58731404D01*
X70131262Y-58735259D01*
X70431591Y-58917862D01*
X70437593Y-58921080D01*
X70755897Y-59070184D01*
X70762202Y-59072732D01*
X71094743Y-59186587D01*
X71101313Y-59188446D01*
X71444183Y-59265714D01*
X71450912Y-59266853D01*
X71800143Y-59306643D01*
X71806933Y-59307046D01*
X72049823Y-59308318D01*
X72117838Y-59328676D01*
X72164049Y-59382575D01*
X72173785Y-59452901D01*
X72143954Y-59517326D01*
X72138258Y-59523411D01*
X72050178Y-59611491D01*
X72043913Y-59617344D01*
X72003302Y-59652771D01*
X71969023Y-59701546D01*
X71965090Y-59706841D01*
X71951783Y-59723812D01*
X71928298Y-59753764D01*
X71925174Y-59760683D01*
X71921573Y-59766629D01*
X71918632Y-59771786D01*
X71915330Y-59777944D01*
X71910961Y-59784160D01*
X71908202Y-59791236D01*
X71908201Y-59791238D01*
X71889308Y-59839696D01*
X71886752Y-59845777D01*
X71869809Y-59883302D01*
X71862211Y-59900129D01*
X71860827Y-59907595D01*
X71858753Y-59914214D01*
X71857115Y-59919963D01*
X71855385Y-59926704D01*
X71852625Y-59933782D01*
X71851633Y-59941318D01*
X71844844Y-59992888D01*
X71843812Y-59999405D01*
X71832946Y-60058033D01*
X71833383Y-60065613D01*
X71833383Y-60065614D01*
X71836291Y-60116047D01*
X71836500Y-60123300D01*
X71836500Y-83472651D01*
X71836208Y-83481221D01*
X71832543Y-83534980D01*
X71842798Y-83593742D01*
X71843756Y-83600234D01*
X71850920Y-83659429D01*
X71853603Y-83666529D01*
X71855259Y-83673272D01*
X71856841Y-83679052D01*
X71858849Y-83685704D01*
X71860154Y-83693181D01*
X71863203Y-83700126D01*
X71863205Y-83700134D01*
X71884115Y-83747768D01*
X71886607Y-83753874D01*
X71907685Y-83809655D01*
X71911987Y-83815914D01*
X71915204Y-83822068D01*
X71918103Y-83827277D01*
X71921651Y-83833277D01*
X71924703Y-83840229D01*
X71929326Y-83846253D01*
X71929329Y-83846259D01*
X71960994Y-83887525D01*
X71964862Y-83892848D01*
X71998646Y-83942003D01*
X72004316Y-83947055D01*
X72004317Y-83947056D01*
X72042047Y-83980672D01*
X72047323Y-83985653D01*
X75611484Y-87549814D01*
X75617337Y-87556079D01*
X75652771Y-87596698D01*
X75701556Y-87630984D01*
X75706841Y-87634910D01*
X75747786Y-87667015D01*
X75747792Y-87667019D01*
X75753765Y-87671702D01*
X75760685Y-87674826D01*
X75766599Y-87678408D01*
X75771836Y-87681395D01*
X75777944Y-87684670D01*
X75784160Y-87689039D01*
X75791236Y-87691798D01*
X75791242Y-87691801D01*
X75839707Y-87710696D01*
X75845762Y-87713241D01*
X75900129Y-87737789D01*
X75907594Y-87739173D01*
X75914213Y-87741247D01*
X75919963Y-87742885D01*
X75926704Y-87744615D01*
X75933782Y-87747375D01*
X75941318Y-87748367D01*
X75992888Y-87755156D01*
X75999405Y-87756188D01*
X76033331Y-87762476D01*
X76058033Y-87767054D01*
X76065613Y-87766617D01*
X76065614Y-87766617D01*
X76116047Y-87763709D01*
X76123300Y-87763500D01*
X88752980Y-87763500D01*
X88821101Y-87783502D01*
X88842075Y-87800405D01*
X90753922Y-89712253D01*
X90787948Y-89774565D01*
X90782883Y-89845381D01*
X90740336Y-89902216D01*
X90675809Y-89926869D01*
X90600915Y-89933421D01*
X90457394Y-89945977D01*
X90457389Y-89945978D01*
X90451913Y-89946457D01*
X90446600Y-89947881D01*
X90446598Y-89947881D01*
X90236067Y-90004293D01*
X90236065Y-90004294D01*
X90230757Y-90005716D01*
X90225776Y-90008039D01*
X90225775Y-90008039D01*
X90028238Y-90100151D01*
X90028233Y-90100154D01*
X90023251Y-90102477D01*
X89957204Y-90148724D01*
X89840211Y-90230643D01*
X89840208Y-90230645D01*
X89835700Y-90233802D01*
X89673802Y-90395700D01*
X89670645Y-90400208D01*
X89670643Y-90400211D01*
X89619178Y-90473711D01*
X89542477Y-90583251D01*
X89540154Y-90588233D01*
X89540151Y-90588238D01*
X89524195Y-90622457D01*
X89477278Y-90675742D01*
X89409001Y-90695203D01*
X89341041Y-90674661D01*
X89295805Y-90622457D01*
X89279849Y-90588238D01*
X89279846Y-90588233D01*
X89277523Y-90583251D01*
X89200822Y-90473711D01*
X89149357Y-90400211D01*
X89149355Y-90400208D01*
X89146198Y-90395700D01*
X88984300Y-90233802D01*
X88979792Y-90230645D01*
X88979789Y-90230643D01*
X88862796Y-90148724D01*
X88796749Y-90102477D01*
X88791767Y-90100154D01*
X88791762Y-90100151D01*
X88594225Y-90008039D01*
X88594224Y-90008039D01*
X88589243Y-90005716D01*
X88583935Y-90004294D01*
X88583933Y-90004293D01*
X88373402Y-89947881D01*
X88373400Y-89947881D01*
X88368087Y-89946457D01*
X88140000Y-89926502D01*
X87911913Y-89946457D01*
X87906600Y-89947881D01*
X87906598Y-89947881D01*
X87696067Y-90004293D01*
X87696065Y-90004294D01*
X87690757Y-90005716D01*
X87685776Y-90008039D01*
X87685775Y-90008039D01*
X87488238Y-90100151D01*
X87488233Y-90100154D01*
X87483251Y-90102477D01*
X87417204Y-90148724D01*
X87300211Y-90230643D01*
X87300208Y-90230645D01*
X87295700Y-90233802D01*
X87133802Y-90395700D01*
X87130645Y-90400208D01*
X87130643Y-90400211D01*
X87079178Y-90473711D01*
X87002477Y-90583251D01*
X87000154Y-90588233D01*
X87000151Y-90588238D01*
X86984195Y-90622457D01*
X86937278Y-90675742D01*
X86869001Y-90695203D01*
X86801041Y-90674661D01*
X86755805Y-90622457D01*
X86739849Y-90588238D01*
X86739846Y-90588233D01*
X86737523Y-90583251D01*
X86660822Y-90473711D01*
X86609357Y-90400211D01*
X86609355Y-90400208D01*
X86606198Y-90395700D01*
X86444300Y-90233802D01*
X86439792Y-90230645D01*
X86439789Y-90230643D01*
X86322796Y-90148724D01*
X86256749Y-90102477D01*
X86251767Y-90100154D01*
X86251762Y-90100151D01*
X86054225Y-90008039D01*
X86054224Y-90008039D01*
X86049243Y-90005716D01*
X86043935Y-90004294D01*
X86043933Y-90004293D01*
X85833402Y-89947881D01*
X85833400Y-89947881D01*
X85828087Y-89946457D01*
X85600000Y-89926502D01*
X85371913Y-89946457D01*
X85366600Y-89947881D01*
X85366598Y-89947881D01*
X85156067Y-90004293D01*
X85156065Y-90004294D01*
X85150757Y-90005716D01*
X85145776Y-90008039D01*
X85145775Y-90008039D01*
X84948238Y-90100151D01*
X84948233Y-90100154D01*
X84943251Y-90102477D01*
X84877204Y-90148724D01*
X84760211Y-90230643D01*
X84760208Y-90230645D01*
X84755700Y-90233802D01*
X84593802Y-90395700D01*
X84590645Y-90400208D01*
X84590643Y-90400211D01*
X84539178Y-90473711D01*
X84462477Y-90583251D01*
X84460154Y-90588233D01*
X84460151Y-90588238D01*
X84444195Y-90622457D01*
X84397278Y-90675742D01*
X84329001Y-90695203D01*
X84261041Y-90674661D01*
X84215805Y-90622457D01*
X84199849Y-90588238D01*
X84199846Y-90588233D01*
X84197523Y-90583251D01*
X84120822Y-90473711D01*
X84069357Y-90400211D01*
X84069355Y-90400208D01*
X84066198Y-90395700D01*
X83904300Y-90233802D01*
X83899792Y-90230645D01*
X83899789Y-90230643D01*
X83782796Y-90148724D01*
X83716749Y-90102477D01*
X83711767Y-90100154D01*
X83711762Y-90100151D01*
X83514225Y-90008039D01*
X83514224Y-90008039D01*
X83509243Y-90005716D01*
X83503935Y-90004294D01*
X83503933Y-90004293D01*
X83293402Y-89947881D01*
X83293400Y-89947881D01*
X83288087Y-89946457D01*
X83060000Y-89926502D01*
X82831913Y-89946457D01*
X82826600Y-89947881D01*
X82826598Y-89947881D01*
X82616067Y-90004293D01*
X82616065Y-90004294D01*
X82610757Y-90005716D01*
X82605776Y-90008039D01*
X82605775Y-90008039D01*
X82408238Y-90100151D01*
X82408233Y-90100154D01*
X82403251Y-90102477D01*
X82337204Y-90148724D01*
X82220211Y-90230643D01*
X82220208Y-90230645D01*
X82215700Y-90233802D01*
X82053802Y-90395700D01*
X82050645Y-90400208D01*
X82050643Y-90400211D01*
X81999178Y-90473711D01*
X81922477Y-90583251D01*
X81920154Y-90588233D01*
X81920151Y-90588238D01*
X81904195Y-90622457D01*
X81857278Y-90675742D01*
X81789001Y-90695203D01*
X81721041Y-90674661D01*
X81675805Y-90622457D01*
X81659849Y-90588238D01*
X81659846Y-90588233D01*
X81657523Y-90583251D01*
X81580822Y-90473711D01*
X81529357Y-90400211D01*
X81529355Y-90400208D01*
X81526198Y-90395700D01*
X81364300Y-90233802D01*
X81359792Y-90230645D01*
X81359789Y-90230643D01*
X81242796Y-90148724D01*
X81176749Y-90102477D01*
X81171767Y-90100154D01*
X81171762Y-90100151D01*
X80974225Y-90008039D01*
X80974224Y-90008039D01*
X80969243Y-90005716D01*
X80963935Y-90004294D01*
X80963933Y-90004293D01*
X80753402Y-89947881D01*
X80753400Y-89947881D01*
X80748087Y-89946457D01*
X80520000Y-89926502D01*
X80291913Y-89946457D01*
X80286600Y-89947881D01*
X80286598Y-89947881D01*
X80076067Y-90004293D01*
X80076065Y-90004294D01*
X80070757Y-90005716D01*
X80065776Y-90008039D01*
X80065775Y-90008039D01*
X79868238Y-90100151D01*
X79868233Y-90100154D01*
X79863251Y-90102477D01*
X79797204Y-90148724D01*
X79680211Y-90230643D01*
X79680208Y-90230645D01*
X79675700Y-90233802D01*
X79513802Y-90395700D01*
X79510645Y-90400208D01*
X79510643Y-90400211D01*
X79459178Y-90473711D01*
X79382477Y-90583251D01*
X79380154Y-90588233D01*
X79380151Y-90588238D01*
X79364195Y-90622457D01*
X79317278Y-90675742D01*
X79249001Y-90695203D01*
X79181041Y-90674661D01*
X79135805Y-90622457D01*
X79119849Y-90588238D01*
X79119846Y-90588233D01*
X79117523Y-90583251D01*
X79040822Y-90473711D01*
X78989357Y-90400211D01*
X78989355Y-90400208D01*
X78986198Y-90395700D01*
X78824300Y-90233802D01*
X78819792Y-90230645D01*
X78819789Y-90230643D01*
X78702796Y-90148724D01*
X78636749Y-90102477D01*
X78631767Y-90100154D01*
X78631762Y-90100151D01*
X78434225Y-90008039D01*
X78434224Y-90008039D01*
X78429243Y-90005716D01*
X78423935Y-90004294D01*
X78423933Y-90004293D01*
X78213402Y-89947881D01*
X78213400Y-89947881D01*
X78208087Y-89946457D01*
X77980000Y-89926502D01*
X77751913Y-89946457D01*
X77746600Y-89947881D01*
X77746598Y-89947881D01*
X77536067Y-90004293D01*
X77536065Y-90004294D01*
X77530757Y-90005716D01*
X77525776Y-90008039D01*
X77525775Y-90008039D01*
X77328238Y-90100151D01*
X77328233Y-90100154D01*
X77323251Y-90102477D01*
X77257204Y-90148724D01*
X77140211Y-90230643D01*
X77140208Y-90230645D01*
X77135700Y-90233802D01*
X76973802Y-90395700D01*
X76970645Y-90400208D01*
X76970643Y-90400211D01*
X76919178Y-90473711D01*
X76842477Y-90583251D01*
X76840154Y-90588233D01*
X76840151Y-90588238D01*
X76824195Y-90622457D01*
X76777278Y-90675742D01*
X76709001Y-90695203D01*
X76641041Y-90674661D01*
X76595805Y-90622457D01*
X76579849Y-90588238D01*
X76579846Y-90588233D01*
X76577523Y-90583251D01*
X76500822Y-90473711D01*
X76449357Y-90400211D01*
X76449355Y-90400208D01*
X76446198Y-90395700D01*
X76284300Y-90233802D01*
X76279792Y-90230645D01*
X76279789Y-90230643D01*
X76162796Y-90148724D01*
X76096749Y-90102477D01*
X76091767Y-90100154D01*
X76091762Y-90100151D01*
X75894225Y-90008039D01*
X75894224Y-90008039D01*
X75889243Y-90005716D01*
X75883935Y-90004294D01*
X75883933Y-90004293D01*
X75673402Y-89947881D01*
X75673400Y-89947881D01*
X75668087Y-89946457D01*
X75440000Y-89926502D01*
X75211913Y-89946457D01*
X75206600Y-89947881D01*
X75206598Y-89947881D01*
X74996067Y-90004293D01*
X74996065Y-90004294D01*
X74990757Y-90005716D01*
X74985776Y-90008039D01*
X74985775Y-90008039D01*
X74788238Y-90100151D01*
X74788233Y-90100154D01*
X74783251Y-90102477D01*
X74717204Y-90148724D01*
X74600211Y-90230643D01*
X74600208Y-90230645D01*
X74595700Y-90233802D01*
X74433802Y-90395700D01*
X74430645Y-90400208D01*
X74430643Y-90400211D01*
X74379178Y-90473711D01*
X74302477Y-90583251D01*
X74300154Y-90588233D01*
X74300151Y-90588238D01*
X74284195Y-90622457D01*
X74205716Y-90790757D01*
X74204294Y-90796065D01*
X74204293Y-90796067D01*
X74179127Y-90889989D01*
X74146457Y-91011913D01*
X74126502Y-91240000D01*
X74146457Y-91468087D01*
X74205716Y-91689243D01*
X74208039Y-91694224D01*
X74208039Y-91694225D01*
X74300151Y-91891762D01*
X74300154Y-91891767D01*
X74302477Y-91896749D01*
X74348702Y-91962765D01*
X74402083Y-92039000D01*
X74433802Y-92084300D01*
X74595700Y-92246198D01*
X74600208Y-92249355D01*
X74600211Y-92249357D01*
X74626726Y-92267923D01*
X74783251Y-92377523D01*
X74788233Y-92379846D01*
X74788238Y-92379849D01*
X74984765Y-92471490D01*
X74990757Y-92474284D01*
X74996065Y-92475706D01*
X74996067Y-92475707D01*
X75206598Y-92532119D01*
X75206600Y-92532119D01*
X75211913Y-92533543D01*
X75440000Y-92553498D01*
X75668087Y-92533543D01*
X75673400Y-92532119D01*
X75673402Y-92532119D01*
X75883933Y-92475707D01*
X75883935Y-92475706D01*
X75889243Y-92474284D01*
X75895235Y-92471490D01*
X76091762Y-92379849D01*
X76091767Y-92379846D01*
X76096749Y-92377523D01*
X76253274Y-92267923D01*
X76279789Y-92249357D01*
X76279792Y-92249355D01*
X76284300Y-92246198D01*
X76446198Y-92084300D01*
X76477918Y-92039000D01*
X76531298Y-91962765D01*
X76577523Y-91896749D01*
X76579846Y-91891767D01*
X76579849Y-91891762D01*
X76595805Y-91857543D01*
X76642722Y-91804258D01*
X76710999Y-91784797D01*
X76778959Y-91805339D01*
X76824195Y-91857543D01*
X76840151Y-91891762D01*
X76840154Y-91891767D01*
X76842477Y-91896749D01*
X76888702Y-91962765D01*
X76942083Y-92039000D01*
X76973802Y-92084300D01*
X77135700Y-92246198D01*
X77140208Y-92249355D01*
X77140211Y-92249357D01*
X77166726Y-92267923D01*
X77323251Y-92377523D01*
X77328233Y-92379846D01*
X77328238Y-92379849D01*
X77524765Y-92471490D01*
X77530757Y-92474284D01*
X77536065Y-92475706D01*
X77536067Y-92475707D01*
X77746598Y-92532119D01*
X77746600Y-92532119D01*
X77751913Y-92533543D01*
X77980000Y-92553498D01*
X78208087Y-92533543D01*
X78213400Y-92532119D01*
X78213402Y-92532119D01*
X78423933Y-92475707D01*
X78423935Y-92475706D01*
X78429243Y-92474284D01*
X78435235Y-92471490D01*
X78631762Y-92379849D01*
X78631767Y-92379846D01*
X78636749Y-92377523D01*
X78793274Y-92267923D01*
X78819789Y-92249357D01*
X78819792Y-92249355D01*
X78824300Y-92246198D01*
X78986198Y-92084300D01*
X79017918Y-92039000D01*
X79071298Y-91962765D01*
X79117523Y-91896749D01*
X79119846Y-91891767D01*
X79119849Y-91891762D01*
X79135805Y-91857543D01*
X79182722Y-91804258D01*
X79250999Y-91784797D01*
X79318959Y-91805339D01*
X79364195Y-91857543D01*
X79380151Y-91891762D01*
X79380154Y-91891767D01*
X79382477Y-91896749D01*
X79428702Y-91962765D01*
X79482083Y-92039000D01*
X79513802Y-92084300D01*
X79675700Y-92246198D01*
X79680208Y-92249355D01*
X79680211Y-92249357D01*
X79706726Y-92267923D01*
X79863251Y-92377523D01*
X79868233Y-92379846D01*
X79868238Y-92379849D01*
X80064765Y-92471490D01*
X80070757Y-92474284D01*
X80076065Y-92475706D01*
X80076067Y-92475707D01*
X80286598Y-92532119D01*
X80286600Y-92532119D01*
X80291913Y-92533543D01*
X80520000Y-92553498D01*
X80748087Y-92533543D01*
X80753400Y-92532119D01*
X80753402Y-92532119D01*
X80963933Y-92475707D01*
X80963935Y-92475706D01*
X80969243Y-92474284D01*
X80975235Y-92471490D01*
X81171762Y-92379849D01*
X81171767Y-92379846D01*
X81176749Y-92377523D01*
X81333274Y-92267923D01*
X81359789Y-92249357D01*
X81359792Y-92249355D01*
X81364300Y-92246198D01*
X81526198Y-92084300D01*
X81557918Y-92039000D01*
X81611298Y-91962765D01*
X81657523Y-91896749D01*
X81659846Y-91891767D01*
X81659849Y-91891762D01*
X81675805Y-91857543D01*
X81722722Y-91804258D01*
X81790999Y-91784797D01*
X81858959Y-91805339D01*
X81904195Y-91857543D01*
X81920151Y-91891762D01*
X81920154Y-91891767D01*
X81922477Y-91896749D01*
X81968702Y-91962765D01*
X82022083Y-92039000D01*
X82053802Y-92084300D01*
X82215700Y-92246198D01*
X82220208Y-92249355D01*
X82220211Y-92249357D01*
X82246726Y-92267923D01*
X82403251Y-92377523D01*
X82408233Y-92379846D01*
X82408238Y-92379849D01*
X82604765Y-92471490D01*
X82610757Y-92474284D01*
X82616065Y-92475706D01*
X82616067Y-92475707D01*
X82826598Y-92532119D01*
X82826600Y-92532119D01*
X82831913Y-92533543D01*
X83060000Y-92553498D01*
X83288087Y-92533543D01*
X83293400Y-92532119D01*
X83293402Y-92532119D01*
X83503933Y-92475707D01*
X83503935Y-92475706D01*
X83509243Y-92474284D01*
X83515235Y-92471490D01*
X83711762Y-92379849D01*
X83711767Y-92379846D01*
X83716749Y-92377523D01*
X83873274Y-92267923D01*
X83899789Y-92249357D01*
X83899792Y-92249355D01*
X83904300Y-92246198D01*
X84066198Y-92084300D01*
X84097918Y-92039000D01*
X84151298Y-91962765D01*
X84197523Y-91896749D01*
X84199846Y-91891767D01*
X84199849Y-91891762D01*
X84215805Y-91857543D01*
X84262722Y-91804258D01*
X84330999Y-91784797D01*
X84398959Y-91805339D01*
X84444195Y-91857543D01*
X84460151Y-91891762D01*
X84460154Y-91891767D01*
X84462477Y-91896749D01*
X84508702Y-91962765D01*
X84562083Y-92039000D01*
X84593802Y-92084300D01*
X84755700Y-92246198D01*
X84760208Y-92249355D01*
X84760211Y-92249357D01*
X84786726Y-92267923D01*
X84943251Y-92377523D01*
X84948233Y-92379846D01*
X84948238Y-92379849D01*
X85144765Y-92471490D01*
X85150757Y-92474284D01*
X85156065Y-92475706D01*
X85156067Y-92475707D01*
X85366598Y-92532119D01*
X85366600Y-92532119D01*
X85371913Y-92533543D01*
X85600000Y-92553498D01*
X85828087Y-92533543D01*
X85833400Y-92532119D01*
X85833402Y-92532119D01*
X86043933Y-92475707D01*
X86043935Y-92475706D01*
X86049243Y-92474284D01*
X86055235Y-92471490D01*
X86251762Y-92379849D01*
X86251767Y-92379846D01*
X86256749Y-92377523D01*
X86413274Y-92267923D01*
X86439789Y-92249357D01*
X86439792Y-92249355D01*
X86444300Y-92246198D01*
X86606198Y-92084300D01*
X86637918Y-92039000D01*
X86691298Y-91962765D01*
X86737523Y-91896749D01*
X86739846Y-91891767D01*
X86739849Y-91891762D01*
X86755805Y-91857543D01*
X86802722Y-91804258D01*
X86870999Y-91784797D01*
X86938959Y-91805339D01*
X86984195Y-91857543D01*
X87000151Y-91891762D01*
X87000154Y-91891767D01*
X87002477Y-91896749D01*
X87048702Y-91962765D01*
X87102083Y-92039000D01*
X87133802Y-92084300D01*
X87295700Y-92246198D01*
X87300208Y-92249355D01*
X87300211Y-92249357D01*
X87326726Y-92267923D01*
X87422772Y-92335175D01*
X87467099Y-92390631D01*
X87476500Y-92438387D01*
X87476500Y-99262651D01*
X87476208Y-99271221D01*
X87473898Y-99305109D01*
X87472543Y-99324980D01*
X87482798Y-99383742D01*
X87483758Y-99390246D01*
X87487868Y-99424206D01*
X87490920Y-99449429D01*
X87493603Y-99456529D01*
X87495259Y-99463272D01*
X87496841Y-99469052D01*
X87498849Y-99475704D01*
X87500154Y-99483181D01*
X87503203Y-99490126D01*
X87503205Y-99490134D01*
X87524115Y-99537768D01*
X87526607Y-99543874D01*
X87547685Y-99599655D01*
X87551987Y-99605914D01*
X87555204Y-99612068D01*
X87558103Y-99617277D01*
X87561651Y-99623277D01*
X87564703Y-99630229D01*
X87569326Y-99636253D01*
X87569329Y-99636259D01*
X87600994Y-99677525D01*
X87604862Y-99682848D01*
X87638646Y-99732003D01*
X87644316Y-99737055D01*
X87644317Y-99737056D01*
X87682047Y-99770672D01*
X87687323Y-99775653D01*
X89679595Y-101767925D01*
X89713621Y-101830237D01*
X89716500Y-101857020D01*
X89716500Y-102210500D01*
X89696498Y-102278621D01*
X89642842Y-102325114D01*
X89590500Y-102336500D01*
X87484500Y-102336500D01*
X87416379Y-102316498D01*
X87369886Y-102262842D01*
X87358500Y-102210500D01*
X87358500Y-102101866D01*
X87351745Y-102039684D01*
X87300615Y-101903295D01*
X87213261Y-101786739D01*
X87096705Y-101699385D01*
X86960316Y-101648255D01*
X86898134Y-101641500D01*
X85101866Y-101641500D01*
X85039684Y-101648255D01*
X84903295Y-101699385D01*
X84786739Y-101786739D01*
X84699385Y-101903295D01*
X84696233Y-101911703D01*
X84654919Y-102021907D01*
X84612277Y-102078671D01*
X84545716Y-102103371D01*
X84476367Y-102088163D01*
X84443743Y-102062476D01*
X84393151Y-102006875D01*
X84393142Y-102006866D01*
X84389670Y-102003051D01*
X84385619Y-101999852D01*
X84385615Y-101999848D01*
X84218414Y-101867800D01*
X84218410Y-101867798D01*
X84214359Y-101864598D01*
X84200632Y-101857020D01*
X84106089Y-101804830D01*
X84018789Y-101756638D01*
X84013920Y-101754914D01*
X84013916Y-101754912D01*
X83813087Y-101683795D01*
X83813083Y-101683794D01*
X83808212Y-101682069D01*
X83803119Y-101681162D01*
X83803116Y-101681161D01*
X83593373Y-101643800D01*
X83593367Y-101643799D01*
X83588284Y-101642894D01*
X83514452Y-101641992D01*
X83370081Y-101640228D01*
X83370079Y-101640228D01*
X83364911Y-101640165D01*
X83144091Y-101673955D01*
X82931756Y-101743357D01*
X82901994Y-101758850D01*
X82740669Y-101842831D01*
X82733607Y-101846507D01*
X82729474Y-101849610D01*
X82729471Y-101849612D01*
X82561282Y-101975892D01*
X82554965Y-101980635D01*
X82516083Y-102021323D01*
X82461280Y-102078671D01*
X82400629Y-102142138D01*
X82397715Y-102146410D01*
X82397714Y-102146411D01*
X82328729Y-102247540D01*
X82274743Y-102326680D01*
X82251210Y-102377378D01*
X82186633Y-102516498D01*
X82180688Y-102529305D01*
X82120989Y-102744570D01*
X82097251Y-102966695D01*
X82097548Y-102971848D01*
X82097548Y-102971851D01*
X82105476Y-103109353D01*
X82110110Y-103189715D01*
X82111247Y-103194761D01*
X82111248Y-103194767D01*
X82127435Y-103266590D01*
X82159222Y-103407639D01*
X82210704Y-103534424D01*
X82234211Y-103592315D01*
X82243266Y-103614616D01*
X82273222Y-103663500D01*
X82350435Y-103789500D01*
X82359987Y-103805088D01*
X82506250Y-103973938D01*
X82678126Y-104116632D01*
X82871000Y-104229338D01*
X82875825Y-104231180D01*
X82875826Y-104231181D01*
X82948612Y-104258975D01*
X83079692Y-104309030D01*
X83084760Y-104310061D01*
X83084763Y-104310062D01*
X83152239Y-104323790D01*
X83298597Y-104353567D01*
X83303772Y-104353757D01*
X83303774Y-104353757D01*
X83516673Y-104361564D01*
X83516677Y-104361564D01*
X83521837Y-104361753D01*
X83526957Y-104361097D01*
X83526959Y-104361097D01*
X83738288Y-104334025D01*
X83738289Y-104334025D01*
X83743416Y-104333368D01*
X83748370Y-104331882D01*
X83748378Y-104331880D01*
X83757196Y-104329235D01*
X83828191Y-104328819D01*
X83882496Y-104360826D01*
X85771491Y-106249822D01*
X85777331Y-106256072D01*
X85800536Y-106282673D01*
X85830243Y-106347152D01*
X85820374Y-106417460D01*
X85774060Y-106471270D01*
X85705586Y-106491500D01*
X68634500Y-106491500D01*
X68566379Y-106471498D01*
X68519886Y-106417842D01*
X68508500Y-106365500D01*
X68508500Y-104516381D01*
X69849160Y-104516381D01*
X69849237Y-104517470D01*
X69851698Y-104521206D01*
X70125632Y-104731404D01*
X70131262Y-104735259D01*
X70431591Y-104917862D01*
X70437593Y-104921080D01*
X70755897Y-105070184D01*
X70762202Y-105072732D01*
X71094743Y-105186587D01*
X71101313Y-105188446D01*
X71444183Y-105265714D01*
X71450912Y-105266853D01*
X71800143Y-105306643D01*
X71806933Y-105307046D01*
X72158419Y-105308886D01*
X72165220Y-105308554D01*
X72514853Y-105272423D01*
X72521581Y-105271357D01*
X72865274Y-105197676D01*
X72871822Y-105195897D01*
X73205549Y-105085527D01*
X73211891Y-105083041D01*
X73531718Y-104937288D01*
X73537777Y-104934121D01*
X73839995Y-104754676D01*
X73845659Y-104750884D01*
X74126732Y-104539849D01*
X74131958Y-104535464D01*
X74141613Y-104526428D01*
X74149682Y-104512750D01*
X74149654Y-104512024D01*
X74144512Y-104503723D01*
X72012810Y-102372020D01*
X71998869Y-102364408D01*
X71997034Y-102364539D01*
X71990420Y-102368790D01*
X69856774Y-104502437D01*
X69849160Y-104516381D01*
X68508500Y-104516381D01*
X68508500Y-102701007D01*
X68528502Y-102632886D01*
X68582158Y-102586393D01*
X68652432Y-102576289D01*
X68717012Y-102605783D01*
X68755396Y-102665509D01*
X68758914Y-102681079D01*
X68761420Y-102696723D01*
X68762859Y-102703378D01*
X68855608Y-103042410D01*
X68857757Y-103048871D01*
X68986581Y-103375912D01*
X68989412Y-103382095D01*
X69152803Y-103693310D01*
X69156286Y-103699152D01*
X69352330Y-103990896D01*
X69356433Y-103996340D01*
X69476425Y-104138836D01*
X69489164Y-104147279D01*
X69499608Y-104141181D01*
X71627980Y-102012810D01*
X71634357Y-102001131D01*
X72364408Y-102001131D01*
X72364539Y-102002966D01*
X72368790Y-102009580D01*
X74499009Y-104139798D01*
X74512605Y-104147223D01*
X74522218Y-104140522D01*
X74622518Y-104023912D01*
X74626676Y-104018514D01*
X74825762Y-103728840D01*
X74829310Y-103723029D01*
X74995942Y-103413559D01*
X74998849Y-103407381D01*
X75131090Y-103081713D01*
X75133304Y-103075283D01*
X75229598Y-102737237D01*
X75231105Y-102730607D01*
X75290332Y-102384118D01*
X75291112Y-102377378D01*
X75312668Y-102024925D01*
X75312784Y-102021323D01*
X75312853Y-102001819D01*
X75312761Y-101998194D01*
X75293666Y-101645615D01*
X75292931Y-101638849D01*
X75236130Y-101291985D01*
X75234663Y-101285313D01*
X75140736Y-100946627D01*
X75138562Y-100940163D01*
X75008598Y-100613578D01*
X75005742Y-100607398D01*
X74841269Y-100296763D01*
X74837769Y-100290937D01*
X74640697Y-99999862D01*
X74636590Y-99994453D01*
X74523565Y-99861179D01*
X74510740Y-99852743D01*
X74500416Y-99858795D01*
X72372020Y-101987190D01*
X72364408Y-102001131D01*
X71634357Y-102001131D01*
X71635592Y-101998869D01*
X71635461Y-101997034D01*
X71631210Y-101990420D01*
X69500992Y-99860203D01*
X69487455Y-99852811D01*
X69477753Y-99859599D01*
X69370430Y-99985257D01*
X69366296Y-99990664D01*
X69168215Y-100281041D01*
X69164697Y-100286851D01*
X68999134Y-100596922D01*
X68996259Y-100603087D01*
X68865155Y-100929218D01*
X68862962Y-100935658D01*
X68767846Y-101274044D01*
X68766363Y-101280679D01*
X68758772Y-101326043D01*
X68727801Y-101389928D01*
X68667208Y-101426928D01*
X68596230Y-101425295D01*
X68537403Y-101385547D01*
X68509403Y-101320305D01*
X68508500Y-101305247D01*
X68508500Y-99486862D01*
X69849950Y-99486862D01*
X69849986Y-99487704D01*
X69855037Y-99495826D01*
X71987190Y-101627980D01*
X72001131Y-101635592D01*
X72002966Y-101635461D01*
X72009580Y-101631210D01*
X74142798Y-99497991D01*
X74150412Y-99484047D01*
X74150344Y-99483089D01*
X74145836Y-99476272D01*
X74144418Y-99475065D01*
X73864813Y-99262064D01*
X73859187Y-99258240D01*
X73558214Y-99076681D01*
X73552202Y-99073484D01*
X73233370Y-98925487D01*
X73227070Y-98922967D01*
X72894129Y-98810273D01*
X72887551Y-98808437D01*
X72544417Y-98732367D01*
X72537678Y-98731251D01*
X72188310Y-98692680D01*
X72181529Y-98692301D01*
X71830015Y-98691687D01*
X71823242Y-98692042D01*
X71473720Y-98729395D01*
X71467010Y-98730482D01*
X71123586Y-98805361D01*
X71117011Y-98807172D01*
X70783683Y-98918702D01*
X70777361Y-98921205D01*
X70458034Y-99068079D01*
X70451991Y-99071265D01*
X70150401Y-99251763D01*
X70144755Y-99255571D01*
X69864408Y-99467596D01*
X69859211Y-99471987D01*
X69857972Y-99473155D01*
X69849950Y-99486862D01*
X68508500Y-99486862D01*
X68508500Y-56701007D01*
X68528502Y-56632886D01*
X68582158Y-56586393D01*
X68652432Y-56576289D01*
X68717012Y-56605783D01*
X68755396Y-56665509D01*
X68758914Y-56681079D01*
X68761420Y-56696723D01*
X68762859Y-56703378D01*
X68855608Y-57042410D01*
X68857757Y-57048871D01*
X68986581Y-57375912D01*
X68989412Y-57382095D01*
X69152803Y-57693310D01*
X69156286Y-57699152D01*
X69352330Y-57990896D01*
X69356433Y-57996340D01*
X69476425Y-58138836D01*
X69489164Y-58147279D01*
X69499608Y-58141181D01*
X71627980Y-56012810D01*
X71635592Y-55998869D01*
X71635461Y-55997034D01*
X71631210Y-55990420D01*
X69500992Y-53860203D01*
X69487455Y-53852811D01*
X69477753Y-53859599D01*
X69370430Y-53985257D01*
X69366296Y-53990664D01*
X69168215Y-54281041D01*
X69164697Y-54286851D01*
X68999134Y-54596922D01*
X68996259Y-54603087D01*
X68865155Y-54929218D01*
X68862962Y-54935658D01*
X68767846Y-55274044D01*
X68766363Y-55280679D01*
X68758772Y-55326043D01*
X68727801Y-55389928D01*
X68667208Y-55426928D01*
X68596230Y-55425295D01*
X68537403Y-55385547D01*
X68509403Y-55320305D01*
X68508500Y-55305247D01*
X68508500Y-52634500D01*
X68528502Y-52566379D01*
X68582158Y-52519886D01*
X68634500Y-52508500D01*
X71315758Y-52508500D01*
X71383879Y-52528502D01*
G37*
%TD.AperFunction*%
%TA.AperFunction,Conductor*%
G36*
X97098959Y-76565339D02*
G01*
X97144195Y-76617543D01*
X97160151Y-76651762D01*
X97160154Y-76651767D01*
X97162477Y-76656749D01*
X97293802Y-76844300D01*
X97455700Y-77006198D01*
X97460208Y-77009355D01*
X97460211Y-77009357D01*
X97513550Y-77046705D01*
X97582772Y-77095175D01*
X97627099Y-77150631D01*
X97636500Y-77198387D01*
X97636500Y-77372651D01*
X97636208Y-77381221D01*
X97632543Y-77434980D01*
X97642798Y-77493742D01*
X97643756Y-77500234D01*
X97650920Y-77559429D01*
X97653603Y-77566529D01*
X97655259Y-77573272D01*
X97656841Y-77579052D01*
X97658849Y-77585704D01*
X97660154Y-77593181D01*
X97663203Y-77600126D01*
X97663205Y-77600134D01*
X97684115Y-77647768D01*
X97686607Y-77653874D01*
X97707685Y-77709655D01*
X97711987Y-77715914D01*
X97715204Y-77722068D01*
X97718103Y-77727277D01*
X97721651Y-77733277D01*
X97724703Y-77740229D01*
X97729326Y-77746253D01*
X97729329Y-77746259D01*
X97760994Y-77787525D01*
X97764862Y-77792848D01*
X97798646Y-77842003D01*
X97804316Y-77847055D01*
X97804317Y-77847056D01*
X97842047Y-77880672D01*
X97847323Y-77885653D01*
X100511484Y-80549814D01*
X100517337Y-80556079D01*
X100552771Y-80596698D01*
X100601556Y-80630984D01*
X100606841Y-80634910D01*
X100647786Y-80667015D01*
X100647792Y-80667019D01*
X100653765Y-80671702D01*
X100660685Y-80674826D01*
X100666599Y-80678408D01*
X100671836Y-80681395D01*
X100677944Y-80684670D01*
X100684160Y-80689039D01*
X100691236Y-80691798D01*
X100691242Y-80691801D01*
X100739707Y-80710696D01*
X100745762Y-80713241D01*
X100800129Y-80737789D01*
X100807594Y-80739173D01*
X100814213Y-80741247D01*
X100819963Y-80742885D01*
X100826704Y-80744615D01*
X100833782Y-80747375D01*
X100841318Y-80748367D01*
X100892888Y-80755156D01*
X100899405Y-80756188D01*
X100933331Y-80762476D01*
X100958033Y-80767054D01*
X100965613Y-80766617D01*
X100965614Y-80766617D01*
X101016048Y-80763709D01*
X101023301Y-80763500D01*
X104472980Y-80763500D01*
X104541101Y-80783502D01*
X104562075Y-80800405D01*
X117711484Y-93949814D01*
X117717337Y-93956079D01*
X117752771Y-93996698D01*
X117801556Y-94030984D01*
X117806841Y-94034910D01*
X117847786Y-94067015D01*
X117847792Y-94067019D01*
X117853765Y-94071702D01*
X117860685Y-94074826D01*
X117866599Y-94078408D01*
X117871836Y-94081395D01*
X117877944Y-94084670D01*
X117884160Y-94089039D01*
X117891236Y-94091798D01*
X117891242Y-94091801D01*
X117939707Y-94110696D01*
X117945762Y-94113241D01*
X118000129Y-94137789D01*
X118007594Y-94139173D01*
X118014213Y-94141247D01*
X118019963Y-94142885D01*
X118026704Y-94144615D01*
X118033782Y-94147375D01*
X118041318Y-94148367D01*
X118092888Y-94155156D01*
X118099405Y-94156188D01*
X118133331Y-94162476D01*
X118158033Y-94167054D01*
X118165613Y-94166617D01*
X118165614Y-94166617D01*
X118216048Y-94163709D01*
X118223301Y-94163500D01*
X143885480Y-94163500D01*
X143953601Y-94183502D01*
X143974575Y-94200405D01*
X146654595Y-96880425D01*
X146688621Y-96942737D01*
X146691500Y-96969520D01*
X146691500Y-97500400D01*
X146702474Y-97606166D01*
X146704655Y-97612702D01*
X146704655Y-97612704D01*
X146718813Y-97655140D01*
X146758450Y-97773946D01*
X146851522Y-97924348D01*
X146856704Y-97929521D01*
X146938463Y-98011138D01*
X146972542Y-98073421D01*
X146967539Y-98144241D01*
X146938618Y-98189329D01*
X146856261Y-98271829D01*
X146847249Y-98283240D01*
X146762184Y-98421243D01*
X146756037Y-98434424D01*
X146704862Y-98588710D01*
X146701995Y-98602086D01*
X146692328Y-98696438D01*
X146692000Y-98702855D01*
X146692000Y-98740385D01*
X146696475Y-98755624D01*
X146697865Y-98756829D01*
X146705548Y-98758500D01*
X149089884Y-98758500D01*
X149105123Y-98754025D01*
X149106328Y-98752635D01*
X149107999Y-98744952D01*
X149107999Y-98702905D01*
X149107662Y-98696386D01*
X149097743Y-98600794D01*
X149094851Y-98587400D01*
X149043412Y-98433216D01*
X149037239Y-98420038D01*
X148951937Y-98282193D01*
X148942901Y-98270792D01*
X148861538Y-98189570D01*
X148827459Y-98127287D01*
X148832462Y-98056467D01*
X148861383Y-98011380D01*
X148944130Y-97928488D01*
X148944134Y-97928483D01*
X148949305Y-97923303D01*
X148987995Y-97860537D01*
X149038275Y-97778968D01*
X149038276Y-97778966D01*
X149042115Y-97772738D01*
X149081235Y-97654794D01*
X149095632Y-97611389D01*
X149095632Y-97611387D01*
X149097797Y-97604861D01*
X149108500Y-97500400D01*
X149108500Y-96969520D01*
X149128502Y-96901399D01*
X149145405Y-96880425D01*
X151027926Y-94997905D01*
X151090238Y-94963879D01*
X151117021Y-94961000D01*
X152148134Y-94961000D01*
X152210316Y-94954245D01*
X152346705Y-94903115D01*
X152463261Y-94815761D01*
X152550615Y-94699205D01*
X152601745Y-94562816D01*
X152608500Y-94500634D01*
X152608500Y-92499366D01*
X152601745Y-92437184D01*
X152564836Y-92338729D01*
X152559653Y-92267923D01*
X152593574Y-92205554D01*
X152655829Y-92171424D01*
X152682818Y-92168500D01*
X153471915Y-92168500D01*
X153488360Y-92169578D01*
X153509189Y-92172320D01*
X153514788Y-92172056D01*
X153514790Y-92172056D01*
X153587223Y-92168640D01*
X153593158Y-92168500D01*
X153614735Y-92168500D01*
X153617521Y-92168251D01*
X153617529Y-92168251D01*
X153639601Y-92166281D01*
X153644865Y-92165922D01*
X153697653Y-92163432D01*
X153724675Y-92162158D01*
X153730134Y-92160908D01*
X153730139Y-92160907D01*
X153741132Y-92158389D01*
X153758063Y-92155708D01*
X153762174Y-92155341D01*
X153774872Y-92154208D01*
X153780284Y-92152727D01*
X153780292Y-92152726D01*
X153851941Y-92133125D01*
X153857059Y-92131839D01*
X153872029Y-92128410D01*
X153934957Y-92113998D01*
X153940114Y-92111798D01*
X153940121Y-92111796D01*
X153950483Y-92107376D01*
X153966670Y-92101739D01*
X153977537Y-92098766D01*
X153977544Y-92098763D01*
X153982952Y-92097284D01*
X153988010Y-92094872D01*
X153988014Y-92094870D01*
X154055080Y-92062881D01*
X154059879Y-92060714D01*
X154133386Y-92029360D01*
X154138074Y-92026281D01*
X154138077Y-92026279D01*
X154147494Y-92020093D01*
X154162428Y-92011678D01*
X154172594Y-92006829D01*
X154172595Y-92006828D01*
X154177663Y-92004411D01*
X154182218Y-92001138D01*
X154182228Y-92001132D01*
X154242544Y-91957790D01*
X154246894Y-91954800D01*
X154309832Y-91913458D01*
X154309836Y-91913455D01*
X154313692Y-91910922D01*
X154333460Y-91893309D01*
X154343755Y-91885062D01*
X154348292Y-91881802D01*
X154348293Y-91881802D01*
X154352851Y-91878526D01*
X154424248Y-91804850D01*
X154425637Y-91803440D01*
X155726405Y-90502672D01*
X155788717Y-90468646D01*
X155859532Y-90473711D01*
X155916368Y-90516258D01*
X155941179Y-90582778D01*
X155941500Y-90591767D01*
X155941500Y-96697734D01*
X155921498Y-96765855D01*
X155867842Y-96812348D01*
X155797568Y-96822452D01*
X155775833Y-96817327D01*
X155661389Y-96779368D01*
X155661387Y-96779368D01*
X155654861Y-96777203D01*
X155648025Y-96776503D01*
X155648022Y-96776502D01*
X155604969Y-96772091D01*
X155550400Y-96766500D01*
X154949600Y-96766500D01*
X154946354Y-96766837D01*
X154946350Y-96766837D01*
X154850692Y-96776762D01*
X154850688Y-96776763D01*
X154843834Y-96777474D01*
X154837298Y-96779655D01*
X154837296Y-96779655D01*
X154739304Y-96812348D01*
X154676054Y-96833450D01*
X154525652Y-96926522D01*
X154400695Y-97051697D01*
X154307885Y-97202262D01*
X154300437Y-97224717D01*
X154294888Y-97241446D01*
X154282032Y-97268733D01*
X154171849Y-97444379D01*
X154168866Y-97449135D01*
X154088403Y-97649293D01*
X154044656Y-97860537D01*
X154041500Y-97915275D01*
X154041500Y-100061915D01*
X154040422Y-100078360D01*
X154037680Y-100099189D01*
X154037944Y-100104788D01*
X154037944Y-100104790D01*
X154041360Y-100177223D01*
X154041500Y-100183158D01*
X154041500Y-100204735D01*
X154041749Y-100207521D01*
X154041749Y-100207529D01*
X154043719Y-100229601D01*
X154044078Y-100234865D01*
X154047842Y-100314675D01*
X154049092Y-100320134D01*
X154049093Y-100320139D01*
X154051611Y-100331132D01*
X154054292Y-100348063D01*
X154055792Y-100364872D01*
X154057273Y-100370284D01*
X154057274Y-100370292D01*
X154076875Y-100441941D01*
X154078161Y-100447059D01*
X154096002Y-100524957D01*
X154098202Y-100530114D01*
X154098204Y-100530121D01*
X154102624Y-100540483D01*
X154108261Y-100556670D01*
X154111234Y-100567537D01*
X154111237Y-100567544D01*
X154112716Y-100572952D01*
X154115128Y-100578010D01*
X154115130Y-100578014D01*
X154147119Y-100645080D01*
X154149286Y-100649879D01*
X154180640Y-100723386D01*
X154183719Y-100728074D01*
X154183721Y-100728077D01*
X154189907Y-100737494D01*
X154198322Y-100752428D01*
X154205589Y-100767663D01*
X154208862Y-100772218D01*
X154208868Y-100772228D01*
X154252210Y-100832544D01*
X154255200Y-100836894D01*
X154299078Y-100903692D01*
X154302145Y-100907134D01*
X154316691Y-100923460D01*
X154324938Y-100933755D01*
X154331474Y-100942851D01*
X154335504Y-100946756D01*
X154405150Y-101014248D01*
X154406560Y-101015637D01*
X155283171Y-101892248D01*
X155294038Y-101904639D01*
X155303415Y-101916860D01*
X155303419Y-101916864D01*
X155306831Y-101921311D01*
X155348909Y-101959599D01*
X155364628Y-101973902D01*
X155368924Y-101978001D01*
X155384165Y-101993242D01*
X155386318Y-101995043D01*
X155386320Y-101995044D01*
X155403322Y-102009260D01*
X155407289Y-102012721D01*
X155466389Y-102066497D01*
X155471144Y-102069480D01*
X155480693Y-102075471D01*
X155494553Y-102085541D01*
X155507505Y-102096370D01*
X155576961Y-102135987D01*
X155581428Y-102138661D01*
X155615593Y-102160093D01*
X155644384Y-102178154D01*
X155644387Y-102178155D01*
X155649135Y-102181134D01*
X155664795Y-102187430D01*
X155680223Y-102194888D01*
X155690016Y-102200474D01*
X155690022Y-102200477D01*
X155694891Y-102203254D01*
X155700179Y-102205127D01*
X155700180Y-102205127D01*
X155770229Y-102229932D01*
X155775130Y-102231784D01*
X155849293Y-102261597D01*
X155854783Y-102262734D01*
X155865830Y-102265022D01*
X155882333Y-102269630D01*
X155892959Y-102273393D01*
X155892963Y-102273394D01*
X155898244Y-102275264D01*
X155959538Y-102285301D01*
X155977083Y-102288174D01*
X155982274Y-102289136D01*
X156060537Y-102305344D01*
X156065148Y-102305610D01*
X156065149Y-102305610D01*
X156086966Y-102306868D01*
X156100071Y-102308315D01*
X156105305Y-102309172D01*
X156111134Y-102310126D01*
X156116748Y-102310038D01*
X156116750Y-102310038D01*
X156213635Y-102308516D01*
X156215614Y-102308500D01*
X158911915Y-102308500D01*
X158928360Y-102309578D01*
X158949189Y-102312320D01*
X158954788Y-102312056D01*
X158954790Y-102312056D01*
X159027223Y-102308640D01*
X159033158Y-102308500D01*
X159054735Y-102308500D01*
X159057521Y-102308251D01*
X159057529Y-102308251D01*
X159079601Y-102306281D01*
X159084865Y-102305922D01*
X159137653Y-102303432D01*
X159164675Y-102302158D01*
X159170134Y-102300908D01*
X159170139Y-102300907D01*
X159181132Y-102298389D01*
X159198063Y-102295708D01*
X159202174Y-102295341D01*
X159214872Y-102294208D01*
X159220284Y-102292727D01*
X159220292Y-102292726D01*
X159291941Y-102273125D01*
X159297059Y-102271839D01*
X159312029Y-102268410D01*
X159374957Y-102253998D01*
X159380114Y-102251798D01*
X159380121Y-102251796D01*
X159390483Y-102247376D01*
X159406670Y-102241739D01*
X159417537Y-102238766D01*
X159417544Y-102238763D01*
X159422952Y-102237284D01*
X159428010Y-102234872D01*
X159428014Y-102234870D01*
X159495080Y-102202881D01*
X159499879Y-102200714D01*
X159573386Y-102169360D01*
X159578074Y-102166281D01*
X159578077Y-102166279D01*
X159587494Y-102160093D01*
X159602428Y-102151678D01*
X159612594Y-102146829D01*
X159612595Y-102146828D01*
X159617663Y-102144411D01*
X159622218Y-102141138D01*
X159622228Y-102141132D01*
X159682544Y-102097790D01*
X159686894Y-102094800D01*
X159749832Y-102053458D01*
X159749836Y-102053455D01*
X159753692Y-102050922D01*
X159773460Y-102033309D01*
X159783755Y-102025062D01*
X159788292Y-102021802D01*
X159788293Y-102021802D01*
X159792851Y-102018526D01*
X159818719Y-101991832D01*
X170687333Y-101991832D01*
X170705117Y-102342893D01*
X170705827Y-102349649D01*
X170761420Y-102696723D01*
X170762859Y-102703378D01*
X170855608Y-103042410D01*
X170857757Y-103048871D01*
X170986581Y-103375912D01*
X170989412Y-103382095D01*
X171152803Y-103693310D01*
X171156286Y-103699152D01*
X171352330Y-103990896D01*
X171356433Y-103996340D01*
X171476425Y-104138836D01*
X171489164Y-104147279D01*
X171499608Y-104141181D01*
X173627980Y-102012810D01*
X173635592Y-101998869D01*
X173635461Y-101997034D01*
X173631210Y-101990420D01*
X171500992Y-99860203D01*
X171487455Y-99852811D01*
X171477753Y-99859599D01*
X171370430Y-99985257D01*
X171366296Y-99990664D01*
X171168215Y-100281041D01*
X171164697Y-100286851D01*
X170999134Y-100596922D01*
X170996259Y-100603087D01*
X170865155Y-100929218D01*
X170862962Y-100935658D01*
X170767846Y-101274044D01*
X170766363Y-101280679D01*
X170708350Y-101627354D01*
X170707591Y-101634126D01*
X170687357Y-101985037D01*
X170687333Y-101991832D01*
X159818719Y-101991832D01*
X159864248Y-101944850D01*
X159865637Y-101943440D01*
X162092248Y-99716829D01*
X162104639Y-99705962D01*
X162116860Y-99696585D01*
X162116864Y-99696581D01*
X162121311Y-99693169D01*
X162173902Y-99635372D01*
X162178001Y-99631076D01*
X162193242Y-99615835D01*
X162209260Y-99596678D01*
X162212731Y-99592699D01*
X162262721Y-99537761D01*
X162262722Y-99537760D01*
X162266497Y-99533611D01*
X162269480Y-99528856D01*
X162275471Y-99519307D01*
X162285541Y-99505447D01*
X162286767Y-99503981D01*
X162296370Y-99492495D01*
X162299583Y-99486862D01*
X171849950Y-99486862D01*
X171849986Y-99487704D01*
X171855037Y-99495826D01*
X173987190Y-101627980D01*
X174001131Y-101635592D01*
X174002966Y-101635461D01*
X174009580Y-101631210D01*
X176142798Y-99497991D01*
X176150412Y-99484047D01*
X176150344Y-99483089D01*
X176145836Y-99476272D01*
X176144418Y-99475065D01*
X175864813Y-99262064D01*
X175859187Y-99258240D01*
X175558214Y-99076681D01*
X175552202Y-99073484D01*
X175233370Y-98925487D01*
X175227070Y-98922967D01*
X174894129Y-98810273D01*
X174887551Y-98808437D01*
X174544417Y-98732367D01*
X174537678Y-98731251D01*
X174188310Y-98692680D01*
X174181529Y-98692301D01*
X173830015Y-98691687D01*
X173823242Y-98692042D01*
X173473720Y-98729395D01*
X173467010Y-98730482D01*
X173123586Y-98805361D01*
X173117011Y-98807172D01*
X172783683Y-98918702D01*
X172777361Y-98921205D01*
X172458034Y-99068079D01*
X172451991Y-99071265D01*
X172150401Y-99251763D01*
X172144755Y-99255571D01*
X171864408Y-99467596D01*
X171859211Y-99471987D01*
X171857972Y-99473155D01*
X171849950Y-99486862D01*
X162299583Y-99486862D01*
X162335967Y-99423075D01*
X162338658Y-99418578D01*
X162381134Y-99350865D01*
X162387431Y-99335201D01*
X162394890Y-99319771D01*
X162396240Y-99317404D01*
X162403253Y-99305109D01*
X162405124Y-99299826D01*
X162405127Y-99299819D01*
X162429931Y-99229773D01*
X162431786Y-99224865D01*
X162461597Y-99150707D01*
X162465020Y-99134176D01*
X162469629Y-99117669D01*
X162475264Y-99101757D01*
X162488176Y-99022909D01*
X162489138Y-99017720D01*
X162504407Y-98943989D01*
X162504408Y-98943985D01*
X162505344Y-98939463D01*
X162506868Y-98913034D01*
X162508315Y-98899929D01*
X162509218Y-98894411D01*
X162510126Y-98888866D01*
X162508516Y-98786364D01*
X162508500Y-98784386D01*
X162508500Y-97769754D01*
X162528502Y-97701633D01*
X162582158Y-97655140D01*
X162590270Y-97651772D01*
X162638297Y-97633767D01*
X162646705Y-97630615D01*
X162763261Y-97543261D01*
X162850615Y-97426705D01*
X162871772Y-97370270D01*
X162914414Y-97313505D01*
X162980976Y-97288806D01*
X162989754Y-97288500D01*
X167271915Y-97288500D01*
X167288360Y-97289578D01*
X167309189Y-97292320D01*
X167314788Y-97292056D01*
X167314790Y-97292056D01*
X167387223Y-97288640D01*
X167393158Y-97288500D01*
X167414735Y-97288500D01*
X167417521Y-97288251D01*
X167417529Y-97288251D01*
X167439601Y-97286281D01*
X167444865Y-97285922D01*
X167497653Y-97283432D01*
X167524675Y-97282158D01*
X167530134Y-97280908D01*
X167530139Y-97280907D01*
X167541132Y-97278389D01*
X167558063Y-97275708D01*
X167562174Y-97275341D01*
X167574872Y-97274208D01*
X167580284Y-97272727D01*
X167580292Y-97272726D01*
X167651941Y-97253125D01*
X167657059Y-97251839D01*
X167672029Y-97248410D01*
X167734957Y-97233998D01*
X167740114Y-97231798D01*
X167740121Y-97231796D01*
X167750483Y-97227376D01*
X167766670Y-97221739D01*
X167777537Y-97218766D01*
X167777544Y-97218763D01*
X167782952Y-97217284D01*
X167788010Y-97214872D01*
X167788014Y-97214870D01*
X167855080Y-97182881D01*
X167859879Y-97180714D01*
X167933386Y-97149360D01*
X167938074Y-97146281D01*
X167938077Y-97146279D01*
X167947494Y-97140093D01*
X167962428Y-97131678D01*
X167972594Y-97126829D01*
X167972595Y-97126828D01*
X167977663Y-97124411D01*
X167982218Y-97121138D01*
X167982228Y-97121132D01*
X168042544Y-97077790D01*
X168046894Y-97074800D01*
X168109832Y-97033458D01*
X168109836Y-97033455D01*
X168113692Y-97030922D01*
X168133460Y-97013309D01*
X168143755Y-97005062D01*
X168148292Y-97001802D01*
X168148293Y-97001802D01*
X168152851Y-96998526D01*
X168224248Y-96924850D01*
X168225637Y-96923440D01*
X170263672Y-94885405D01*
X170325984Y-94851379D01*
X170352767Y-94848500D01*
X172148134Y-94848500D01*
X172210316Y-94841745D01*
X172346705Y-94790615D01*
X172463261Y-94703261D01*
X172550615Y-94586705D01*
X172601745Y-94450316D01*
X172608500Y-94388134D01*
X172608500Y-94174500D01*
X172628502Y-94106379D01*
X172682158Y-94059886D01*
X172734500Y-94048500D01*
X173465500Y-94048500D01*
X173533621Y-94068502D01*
X173580114Y-94122158D01*
X173591500Y-94174500D01*
X173591500Y-94448134D01*
X173598255Y-94510316D01*
X173649385Y-94646705D01*
X173736739Y-94763261D01*
X173853295Y-94850615D01*
X173989684Y-94901745D01*
X174051866Y-94908500D01*
X177148134Y-94908500D01*
X177210316Y-94901745D01*
X177321271Y-94860150D01*
X177392077Y-94854967D01*
X177454446Y-94888888D01*
X177488576Y-94951143D01*
X177491500Y-94978132D01*
X177491500Y-101302313D01*
X177471498Y-101370434D01*
X177417842Y-101416927D01*
X177347568Y-101427031D01*
X177282988Y-101397537D01*
X177244604Y-101337811D01*
X177241156Y-101322675D01*
X177236130Y-101291985D01*
X177234663Y-101285313D01*
X177140736Y-100946627D01*
X177138562Y-100940163D01*
X177008598Y-100613578D01*
X177005742Y-100607398D01*
X176841269Y-100296763D01*
X176837769Y-100290937D01*
X176640697Y-99999862D01*
X176636590Y-99994453D01*
X176523565Y-99861179D01*
X176510740Y-99852743D01*
X176500416Y-99858795D01*
X174372020Y-101987190D01*
X174364408Y-102001131D01*
X174364539Y-102002966D01*
X174368790Y-102009580D01*
X176499009Y-104139798D01*
X176512605Y-104147223D01*
X176522218Y-104140522D01*
X176622518Y-104023912D01*
X176626676Y-104018514D01*
X176825762Y-103728840D01*
X176829310Y-103723029D01*
X176995942Y-103413559D01*
X176998849Y-103407381D01*
X177131090Y-103081713D01*
X177133304Y-103075283D01*
X177229598Y-102737237D01*
X177231105Y-102730607D01*
X177241301Y-102670958D01*
X177272495Y-102607182D01*
X177333217Y-102570394D01*
X177404189Y-102572275D01*
X177462877Y-102612227D01*
X177490649Y-102677567D01*
X177491500Y-102692188D01*
X177491500Y-106365500D01*
X177471498Y-106433621D01*
X177417842Y-106480114D01*
X177365500Y-106491500D01*
X98753607Y-106491500D01*
X98685486Y-106471498D01*
X98638993Y-106417842D01*
X98628889Y-106347568D01*
X98659531Y-106281681D01*
X98680672Y-106257953D01*
X98685653Y-106252677D01*
X100342926Y-104595405D01*
X100405238Y-104561379D01*
X100432021Y-104558500D01*
X101698134Y-104558500D01*
X101760316Y-104551745D01*
X101896705Y-104500615D01*
X102013261Y-104413261D01*
X102100615Y-104296705D01*
X102122799Y-104237529D01*
X102144598Y-104179382D01*
X102187240Y-104122618D01*
X102253802Y-104097918D01*
X102323150Y-104113126D01*
X102357817Y-104141114D01*
X102386250Y-104173938D01*
X102449840Y-104226731D01*
X102547257Y-104307608D01*
X102558126Y-104316632D01*
X102751000Y-104429338D01*
X102959692Y-104509030D01*
X102964760Y-104510061D01*
X102964763Y-104510062D01*
X103045205Y-104526428D01*
X103178597Y-104553567D01*
X103183772Y-104553757D01*
X103183774Y-104553757D01*
X103396673Y-104561564D01*
X103396677Y-104561564D01*
X103401837Y-104561753D01*
X103406957Y-104561097D01*
X103406959Y-104561097D01*
X103618288Y-104534025D01*
X103618289Y-104534025D01*
X103623416Y-104533368D01*
X103628366Y-104531883D01*
X103832429Y-104470661D01*
X103832434Y-104470659D01*
X103837384Y-104469174D01*
X104037994Y-104370896D01*
X104219860Y-104241173D01*
X104231737Y-104229338D01*
X104344837Y-104116632D01*
X104378096Y-104083489D01*
X104444631Y-103990896D01*
X104508453Y-103902077D01*
X104509640Y-103902930D01*
X104556960Y-103859362D01*
X104626897Y-103847145D01*
X104692338Y-103874678D01*
X104720166Y-103906511D01*
X104777694Y-104000388D01*
X104783777Y-104008699D01*
X104923213Y-104169667D01*
X104930580Y-104176883D01*
X105094434Y-104312916D01*
X105102881Y-104318831D01*
X105286756Y-104426279D01*
X105296042Y-104430729D01*
X105495001Y-104506703D01*
X105504899Y-104509579D01*
X105608250Y-104530606D01*
X105622299Y-104529410D01*
X105626000Y-104519065D01*
X105626000Y-104518517D01*
X106134000Y-104518517D01*
X106138064Y-104532359D01*
X106151478Y-104534393D01*
X106158184Y-104533534D01*
X106168262Y-104531392D01*
X106218296Y-104516381D01*
X171849160Y-104516381D01*
X171849237Y-104517470D01*
X171851698Y-104521206D01*
X172125632Y-104731404D01*
X172131262Y-104735259D01*
X172431591Y-104917862D01*
X172437593Y-104921080D01*
X172755897Y-105070184D01*
X172762202Y-105072732D01*
X173094743Y-105186587D01*
X173101313Y-105188446D01*
X173444183Y-105265714D01*
X173450912Y-105266853D01*
X173800143Y-105306643D01*
X173806933Y-105307046D01*
X174158419Y-105308886D01*
X174165220Y-105308554D01*
X174514853Y-105272423D01*
X174521581Y-105271357D01*
X174865274Y-105197676D01*
X174871822Y-105195897D01*
X175205549Y-105085527D01*
X175211891Y-105083041D01*
X175531718Y-104937288D01*
X175537777Y-104934121D01*
X175839995Y-104754676D01*
X175845659Y-104750884D01*
X176126732Y-104539849D01*
X176131958Y-104535464D01*
X176141613Y-104526428D01*
X176149682Y-104512750D01*
X176149654Y-104512024D01*
X176144512Y-104503723D01*
X174012810Y-102372020D01*
X173998869Y-102364408D01*
X173997034Y-102364539D01*
X173990420Y-102368790D01*
X171856774Y-104502437D01*
X171849160Y-104516381D01*
X106218296Y-104516381D01*
X106372255Y-104470191D01*
X106381842Y-104466433D01*
X106573095Y-104372739D01*
X106581945Y-104367464D01*
X106755328Y-104243792D01*
X106763200Y-104237139D01*
X106914052Y-104086812D01*
X106920730Y-104078965D01*
X107045003Y-103906020D01*
X107050313Y-103897183D01*
X107144670Y-103706267D01*
X107148469Y-103696672D01*
X107210377Y-103492910D01*
X107212555Y-103482837D01*
X107213986Y-103471962D01*
X107211775Y-103457778D01*
X107198617Y-103454000D01*
X106152115Y-103454000D01*
X106136876Y-103458475D01*
X106135671Y-103459865D01*
X106134000Y-103467548D01*
X106134000Y-104518517D01*
X105626000Y-104518517D01*
X105626000Y-102927885D01*
X106134000Y-102927885D01*
X106138475Y-102943124D01*
X106139865Y-102944329D01*
X106147548Y-102946000D01*
X107198344Y-102946000D01*
X107211875Y-102942027D01*
X107213180Y-102932947D01*
X107171214Y-102765875D01*
X107167894Y-102756124D01*
X107082972Y-102560814D01*
X107078105Y-102551739D01*
X106962426Y-102372926D01*
X106956136Y-102364757D01*
X106812806Y-102207240D01*
X106805273Y-102200215D01*
X106638139Y-102068222D01*
X106629552Y-102062517D01*
X106443117Y-101959599D01*
X106433705Y-101955369D01*
X106232959Y-101884280D01*
X106222988Y-101881646D01*
X106151837Y-101868972D01*
X106138540Y-101870432D01*
X106134000Y-101884989D01*
X106134000Y-102927885D01*
X105626000Y-102927885D01*
X105626000Y-101883102D01*
X105622082Y-101869758D01*
X105607806Y-101867771D01*
X105569324Y-101873660D01*
X105559288Y-101876051D01*
X105356868Y-101942212D01*
X105347359Y-101946209D01*
X105158463Y-102044542D01*
X105149738Y-102050036D01*
X104979433Y-102177905D01*
X104971726Y-102184748D01*
X104824590Y-102338717D01*
X104818109Y-102346722D01*
X104713498Y-102500074D01*
X104658587Y-102545076D01*
X104588062Y-102553247D01*
X104524315Y-102521993D01*
X104503618Y-102497509D01*
X104422822Y-102372617D01*
X104422820Y-102372614D01*
X104420014Y-102368277D01*
X104269670Y-102203051D01*
X104265619Y-102199852D01*
X104265615Y-102199848D01*
X104098414Y-102067800D01*
X104098410Y-102067798D01*
X104094359Y-102064598D01*
X104063459Y-102047540D01*
X104000545Y-102012810D01*
X103898789Y-101956638D01*
X103893920Y-101954914D01*
X103893916Y-101954912D01*
X103693087Y-101883795D01*
X103693083Y-101883794D01*
X103688212Y-101882069D01*
X103683119Y-101881162D01*
X103683116Y-101881161D01*
X103473373Y-101843800D01*
X103473367Y-101843799D01*
X103468284Y-101842894D01*
X103394452Y-101841992D01*
X103250081Y-101840228D01*
X103250079Y-101840228D01*
X103244911Y-101840165D01*
X103024091Y-101873955D01*
X102811756Y-101943357D01*
X102753080Y-101973902D01*
X102655066Y-102024925D01*
X102613607Y-102046507D01*
X102609474Y-102049610D01*
X102609471Y-102049612D01*
X102447053Y-102171559D01*
X102434965Y-102180635D01*
X102356510Y-102262734D01*
X102354283Y-102265064D01*
X102292759Y-102300494D01*
X102221846Y-102297037D01*
X102164060Y-102255791D01*
X102145207Y-102222243D01*
X102103767Y-102111703D01*
X102100615Y-102103295D01*
X102013261Y-101986739D01*
X101896705Y-101899385D01*
X101760316Y-101848255D01*
X101698134Y-101841500D01*
X101589500Y-101841500D01*
X101521379Y-101821498D01*
X101474886Y-101767842D01*
X101463500Y-101715500D01*
X101463500Y-99322095D01*
X146692001Y-99322095D01*
X146692338Y-99328614D01*
X146702257Y-99424206D01*
X146705149Y-99437600D01*
X146756588Y-99591784D01*
X146762761Y-99604962D01*
X146848063Y-99742807D01*
X146857099Y-99754208D01*
X146971829Y-99868739D01*
X146983240Y-99877751D01*
X147121243Y-99962816D01*
X147134424Y-99968963D01*
X147288710Y-100020138D01*
X147302086Y-100023005D01*
X147396438Y-100032672D01*
X147402854Y-100033000D01*
X147627885Y-100033000D01*
X147643124Y-100028525D01*
X147644329Y-100027135D01*
X147646000Y-100019452D01*
X147646000Y-100014884D01*
X148154000Y-100014884D01*
X148158475Y-100030123D01*
X148159865Y-100031328D01*
X148167548Y-100032999D01*
X148397095Y-100032999D01*
X148403614Y-100032662D01*
X148499206Y-100022743D01*
X148512600Y-100019851D01*
X148666784Y-99968412D01*
X148679962Y-99962239D01*
X148817807Y-99876937D01*
X148829208Y-99867901D01*
X148943739Y-99753171D01*
X148952751Y-99741760D01*
X149037816Y-99603757D01*
X149043963Y-99590576D01*
X149095138Y-99436290D01*
X149098005Y-99422914D01*
X149107672Y-99328562D01*
X149108000Y-99322146D01*
X149108000Y-99284615D01*
X149103525Y-99269376D01*
X149102135Y-99268171D01*
X149094452Y-99266500D01*
X148172115Y-99266500D01*
X148156876Y-99270975D01*
X148155671Y-99272365D01*
X148154000Y-99280048D01*
X148154000Y-100014884D01*
X147646000Y-100014884D01*
X147646000Y-99284615D01*
X147641525Y-99269376D01*
X147640135Y-99268171D01*
X147632452Y-99266500D01*
X146710116Y-99266500D01*
X146694877Y-99270975D01*
X146693672Y-99272365D01*
X146692001Y-99280048D01*
X146692001Y-99322095D01*
X101463500Y-99322095D01*
X101463500Y-94147020D01*
X101483502Y-94078899D01*
X101500405Y-94057925D01*
X103000213Y-92558118D01*
X103062525Y-92524092D01*
X103121921Y-92525507D01*
X103146594Y-92532119D01*
X103146608Y-92532121D01*
X103151913Y-92533543D01*
X103380000Y-92553498D01*
X103608087Y-92533543D01*
X103613400Y-92532119D01*
X103613402Y-92532119D01*
X103823933Y-92475707D01*
X103823935Y-92475706D01*
X103829243Y-92474284D01*
X103835235Y-92471490D01*
X104031762Y-92379849D01*
X104031767Y-92379846D01*
X104036749Y-92377523D01*
X104193274Y-92267923D01*
X104219789Y-92249357D01*
X104219792Y-92249355D01*
X104224300Y-92246198D01*
X104386198Y-92084300D01*
X104417918Y-92039000D01*
X104471298Y-91962765D01*
X104517523Y-91896749D01*
X104519846Y-91891767D01*
X104519849Y-91891762D01*
X104535805Y-91857543D01*
X104582722Y-91804258D01*
X104650999Y-91784797D01*
X104718959Y-91805339D01*
X104764195Y-91857543D01*
X104780151Y-91891762D01*
X104780154Y-91891767D01*
X104782477Y-91896749D01*
X104828702Y-91962765D01*
X104882083Y-92039000D01*
X104913802Y-92084300D01*
X105075700Y-92246198D01*
X105080208Y-92249355D01*
X105080211Y-92249357D01*
X105106726Y-92267923D01*
X105263251Y-92377523D01*
X105268233Y-92379846D01*
X105268238Y-92379849D01*
X105464765Y-92471490D01*
X105470757Y-92474284D01*
X105476065Y-92475706D01*
X105476067Y-92475707D01*
X105686598Y-92532119D01*
X105686600Y-92532119D01*
X105691913Y-92533543D01*
X105920000Y-92553498D01*
X106148087Y-92533543D01*
X106153400Y-92532119D01*
X106153402Y-92532119D01*
X106363933Y-92475707D01*
X106363935Y-92475706D01*
X106369243Y-92474284D01*
X106375235Y-92471490D01*
X106571762Y-92379849D01*
X106571767Y-92379846D01*
X106576749Y-92377523D01*
X106733274Y-92267923D01*
X106759789Y-92249357D01*
X106759792Y-92249355D01*
X106764300Y-92246198D01*
X106926198Y-92084300D01*
X106957918Y-92039000D01*
X107011298Y-91962765D01*
X107057523Y-91896749D01*
X107059846Y-91891767D01*
X107059849Y-91891762D01*
X107076081Y-91856951D01*
X107122998Y-91803666D01*
X107191275Y-91784205D01*
X107259235Y-91804747D01*
X107304471Y-91856951D01*
X107320586Y-91891511D01*
X107326069Y-91901007D01*
X107451028Y-92079467D01*
X107458084Y-92087875D01*
X107612125Y-92241916D01*
X107620533Y-92248972D01*
X107798993Y-92373931D01*
X107808489Y-92379414D01*
X108005947Y-92471490D01*
X108016239Y-92475236D01*
X108188503Y-92521394D01*
X108202599Y-92521058D01*
X108206000Y-92513116D01*
X108206000Y-92507967D01*
X108714000Y-92507967D01*
X108717973Y-92521498D01*
X108726522Y-92522727D01*
X108903761Y-92475236D01*
X108914053Y-92471490D01*
X109111511Y-92379414D01*
X109121007Y-92373931D01*
X109299467Y-92248972D01*
X109307875Y-92241916D01*
X109461916Y-92087875D01*
X109468972Y-92079467D01*
X109593931Y-91901007D01*
X109599414Y-91891511D01*
X109615529Y-91856951D01*
X109662446Y-91803666D01*
X109730723Y-91784205D01*
X109798683Y-91804747D01*
X109843919Y-91856951D01*
X109860151Y-91891762D01*
X109860154Y-91891767D01*
X109862477Y-91896749D01*
X109908702Y-91962765D01*
X109962083Y-92039000D01*
X109993802Y-92084300D01*
X110155700Y-92246198D01*
X110160208Y-92249355D01*
X110160211Y-92249357D01*
X110186726Y-92267923D01*
X110343251Y-92377523D01*
X110348233Y-92379846D01*
X110348238Y-92379849D01*
X110544765Y-92471490D01*
X110550757Y-92474284D01*
X110556065Y-92475706D01*
X110556067Y-92475707D01*
X110766598Y-92532119D01*
X110766600Y-92532119D01*
X110771913Y-92533543D01*
X111000000Y-92553498D01*
X111228087Y-92533543D01*
X111233400Y-92532119D01*
X111233402Y-92532119D01*
X111443933Y-92475707D01*
X111443935Y-92475706D01*
X111449243Y-92474284D01*
X111455235Y-92471490D01*
X111651762Y-92379849D01*
X111651767Y-92379846D01*
X111656749Y-92377523D01*
X111813274Y-92267923D01*
X111839789Y-92249357D01*
X111839792Y-92249355D01*
X111844300Y-92246198D01*
X112006198Y-92084300D01*
X112037918Y-92039000D01*
X112091298Y-91962765D01*
X112137523Y-91896749D01*
X112139846Y-91891767D01*
X112139849Y-91891762D01*
X112231961Y-91694225D01*
X112231961Y-91694224D01*
X112234284Y-91689243D01*
X112293543Y-91468087D01*
X112313498Y-91240000D01*
X112293543Y-91011913D01*
X112260873Y-90889989D01*
X112235707Y-90796067D01*
X112235706Y-90796065D01*
X112234284Y-90790757D01*
X112155805Y-90622457D01*
X112139849Y-90588238D01*
X112139846Y-90588233D01*
X112137523Y-90583251D01*
X112060822Y-90473711D01*
X112009357Y-90400211D01*
X112009355Y-90400208D01*
X112006198Y-90395700D01*
X111844300Y-90233802D01*
X111839792Y-90230645D01*
X111839789Y-90230643D01*
X111722796Y-90148724D01*
X111656749Y-90102477D01*
X111651767Y-90100154D01*
X111651762Y-90100151D01*
X111454225Y-90008039D01*
X111454224Y-90008039D01*
X111449243Y-90005716D01*
X111443935Y-90004294D01*
X111443933Y-90004293D01*
X111233402Y-89947881D01*
X111233400Y-89947881D01*
X111228087Y-89946457D01*
X111000000Y-89926502D01*
X110771913Y-89946457D01*
X110766600Y-89947881D01*
X110766598Y-89947881D01*
X110556067Y-90004293D01*
X110556065Y-90004294D01*
X110550757Y-90005716D01*
X110545776Y-90008039D01*
X110545775Y-90008039D01*
X110348238Y-90100151D01*
X110348233Y-90100154D01*
X110343251Y-90102477D01*
X110277204Y-90148724D01*
X110160211Y-90230643D01*
X110160208Y-90230645D01*
X110155700Y-90233802D01*
X109993802Y-90395700D01*
X109990645Y-90400208D01*
X109990643Y-90400211D01*
X109939178Y-90473711D01*
X109862477Y-90583251D01*
X109860154Y-90588233D01*
X109860151Y-90588238D01*
X109843919Y-90623049D01*
X109797002Y-90676334D01*
X109728725Y-90695795D01*
X109660765Y-90675253D01*
X109615529Y-90623049D01*
X109599414Y-90588489D01*
X109593931Y-90578993D01*
X109468972Y-90400533D01*
X109461916Y-90392125D01*
X109307875Y-90238084D01*
X109299467Y-90231028D01*
X109121007Y-90106069D01*
X109111511Y-90100586D01*
X108914053Y-90008510D01*
X108903761Y-90004764D01*
X108731497Y-89958606D01*
X108717401Y-89958942D01*
X108714000Y-89966884D01*
X108714000Y-92507967D01*
X108206000Y-92507967D01*
X108206000Y-89972033D01*
X108202027Y-89958502D01*
X108193478Y-89957273D01*
X108016239Y-90004764D01*
X108005947Y-90008510D01*
X107808489Y-90100586D01*
X107798993Y-90106069D01*
X107620533Y-90231028D01*
X107612125Y-90238084D01*
X107458084Y-90392125D01*
X107451028Y-90400533D01*
X107326069Y-90578993D01*
X107320586Y-90588489D01*
X107304471Y-90623049D01*
X107257554Y-90676334D01*
X107189277Y-90695795D01*
X107121317Y-90675253D01*
X107076081Y-90623049D01*
X107059849Y-90588238D01*
X107059846Y-90588233D01*
X107057523Y-90583251D01*
X106980822Y-90473711D01*
X106929357Y-90400211D01*
X106929355Y-90400208D01*
X106926198Y-90395700D01*
X106764300Y-90233802D01*
X106759792Y-90230645D01*
X106759789Y-90230643D01*
X106642796Y-90148724D01*
X106576749Y-90102477D01*
X106571767Y-90100154D01*
X106571762Y-90100151D01*
X106374225Y-90008039D01*
X106374224Y-90008039D01*
X106369243Y-90005716D01*
X106363935Y-90004294D01*
X106363933Y-90004293D01*
X106153402Y-89947881D01*
X106153400Y-89947881D01*
X106148087Y-89946457D01*
X105920000Y-89926502D01*
X105691913Y-89946457D01*
X105686600Y-89947881D01*
X105686598Y-89947881D01*
X105476067Y-90004293D01*
X105476065Y-90004294D01*
X105470757Y-90005716D01*
X105465776Y-90008039D01*
X105465775Y-90008039D01*
X105268238Y-90100151D01*
X105268233Y-90100154D01*
X105263251Y-90102477D01*
X105197204Y-90148724D01*
X105080211Y-90230643D01*
X105080208Y-90230645D01*
X105075700Y-90233802D01*
X104913802Y-90395700D01*
X104910645Y-90400208D01*
X104910643Y-90400211D01*
X104859178Y-90473711D01*
X104782477Y-90583251D01*
X104780154Y-90588233D01*
X104780151Y-90588238D01*
X104764195Y-90622457D01*
X104717278Y-90675742D01*
X104649001Y-90695203D01*
X104581041Y-90674661D01*
X104535805Y-90622457D01*
X104519849Y-90588238D01*
X104519846Y-90588233D01*
X104517523Y-90583251D01*
X104440822Y-90473711D01*
X104389357Y-90400211D01*
X104389355Y-90400208D01*
X104386198Y-90395700D01*
X104224300Y-90233802D01*
X104219792Y-90230645D01*
X104219789Y-90230643D01*
X104102796Y-90148724D01*
X104036749Y-90102477D01*
X104031767Y-90100154D01*
X104031762Y-90100151D01*
X103834225Y-90008039D01*
X103834224Y-90008039D01*
X103829243Y-90005716D01*
X103823935Y-90004294D01*
X103823933Y-90004293D01*
X103613402Y-89947881D01*
X103613400Y-89947881D01*
X103608087Y-89946457D01*
X103380000Y-89926502D01*
X103151913Y-89946457D01*
X103146600Y-89947881D01*
X103146598Y-89947881D01*
X103121918Y-89954494D01*
X103050941Y-89952804D01*
X103000212Y-89921882D01*
X100878736Y-87800405D01*
X98728509Y-85650178D01*
X98722655Y-85643912D01*
X98692225Y-85609029D01*
X98687229Y-85603302D01*
X98638443Y-85569015D01*
X98633159Y-85565090D01*
X98592211Y-85532983D01*
X98586236Y-85528298D01*
X98579317Y-85525174D01*
X98573371Y-85521573D01*
X98568214Y-85518632D01*
X98562056Y-85515330D01*
X98555840Y-85510961D01*
X98548764Y-85508202D01*
X98548762Y-85508201D01*
X98500304Y-85489308D01*
X98494223Y-85486752D01*
X98446790Y-85465335D01*
X98446789Y-85465335D01*
X98439871Y-85462211D01*
X98432405Y-85460827D01*
X98425786Y-85458753D01*
X98420037Y-85457115D01*
X98413296Y-85455385D01*
X98406218Y-85452625D01*
X98382557Y-85449510D01*
X98347112Y-85444844D01*
X98340595Y-85443812D01*
X98306669Y-85437524D01*
X98281967Y-85432946D01*
X98274387Y-85433383D01*
X98274386Y-85433383D01*
X98223953Y-85436291D01*
X98216700Y-85436500D01*
X79627020Y-85436500D01*
X79558899Y-85416498D01*
X79537925Y-85399595D01*
X74200405Y-80062074D01*
X74166379Y-79999762D01*
X74163500Y-79972979D01*
X74163500Y-76857890D01*
X74183502Y-76789769D01*
X74237158Y-76743276D01*
X74307432Y-76733172D01*
X74372012Y-76762666D01*
X74392713Y-76785619D01*
X74433802Y-76844300D01*
X74595700Y-77006198D01*
X74600208Y-77009355D01*
X74600211Y-77009357D01*
X74653550Y-77046705D01*
X74783251Y-77137523D01*
X74788233Y-77139846D01*
X74788238Y-77139849D01*
X74931169Y-77206498D01*
X74990757Y-77234284D01*
X74996065Y-77235706D01*
X74996067Y-77235707D01*
X75206598Y-77292119D01*
X75206600Y-77292119D01*
X75211913Y-77293543D01*
X75440000Y-77313498D01*
X75668087Y-77293543D01*
X75673400Y-77292119D01*
X75673402Y-77292119D01*
X75883933Y-77235707D01*
X75883935Y-77235706D01*
X75889243Y-77234284D01*
X75948831Y-77206498D01*
X76091762Y-77139849D01*
X76091767Y-77139846D01*
X76096749Y-77137523D01*
X76226450Y-77046705D01*
X76279789Y-77009357D01*
X76279792Y-77009355D01*
X76284300Y-77006198D01*
X76446198Y-76844300D01*
X76577523Y-76656749D01*
X76579846Y-76651767D01*
X76579849Y-76651762D01*
X76595805Y-76617543D01*
X76642722Y-76564258D01*
X76710999Y-76544797D01*
X76778959Y-76565339D01*
X76824195Y-76617543D01*
X76840151Y-76651762D01*
X76840154Y-76651767D01*
X76842477Y-76656749D01*
X76973802Y-76844300D01*
X77135700Y-77006198D01*
X77140208Y-77009355D01*
X77140211Y-77009357D01*
X77193550Y-77046705D01*
X77323251Y-77137523D01*
X77328233Y-77139846D01*
X77328238Y-77139849D01*
X77471169Y-77206498D01*
X77530757Y-77234284D01*
X77536065Y-77235706D01*
X77536067Y-77235707D01*
X77746598Y-77292119D01*
X77746600Y-77292119D01*
X77751913Y-77293543D01*
X77980000Y-77313498D01*
X78208087Y-77293543D01*
X78213400Y-77292119D01*
X78213402Y-77292119D01*
X78423933Y-77235707D01*
X78423935Y-77235706D01*
X78429243Y-77234284D01*
X78488831Y-77206498D01*
X78631762Y-77139849D01*
X78631767Y-77139846D01*
X78636749Y-77137523D01*
X78766450Y-77046705D01*
X78819789Y-77009357D01*
X78819792Y-77009355D01*
X78824300Y-77006198D01*
X78986198Y-76844300D01*
X79117523Y-76656749D01*
X79119846Y-76651767D01*
X79119849Y-76651762D01*
X79135805Y-76617543D01*
X79182722Y-76564258D01*
X79250999Y-76544797D01*
X79318959Y-76565339D01*
X79364195Y-76617543D01*
X79380151Y-76651762D01*
X79380154Y-76651767D01*
X79382477Y-76656749D01*
X79513802Y-76844300D01*
X79675700Y-77006198D01*
X79680208Y-77009355D01*
X79680211Y-77009357D01*
X79733550Y-77046705D01*
X79863251Y-77137523D01*
X79868233Y-77139846D01*
X79868238Y-77139849D01*
X80011169Y-77206498D01*
X80070757Y-77234284D01*
X80076065Y-77235706D01*
X80076067Y-77235707D01*
X80286598Y-77292119D01*
X80286600Y-77292119D01*
X80291913Y-77293543D01*
X80520000Y-77313498D01*
X80748087Y-77293543D01*
X80753400Y-77292119D01*
X80753402Y-77292119D01*
X80963933Y-77235707D01*
X80963935Y-77235706D01*
X80969243Y-77234284D01*
X81028831Y-77206498D01*
X81171762Y-77139849D01*
X81171767Y-77139846D01*
X81176749Y-77137523D01*
X81306450Y-77046705D01*
X81359789Y-77009357D01*
X81359792Y-77009355D01*
X81364300Y-77006198D01*
X81526198Y-76844300D01*
X81657523Y-76656749D01*
X81659846Y-76651767D01*
X81659849Y-76651762D01*
X81675805Y-76617543D01*
X81722722Y-76564258D01*
X81790999Y-76544797D01*
X81858959Y-76565339D01*
X81904195Y-76617543D01*
X81920151Y-76651762D01*
X81920154Y-76651767D01*
X81922477Y-76656749D01*
X82053802Y-76844300D01*
X82215700Y-77006198D01*
X82220208Y-77009355D01*
X82220211Y-77009357D01*
X82273550Y-77046705D01*
X82403251Y-77137523D01*
X82408233Y-77139846D01*
X82408238Y-77139849D01*
X82551169Y-77206498D01*
X82610757Y-77234284D01*
X82616065Y-77235706D01*
X82616067Y-77235707D01*
X82826598Y-77292119D01*
X82826600Y-77292119D01*
X82831913Y-77293543D01*
X83060000Y-77313498D01*
X83288087Y-77293543D01*
X83293400Y-77292119D01*
X83293402Y-77292119D01*
X83503933Y-77235707D01*
X83503935Y-77235706D01*
X83509243Y-77234284D01*
X83568831Y-77206498D01*
X83711762Y-77139849D01*
X83711767Y-77139846D01*
X83716749Y-77137523D01*
X83846450Y-77046705D01*
X83899789Y-77009357D01*
X83899792Y-77009355D01*
X83904300Y-77006198D01*
X84066198Y-76844300D01*
X84197523Y-76656749D01*
X84199846Y-76651767D01*
X84199849Y-76651762D01*
X84215805Y-76617543D01*
X84262722Y-76564258D01*
X84330999Y-76544797D01*
X84398959Y-76565339D01*
X84444195Y-76617543D01*
X84460151Y-76651762D01*
X84460154Y-76651767D01*
X84462477Y-76656749D01*
X84593802Y-76844300D01*
X84755700Y-77006198D01*
X84760208Y-77009355D01*
X84760211Y-77009357D01*
X84813550Y-77046705D01*
X84943251Y-77137523D01*
X84948233Y-77139846D01*
X84948238Y-77139849D01*
X85091169Y-77206498D01*
X85150757Y-77234284D01*
X85156065Y-77235706D01*
X85156067Y-77235707D01*
X85366598Y-77292119D01*
X85366600Y-77292119D01*
X85371913Y-77293543D01*
X85600000Y-77313498D01*
X85828087Y-77293543D01*
X85833400Y-77292119D01*
X85833402Y-77292119D01*
X86043933Y-77235707D01*
X86043935Y-77235706D01*
X86049243Y-77234284D01*
X86108831Y-77206498D01*
X86251762Y-77139849D01*
X86251767Y-77139846D01*
X86256749Y-77137523D01*
X86386450Y-77046705D01*
X86439789Y-77009357D01*
X86439792Y-77009355D01*
X86444300Y-77006198D01*
X86606198Y-76844300D01*
X86737523Y-76656749D01*
X86739846Y-76651767D01*
X86739849Y-76651762D01*
X86755805Y-76617543D01*
X86802722Y-76564258D01*
X86870999Y-76544797D01*
X86938959Y-76565339D01*
X86984195Y-76617543D01*
X87000151Y-76651762D01*
X87000154Y-76651767D01*
X87002477Y-76656749D01*
X87133802Y-76844300D01*
X87295700Y-77006198D01*
X87300208Y-77009355D01*
X87300211Y-77009357D01*
X87353550Y-77046705D01*
X87483251Y-77137523D01*
X87488233Y-77139846D01*
X87488238Y-77139849D01*
X87631169Y-77206498D01*
X87690757Y-77234284D01*
X87696065Y-77235706D01*
X87696067Y-77235707D01*
X87906598Y-77292119D01*
X87906600Y-77292119D01*
X87911913Y-77293543D01*
X88140000Y-77313498D01*
X88368087Y-77293543D01*
X88373400Y-77292119D01*
X88373402Y-77292119D01*
X88583933Y-77235707D01*
X88583935Y-77235706D01*
X88589243Y-77234284D01*
X88648831Y-77206498D01*
X88791762Y-77139849D01*
X88791767Y-77139846D01*
X88796749Y-77137523D01*
X88926450Y-77046705D01*
X88979789Y-77009357D01*
X88979792Y-77009355D01*
X88984300Y-77006198D01*
X89146198Y-76844300D01*
X89277523Y-76656749D01*
X89279846Y-76651767D01*
X89279849Y-76651762D01*
X89295805Y-76617543D01*
X89342722Y-76564258D01*
X89410999Y-76544797D01*
X89478959Y-76565339D01*
X89524195Y-76617543D01*
X89540151Y-76651762D01*
X89540154Y-76651767D01*
X89542477Y-76656749D01*
X89673802Y-76844300D01*
X89835700Y-77006198D01*
X89840208Y-77009355D01*
X89840211Y-77009357D01*
X89893550Y-77046705D01*
X90023251Y-77137523D01*
X90028233Y-77139846D01*
X90028238Y-77139849D01*
X90171169Y-77206498D01*
X90230757Y-77234284D01*
X90236065Y-77235706D01*
X90236067Y-77235707D01*
X90446598Y-77292119D01*
X90446600Y-77292119D01*
X90451913Y-77293543D01*
X90680000Y-77313498D01*
X90908087Y-77293543D01*
X90913400Y-77292119D01*
X90913402Y-77292119D01*
X91123933Y-77235707D01*
X91123935Y-77235706D01*
X91129243Y-77234284D01*
X91188831Y-77206498D01*
X91331762Y-77139849D01*
X91331767Y-77139846D01*
X91336749Y-77137523D01*
X91466450Y-77046705D01*
X91519789Y-77009357D01*
X91519792Y-77009355D01*
X91524300Y-77006198D01*
X91686198Y-76844300D01*
X91817523Y-76656749D01*
X91819846Y-76651767D01*
X91819849Y-76651762D01*
X91835805Y-76617543D01*
X91882722Y-76564258D01*
X91950999Y-76544797D01*
X92018959Y-76565339D01*
X92064195Y-76617543D01*
X92080151Y-76651762D01*
X92080154Y-76651767D01*
X92082477Y-76656749D01*
X92213802Y-76844300D01*
X92375700Y-77006198D01*
X92380208Y-77009355D01*
X92380211Y-77009357D01*
X92433550Y-77046705D01*
X92563251Y-77137523D01*
X92568233Y-77139846D01*
X92568238Y-77139849D01*
X92711169Y-77206498D01*
X92770757Y-77234284D01*
X92776065Y-77235706D01*
X92776067Y-77235707D01*
X92986598Y-77292119D01*
X92986600Y-77292119D01*
X92991913Y-77293543D01*
X93220000Y-77313498D01*
X93448087Y-77293543D01*
X93453400Y-77292119D01*
X93453402Y-77292119D01*
X93663933Y-77235707D01*
X93663935Y-77235706D01*
X93669243Y-77234284D01*
X93728831Y-77206498D01*
X93871762Y-77139849D01*
X93871767Y-77139846D01*
X93876749Y-77137523D01*
X94006450Y-77046705D01*
X94059789Y-77009357D01*
X94059792Y-77009355D01*
X94064300Y-77006198D01*
X94226198Y-76844300D01*
X94357523Y-76656749D01*
X94359846Y-76651767D01*
X94359849Y-76651762D01*
X94375805Y-76617543D01*
X94422722Y-76564258D01*
X94490999Y-76544797D01*
X94558959Y-76565339D01*
X94604195Y-76617543D01*
X94620151Y-76651762D01*
X94620154Y-76651767D01*
X94622477Y-76656749D01*
X94753802Y-76844300D01*
X94915700Y-77006198D01*
X94920208Y-77009355D01*
X94920211Y-77009357D01*
X94973550Y-77046705D01*
X95103251Y-77137523D01*
X95108233Y-77139846D01*
X95108238Y-77139849D01*
X95251169Y-77206498D01*
X95310757Y-77234284D01*
X95316065Y-77235706D01*
X95316067Y-77235707D01*
X95526598Y-77292119D01*
X95526600Y-77292119D01*
X95531913Y-77293543D01*
X95760000Y-77313498D01*
X95988087Y-77293543D01*
X95993400Y-77292119D01*
X95993402Y-77292119D01*
X96203933Y-77235707D01*
X96203935Y-77235706D01*
X96209243Y-77234284D01*
X96268831Y-77206498D01*
X96411762Y-77139849D01*
X96411767Y-77139846D01*
X96416749Y-77137523D01*
X96546450Y-77046705D01*
X96599789Y-77009357D01*
X96599792Y-77009355D01*
X96604300Y-77006198D01*
X96766198Y-76844300D01*
X96897523Y-76656749D01*
X96899846Y-76651767D01*
X96899849Y-76651762D01*
X96915805Y-76617543D01*
X96962722Y-76564258D01*
X97030999Y-76544797D01*
X97098959Y-76565339D01*
G37*
%TD.AperFunction*%
%TA.AperFunction,Conductor*%
G36*
X99638959Y-91805339D02*
G01*
X99684195Y-91857543D01*
X99700151Y-91891762D01*
X99700154Y-91891767D01*
X99702477Y-91896749D01*
X99748702Y-91962765D01*
X99802083Y-92039000D01*
X99833802Y-92084300D01*
X99995700Y-92246198D01*
X100000208Y-92249355D01*
X100000211Y-92249357D01*
X100026726Y-92267923D01*
X100183251Y-92377523D01*
X100188233Y-92379846D01*
X100188238Y-92379849D01*
X100384765Y-92471490D01*
X100390757Y-92474284D01*
X100396065Y-92475706D01*
X100396067Y-92475707D01*
X100606598Y-92532119D01*
X100606600Y-92532119D01*
X100611913Y-92533543D01*
X100617389Y-92534022D01*
X100617394Y-92534023D01*
X100760915Y-92546579D01*
X100835809Y-92553131D01*
X100901927Y-92578994D01*
X100943566Y-92636498D01*
X100947507Y-92707385D01*
X100913922Y-92767747D01*
X100350178Y-93331491D01*
X100343913Y-93337344D01*
X100303302Y-93372771D01*
X100269023Y-93421546D01*
X100265090Y-93426841D01*
X100228298Y-93473764D01*
X100225174Y-93480683D01*
X100221573Y-93486629D01*
X100218632Y-93491786D01*
X100215330Y-93497944D01*
X100210961Y-93504160D01*
X100208202Y-93511236D01*
X100208201Y-93511238D01*
X100189308Y-93559696D01*
X100186752Y-93565777D01*
X100162211Y-93620129D01*
X100160827Y-93627595D01*
X100158753Y-93634214D01*
X100157115Y-93639963D01*
X100155385Y-93646704D01*
X100152625Y-93653782D01*
X100151633Y-93661318D01*
X100144844Y-93712888D01*
X100143812Y-93719405D01*
X100132946Y-93778033D01*
X100133383Y-93785613D01*
X100133383Y-93785614D01*
X100136291Y-93836047D01*
X100136500Y-93843300D01*
X100136500Y-101715500D01*
X100116498Y-101783621D01*
X100062842Y-101830114D01*
X100010500Y-101841500D01*
X99901866Y-101841500D01*
X99839684Y-101848255D01*
X99703295Y-101899385D01*
X99586739Y-101986739D01*
X99499385Y-102103295D01*
X99448255Y-102239684D01*
X99441500Y-102301866D01*
X99441500Y-102410500D01*
X99421498Y-102478621D01*
X99367842Y-102525114D01*
X99315500Y-102536500D01*
X97684500Y-102536500D01*
X97616379Y-102516498D01*
X97569886Y-102462842D01*
X97558500Y-102410500D01*
X97558500Y-101899600D01*
X97556984Y-101884989D01*
X97548238Y-101800692D01*
X97548237Y-101800688D01*
X97547526Y-101793834D01*
X97538855Y-101767842D01*
X97493868Y-101633002D01*
X97491550Y-101626054D01*
X97398478Y-101475652D01*
X97273303Y-101350695D01*
X97252955Y-101338152D01*
X97128968Y-101261725D01*
X97128966Y-101261724D01*
X97122738Y-101257885D01*
X97042995Y-101231436D01*
X96961389Y-101204368D01*
X96961387Y-101204368D01*
X96954861Y-101202203D01*
X96948025Y-101201503D01*
X96948022Y-101201502D01*
X96904969Y-101197091D01*
X96850400Y-101191500D01*
X95799600Y-101191500D01*
X95796354Y-101191837D01*
X95796350Y-101191837D01*
X95700692Y-101201762D01*
X95700688Y-101201763D01*
X95693834Y-101202474D01*
X95687298Y-101204655D01*
X95687296Y-101204655D01*
X95555194Y-101248728D01*
X95526054Y-101258450D01*
X95375652Y-101351522D01*
X95250695Y-101476697D01*
X95157885Y-101627262D01*
X95133963Y-101699385D01*
X95115546Y-101754912D01*
X95102203Y-101795139D01*
X95101503Y-101801975D01*
X95101502Y-101801978D01*
X95097310Y-101842894D01*
X95091500Y-101899600D01*
X95091500Y-102500400D01*
X95091837Y-102503646D01*
X95091837Y-102503650D01*
X95098958Y-102572275D01*
X95102474Y-102606166D01*
X95104655Y-102612702D01*
X95104655Y-102612704D01*
X95134907Y-102703378D01*
X95158450Y-102773946D01*
X95251522Y-102924348D01*
X95376697Y-103049305D01*
X95381235Y-103052102D01*
X95421824Y-103109353D01*
X95425054Y-103180276D01*
X95389428Y-103241687D01*
X95380932Y-103249062D01*
X95370793Y-103257098D01*
X95256261Y-103371829D01*
X95247249Y-103383240D01*
X95162184Y-103521243D01*
X95156037Y-103534424D01*
X95104862Y-103688710D01*
X95101995Y-103702086D01*
X95092328Y-103796438D01*
X95092000Y-103802855D01*
X95092000Y-103827885D01*
X95096475Y-103843124D01*
X95097865Y-103844329D01*
X95105548Y-103846000D01*
X97141178Y-103846000D01*
X97158672Y-103848210D01*
X97158782Y-103847375D01*
X97217903Y-103855159D01*
X97224391Y-103856186D01*
X97283033Y-103867054D01*
X97290614Y-103866617D01*
X97290615Y-103866617D01*
X97341048Y-103863709D01*
X97348301Y-103863500D01*
X98893979Y-103863500D01*
X98962100Y-103883502D01*
X99008593Y-103937158D01*
X99018697Y-104007432D01*
X98989203Y-104072012D01*
X98983074Y-104078595D01*
X97962074Y-105099595D01*
X97899762Y-105133621D01*
X97872979Y-105136500D01*
X97389763Y-105136500D01*
X97321642Y-105116498D01*
X97275149Y-105062842D01*
X97265045Y-104992568D01*
X97294539Y-104927988D01*
X97300590Y-104921482D01*
X97393739Y-104828171D01*
X97402751Y-104816760D01*
X97487816Y-104678757D01*
X97493963Y-104665576D01*
X97545138Y-104511290D01*
X97548005Y-104497914D01*
X97557672Y-104403562D01*
X97558000Y-104397146D01*
X97558000Y-104372115D01*
X97553525Y-104356876D01*
X97552135Y-104355671D01*
X97544452Y-104354000D01*
X95110116Y-104354000D01*
X95094877Y-104358475D01*
X95093672Y-104359865D01*
X95092001Y-104367548D01*
X95092001Y-104397095D01*
X95092338Y-104403614D01*
X95102257Y-104499206D01*
X95105149Y-104512600D01*
X95156588Y-104666784D01*
X95162761Y-104679962D01*
X95248063Y-104817807D01*
X95257099Y-104829208D01*
X95349378Y-104921327D01*
X95383457Y-104983610D01*
X95378454Y-105054430D01*
X95335956Y-105111303D01*
X95269458Y-105136171D01*
X95260360Y-105136500D01*
X91626559Y-105136500D01*
X91558438Y-105116498D01*
X91511945Y-105062842D01*
X91501841Y-104992568D01*
X91531335Y-104927988D01*
X91586683Y-104890976D01*
X91691784Y-104855912D01*
X91704962Y-104849739D01*
X91842807Y-104764437D01*
X91854208Y-104755401D01*
X91968739Y-104640671D01*
X91977751Y-104629260D01*
X92062816Y-104491257D01*
X92068963Y-104478076D01*
X92120138Y-104323790D01*
X92123005Y-104310414D01*
X92132672Y-104216062D01*
X92133000Y-104209646D01*
X92133000Y-104172115D01*
X92128525Y-104156876D01*
X92127135Y-104155671D01*
X92119452Y-104154000D01*
X89735116Y-104154000D01*
X89719877Y-104158475D01*
X89718672Y-104159865D01*
X89717001Y-104167548D01*
X89717001Y-104209595D01*
X89717338Y-104216114D01*
X89727257Y-104311706D01*
X89730149Y-104325100D01*
X89781588Y-104479284D01*
X89787761Y-104492462D01*
X89873063Y-104630307D01*
X89882099Y-104641708D01*
X89996829Y-104756239D01*
X90008240Y-104765251D01*
X90146243Y-104850316D01*
X90159424Y-104856463D01*
X90263269Y-104890907D01*
X90321628Y-104931338D01*
X90348865Y-104996902D01*
X90336331Y-105066784D01*
X90288007Y-105118795D01*
X90223601Y-105136500D01*
X86587020Y-105136500D01*
X86518899Y-105116498D01*
X86497925Y-105099595D01*
X85971925Y-104573595D01*
X85937899Y-104511283D01*
X85942964Y-104440468D01*
X85985511Y-104383632D01*
X86052031Y-104358821D01*
X86061020Y-104358500D01*
X86898134Y-104358500D01*
X86960316Y-104351745D01*
X87096705Y-104300615D01*
X87213261Y-104213261D01*
X87300615Y-104096705D01*
X87351745Y-103960316D01*
X87358500Y-103898134D01*
X87358500Y-103789500D01*
X87378502Y-103721379D01*
X87432158Y-103674886D01*
X87484500Y-103663500D01*
X89972651Y-103663500D01*
X89981221Y-103663792D01*
X90027404Y-103666941D01*
X90027408Y-103666941D01*
X90034980Y-103667457D01*
X90093742Y-103657202D01*
X90100234Y-103656244D01*
X90159429Y-103649080D01*
X90160131Y-103648815D01*
X90183390Y-103646000D01*
X92114884Y-103646000D01*
X92130123Y-103641525D01*
X92131328Y-103640135D01*
X92132999Y-103632452D01*
X92132999Y-103590405D01*
X92132662Y-103583886D01*
X92122743Y-103488294D01*
X92119851Y-103474900D01*
X92068412Y-103320716D01*
X92062239Y-103307538D01*
X91976937Y-103169693D01*
X91967901Y-103158292D01*
X91886538Y-103077070D01*
X91852459Y-103014787D01*
X91857462Y-102943967D01*
X91886383Y-102898880D01*
X91969130Y-102815988D01*
X91969134Y-102815983D01*
X91974305Y-102810803D01*
X92047421Y-102692188D01*
X92063275Y-102666468D01*
X92063276Y-102666466D01*
X92067115Y-102660238D01*
X92110543Y-102529305D01*
X92120632Y-102498889D01*
X92120632Y-102498887D01*
X92122797Y-102492361D01*
X92125822Y-102462842D01*
X92133172Y-102391098D01*
X92133500Y-102387900D01*
X92133500Y-101762100D01*
X92131803Y-101745747D01*
X92123238Y-101663192D01*
X92123237Y-101663188D01*
X92122526Y-101656334D01*
X92118345Y-101643800D01*
X92068868Y-101495502D01*
X92066550Y-101488554D01*
X91973478Y-101338152D01*
X91848303Y-101213195D01*
X91833983Y-101204368D01*
X91703968Y-101124225D01*
X91703966Y-101124224D01*
X91697738Y-101120385D01*
X91617995Y-101093936D01*
X91536389Y-101066868D01*
X91536387Y-101066868D01*
X91529861Y-101064703D01*
X91523025Y-101064003D01*
X91523022Y-101064002D01*
X91479969Y-101059591D01*
X91425400Y-101054000D01*
X90894520Y-101054000D01*
X90826399Y-101033998D01*
X90805425Y-101017095D01*
X88840405Y-99052074D01*
X88806379Y-98989762D01*
X88803500Y-98962979D01*
X88803500Y-92438387D01*
X88823502Y-92370266D01*
X88857228Y-92335175D01*
X88953274Y-92267923D01*
X88979789Y-92249357D01*
X88979792Y-92249355D01*
X88984300Y-92246198D01*
X89146198Y-92084300D01*
X89177918Y-92039000D01*
X89231298Y-91962765D01*
X89277523Y-91896749D01*
X89279846Y-91891767D01*
X89279849Y-91891762D01*
X89295805Y-91857543D01*
X89342722Y-91804258D01*
X89410999Y-91784797D01*
X89478959Y-91805339D01*
X89524195Y-91857543D01*
X89540151Y-91891762D01*
X89540154Y-91891767D01*
X89542477Y-91896749D01*
X89588702Y-91962765D01*
X89642083Y-92039000D01*
X89673802Y-92084300D01*
X89835700Y-92246198D01*
X89840208Y-92249355D01*
X89840211Y-92249357D01*
X89866726Y-92267923D01*
X90023251Y-92377523D01*
X90028233Y-92379846D01*
X90028238Y-92379849D01*
X90224765Y-92471490D01*
X90230757Y-92474284D01*
X90236065Y-92475706D01*
X90236067Y-92475707D01*
X90446598Y-92532119D01*
X90446600Y-92532119D01*
X90451913Y-92533543D01*
X90680000Y-92553498D01*
X90908087Y-92533543D01*
X90913400Y-92532119D01*
X90913402Y-92532119D01*
X91123933Y-92475707D01*
X91123935Y-92475706D01*
X91129243Y-92474284D01*
X91135235Y-92471490D01*
X91331762Y-92379849D01*
X91331767Y-92379846D01*
X91336749Y-92377523D01*
X91493274Y-92267923D01*
X91519789Y-92249357D01*
X91519792Y-92249355D01*
X91524300Y-92246198D01*
X91686198Y-92084300D01*
X91717918Y-92039000D01*
X91771298Y-91962765D01*
X91817523Y-91896749D01*
X91819846Y-91891767D01*
X91819849Y-91891762D01*
X91835805Y-91857543D01*
X91882722Y-91804258D01*
X91950999Y-91784797D01*
X92018959Y-91805339D01*
X92064195Y-91857543D01*
X92080151Y-91891762D01*
X92080154Y-91891767D01*
X92082477Y-91896749D01*
X92128702Y-91962765D01*
X92182083Y-92039000D01*
X92213802Y-92084300D01*
X92375700Y-92246198D01*
X92380208Y-92249355D01*
X92380211Y-92249357D01*
X92406726Y-92267923D01*
X92563251Y-92377523D01*
X92568233Y-92379846D01*
X92568238Y-92379849D01*
X92764765Y-92471490D01*
X92770757Y-92474284D01*
X92776065Y-92475706D01*
X92776067Y-92475707D01*
X92986598Y-92532119D01*
X92986600Y-92532119D01*
X92991913Y-92533543D01*
X93220000Y-92553498D01*
X93448087Y-92533543D01*
X93453400Y-92532119D01*
X93453402Y-92532119D01*
X93663933Y-92475707D01*
X93663935Y-92475706D01*
X93669243Y-92474284D01*
X93675235Y-92471490D01*
X93871762Y-92379849D01*
X93871767Y-92379846D01*
X93876749Y-92377523D01*
X94033274Y-92267923D01*
X94059789Y-92249357D01*
X94059792Y-92249355D01*
X94064300Y-92246198D01*
X94226198Y-92084300D01*
X94257918Y-92039000D01*
X94311298Y-91962765D01*
X94357523Y-91896749D01*
X94359846Y-91891767D01*
X94359849Y-91891762D01*
X94375805Y-91857543D01*
X94422722Y-91804258D01*
X94490999Y-91784797D01*
X94558959Y-91805339D01*
X94604195Y-91857543D01*
X94620151Y-91891762D01*
X94620154Y-91891767D01*
X94622477Y-91896749D01*
X94668702Y-91962765D01*
X94722083Y-92039000D01*
X94753802Y-92084300D01*
X94915700Y-92246198D01*
X94920208Y-92249355D01*
X94920211Y-92249357D01*
X94946726Y-92267923D01*
X95103251Y-92377523D01*
X95108233Y-92379846D01*
X95108238Y-92379849D01*
X95304765Y-92471490D01*
X95310757Y-92474284D01*
X95316065Y-92475706D01*
X95316067Y-92475707D01*
X95526598Y-92532119D01*
X95526600Y-92532119D01*
X95531913Y-92533543D01*
X95760000Y-92553498D01*
X95988087Y-92533543D01*
X95993400Y-92532119D01*
X95993402Y-92532119D01*
X96203933Y-92475707D01*
X96203935Y-92475706D01*
X96209243Y-92474284D01*
X96215235Y-92471490D01*
X96411762Y-92379849D01*
X96411767Y-92379846D01*
X96416749Y-92377523D01*
X96573274Y-92267923D01*
X96599789Y-92249357D01*
X96599792Y-92249355D01*
X96604300Y-92246198D01*
X96766198Y-92084300D01*
X96797918Y-92039000D01*
X96851298Y-91962765D01*
X96897523Y-91896749D01*
X96899846Y-91891767D01*
X96899849Y-91891762D01*
X96915805Y-91857543D01*
X96962722Y-91804258D01*
X97030999Y-91784797D01*
X97098959Y-91805339D01*
X97144195Y-91857543D01*
X97160151Y-91891762D01*
X97160154Y-91891767D01*
X97162477Y-91896749D01*
X97208702Y-91962765D01*
X97262083Y-92039000D01*
X97293802Y-92084300D01*
X97455700Y-92246198D01*
X97460208Y-92249355D01*
X97460211Y-92249357D01*
X97486726Y-92267923D01*
X97643251Y-92377523D01*
X97648233Y-92379846D01*
X97648238Y-92379849D01*
X97844765Y-92471490D01*
X97850757Y-92474284D01*
X97856065Y-92475706D01*
X97856067Y-92475707D01*
X98066598Y-92532119D01*
X98066600Y-92532119D01*
X98071913Y-92533543D01*
X98300000Y-92553498D01*
X98528087Y-92533543D01*
X98533400Y-92532119D01*
X98533402Y-92532119D01*
X98743933Y-92475707D01*
X98743935Y-92475706D01*
X98749243Y-92474284D01*
X98755235Y-92471490D01*
X98951762Y-92379849D01*
X98951767Y-92379846D01*
X98956749Y-92377523D01*
X99113274Y-92267923D01*
X99139789Y-92249357D01*
X99139792Y-92249355D01*
X99144300Y-92246198D01*
X99306198Y-92084300D01*
X99337918Y-92039000D01*
X99391298Y-91962765D01*
X99437523Y-91896749D01*
X99439846Y-91891767D01*
X99439849Y-91891762D01*
X99455805Y-91857543D01*
X99502722Y-91804258D01*
X99570999Y-91784797D01*
X99638959Y-91805339D01*
G37*
%TD.AperFunction*%
%TA.AperFunction,Conductor*%
G36*
X75860460Y-57782038D02*
G01*
X75917295Y-57824585D01*
X75942218Y-57892841D01*
X75950110Y-58029715D01*
X75951247Y-58034761D01*
X75951248Y-58034767D01*
X75971119Y-58122939D01*
X75999222Y-58247639D01*
X76083266Y-58454616D01*
X76120403Y-58515218D01*
X76174381Y-58603302D01*
X76199987Y-58645088D01*
X76346250Y-58813938D01*
X76518126Y-58956632D01*
X76588595Y-58997811D01*
X76591445Y-58999476D01*
X76640169Y-59051114D01*
X76653240Y-59120897D01*
X76626509Y-59186669D01*
X76586055Y-59220027D01*
X76573607Y-59226507D01*
X76569474Y-59229610D01*
X76569471Y-59229612D01*
X76464330Y-59308554D01*
X76394965Y-59360635D01*
X76240629Y-59522138D01*
X76237715Y-59526410D01*
X76237714Y-59526411D01*
X76175683Y-59617345D01*
X76114743Y-59706680D01*
X76070931Y-59801065D01*
X76030100Y-59889029D01*
X76020688Y-59909305D01*
X75960989Y-60124570D01*
X75937251Y-60346695D01*
X75937548Y-60351848D01*
X75937548Y-60351851D01*
X75949812Y-60564547D01*
X75950110Y-60569715D01*
X75951247Y-60574761D01*
X75951248Y-60574767D01*
X75968359Y-60650692D01*
X75999222Y-60787639D01*
X76060673Y-60938976D01*
X76072294Y-60967594D01*
X76083266Y-60994616D01*
X76085965Y-60999020D01*
X76194439Y-61176034D01*
X76199987Y-61185088D01*
X76346250Y-61353938D01*
X76518126Y-61496632D01*
X76591955Y-61539774D01*
X76640679Y-61591412D01*
X76653750Y-61661195D01*
X76627019Y-61726967D01*
X76586562Y-61760327D01*
X76578457Y-61764546D01*
X76569738Y-61770036D01*
X76399433Y-61897905D01*
X76391726Y-61904748D01*
X76244590Y-62058717D01*
X76238104Y-62066727D01*
X76118098Y-62242649D01*
X76113000Y-62251623D01*
X76023338Y-62444783D01*
X76019775Y-62454470D01*
X75964389Y-62654183D01*
X75965912Y-62662607D01*
X75978292Y-62666000D01*
X78618344Y-62666000D01*
X78631875Y-62662027D01*
X78633180Y-62652947D01*
X78591214Y-62485875D01*
X78587894Y-62476124D01*
X78502972Y-62280814D01*
X78498105Y-62271739D01*
X78382426Y-62092926D01*
X78376136Y-62084757D01*
X78232806Y-61927240D01*
X78225273Y-61920215D01*
X78058139Y-61788222D01*
X78049556Y-61782520D01*
X78012602Y-61762120D01*
X77962631Y-61711687D01*
X77947859Y-61642245D01*
X77972975Y-61575839D01*
X78000327Y-61549232D01*
X78023797Y-61532491D01*
X78179860Y-61421173D01*
X78338096Y-61263489D01*
X78397594Y-61180689D01*
X78458467Y-61095974D01*
X78514462Y-61052326D01*
X78560790Y-61043500D01*
X79640500Y-61043500D01*
X79708621Y-61063502D01*
X79755114Y-61117158D01*
X79766500Y-61169500D01*
X79766500Y-61292979D01*
X79746498Y-61361100D01*
X79729595Y-61382074D01*
X79470178Y-61641491D01*
X79463913Y-61647344D01*
X79423302Y-61682771D01*
X79392387Y-61726759D01*
X79389023Y-61731546D01*
X79385090Y-61736841D01*
X79348298Y-61783764D01*
X79345174Y-61790683D01*
X79341573Y-61796629D01*
X79338632Y-61801786D01*
X79335330Y-61807944D01*
X79330961Y-61814160D01*
X79328202Y-61821236D01*
X79328201Y-61821238D01*
X79309308Y-61869696D01*
X79306752Y-61875777D01*
X79282211Y-61930129D01*
X79280827Y-61937595D01*
X79278753Y-61944214D01*
X79277115Y-61949963D01*
X79275385Y-61956704D01*
X79272625Y-61963782D01*
X79271633Y-61971318D01*
X79264844Y-62022888D01*
X79263812Y-62029405D01*
X79252946Y-62088033D01*
X79253383Y-62095613D01*
X79253383Y-62095614D01*
X79256291Y-62146047D01*
X79256500Y-62153300D01*
X79256500Y-64652980D01*
X79236498Y-64721101D01*
X79219595Y-64742075D01*
X73378595Y-70583074D01*
X73316283Y-70617100D01*
X73245468Y-70612035D01*
X73188632Y-70569488D01*
X73163821Y-70502968D01*
X73163500Y-70493979D01*
X73163500Y-63187966D01*
X75968257Y-63187966D01*
X75998565Y-63322446D01*
X76001645Y-63332275D01*
X76081770Y-63529603D01*
X76086413Y-63538794D01*
X76197694Y-63720388D01*
X76203777Y-63728699D01*
X76343213Y-63889667D01*
X76350580Y-63896883D01*
X76514434Y-64032916D01*
X76522881Y-64038831D01*
X76706756Y-64146279D01*
X76716042Y-64150729D01*
X76915001Y-64226703D01*
X76924899Y-64229579D01*
X77028250Y-64250606D01*
X77042299Y-64249410D01*
X77046000Y-64239065D01*
X77046000Y-64238517D01*
X77554000Y-64238517D01*
X77558064Y-64252359D01*
X77571478Y-64254393D01*
X77578184Y-64253534D01*
X77588262Y-64251392D01*
X77792255Y-64190191D01*
X77801842Y-64186433D01*
X77993095Y-64092739D01*
X78001945Y-64087464D01*
X78175328Y-63963792D01*
X78183200Y-63957139D01*
X78334052Y-63806812D01*
X78340730Y-63798965D01*
X78465003Y-63626020D01*
X78470313Y-63617183D01*
X78564670Y-63426267D01*
X78568469Y-63416672D01*
X78630377Y-63212910D01*
X78632555Y-63202837D01*
X78633986Y-63191962D01*
X78631775Y-63177778D01*
X78618617Y-63174000D01*
X77572115Y-63174000D01*
X77556876Y-63178475D01*
X77555671Y-63179865D01*
X77554000Y-63187548D01*
X77554000Y-64238517D01*
X77046000Y-64238517D01*
X77046000Y-63192115D01*
X77041525Y-63176876D01*
X77040135Y-63175671D01*
X77032452Y-63174000D01*
X75983225Y-63174000D01*
X75969694Y-63177973D01*
X75968257Y-63187966D01*
X73163500Y-63187966D01*
X73163500Y-60427020D01*
X73183502Y-60358899D01*
X73200405Y-60337925D01*
X75727332Y-57810999D01*
X75789644Y-57776973D01*
X75860460Y-57782038D01*
G37*
%TD.AperFunction*%
%TD*%
M02*
