%TF.GenerationSoftware,KiCad,Pcbnew,(6.0.9-0)*%
%TF.CreationDate,2023-03-02T18:42:41+01:00*%
%TF.ProjectId,untitled,756e7469-746c-4656-942e-6b696361645f,rev?*%
%TF.SameCoordinates,Original*%
%TF.FileFunction,Legend,Top*%
%TF.FilePolarity,Positive*%
%FSLAX46Y46*%
G04 Gerber Fmt 4.6, Leading zero omitted, Abs format (unit mm)*
G04 Created by KiCad (PCBNEW (6.0.9-0)) date 2023-03-02 18:42:41*
%MOMM*%
%LPD*%
G01*
G04 APERTURE LIST*
%ADD10C,0.200000*%
%ADD11C,0.240000*%
%ADD12C,0.400000*%
%ADD13C,0.600000*%
%ADD14C,1.000000*%
%ADD15C,0.120000*%
G04 APERTURE END LIST*
D10*
X125481460Y-86563200D02*
X125555120Y-86415880D01*
D11*
X87794280Y-94378220D02*
X87794280Y-95714260D01*
X92803940Y-94378220D02*
X92803940Y-95714260D01*
D12*
X48089710Y-61713470D02*
X48089710Y-61276590D01*
D10*
X125555120Y-84846160D02*
X125481460Y-84701380D01*
D12*
X48089710Y-100374810D02*
X45798630Y-100374810D01*
X46344730Y-68891510D02*
X46126290Y-68782290D01*
D10*
X124973460Y-78183740D02*
X124973460Y-78328520D01*
D11*
X89104920Y-94378220D02*
X89932960Y-94378220D01*
D12*
X48089710Y-98891450D02*
X45798630Y-98891450D01*
D10*
X125773560Y-74388980D02*
X126500000Y-74388980D01*
D11*
X85935000Y-95650760D02*
X85744500Y-95714260D01*
D10*
X125555120Y-87215980D02*
X125773560Y-87144860D01*
D12*
X48089710Y-71858230D02*
X48089710Y-72841210D01*
X47215950Y-73275550D02*
X47106730Y-73166330D01*
X80365410Y-90969590D02*
X80146970Y-91078810D01*
D13*
X85345899Y-86288599D02*
G75*
G03*
X85911590Y-84922910I-1365699J1365699D01*
G01*
D11*
X81571860Y-94441720D02*
X81444860Y-94568720D01*
D12*
X47215950Y-60948930D02*
X47106730Y-61167370D01*
X48089710Y-91385750D02*
X45798630Y-91385750D01*
D11*
X92803940Y-95714260D02*
X93629440Y-95714260D01*
X81952860Y-94378220D02*
X81698860Y-94378220D01*
X90550160Y-94378220D02*
X90039620Y-95714260D01*
D12*
X48089710Y-69719550D02*
X45798630Y-69719550D01*
X48089710Y-87895790D02*
X45798630Y-88439350D01*
D11*
X85300000Y-95650760D02*
X85173000Y-95523760D01*
D10*
X126500000Y-88859360D02*
X126426340Y-88643460D01*
X125773560Y-77266800D02*
X125555120Y-77050900D01*
D12*
X89748170Y-92386910D02*
X89857390Y-92714570D01*
X48089710Y-78032970D02*
X48089710Y-79450290D01*
D11*
X91683800Y-94441720D02*
X91554260Y-94568720D01*
D10*
X125699900Y-79319120D02*
X125918340Y-79245460D01*
D11*
X88622320Y-94505220D02*
X88685820Y-94632220D01*
X92191800Y-94441720D02*
X92064800Y-94378220D01*
D12*
X80365410Y-93260670D02*
X80802290Y-93260670D01*
D10*
X125481460Y-76685140D02*
X125555120Y-76540360D01*
D12*
X46344730Y-64614150D02*
X46669850Y-64723370D01*
X48089710Y-69719550D02*
X48089710Y-71139410D01*
X81020730Y-91078810D02*
X80802290Y-90969590D01*
X47980490Y-84774130D02*
X47762050Y-84555690D01*
X45907850Y-62041130D02*
X45798630Y-61713470D01*
D10*
X125773560Y-73588880D02*
X126500000Y-73588880D01*
D12*
X48089710Y-96534330D02*
X45798630Y-95663110D01*
X47215950Y-62978390D02*
X46669850Y-62978390D01*
X79712630Y-91843350D02*
X79712630Y-92386910D01*
X46669850Y-64723370D02*
X47215950Y-64723370D01*
D10*
X124973460Y-89006680D02*
X125044580Y-89225120D01*
D11*
X89104920Y-95015760D02*
X89615460Y-95015760D01*
D10*
X125481460Y-79682340D02*
X125555120Y-79463900D01*
D11*
X85490500Y-95714260D02*
X85300000Y-95650760D01*
D10*
X125626240Y-89443560D02*
X125844680Y-89443560D01*
X125555120Y-84338160D02*
X125773560Y-84264500D01*
D12*
X92214510Y-90969590D02*
X92214510Y-93260670D01*
X48089710Y-75785070D02*
X48089710Y-76768050D01*
D10*
X125844680Y-78765400D02*
X126207900Y-78694280D01*
X125481460Y-77266800D02*
X126500000Y-77266800D01*
D12*
X45798630Y-85429450D02*
X45907850Y-85647890D01*
D13*
X82711540Y-87391540D02*
X90711550Y-87391540D01*
D12*
X47215950Y-64723370D02*
X47543610Y-64614150D01*
X82394870Y-92496130D02*
X83487070Y-92496130D01*
D10*
X125481460Y-86781640D02*
X125481460Y-86563200D01*
D12*
X46126290Y-68782290D02*
X45907850Y-68563850D01*
D10*
X125481460Y-82664300D02*
X126500000Y-81864200D01*
X125626240Y-78765400D02*
X125844680Y-78765400D01*
D11*
X92064800Y-94378220D02*
X91810800Y-94378220D01*
D12*
X48089710Y-67471650D02*
X45798630Y-67471650D01*
X46669850Y-86084770D02*
X47215950Y-86084770D01*
X48089710Y-91385750D02*
X48089710Y-92366190D01*
X47980490Y-85647890D02*
X48089710Y-85429450D01*
D11*
X85173000Y-94698260D02*
X85236500Y-94825260D01*
D14*
X119911610Y-58591500D02*
X53311590Y-58591500D01*
D12*
X46997510Y-69719550D02*
X46997510Y-70593310D01*
D10*
X125773560Y-87944960D02*
X125555120Y-87726520D01*
D12*
X46344730Y-63087610D02*
X46126290Y-63196830D01*
X45798630Y-93633650D02*
X45798630Y-94941750D01*
D10*
X125555120Y-85135720D02*
X125773560Y-85064600D01*
D11*
X81317860Y-95206260D02*
X81381360Y-95396760D01*
D12*
X46888290Y-92366190D02*
X46888290Y-91385750D01*
X93741050Y-90969590D02*
X93741050Y-93260670D01*
D13*
X84545879Y-81957260D02*
G75*
G03*
X85111540Y-83322940I1931321J-40D01*
G01*
D11*
X88685820Y-94761760D02*
X88622320Y-94888760D01*
D10*
X125263020Y-88496140D02*
X125044580Y-88643460D01*
D12*
X79928530Y-92933010D02*
X80146970Y-93151450D01*
D11*
X85744500Y-94378220D02*
X85490500Y-94378220D01*
D12*
X46997510Y-72841210D02*
X46997510Y-71858230D01*
D11*
X86483640Y-95333260D02*
X86547140Y-95523760D01*
D12*
X46997510Y-80171650D02*
X46997510Y-81042870D01*
D10*
X125555120Y-77050900D02*
X125481460Y-76903580D01*
D12*
X47762050Y-68782290D02*
X47543610Y-68891510D01*
X48089710Y-87895790D02*
X45798630Y-87349690D01*
D11*
X86547140Y-95523760D02*
X86674140Y-95650760D01*
D12*
X47871270Y-77204930D02*
X47652830Y-77314150D01*
D10*
X125773560Y-84264500D02*
X126500000Y-84264500D01*
X125844680Y-89443560D02*
X126207900Y-89369900D01*
D12*
X91056270Y-91078810D02*
X90837830Y-90969590D01*
D11*
X81317860Y-94888760D02*
X81317860Y-95206260D01*
D12*
X79712630Y-92386910D02*
X79821850Y-92714570D01*
D10*
X125481460Y-81864200D02*
X126500000Y-82664300D01*
D12*
X87543450Y-90969590D02*
X87543450Y-93260670D01*
X47762050Y-85866330D02*
X47980490Y-85647890D01*
D10*
X126063120Y-79245460D02*
X126281560Y-79319120D01*
X126500000Y-78183740D02*
X126426340Y-77965300D01*
D11*
X87311680Y-95523760D02*
X87375180Y-95333260D01*
D12*
X47980490Y-77095710D02*
X47871270Y-77204930D01*
D10*
X125044580Y-89225120D02*
X125263020Y-89369900D01*
D11*
X82755500Y-94378220D02*
X83647040Y-94378220D01*
D12*
X91493150Y-92386910D02*
X91493150Y-91843350D01*
D10*
X125555120Y-80119220D02*
X125481460Y-79900780D01*
D14*
X51511550Y-106591550D02*
G75*
G03*
X53311570Y-108391550I1800050J50D01*
G01*
D12*
X48089710Y-96534330D02*
X45798630Y-97408090D01*
X81239170Y-92933010D02*
X81348390Y-92714570D01*
X48089710Y-71858230D02*
X45798630Y-71858230D01*
D10*
X126426340Y-79463900D02*
X126500000Y-79682340D01*
D12*
X90403490Y-93260670D02*
X90837830Y-93260670D01*
D13*
X86945932Y-86357182D02*
G75*
G03*
X87511630Y-84991520I-1365632J1365682D01*
G01*
D11*
X85236500Y-94825260D02*
X85300000Y-94888760D01*
X91490760Y-94698260D02*
X91427260Y-94888760D01*
D10*
X125773560Y-74388980D02*
X125555120Y-74170540D01*
X125773560Y-87144860D02*
X126500000Y-87144860D01*
D11*
X85427000Y-94952260D02*
X85808000Y-95079260D01*
X81381360Y-95396760D02*
X81444860Y-95523760D01*
X81698860Y-94378220D02*
X81571860Y-94441720D01*
X92064800Y-95714260D02*
X92191800Y-95650760D01*
X83200000Y-94378220D02*
X83200000Y-95714260D01*
D12*
X47980490Y-62041130D02*
X48089710Y-61713470D01*
X91274710Y-92933010D02*
X91383930Y-92714570D01*
D10*
X125555120Y-74460100D02*
X125773560Y-74388980D01*
D12*
X46669850Y-62978390D02*
X46344730Y-63087610D01*
D11*
X89104920Y-94378220D02*
X89104920Y-95714260D01*
D14*
X121711580Y-106591560D02*
X121711580Y-60391520D01*
D11*
X85935000Y-94441720D02*
X85744500Y-94378220D01*
D10*
X125481460Y-87581740D02*
X125481460Y-87363300D01*
D11*
X82336400Y-94888760D02*
X82270360Y-94698260D01*
D12*
X89857390Y-92714570D02*
X89966610Y-92933010D01*
D14*
X121711580Y-60391520D02*
G75*
G03*
X119911620Y-58591520I-1799980J20D01*
G01*
D11*
X82206860Y-95523760D02*
X82270360Y-95396760D01*
D12*
X46997510Y-100374810D02*
X46997510Y-101248570D01*
X48089710Y-65444730D02*
X45798630Y-65444730D01*
D11*
X85935000Y-95142760D02*
X85998500Y-95206260D01*
X90230120Y-95269760D02*
X90867660Y-95269760D01*
D13*
X85111559Y-80591599D02*
G75*
G03*
X84545850Y-81957260I1365641J-1365701D01*
G01*
D11*
X91683800Y-95650760D02*
X91810800Y-95714260D01*
D12*
X48089710Y-80171650D02*
X48089710Y-81588970D01*
X45798630Y-63633710D02*
X45798630Y-64068050D01*
X45798630Y-65444730D02*
X45798630Y-66752830D01*
X86060090Y-92605350D02*
X86060090Y-90969590D01*
X48089710Y-85429450D02*
X48089710Y-84992570D01*
D10*
X125481460Y-74023220D02*
X125481460Y-73807320D01*
X125481460Y-85283040D02*
X125555120Y-85135720D01*
D12*
X47871270Y-73275550D02*
X47652830Y-73384770D01*
X85407310Y-93260670D02*
X85732430Y-93151450D01*
D11*
X86483640Y-94378220D02*
X86483640Y-95333260D01*
D10*
X125263020Y-77820520D02*
X125044580Y-77965300D01*
X125555120Y-85646260D02*
X125481460Y-85501480D01*
X125626240Y-88425020D02*
X125263020Y-88496140D01*
D12*
X48089710Y-76768050D02*
X47980490Y-77095710D01*
D10*
X124973460Y-80119220D02*
X125626240Y-80190340D01*
D12*
X47106730Y-77095710D02*
X46997510Y-76768050D01*
X46669850Y-62150350D02*
X46453950Y-62259570D01*
D10*
X125481460Y-87944960D02*
X126500000Y-87944960D01*
D12*
X91383930Y-91515690D02*
X91274710Y-91297250D01*
D11*
X88558820Y-94441720D02*
X88622320Y-94505220D01*
D12*
X47543610Y-68891510D02*
X47215950Y-69000730D01*
X47980490Y-73166330D02*
X47871270Y-73275550D01*
X45798630Y-78032970D02*
X45798630Y-79450290D01*
X79821850Y-92714570D02*
X79928530Y-92933010D01*
D10*
X125481460Y-76103480D02*
X125481460Y-75885040D01*
D11*
X88365780Y-94378220D02*
X88558820Y-94441720D01*
X92318800Y-95523760D02*
X92382300Y-95396760D01*
X87794280Y-94378220D02*
X88365780Y-94378220D01*
D12*
X90403490Y-90969590D02*
X90185050Y-91078810D01*
D11*
X86674140Y-95650760D02*
X86864640Y-95714260D01*
D10*
X125481460Y-84482940D02*
X125555120Y-84338160D01*
D12*
X46126290Y-63196830D02*
X45907850Y-63415270D01*
X48089710Y-67471650D02*
X48089710Y-68236190D01*
D10*
X125481460Y-75189080D02*
X126500000Y-75189080D01*
D12*
X84533550Y-92605350D02*
X84642770Y-92933010D01*
X45907850Y-64286490D02*
X46126290Y-64504930D01*
X47543610Y-85975550D02*
X47762050Y-85866330D01*
D10*
X125555120Y-74970640D02*
X125481460Y-74823320D01*
D11*
X88622320Y-94888760D02*
X88558820Y-94952260D01*
D12*
X89748170Y-91843350D02*
X89748170Y-92386910D01*
X47543610Y-60730490D02*
X47325170Y-60839710D01*
D11*
X86064540Y-94568720D02*
X85935000Y-94441720D01*
D12*
X89857390Y-91515690D02*
X89748170Y-91843350D01*
X91274710Y-91297250D02*
X91056270Y-91078810D01*
D11*
X86064540Y-95523760D02*
X85935000Y-95650760D01*
D10*
X125481460Y-74604880D02*
X125555120Y-74460100D01*
X124973460Y-79392780D02*
X124973460Y-80119220D01*
D12*
X46126290Y-62259570D02*
X45907850Y-62041130D01*
X90837830Y-93260670D02*
X91056270Y-93151450D01*
D11*
X81444860Y-95523760D02*
X81571860Y-95650760D01*
D12*
X45907850Y-60948930D02*
X46126290Y-60730490D01*
X84533550Y-90969590D02*
X84533550Y-92605350D01*
D11*
X86064540Y-95333260D02*
X86064540Y-95523760D01*
D12*
X45798630Y-84992570D02*
X45798630Y-85429450D01*
D10*
X124973460Y-90939620D02*
X124973460Y-89923620D01*
D12*
X48089710Y-100374810D02*
X48089710Y-101792130D01*
D10*
X125555120Y-87726520D02*
X125481460Y-87581740D01*
D12*
X47980490Y-64286490D02*
X48089710Y-64068050D01*
D10*
X125555120Y-79463900D02*
X125699900Y-79319120D01*
D12*
X47980490Y-60948930D02*
X47762050Y-60730490D01*
D13*
X87511628Y-84991520D02*
G75*
G03*
X86945950Y-83625840I-1931328J20D01*
G01*
D10*
X126281560Y-79319120D02*
X126426340Y-79463900D01*
D11*
X81952860Y-95714260D02*
X82079860Y-95650760D01*
D12*
X45907850Y-85647890D02*
X46126290Y-85866330D01*
D10*
X125481460Y-87363300D02*
X125555120Y-87215980D01*
D12*
X46997510Y-76768050D02*
X46997510Y-75785070D01*
X48089710Y-78032970D02*
X45798630Y-78032970D01*
D10*
X126426340Y-88643460D02*
X126207900Y-88496140D01*
D12*
X47434390Y-77314150D02*
X47215950Y-77204930D01*
D13*
X85911570Y-84922910D02*
G75*
G03*
X85345900Y-83557230I-1931370J10D01*
G01*
D12*
X47762050Y-84555690D02*
X47543610Y-84446470D01*
X81239170Y-91297250D02*
X81020730Y-91078810D01*
D13*
X87745872Y-81957260D02*
G75*
G03*
X88311530Y-83322940I1931328J-40D01*
G01*
D12*
X47215950Y-84337250D02*
X46669850Y-84337250D01*
X80146970Y-91078810D02*
X79928530Y-91297250D01*
D10*
X125773560Y-76466700D02*
X126500000Y-76466700D01*
D11*
X88238780Y-95015760D02*
X88685820Y-95714260D01*
D12*
X45798630Y-69719550D02*
X45798630Y-71139410D01*
D10*
X124973460Y-88859360D02*
X124973460Y-89006680D01*
D12*
X48089710Y-64068050D02*
X48089710Y-63633710D01*
D11*
X91810800Y-94378220D02*
X91683800Y-94441720D01*
D10*
X125555120Y-73660000D02*
X125773560Y-73588880D01*
D13*
X88311450Y-83322950D02*
X88545840Y-83557240D01*
D12*
X47106730Y-73166330D02*
X46997510Y-72841210D01*
X45798630Y-100374810D02*
X45798630Y-101792130D01*
X47762050Y-60730490D02*
X47543610Y-60730490D01*
X48089710Y-93633650D02*
X45798630Y-93633650D01*
D10*
X126500000Y-78328520D02*
X126500000Y-78183740D01*
X125626240Y-80190340D02*
X125555120Y-80119220D01*
X125044580Y-77965300D02*
X124973460Y-78183740D01*
D12*
X47215950Y-86084770D02*
X47543610Y-85975550D01*
D11*
X91554260Y-94568720D02*
X91490760Y-94698260D01*
D12*
X47215950Y-69000730D02*
X46669850Y-69000730D01*
D10*
X125773560Y-85064600D02*
X126500000Y-85064600D01*
X125918340Y-79245460D02*
X126063120Y-79245460D01*
D11*
X80007220Y-94378220D02*
X80007220Y-95714260D01*
D14*
X53311570Y-58591480D02*
G75*
G03*
X51511580Y-60391520I30J-1800020D01*
G01*
D10*
X125773560Y-75669140D02*
X126500000Y-75669140D01*
X124973460Y-89923620D02*
X126500000Y-90650060D01*
D12*
X46344730Y-85975550D02*
X46669850Y-86084770D01*
D13*
X85111510Y-83322950D02*
X85345920Y-83557240D01*
D10*
X126500000Y-89006680D02*
X126500000Y-88859360D01*
D12*
X48089710Y-98126910D02*
X48089710Y-99653450D01*
D11*
X80896220Y-94378220D02*
X80896220Y-95714260D01*
D13*
X89111570Y-84922910D02*
G75*
G03*
X88545900Y-83557230I-1931370J10D01*
G01*
D12*
X82940970Y-90969590D02*
X83812190Y-93260670D01*
X47106730Y-61167370D02*
X46888290Y-61822690D01*
D11*
X82079860Y-94441720D02*
X81952860Y-94378220D01*
X85808000Y-95079260D02*
X85935000Y-95142760D01*
D13*
X86711530Y-75391590D02*
X94711540Y-89391540D01*
D10*
X126426340Y-89225120D02*
X126500000Y-89006680D01*
D12*
X84642770Y-92933010D02*
X84861210Y-93151450D01*
X47215950Y-77204930D02*
X47106730Y-77095710D01*
D11*
X88365780Y-95015760D02*
X87794280Y-95015760D01*
D12*
X48089710Y-72841210D02*
X47980490Y-73166330D01*
D11*
X81571860Y-95650760D02*
X81698860Y-95714260D01*
D10*
X125773560Y-86344760D02*
X126500000Y-86344760D01*
D12*
X45798630Y-82310330D02*
X45798630Y-83618430D01*
D11*
X91490760Y-95396760D02*
X91554260Y-95523760D01*
D12*
X47762050Y-64504930D02*
X47980490Y-64286490D01*
X82940970Y-90969590D02*
X82067210Y-93260670D01*
D11*
X87182140Y-95650760D02*
X87311680Y-95523760D01*
D10*
X125773560Y-85864700D02*
X125555120Y-85646260D01*
X125555120Y-75740260D02*
X125773560Y-75669140D01*
D11*
X91554260Y-95523760D02*
X91683800Y-95650760D01*
D12*
X80146970Y-93151450D02*
X80365410Y-93260670D01*
D11*
X82270360Y-94698260D02*
X82206860Y-94568720D01*
D13*
X88311554Y-80591604D02*
G75*
G03*
X87745850Y-81957260I1365646J-1365696D01*
G01*
D12*
X47434390Y-73384770D02*
X47215950Y-73275550D01*
D10*
X125844680Y-77746860D02*
X125626240Y-77746860D01*
D12*
X47762050Y-63196830D02*
X47543610Y-63087610D01*
D10*
X125481460Y-76903580D02*
X125481460Y-76685140D01*
D11*
X81381360Y-94698260D02*
X81317860Y-94888760D01*
D10*
X125481460Y-79900780D02*
X125481460Y-79682340D01*
D12*
X47762050Y-62259570D02*
X47980490Y-62041130D01*
X46126290Y-84555690D02*
X45907850Y-84774130D01*
X80802290Y-93260670D02*
X81020730Y-93151450D01*
X81020730Y-93151450D02*
X81239170Y-92933010D01*
X46997510Y-76549610D02*
X45798630Y-77314150D01*
X45907850Y-84774130D02*
X45798630Y-84992570D01*
D11*
X85300000Y-94441720D02*
X85173000Y-94568720D01*
X92191800Y-95650760D02*
X92318800Y-95523760D01*
D12*
X45907850Y-68563850D02*
X45798630Y-68236190D01*
D13*
X88545892Y-86288592D02*
G75*
G03*
X89111580Y-84922910I-1365692J1365692D01*
G01*
D12*
X47325170Y-60839710D02*
X47215950Y-60948930D01*
D10*
X124973460Y-78328520D02*
X125044580Y-78546960D01*
D12*
X85950870Y-92933010D02*
X86060090Y-92605350D01*
D11*
X85744500Y-95714260D02*
X85490500Y-95714260D01*
D12*
X48089710Y-88985450D02*
X45798630Y-88439350D01*
X81348390Y-91515690D02*
X81239170Y-91297250D01*
X46888290Y-61822690D02*
X46779070Y-62041130D01*
D11*
X88558820Y-94952260D02*
X88365780Y-95015760D01*
D12*
X48089710Y-68236190D02*
X47980490Y-68563850D01*
D10*
X125044580Y-88643460D02*
X124973460Y-88859360D01*
D13*
X86711530Y-83391600D02*
X86945940Y-83625820D01*
D11*
X81698860Y-95714260D02*
X81952860Y-95714260D01*
D12*
X79928530Y-91297250D02*
X79821850Y-91515690D01*
D11*
X92318800Y-94568720D02*
X92191800Y-94441720D01*
X82079860Y-95650760D02*
X82206860Y-95523760D01*
D12*
X46453950Y-62259570D02*
X46126290Y-62259570D01*
D10*
X125481460Y-85501480D02*
X125481460Y-85283040D01*
X125481460Y-75885040D02*
X125555120Y-75740260D01*
X126500000Y-79900780D02*
X126426340Y-80119220D01*
D12*
X86781450Y-90969590D02*
X88307990Y-90969590D01*
X45798630Y-64068050D02*
X45907850Y-64286490D01*
D10*
X125773560Y-85064600D02*
X125555120Y-84846160D01*
D12*
X46997510Y-92693850D02*
X46888290Y-92366190D01*
D10*
X126207900Y-89369900D02*
X126426340Y-89225120D01*
D13*
X86145930Y-82025870D02*
G75*
G03*
X86711580Y-83391550I1931370J-30D01*
G01*
D12*
X47106730Y-92803070D02*
X46997510Y-92693850D01*
D10*
X125844680Y-88425020D02*
X125626240Y-88425020D01*
X125481460Y-85864700D02*
X126500000Y-85864700D01*
D12*
X90185050Y-93151450D02*
X90403490Y-93260670D01*
D10*
X125263020Y-89369900D02*
X125626240Y-89443560D01*
D12*
X48089710Y-82310330D02*
X45798630Y-82310330D01*
D10*
X125481460Y-84701380D02*
X125481460Y-84482940D01*
D11*
X85998500Y-95206260D02*
X86064540Y-95333260D01*
D12*
X84861210Y-93151450D02*
X85188870Y-93260670D01*
D11*
X87375180Y-95333260D02*
X87375180Y-94378220D01*
D10*
X126426340Y-78546960D02*
X126500000Y-78328520D01*
D11*
X85173000Y-94568720D02*
X85173000Y-94698260D01*
D13*
X78711520Y-89391540D02*
X86711530Y-75391590D01*
D10*
X125555120Y-76250800D02*
X125481460Y-76103480D01*
D11*
X82270360Y-95396760D02*
X82336400Y-95206260D01*
D10*
X125044580Y-78546960D02*
X125263020Y-78694280D01*
D14*
X53311590Y-108391500D02*
X119911610Y-108391500D01*
D10*
X125481460Y-73807320D02*
X125555120Y-73660000D01*
D12*
X48089710Y-80171650D02*
X45798630Y-80171650D01*
D11*
X91810800Y-95714260D02*
X92064800Y-95714260D01*
D12*
X47543610Y-64614150D02*
X47762050Y-64504930D01*
D11*
X88685820Y-94632220D02*
X88685820Y-94761760D01*
D12*
X46997510Y-78032970D02*
X46997510Y-78906730D01*
D10*
X125263020Y-78694280D02*
X125626240Y-78765400D01*
X126207900Y-77820520D02*
X125844680Y-77746860D01*
D12*
X47652830Y-92912290D02*
X47325170Y-92912290D01*
D13*
X78711520Y-89391540D02*
X94711540Y-89391540D01*
D12*
X47652830Y-73384770D02*
X47434390Y-73384770D01*
X48089710Y-61276590D02*
X47980490Y-60948930D01*
X46563170Y-95988230D02*
X46563170Y-97080430D01*
X45907850Y-63415270D02*
X45798630Y-63633710D01*
D10*
X125773560Y-87144860D02*
X125555120Y-86926420D01*
D12*
X90837830Y-90969590D02*
X90403490Y-90969590D01*
X47980490Y-63415270D02*
X47762050Y-63196830D01*
D11*
X91427260Y-95206260D02*
X91490760Y-95396760D01*
D12*
X47980490Y-68563850D02*
X47762050Y-68782290D01*
X47980490Y-92693850D02*
X47871270Y-92803070D01*
X46997510Y-72622770D02*
X45798630Y-73384770D01*
X48089710Y-92366190D02*
X47980490Y-92693850D01*
D11*
X92803940Y-94378220D02*
X93629440Y-94378220D01*
X92803940Y-95015760D02*
X93311940Y-95015760D01*
D10*
X125626240Y-77746860D02*
X125263020Y-77820520D01*
X125773560Y-75189080D02*
X125555120Y-74970640D01*
X126207900Y-88496140D02*
X125844680Y-88425020D01*
X126207900Y-78694280D02*
X126426340Y-78546960D01*
D12*
X47871270Y-92803070D02*
X47652830Y-92912290D01*
X46126290Y-85866330D02*
X46344730Y-85975550D01*
D10*
X126355220Y-80190340D02*
X126207900Y-80264000D01*
D12*
X92214510Y-90969590D02*
X93741050Y-93260670D01*
X46344730Y-84446470D02*
X46126290Y-84555690D01*
X85732430Y-93151450D02*
X85950870Y-92933010D01*
D11*
X86864640Y-95714260D02*
X86991640Y-95714260D01*
D12*
X45798630Y-61713470D02*
X45798630Y-61276590D01*
D11*
X81444860Y-94568720D02*
X81381360Y-94698260D01*
D12*
X80802290Y-90969590D02*
X80365410Y-90969590D01*
D13*
X86711594Y-80660194D02*
G75*
G03*
X86145900Y-82025870I1365706J-1365706D01*
G01*
D11*
X90550160Y-94378220D02*
X91058160Y-95714260D01*
D10*
X125481460Y-74823320D02*
X125481460Y-74604880D01*
X125773560Y-76466700D02*
X125555120Y-76250800D01*
X126500000Y-79682340D02*
X126500000Y-79900780D01*
D12*
X89966610Y-91297250D02*
X89857390Y-91515690D01*
D11*
X86991640Y-95714260D02*
X87182140Y-95650760D01*
D12*
X46669850Y-84337250D02*
X46344730Y-84446470D01*
D10*
X126426340Y-77965300D02*
X126207900Y-77820520D01*
D11*
X85300000Y-94888760D02*
X85427000Y-94952260D01*
D12*
X48089710Y-84992570D02*
X47980490Y-84774130D01*
X46126290Y-64504930D02*
X46344730Y-64614150D01*
X46669850Y-69000730D02*
X46344730Y-68891510D01*
X45798630Y-61276590D02*
X45907850Y-60948930D01*
X91056270Y-93151450D02*
X91274710Y-92933010D01*
X47543610Y-84446470D02*
X47215950Y-84337250D01*
X48089710Y-63633710D02*
X47980490Y-63415270D01*
D14*
X119911620Y-108391520D02*
G75*
G03*
X121711620Y-106591550I-20J1800020D01*
G01*
D12*
X90185050Y-91078810D02*
X89966610Y-91297250D01*
D11*
X91427260Y-94888760D02*
X91427260Y-95206260D01*
D10*
X126426340Y-80119220D02*
X126355220Y-80190340D01*
D12*
X85188870Y-93260670D02*
X85407310Y-93260670D01*
X91493150Y-91843350D02*
X91383930Y-91515690D01*
D11*
X80007220Y-95015760D02*
X80896220Y-95015760D01*
D12*
X47325170Y-92912290D02*
X47106730Y-92803070D01*
D10*
X125555120Y-74170540D02*
X125481460Y-74023220D01*
D11*
X82206860Y-94568720D02*
X82079860Y-94441720D01*
D10*
X125555120Y-86415880D02*
X125773560Y-86344760D01*
D12*
X48089710Y-75785070D02*
X45798630Y-75785070D01*
D11*
X85490500Y-94378220D02*
X85300000Y-94441720D01*
D12*
X91383930Y-92714570D02*
X91493150Y-92386910D01*
X89026810Y-90969590D02*
X89026810Y-93260670D01*
X47543610Y-63087610D02*
X47215950Y-62978390D01*
D10*
X125555120Y-86926420D02*
X125481460Y-86781640D01*
D12*
X79821850Y-91515690D02*
X79712630Y-91843350D01*
X46779070Y-62041130D02*
X46669850Y-62150350D01*
X45798630Y-68236190D02*
X45798630Y-67471650D01*
X47652830Y-77314150D02*
X47434390Y-77314150D01*
X89966610Y-92933010D02*
X90185050Y-93151450D01*
D11*
X92382300Y-94698260D02*
X92318800Y-94568720D01*
X82336400Y-95206260D02*
X82336400Y-94888760D01*
D14*
X51511570Y-106591560D02*
X51511570Y-60391520D01*
D12*
X48089710Y-86803590D02*
X45798630Y-87349690D01*
D10*
X125555120Y-76540360D02*
X125773560Y-76466700D01*
D15*
%TO.C,REF\u002A\u002A*%
X69800000Y-54700000D02*
X69800000Y-50300000D01*
X74200000Y-50300000D02*
X74200000Y-54700000D01*
X74200000Y-54700000D02*
X69800000Y-54700000D01*
X69800000Y-50300000D02*
X74200000Y-50300000D01*
X67700000Y-50300000D02*
X67700000Y-54700000D01*
X63300000Y-54700000D02*
X63300000Y-50300000D01*
X67700000Y-54700000D02*
X63300000Y-54700000D01*
X63300000Y-50300000D02*
X67700000Y-50300000D01*
%TD*%
M02*
