%TF.GenerationSoftware,KiCad,Pcbnew,(6.0.9-0)*%
%TF.CreationDate,2023-03-02T18:42:41+01:00*%
%TF.ProjectId,untitled,756e7469-746c-4656-942e-6b696361645f,rev?*%
%TF.SameCoordinates,Original*%
%TF.FileFunction,Copper,L1,Top*%
%TF.FilePolarity,Positive*%
%FSLAX46Y46*%
G04 Gerber Fmt 4.6, Leading zero omitted, Abs format (unit mm)*
G04 Created by KiCad (PCBNEW (6.0.9-0)) date 2023-03-02 18:42:41*
%MOMM*%
%LPD*%
G01*
G04 APERTURE LIST*
%TA.AperFunction,SMDPad,CuDef*%
%ADD10R,4.000000X4.000000*%
%TD*%
%TA.AperFunction,Conductor*%
%ADD11C,1.400000*%
%TD*%
G04 APERTURE END LIST*
D10*
%TO.P,REF\u002A\u002A,1*%
%TO.N,N/C*%
X72000000Y-52500000D03*
%TD*%
%TO.P,REF\u002A\u002A,1*%
%TO.N,N/C*%
X65500000Y-52500000D03*
%TD*%
D11*
%TO.N,*%
X96511860Y-60391520D02*
X98311830Y-60391520D01*
X66500000Y-58590810D02*
X66500000Y-53990870D01*
X94711790Y-60391520D02*
X94711790Y-108391630D01*
X76711650Y-108391630D02*
X78511720Y-108391630D01*
X73111630Y-60391520D02*
X73111630Y-108391630D01*
X85711780Y-108391630D02*
X85711780Y-60391520D01*
X62311600Y-60391520D02*
X62311600Y-108391630D01*
X107311840Y-60391520D02*
X109111910Y-60391520D01*
X78511720Y-108391630D02*
X78511720Y-60391520D01*
X64111620Y-60391520D02*
X65911620Y-60391520D01*
X73111630Y-108391630D02*
X74911700Y-108391630D01*
X55111620Y-60391520D02*
X55111620Y-108391630D01*
X64111620Y-108391630D02*
X64111620Y-60391520D01*
X56911560Y-60391520D02*
X58711630Y-60391520D01*
X85711780Y-60391520D02*
X87511730Y-60391520D01*
X103711800Y-60391520D02*
X105511870Y-60391520D01*
X110911860Y-108391630D02*
X110911860Y-60391520D01*
X71312420Y-58592010D02*
X71312420Y-54190700D01*
X82111770Y-60391520D02*
X83911710Y-60391520D01*
X100111780Y-60391520D02*
X101911850Y-60391520D01*
X100111780Y-108391630D02*
X100111780Y-60391520D01*
X80311690Y-60391520D02*
X80311690Y-108391630D01*
X67711640Y-108391630D02*
X67711640Y-60391520D01*
X121711080Y-60390280D02*
X121711080Y-58592010D01*
X69511710Y-60391520D02*
X69511710Y-108391630D01*
X116311980Y-60391520D02*
X116311980Y-108391630D01*
X105511870Y-60391520D02*
X105511870Y-108391630D01*
X53311590Y-108391630D02*
X53311590Y-60391520D01*
X78511720Y-60391520D02*
X80311690Y-60391520D01*
X114511880Y-60391520D02*
X116311980Y-60391520D01*
X67711640Y-60391520D02*
X69511710Y-60391520D01*
X87511730Y-60391520D02*
X87511730Y-108391630D01*
X105511870Y-108391630D02*
X107311840Y-108391630D01*
X69511710Y-108391630D02*
X71311660Y-108391630D01*
X80311690Y-108391630D02*
X82111770Y-108391630D01*
X101911850Y-60391520D02*
X101911850Y-108391630D01*
X55111620Y-108391630D02*
X56911560Y-108391630D01*
X107311840Y-108391630D02*
X107311840Y-60391520D01*
X65911620Y-108391630D02*
X67711640Y-108391630D01*
X94711790Y-108391630D02*
X96511860Y-108391630D01*
X91111770Y-108391630D02*
X92911850Y-108391630D01*
X101911850Y-108391630D02*
X103711800Y-108391630D01*
X51511570Y-108391630D02*
X53311590Y-108391630D01*
X118111920Y-60391520D02*
X119911990Y-60391520D01*
X83911710Y-108391630D02*
X85711780Y-108391630D01*
X121711080Y-58592010D02*
X71312420Y-58592010D01*
X58711630Y-60391520D02*
X58711630Y-108391630D01*
X51512670Y-58590810D02*
X66500000Y-58590810D01*
X65911620Y-60391520D02*
X65911620Y-108391630D01*
X98311830Y-60391520D02*
X98311830Y-108391630D01*
X89311800Y-108391630D02*
X89311800Y-60391520D01*
X91111770Y-60391520D02*
X91111770Y-108391630D01*
X110911860Y-60391520D02*
X112711930Y-60391520D01*
X76711650Y-60391520D02*
X76711650Y-108391630D01*
X103711800Y-108391630D02*
X103711800Y-60391520D01*
X56911560Y-108391630D02*
X56911560Y-60391520D01*
X96511860Y-108391630D02*
X96511860Y-60391520D01*
X119911990Y-60391520D02*
X119911990Y-108391630D01*
X121711940Y-60391520D02*
X121711580Y-60391520D01*
X114511880Y-108391630D02*
X114511880Y-60391520D01*
X92911850Y-60391520D02*
X94711790Y-60391520D01*
X112711930Y-108391630D02*
X114511880Y-108391630D01*
X74911700Y-60391520D02*
X76711650Y-60391520D01*
X92911850Y-108391630D02*
X92911850Y-60391520D01*
X60511580Y-108391630D02*
X60511580Y-60391520D01*
X74911700Y-108391630D02*
X74911700Y-60391520D01*
X83911710Y-60391520D02*
X83911710Y-108391630D01*
X71311660Y-108391630D02*
X71311660Y-60391520D01*
X58711630Y-108391630D02*
X60511580Y-108391630D01*
X62311600Y-108391630D02*
X64111620Y-108391630D01*
X89311800Y-60391520D02*
X91111770Y-60391520D01*
X87511730Y-108391630D02*
X89311800Y-108391630D01*
X119911990Y-108391630D02*
X121711940Y-108391630D01*
X51512670Y-60391680D02*
X51512670Y-58590810D01*
X53311590Y-60391520D02*
X55111620Y-60391520D01*
X51511570Y-60391520D02*
X51511570Y-108391630D01*
X121711940Y-108391630D02*
X121711940Y-60391520D01*
X82111770Y-108391630D02*
X82111770Y-60391520D01*
X98311830Y-108391630D02*
X100111780Y-108391630D01*
X112711930Y-60391520D02*
X112711930Y-108391630D01*
X109111910Y-60391520D02*
X109111910Y-108391630D01*
X118111920Y-108391630D02*
X118111920Y-60391520D01*
X71311660Y-60391520D02*
X73111630Y-60391520D01*
X60511580Y-60391520D02*
X62311600Y-60391520D01*
X109111910Y-108391630D02*
X110911860Y-108391630D01*
X116311980Y-108391630D02*
X118111920Y-108391630D01*
%TD*%
M02*
